<svg width="28" height="28" viewBox="0 0 28 28" fill="none" xmlns="http://www.w3.org/2000/svg">
<path d="M20.2688 14.6182L20.2688 14.6181L20.2648 14.616C20.0666 14.5117 19.8955 14.3742 19.7158 14.206C19.5809 14.0709 19.4633 13.9386 19.3549 13.7849C20.1781 12.6632 20.6167 11.3119 20.6167 9.91634V9.91573V9.91511V9.91449V9.91388V9.91326V9.91265V9.91203V9.91141V9.91079V9.91018V9.90956V9.90894V9.90832V9.9077V9.90708V9.90646V9.90584V9.90522V9.9046V9.90398V9.90336V9.90274V9.90212V9.9015V9.90088V9.90026V9.89964V9.89901V9.89839V9.89777V9.89715V9.89652V9.8959V9.89528V9.89465V9.89403V9.8934V9.89278V9.89215V9.89153V9.8909V9.89028V9.88965V9.88903V9.8884V9.88777V9.88715V9.88652V9.88589V9.88527V9.88464V9.88401V9.88338V9.88276V9.88213V9.8815V9.88087V9.88024V9.87961V9.87898V9.87835V9.87773V9.8771V9.87646V9.87583V9.8752V9.87457V9.87394V9.87331V9.87268V9.87205V9.87142V9.87079V9.87015V9.86952V9.86889V9.86826V9.86762V9.86699V9.86636V9.86572V9.86509V9.86446V9.86382V9.86319V9.86255V9.86192V9.86129V9.86065V9.86002V9.85938V9.85875V9.85811V9.85747V9.85684V9.8562V9.85557V9.85493V9.85429V9.85366V9.85302V9.85238V9.85175V9.85111V9.85047V9.84983V9.8492V9.84856V9.84792V9.84728V9.84664V9.846V9.84537V9.84473V9.84409V9.84345V9.84281V9.84217V9.84153V9.84089V9.84025V9.83961V9.83897V9.83833V9.83769V9.83705V9.83641V9.83577V9.83513V9.83449V9.83385V9.8332V9.83256V9.83192V9.83128V9.83064V9.83V9.82935V9.82871V9.82807V9.82743V9.82678V9.82614V9.8255V9.82486V9.82421V9.82357V9.82293V9.82228V9.82164V9.821V9.82035V9.81971V9.81906V9.81842V9.81778V9.81713V9.81649V9.81584V9.8152V9.81455V9.81391V9.81326V9.81262V9.81197V9.81133V9.81068V9.81004V9.80939V9.80875V9.8081V9.80746V9.80681V9.80616V9.80552V9.80487V9.80423V9.80358V9.80293V9.80229V9.80164V9.80099V9.80035V9.7997V9.79905V9.79841V9.79776V9.79711V9.79647V9.79582V9.79517V9.79453V9.79388V9.79323V9.79258V9.79194V9.79129V9.79064V9.78999V9.78934V9.7887V9.78805V9.7874V9.78675V9.78611V9.78546V9.78481V9.78416V9.78351V9.78286V9.78222V9.78157V9.78092V9.78027V9.77962V9.77897V9.77833V9.77768V9.77703V9.77638V9.77573V9.77508V9.77443V9.77378V9.77313V9.77249V9.77184V9.77119V9.77054V9.76989V9.76924V9.76859V9.76794V9.76729V9.76664V9.766V9.76535V9.7647V9.76405V9.7634V9.76275V9.7621V9.76145V9.7608V9.76015V9.7595V9.75885V9.7582V9.75755V9.7569V9.75626V9.75561V9.75496V9.75431V9.75366V9.75301V9.75236V9.75171V9.75106V9.75041V9.74976V9.74911V9.74846V9.74781V9.74716V9.74651V9.74586V9.74522V9.74457V9.74392V9.74327V9.74262V9.74197V9.74132V9.74067V9.74002V9.73937V9.73872V9.73807V9.73742V9.73678V9.73613V9.73548V9.73483V9.73418V9.73353V9.73288V9.73223V9.73158V9.73094V9.73029V9.72964V9.72899V9.72834V9.72769V9.72704V9.72639V9.72575V9.7251V9.72445V9.7238V9.72315V9.7225V9.72186V9.72121V9.72056C20.9116 9.60063 21.2387 9.53301 21.5833 9.53301C22.3038 9.53301 22.9948 9.81923 23.5043 10.3287C24.0138 10.8382 24.3 11.5292 24.3 12.2497C24.3 13.2683 23.7259 14.1494 22.8971 14.6186C22.5042 14.8368 22.0592 14.9663 21.5833 14.9663C21.1071 14.9663 20.662 14.8366 20.2688 14.6182ZM18.935 20.033L19.0252 19.6545C17.8456 19.0587 15.8199 18.4663 14 18.4663C12.1801 18.4663 10.1544 19.0587 8.97484 19.6545L9.065 20.033H18.935ZM11.2541 7.17041C11.9823 6.44214 12.9701 6.03301 14 6.03301C15.0299 6.03301 16.0177 6.44214 16.7459 7.17041C17.4742 7.89868 17.8833 8.88642 17.8833 9.91634C17.8833 10.9463 17.4742 11.934 16.7459 12.6623C16.0177 13.3905 15.0299 13.7997 14 13.7997C12.9701 13.7997 11.9823 13.3905 11.2541 12.6623C10.5258 11.934 10.1167 10.9463 10.1167 9.91634C10.1167 8.88642 10.5258 7.89868 11.2541 7.17041ZM15.3789 8.53748C15.0132 8.17179 14.5172 7.96634 14 7.96634C13.4828 7.96634 12.9868 8.17179 12.6211 8.53748C12.2554 8.90318 12.05 9.39917 12.05 9.91634C12.05 10.4335 12.2554 10.9295 12.6211 11.2952C12.9868 11.6609 13.4828 11.8663 14 11.8663C14.5172 11.8663 15.0132 11.6609 15.3789 11.2952C15.7446 10.9295 15.95 10.4335 15.95 9.91634C15.95 9.39917 15.7446 8.90318 15.3789 8.53748ZM4.49569 10.3287C5.00517 9.81923 5.69616 9.53301 6.41667 9.53301C6.76128 9.53301 7.08843 9.60062 7.38333 9.72055V9.72056V9.72121V9.72186V9.7225V9.72315V9.7238V9.72445V9.7251V9.72575V9.72639V9.72704V9.72769V9.72834V9.72899V9.72964V9.73029V9.73094V9.73158V9.73223V9.73288V9.73353V9.73418V9.73483V9.73548V9.73613V9.73678V9.73742V9.73807V9.73872V9.73937V9.74002V9.74067V9.74132V9.74197V9.74262V9.74327V9.74392V9.74457V9.74522V9.74586V9.74651V9.74716V9.74781V9.74846V9.74911V9.74976V9.75041V9.75106V9.75171V9.75236V9.75301V9.75366V9.75431V9.75496V9.75561V9.75626V9.7569V9.75755V9.7582V9.75885V9.7595V9.76015V9.7608V9.76145V9.7621V9.76275V9.7634V9.76405V9.7647V9.76535V9.766V9.76664V9.76729V9.76794V9.76859V9.76924V9.76989V9.77054V9.77119V9.77184V9.77249V9.77313V9.77378V9.77443V9.77508V9.77573V9.77638V9.77703V9.77768V9.77833V9.77897V9.77962V9.78027V9.78092V9.78157V9.78222V9.78286V9.78351V9.78416V9.78481V9.78546V9.78611V9.78675V9.7874V9.78805V9.7887V9.78934V9.78999V9.79064V9.79129V9.79194V9.79258V9.79323V9.79388V9.79453V9.79517V9.79582V9.79647V9.79711V9.79776V9.79841V9.79905V9.7997V9.80035V9.80099V9.80164V9.80229V9.80293V9.80358V9.80423V9.80487V9.80552V9.80616V9.80681V9.80746V9.8081V9.80875V9.80939V9.81004V9.81068V9.81133V9.81197V9.81262V9.81326V9.81391V9.81455V9.8152V9.81584V9.81649V9.81713V9.81778V9.81842V9.81906V9.81971V9.82035V9.821V9.82164V9.82228V9.82293V9.82357V9.82421V9.82486V9.8255V9.82614V9.82678V9.82743V9.82807V9.82871V9.82935V9.83V9.83064V9.83128V9.83192V9.83256V9.8332V9.83385V9.83449V9.83513V9.83577V9.83641V9.83705V9.83769V9.83833V9.83897V9.83961V9.84025V9.84089V9.84153V9.84217V9.84281V9.84345V9.84409V9.84473V9.84537V9.846V9.84664V9.84728V9.84792V9.84856V9.8492V9.84983V9.85047V9.85111V9.85175V9.85238V9.85302V9.85366V9.85429V9.85493V9.85557V9.8562V9.85684V9.85747V9.85811V9.85875V9.85938V9.86002V9.86065V9.86129V9.86192V9.86255V9.86319V9.86382V9.86446V9.86509V9.86572V9.86636V9.86699V9.86762V9.86826V9.86889V9.86952V9.87015V9.87079V9.87142V9.87205V9.87268V9.87331V9.87394V9.87457V9.8752V9.87583V9.87646V9.8771V9.87773V9.87835V9.87898V9.87961V9.88024V9.88087V9.8815V9.88213V9.88276V9.88338V9.88401V9.88464V9.88527V9.88589V9.88652V9.88715V9.88777V9.8884V9.88903V9.88965V9.89028V9.8909V9.89153V9.89215V9.89278V9.8934V9.89403V9.89465V9.89528V9.8959V9.89652V9.89715V9.89777V9.89839V9.89901V9.89964V9.90026V9.90088V9.9015V9.90212V9.90274V9.90336V9.90398V9.9046V9.90522V9.90584V9.90646V9.90708V9.9077V9.90832V9.90894V9.90956V9.91018V9.91079V9.91141V9.91203V9.91265V9.91326V9.91388V9.91449V9.91511V9.91573V9.91634C7.38333 11.3117 7.82178 12.6629 8.64477 13.7845C8.40295 14.1271 8.09266 14.4128 7.73044 14.6186C7.33747 14.8368 6.89256 14.9663 6.41667 14.9663C5.94071 14.9663 5.49576 14.8367 5.10276 14.6185C4.27407 14.1493 3.7 13.2682 3.7 12.2497C3.7 11.5292 3.98622 10.8382 4.49569 10.3287ZM6.03333 20.4163C6.03333 19.8101 6.33486 19.2646 6.86118 18.7784C7.38889 18.291 8.1293 17.8766 8.96728 17.541C10.6435 16.8696 12.6599 16.533 14 16.533C15.3401 16.533 17.3565 16.8696 19.0327 17.541C19.8707 17.8766 20.6111 18.291 21.1388 18.7784C21.6651 19.2646 21.9667 19.8101 21.9667 20.4163V21.9663H6.03333V20.4163ZM0.2 20.4163C0.2 19.5195 0.918588 18.7773 1.99605 18.212C2.81592 17.7818 3.80365 17.4768 4.72048 17.2989C3.86713 18.0141 3.3 18.8844 3.3 19.9147V21.9663H0.2V20.4163ZM24.7 19.9147C24.7 18.8844 24.1329 18.0141 23.2795 17.2989C24.1964 17.4768 25.1841 17.7818 26.004 18.212C27.0814 18.7773 27.8 19.5195 27.8 20.4163V21.9663H24.7V19.9147Z" fill="#121212" stroke="#D5D8E6" stroke-width="0.4"/>
</svg>
