<svg width="28" height="29" viewBox="0 0 28 29" fill="none" xmlns="http://www.w3.org/2000/svg">
<mask id="mask0_4045_22859" style="mask-type:alpha" maskUnits="userSpaceOnUse" x="0" y="0" width="28" height="29">
<rect y="0.046875" width="28" height="28.0245" fill="#D9D9D9"/>
</mask>
<g mask="url(#mask0_4045_22859)">
<path d="M12.8333 19.8984H15.1667V15.2276H19.8333V12.8923H15.1667V8.22152H12.8333V12.8923H8.16667V15.2276H12.8333V19.8984ZM5.83333 24.5691C5.19167 24.5691 4.64217 24.3406 4.18483 23.8837C3.72828 23.426 3.5 22.876 3.5 22.2338V5.88615C3.5 5.24393 3.72828 4.69395 4.18483 4.23621C4.64217 3.77926 5.19167 3.55078 5.83333 3.55078H22.1667C22.8083 3.55078 23.3578 3.77926 23.8152 4.23621C24.2717 4.69395 24.5 5.24393 24.5 5.88615V22.2338C24.5 22.876 24.2717 23.426 23.8152 23.8837C23.3578 24.3406 22.8083 24.5691 22.1667 24.5691H5.83333Z" fill="#002BBE"/>
</g>
</svg>
