<svg width="42" height="42" viewBox="0 0 42 42" fill="none" xmlns="http://www.w3.org/2000/svg">
<circle cx="21" cy="21" r="21" fill="#001A72" fill-opacity="0.15"/>
<path d="M23.8 33L14.6667 23.5333V21.3333H19C20.2667 21.3333 21.3778 20.9222 22.3333 20.1C23.2889 19.2778 23.8444 18.1333 24 16.6667H13V14.6667H23.8333C23.5444 13.6 22.95 12.7222 22.05 12.0333C21.15 11.3444 20.1333 11 19 11H13V9H29V11H23.8667C24.3778 11.4444 24.8111 12.0111 25.1667 12.7C25.5222 13.3889 25.7778 14.0444 25.9333 14.6667H29V16.6667H26C25.8222 18.6889 25.0722 20.3056 23.75 21.5167C22.4278 22.7278 20.8444 23.3333 19 23.3333H17.2667L26.5667 33H23.8Z" fill="#001A72"/>
</svg>
