<svg width="17" height="13" viewBox="0 0 17 13" fill="none" xmlns="http://www.w3.org/2000/svg">
<g clip-path="url(#clip0_202_22)">
<path fill-rule="evenodd" clip-rule="evenodd" d="M8.92053 12.9504H11.4689C11.7248 12.9504 11.9337 12.753 11.9337 12.5112V10.5713H8.45569V12.5112C8.45569 12.753 8.66459 12.9504 8.92053 12.9504ZM11.9351 9.38567V3.47848H8.45569V9.38567H11.9351ZM11.9351 2.29156V0.487634C11.9351 0.245804 11.7262 0.048418 11.4703 0.048418H8.92053C8.66459 0.048418 8.45569 0.245804 8.45569 0.487634V2.29156H11.9351Z" fill="black"/>
<path fill-rule="evenodd" clip-rule="evenodd" d="M13.9854 12.9504H16.5338C16.7897 12.9504 16.9986 12.753 16.9986 12.5112V10.5713H16.9958H13.5206V12.5112C13.5206 12.753 13.7309 12.9504 13.9854 12.9504ZM17 9.38567V3.47848H13.5206V9.38567H16.9972H17ZM17 2.29156V0.487634C17 0.245804 16.7911 0.048418 16.5351 0.048418H13.9868C13.7309 0.048418 13.522 0.245804 13.522 0.487634V2.29156H17Z" fill="black"/>
<path fill-rule="evenodd" clip-rule="evenodd" d="M4.97339 12.974L7.36817 12.1505C7.60889 12.0681 7.7334 11.8145 7.64624 11.5871L6.94483 9.76487L3.6757 10.8891L4.37712 12.7113C4.46566 12.9387 4.73405 13.0564 4.97339 12.974ZM6.51595 8.64984L4.3785 3.09821L1.10938 4.22239L3.24683 9.77272L6.51595 8.64984ZM3.94963 1.98317L3.29663 0.289057C3.20947 0.0616064 2.94108 -0.0560417 2.70036 0.0263119L0.305585 0.849841C0.064862 0.932195 -0.0596498 1.18579 0.0275084 1.41324L0.680503 3.10736L3.94963 1.98317Z" fill="black"/>
</g>
<defs>
<clipPath id="clip0_202_22">
<rect width="17" height="13" fill="white" transform="matrix(1 0 0 -1 0 13)"/>
</clipPath>
</defs>
</svg>
