<svg width="13" height="16" viewBox="0 0 13 16" fill="none" xmlns="http://www.w3.org/2000/svg">
<g clip-path="url(#clip0_236_7)">
<path fill-rule="evenodd" clip-rule="evenodd" d="M2.16176 0H12.5829V12.3546C12.5641 12.6998 12.1444 12.7076 11.6912 12.6864H2.00824C1.38088 12.6864 0.867941 13.231 0.867941 13.8974C0.867941 14.5641 1.38088 15.1086 2.00824 15.1086H12.1079V13.8199H13V15.4579C13 15.7563 12.7706 16 12.4897 16H2.05235C0.662941 15.9888 0 15.4633 0 14.2642V2.29634C0 1.0332 0.972647 0 2.16176 0ZM5.31382 7.90502V7.56979C5.31382 7.17644 5.34324 6.86183 5.40059 6.62845C5.45853 6.39475 5.54618 6.20667 5.66176 6.06389C5.77559 5.92267 5.91647 5.79333 6.08265 5.67898C6.22647 5.57807 6.35471 5.48247 6.46853 5.38811C6.58265 5.29595 6.67118 5.19659 6.73765 5.09256C6.80412 4.98664 6.83735 4.8673 6.83735 4.73452C6.83735 4.61517 6.81029 4.50926 6.75647 4.41865C6.70294 4.32774 6.63 4.25713 6.53824 4.20683C6.445 4.15809 6.34382 4.13278 6.23147 4.13278C6.10941 4.13278 5.99735 4.16152 5.89588 4.22182C5.79324 4.28056 5.71088 4.36304 5.64912 4.46895C5.58735 4.5733 5.55735 4.69577 5.55735 4.83355H3.83118C3.83441 4.3093 3.94676 3.88253 4.16824 3.55479C4.38824 3.22518 4.68088 2.98493 5.04471 2.83027C5.40853 2.67562 5.80882 2.60002 6.24412 2.60002C6.725 2.60002 7.15382 2.67406 7.53176 2.82371C7.91 2.97305 8.20735 3.19675 8.42588 3.49574C8.64265 3.79692 8.75176 4.16996 8.75176 4.61861C8.75176 4.9076 8.70588 5.16129 8.61235 5.37999C8.51912 5.59838 8.38941 5.78989 8.225 5.95642C8.06029 6.12263 7.86735 6.27415 7.64735 6.41006C7.48441 6.5091 7.34853 6.61345 7.23912 6.71936C7.12853 6.82528 7.04529 6.94587 6.98912 7.08084C6.93324 7.21487 6.90529 7.37827 6.90529 7.56979V7.90502H5.31382ZM6.13647 10.4757C5.87529 10.4757 5.65176 10.3788 5.46706 10.1851C5.28176 9.99078 5.19176 9.75303 5.19176 9.47403C5.19176 9.20191 5.28206 8.96821 5.46706 8.77482C5.65235 8.58174 5.87529 8.48582 6.13647 8.48582C6.38324 8.48582 6.60176 8.58174 6.79147 8.77482C6.98118 8.96821 7.08088 9.20191 7.08088 9.47403C7.08088 9.65899 7.03206 9.82863 6.94324 9.98016C6.85471 10.1314 6.73912 10.252 6.59853 10.3413C6.45588 10.4316 6.30265 10.4757 6.13647 10.4757ZM2.005 14.147H11.2806C11.3744 14.147 11.4512 14.2289 11.4512 14.3282V14.4385C11.4512 14.5378 11.3744 14.6197 11.2806 14.6197H2.005C1.91147 14.6197 1.83471 14.5382 1.83471 14.4385V14.3282C1.83471 14.2285 1.91118 14.147 2.005 14.147ZM2.005 13.211H11.2806C11.3744 13.211 11.4512 13.2928 11.4512 13.3922V13.5025C11.4512 13.6018 11.3744 13.6837 11.2806 13.6837H2.005C1.91147 13.6837 1.83471 13.6021 1.83471 13.5025V13.3922C1.83471 13.2925 1.91118 13.211 2.005 13.211Z" fill="black"/>
</g>
<defs>
<clipPath id="clip0_236_7">
<rect width="13" height="16" fill="white"/>
</clipPath>
</defs>
</svg>
