<svg width="14" height="14" viewBox="0 0 14 14" fill="none" xmlns="http://www.w3.org/2000/svg">
<g clip-path="url(#clip0_238_19)">
<path d="M12.6875 2.625H7.4375C7.175 2.625 7 2.45 7 2.1875C7 1.925 7.175 1.75 7.4375 1.75H12.6875C12.95 1.75 13.125 1.925 13.125 2.1875C13.125 2.45 12.95 2.625 12.6875 2.625Z" fill="black"/>
<path d="M10.5 4.375H7.4375C7.175 4.375 7 4.2 7 3.9375C7 3.675 7.175 3.5 7.4375 3.5H10.5C10.7625 3.5 10.9375 3.675 10.9375 3.9375C10.9375 4.2 10.7625 4.375 10.5 4.375Z" fill="black"/>
<path d="M12.6875 9.625H7.4375C7.175 9.625 7 9.45 7 9.1875C7 8.925 7.175 8.75 7.4375 8.75H12.6875C12.95 8.75 13.125 8.925 13.125 9.1875C13.125 9.45 12.95 9.625 12.6875 9.625Z" fill="black"/>
<path d="M10.5 11.375H7.4375C7.175 11.375 7 11.2 7 10.9375C7 10.675 7.175 10.5 7.4375 10.5H10.5C10.7625 10.5 10.9375 10.675 10.9375 10.9375C10.9375 11.2 10.7625 11.375 10.5 11.375Z" fill="black"/>
<path d="M3.5 13.125C2.05625 13.125 0.875 11.9437 0.875 10.5C0.875 9.05625 2.05625 7.875 3.5 7.875C4.94375 7.875 6.125 9.05625 6.125 10.5C6.125 11.9437 4.94375 13.125 3.5 13.125Z" fill="black"/>
<path d="M3.5 0.875C2.05625 0.875 0.875 2.05625 0.875 3.5C0.875 4.94375 2.05625 6.125 3.5 6.125C4.94375 6.125 6.125 4.94375 6.125 3.5C6.125 2.05625 4.94375 0.875 3.5 0.875ZM3.5 4.375C3.01875 4.375 2.625 3.98125 2.625 3.5C2.625 3.01875 3.01875 2.625 3.5 2.625C3.98125 2.625 4.375 3.01875 4.375 3.5C4.375 3.98125 3.98125 4.375 3.5 4.375Z" fill="black"/>
</g>
<defs>
<clipPath id="clip0_238_19">
<rect width="14" height="14" fill="white"/>
</clipPath>
</defs>
</svg>
