<svg width="36" height="36" viewBox="0 0 36 36" fill="none" xmlns="http://www.w3.org/2000/svg">
<path d="M1.8 33.21V11.07C1.38 11.01 0.975 10.71 0.585 10.17C0.195 9.63 0 9.045 0 8.415V2.7C0 2.01 0.27 1.3875 0.81 0.8325C1.35 0.2775 1.98 0 2.7 0H33.3C33.99 0 34.6125 0.2775 35.1675 0.8325C35.7225 1.3875 36 2.01 36 2.7V8.415C36 9.045 35.805 9.63 35.415 10.17C35.025 10.71 34.62 11.01 34.2 11.07V33.21C34.2 33.9 33.9225 34.5375 33.3675 35.1225C32.8125 35.7075 32.19 36 31.5 36H4.5C3.78 36 3.15 35.7075 2.61 35.1225C2.07 34.5375 1.8 33.9 1.8 33.21ZM33.3 8.415V2.7H2.7V8.415H33.3ZM12.6 20.565H23.4V17.865H12.6V20.565Z" fill="black" fill-opacity="0.6"/>
</svg>
