<svg width="20" height="22" viewBox="0 0 20 22" fill="none" xmlns="http://www.w3.org/2000/svg">
<g clip-path="url(#clip0_124_120)">
<path fill-rule="evenodd" clip-rule="evenodd" d="M17.7778 2.2H13.1333C12.6667 0.924 11.4444 0 10 0C8.55556 0 7.33333 0.924 6.86667 2.2H2.22222C1 2.2 0 3.19 0 4.4V19.8C0 21.01 1 22 2.22222 22H17.7778C19 22 20 21.01 20 19.8V4.4C20 3.19 19 2.2 17.7778 2.2ZM10 2.2C10.6111 2.2 11.1111 2.695 11.1111 3.3C11.1111 3.905 10.6111 4.4 10 4.4C9.38889 4.4 8.88889 3.905 8.88889 3.3C8.88889 2.695 9.38889 2.2 10 2.2ZM11.1111 17.6H5.55556C4.94444 17.6 4.44444 17.105 4.44444 16.5C4.44444 15.895 4.94444 15.4 5.55556 15.4H11.1111C11.7222 15.4 12.2222 15.895 12.2222 16.5C12.2222 17.105 11.7222 17.6 11.1111 17.6ZM14.4444 13.2H5.55556C4.94444 13.2 4.44444 12.705 4.44444 12.1C4.44444 11.495 4.94444 11 5.55556 11H14.4444C15.0556 11 15.5556 11.495 15.5556 12.1C15.5556 12.705 15.0556 13.2 14.4444 13.2ZM14.4444 8.8H5.55556C4.94444 8.8 4.44444 8.305 4.44444 7.7C4.44444 7.095 4.94444 6.6 5.55556 6.6H14.4444C15.0556 6.6 15.5556 7.095 15.5556 7.7C15.5556 8.305 15.0556 8.8 14.4444 8.8Z" fill="#1D1D1D"/>
</g>
<defs>
<clipPath id="clip0_124_120">
<rect width="20" height="22" fill="white"/>
</clipPath>
</defs>
</svg>
