<svg width="30" height="30" viewBox="0 0 30 30" fill="none" xmlns="http://www.w3.org/2000/svg">
<g clip-path="url(#clip0_123_69)">
<path d="M1.93478 24.4385H14.801C14.4865 23.5502 14.3268 22.6196 14.3268 21.6649C14.3268 20.5421 14.5469 19.4524 14.981 18.426C15.4001 17.4351 15.9999 16.5454 16.7637 15.7816C17.5276 15.0178 18.4172 14.418 19.4081 13.9989C20.4345 13.5648 21.5243 13.3447 22.647 13.3447C23.7698 13.3447 24.8595 13.5648 25.8859 13.9989C25.9864 14.0414 26.0856 14.0863 26.1839 14.1325V10.9057V5.51144C26.1839 4.44289 25.3177 3.57666 24.2491 3.57666H22.2385V2.27203C22.2385 1.55968 21.661 0.982178 20.9486 0.982178H19.1963C18.4839 0.982178 17.9064 1.55968 17.9064 2.27203V3.57662H15.2581V2.27203C15.2581 1.55968 14.6806 0.982178 13.9683 0.982178H12.2158C11.5035 0.982178 10.926 1.55968 10.926 2.27203V3.57662H8.27768V2.27203C8.27768 1.55968 7.70018 0.982178 6.98782 0.982178H5.23539C4.52301 0.982178 3.94554 1.55968 3.94554 2.27203V3.57662H1.93478C0.866235 3.57662 0 4.44286 0 5.51141V10.9057V22.5037C0 23.5722 0.866235 24.4385 1.93478 24.4385ZM1.45109 5.51144C1.45109 5.24473 1.66807 5.02774 1.93478 5.02774H3.94551V5.81317C3.94551 6.52552 4.52297 7.10302 5.23536 7.10302H6.98779C7.70015 7.10302 8.27765 6.52552 8.27765 5.81317V5.02774H10.9259V5.81317C10.9259 6.52552 11.5034 7.10302 12.2158 7.10302H13.9682C14.6806 7.10302 15.2581 6.52552 15.2581 5.81317V5.02774H17.9064V5.81317C17.9064 6.52552 18.4839 7.10302 19.1962 7.10302H20.9487C21.6611 7.10302 22.2386 6.52552 22.2386 5.81317V5.02774H24.2492C24.516 5.02774 24.7329 5.24473 24.7329 5.51144V9.45469H1.45105L1.45109 5.51144Z" fill="black"/>
<path d="M24.8744 26.4453H20.7915C20.25 26.4453 19.7308 26.2302 19.3479 25.8474C18.9651 25.4645 18.75 24.9453 18.75 24.4038V23.9955C18.75 23.021 19.1371 22.0863 19.8263 21.3972C20.5154 20.7081 21.45 20.3209 22.4246 20.3209H23.2412C24.2158 20.3209 25.1504 20.7081 25.8395 21.3972C26.5287 22.0863 26.9158 23.021 26.9158 23.9955V24.4038C26.9158 24.9453 26.7007 25.4645 26.3179 25.8474C25.935 26.2302 25.4158 26.4453 24.8744 26.4453Z" fill="black"/>
<path d="M22.7073 19.8995C22.2228 19.8995 21.7492 19.7558 21.3463 19.4866C20.9435 19.2175 20.6295 18.8349 20.444 18.3872C20.2586 17.9396 20.2101 17.447 20.3046 16.9718C20.3992 16.4966 20.6325 16.0601 20.9751 15.7175C21.3177 15.3749 21.7542 15.1416 22.2294 15.0471C22.7046 14.9525 23.1972 15.0011 23.6448 15.1865C24.0924 15.3719 24.475 15.6859 24.7442 16.0887C25.0134 16.4916 25.1571 16.9652 25.1571 17.4497C25.1571 18.0995 24.899 18.7226 24.4395 19.182C23.9801 19.6414 23.357 19.8995 22.7073 19.8995Z" fill="black"/>
</g>
<defs>
<clipPath id="clip0_123_69">
<rect width="30" height="30" fill="white"/>
</clipPath>
</defs>
</svg>
