<svg width="60" height="59" viewBox="0 0 60 59" fill="none" xmlns="http://www.w3.org/2000/svg">
<g clip-path="url(#clip0_461_113)">
<path d="M4.95565 42.5293C2.02495 36.6769 1.23705 29.9828 2.72883 23.61C4.22062 17.2371 7.89782 11.5882 13.1216 7.64468C18.3453 3.70117 24.7855 1.71225 31.3232 2.02347C37.861 2.33469 44.0831 4.92638 48.9086 9.34828L46.0466 12.4203L55.0466 13.9643L52.9916 4.96428L50.2716 7.88528C45.1025 3.14691 38.4367 0.369033 31.4324 0.0342324C24.428 -0.300568 17.5277 1.82886 11.9302 6.05259C6.33258 10.2763 2.39145 16.3275 0.791423 23.1548C-0.808605 29.9822 0.0335708 37.1543 3.17165 43.4253L4.95565 42.5293Z" fill="#575CAA"/>
<path d="M54.091 15.896C57.0217 21.7483 57.8096 28.4424 56.3178 34.8153C54.826 41.1882 51.1488 46.8371 45.9251 50.7806C40.7013 54.7241 34.2611 56.713 27.7234 56.4018C21.1857 56.0906 14.9635 53.4989 10.138 49.077L13 46.005L4 44.461L6.053 53.461L8.775 50.54C13.9442 55.2784 20.6099 58.0562 27.6143 58.391C34.6186 58.7258 41.5189 56.5964 47.1165 52.3727C52.7141 48.149 56.6552 42.0978 58.2552 35.2705C59.8553 28.4431 59.0131 21.271 55.875 15L54.091 15.896Z" fill="#575CAA"/>
<path d="M40.9 17.5C40.7 17.2 40.4 17 40 17H28C27.6 17 27.3 17.2 27.1 17.5L20.1 30.5C19.9 30.8 19.9 31.2 20.1 31.5C20.3 31.8 20.6 32 21 32H25.4L20.1 43.6C19.9 44 20 44.5 20.4 44.8C20.5 44.9 20.8 45 21 45C21.2 45 21.4 44.9 21.6 44.8L39.6 31.8C40 31.5 40.1 31.1 40 30.7C39.9 30.3 39.5 30 39 30H34.7L40.9 18.5C41 18.2 41 17.8 40.9 17.5Z" fill="#575CAA"/>
</g>
<defs>
<clipPath id="clip0_461_113">
<rect width="60" height="59" fill="white"/>
</clipPath>
</defs>
</svg>
