<svg width="60" height="59" viewBox="0 0 60 59" fill="none" xmlns="http://www.w3.org/2000/svg">
<g clip-path="url(#clip0_461_114)">
<path d="M4.95565 42.5293C2.02495 36.6769 1.23705 29.9828 2.72883 23.61C4.22062 17.2371 7.89782 11.5882 13.1216 7.64468C18.3453 3.70117 24.7855 1.71225 31.3232 2.02347C37.861 2.33469 44.0831 4.92638 48.9086 9.34828L46.0466 12.4203L55.0466 13.9643L52.9916 4.96428L50.2716 7.88528C45.1025 3.14691 38.4367 0.369033 31.4324 0.0342324C24.428 -0.300568 17.5277 1.82886 11.9302 6.05259C6.33258 10.2763 2.39145 16.3275 0.791423 23.1548C-0.808605 29.9822 0.0335708 37.1543 3.17165 43.4253L4.95565 42.5293Z" fill="#575CAA"/>
<path d="M54.091 15.896C57.0217 21.7483 57.8096 28.4424 56.3178 34.8153C54.826 41.1882 51.1488 46.8371 45.9251 50.7806C40.7013 54.7241 34.2611 56.713 27.7234 56.4018C21.1857 56.0906 14.9635 53.4989 10.138 49.077L13 46.005L4 44.461L6.053 53.461L8.775 50.54C13.9442 55.2784 20.6099 58.0562 27.6143 58.391C34.6186 58.7258 41.5189 56.5964 47.1165 52.3727C52.7141 48.149 56.6552 42.0978 58.2552 35.2705C59.8553 28.4431 59.0131 21.271 55.875 15L54.091 15.896Z" fill="#575CAA"/>
<path d="M30.75 13C30.75 13 18 16.5588 18 17.1868V29.8868C18 36.3065 27.4208 41.9587 30.0417 43.4939C30.2513 43.6319 30.4978 43.7055 30.75 43.7055C31.0022 43.7055 31.2487 43.6319 31.4583 43.4939C34.15 42.0285 43.5 36.3065 43.5 29.8868V17.1868C43.5 16.5588 30.75 13 30.75 13ZM37.4083 24.4439L29.6167 32.1197C29.4906 32.2551 29.3373 32.3632 29.1666 32.4371C28.9959 32.511 28.8115 32.5492 28.625 32.5492C28.4385 32.5492 28.2541 32.511 28.0834 32.4371C27.9127 32.3632 27.7594 32.2551 27.6333 32.1197L24.1625 28.7005C23.9069 28.4637 23.7398 28.1489 23.6884 27.807C23.637 27.4651 23.7042 27.1161 23.8792 26.8164C24.0012 26.6471 24.16 26.5066 24.3441 26.4054C24.5282 26.3042 24.7329 26.2447 24.9433 26.2313C25.1537 26.218 25.3645 26.251 25.5603 26.3281C25.7561 26.4052 25.9319 26.5243 26.075 26.6769L28.625 29.189L35.425 22.4901C35.6978 22.2885 36.0353 22.1907 36.3754 22.2145C36.7156 22.2383 37.0356 22.3822 37.2767 22.6197C37.5179 22.8573 37.6639 23.1725 37.6881 23.5076C37.7123 23.8427 37.6129 24.1752 37.4083 24.4439Z" fill="#575CAA"/>
</g>
<defs>
<clipPath id="clip0_461_114">
<rect width="60" height="59" fill="white"/>
</clipPath>
</defs>
</svg>
