<svg width="27" height="25" viewBox="0 0 27 25" fill="none" xmlns="http://www.w3.org/2000/svg">
<g clip-path="url(#clip0_174_2)">
<path fill-rule="evenodd" clip-rule="evenodd" d="M-4.00543e-05 20.0295V24.0156C-0.00162209 24.5403 0.441873 24.9708 0.98451 24.9708H3.25578L3.25472 19.0748L0.983454 19.0758C0.442927 19.0758 0.00101463 19.5063 -4.00543e-05 20.0295ZM23.4552 17.858C23.4552 17.901 23.4588 17.9445 23.4662 17.9855L24.5093 18.5327C24.7788 18.4206 24.9676 18.1605 24.9676 17.858V5.20701C24.9676 4.86046 24.8241 4.54206 24.5921 4.31068C24.3511 4.07265 24.0236 3.92932 23.6624 3.92932H22.8229C22.4063 3.92932 22.0667 4.25847 22.0667 4.66338C22.0667 5.06777 22.4063 5.39744 22.8229 5.39744H23.4552V17.858ZM16.4236 15.6113C16.8407 15.6113 17.1798 15.2822 17.1798 14.8772C17.1798 14.4728 16.8407 14.1432 16.4236 14.1432H8.45328C8.03668 14.1432 7.69759 14.4728 7.69759 14.8772C7.69759 15.2822 8.03668 15.6113 8.45328 15.6113H16.4236ZM16.4236 12.0157C16.8407 12.0157 17.1798 11.6866 17.1798 11.2817C17.1798 10.8773 16.8407 10.5476 16.4236 10.5476H6.11187C5.69527 10.5476 5.35619 10.8773 5.35619 11.2817C5.35619 11.6866 5.69527 12.0157 6.11187 12.0157H16.4236ZM8.59935 0.26721L2.40412 6.59067C2.09457 6.6823 1.86939 6.9623 1.86939 7.29248V17.3451L3.25472 17.3441L3.38129 17.3487V8.15809L9.18312 8.16116C9.59972 8.16116 9.93881 7.8315 9.93881 7.42711V1.46812H19.3282V17.3809L20.8401 17.3835V1.27667C20.8401 0.927045 20.6913 0.607621 20.454 0.37778C20.2136 0.144355 19.8819 0 19.5249 0H9.26802L9.22531 0.00102379L9.18312 0C8.94793 0 8.73804 0.103915 8.59935 0.26721ZM4.38429 6.69305L8.42691 2.56716V6.69305H4.38429ZM21.8858 25C22.96 24.4487 24.0368 23.8969 25.1126 23.3461C27.3527 22.0551 27.6855 22.4508 25.6431 21.1521L21.8847 19.1152L4.40381 19.0758V24.9708L21.8858 25ZM21.8847 20.1211V23.9931C22.5908 23.6307 23.2975 23.2683 24.0025 22.9053C26.6139 21.6742 24.4793 21.6046 21.8847 20.1211Z" fill="black"/>
</g>
<defs>
<clipPath id="clip0_174_2">
<rect width="27" height="25" fill="white" transform="matrix(-1 0 0 1 27 0)"/>
</clipPath>
</defs>
</svg>
