<svg width="29" height="29" viewBox="0 0 29 29" fill="none" xmlns="http://www.w3.org/2000/svg">
<path d="M26.5168 16.4032C25.1471 15.0123 24.2907 13.1972 24.0881 11.2557C23.9567 5.67772 18.8363 1.01507 13.281 1.40929C4.39525 1.75819 0.18572 13.0908 6.68806 19.1219C7.89206 21.6538 8.52181 24.4203 8.53228 27.2238C8.53228 27.344 8.58004 27.4593 8.665 27.5442C8.74996 27.6292 8.86523 27.6769 8.9854 27.6769H19.5613C19.6686 27.6787 19.7731 27.6423 19.8561 27.5743C19.939 27.5062 19.9952 27.4109 20.0145 27.3054L20.3906 25.1349C20.5718 24.3238 21.0657 24.1652 21.9221 23.9568C22.9235 23.7121 24.2965 23.3813 24.1017 20.948C24.1019 20.9265 24.1085 20.9057 24.1206 20.8879C24.1326 20.8702 24.1497 20.8564 24.1696 20.8483C24.3078 20.7891 24.432 20.7017 24.5344 20.5916C24.6367 20.4815 24.715 20.3513 24.764 20.2092C24.8131 20.0671 24.832 19.9164 24.8193 19.7666C24.8067 19.6168 24.7629 19.4713 24.6907 19.3394C24.8203 19.2818 24.9371 19.1988 25.0342 19.0954C25.1312 18.992 25.2067 18.8703 25.2561 18.7373C25.3055 18.6043 25.3278 18.4629 25.3217 18.3211C25.3157 18.1794 25.2814 18.0404 25.2209 17.9121H25.8734C26.0453 17.9058 26.2119 17.8508 26.3537 17.7534C26.4955 17.6559 26.6067 17.5202 26.6741 17.3619C26.7416 17.2037 26.7627 17.0294 26.7348 16.8597C26.7069 16.6899 26.6314 16.5316 26.5168 16.4032Z" fill="black"/>
<path d="M17.6175 8.28772C19.6339 4.96178 14.5317 2.3971 13.0863 5.97225C12.4418 5.7417 11.7326 5.7726 11.1106 6.05834C8.04297 4.53584 5.06141 8.32397 7.24094 10.9566C4.61282 14.1013 9.47938 17.6538 11.677 14.2146C12.0571 14.5086 12.5069 14.6991 12.9825 14.7676C13.4581 14.8361 13.9434 14.7803 14.391 14.6055C14.8386 14.4308 15.2333 14.143 15.5368 13.7704C15.8401 13.3978 16.0418 12.9529 16.1222 12.4791C16.5996 12.4585 17.0599 12.2961 17.4445 12.0124C17.829 11.7287 18.1201 11.3368 18.2807 10.8867C18.4412 10.4367 18.4639 9.94901 18.3458 9.486C18.2276 9.02305 17.9741 8.60581 17.6175 8.28772Z" fill="white"/>
</svg>
