<svg width="28" height="28" viewBox="0 0 28 28" fill="none" xmlns="http://www.w3.org/2000/svg">
<path d="M14.1501 10.4997V2.48301H21.0001C22.2011 2.48301 23.1834 3.45467 23.1834 4.66634V23.333C23.1834 23.9121 22.9534 24.4674 22.5439 24.8769C22.1345 25.2863 21.5791 25.5163 21.0001 25.5163H7.00008C6.42103 25.5163 5.86569 25.2863 5.45623 24.8769C5.04678 24.4674 4.81675 23.9121 4.81675 23.333V4.66634C4.81675 4.08729 5.04678 3.53195 5.45623 3.12249C5.86569 2.71304 6.42103 2.48301 7.00008 2.48301H8.01675V10.4997V10.7646L8.24392 10.6283L11.0834 8.9246L13.9229 10.6283L14.1501 10.7646V10.4997Z" fill="#121212" stroke="white" stroke-width="0.3"/>
</svg>
