<svg width="36" height="36" viewBox="0 0 36 36" fill="none" xmlns="http://www.w3.org/2000/svg">
<rect x="0.5" y="0.5" width="35" height="35" rx="5.5" fill="#121212" fill-opacity="0.45" stroke="white"/>
<path d="M26.3147 12.7745V10.6431H24.1834V9.15613H26.3147V7H27.8017V9.15613H29.9579V10.6431H27.8017V12.7745H26.3147ZM9.48699 27C9.09046 27 8.74349 26.8513 8.4461 26.5539C8.1487 26.2565 8 25.9095 8 25.513V12.7993C8 12.4192 8.1487 12.0764 8.4461 11.7708C8.74349 11.4651 9.09046 11.3123 9.48699 11.3123H13.1301L14.9393 9.15613H21.8786V10.6431H15.6332L13.824 12.7993H9.48699V25.513H26.3395V15.1041H27.8265V25.513C27.8265 25.9095 27.6737 26.2565 27.368 26.5539C27.0624 26.8513 26.7195 27 26.3395 27H9.48699ZM17.9133 23.3817C19.1028 23.3817 20.1024 22.9769 20.912 22.1673C21.7216 21.3577 22.1264 20.3499 22.1264 19.1437C22.1264 17.9542 21.7216 16.9587 20.912 16.1574C20.1024 15.3561 19.1028 14.9554 17.9133 14.9554C16.7071 14.9554 15.7034 15.3561 14.9021 16.1574C14.1008 16.9587 13.7001 17.9542 13.7001 19.1437C13.7001 20.3499 14.1008 21.3577 14.9021 22.1673C15.7034 22.9769 16.7071 23.3817 17.9133 23.3817ZM17.9133 21.8947C17.1202 21.8947 16.4676 21.6344 15.9554 21.114C15.4432 20.5936 15.1871 19.9368 15.1871 19.1437C15.1871 18.3672 15.4432 17.7228 15.9554 17.2107C16.4676 16.6985 17.1202 16.4424 17.9133 16.4424C18.6898 16.4424 19.3383 16.6985 19.8587 17.2107C20.3792 17.7228 20.6394 18.3672 20.6394 19.1437C20.6394 19.9368 20.3792 20.5936 19.8587 21.114C19.3383 21.6344 18.6898 21.8947 17.9133 21.8947Z" fill="white"/>
</svg>
