<svg width="36" height="36" viewBox="0 0 36 36" fill="none" xmlns="http://www.w3.org/2000/svg">
<path d="M22.125 17.7L28.125 14.25L22.125 10.8L16.125 14.25L22.125 17.7ZM22.125 22.275L26.25 19.875V16.725L22.125 19.125L18 16.725V19.875L22.125 22.275ZM30 30H22.5C22.5 29.5 22.4813 29 22.4438 28.5C22.4062 28 22.35 27.5 22.275 27H30V9H6V10.725C5.5 10.65 5 10.5938 4.5 10.5563C4 10.5188 3.5 10.5 3 10.5V9C3 8.175 3.29375 7.46875 3.88125 6.88125C4.46875 6.29375 5.175 6 6 6H30C30.825 6 31.5313 6.29375 32.1188 6.88125C32.7063 7.46875 33 8.175 33 9V27C33 27.825 32.7063 28.5312 32.1188 29.1188C31.5313 29.7063 30.825 30 30 30ZM3 30V25.5C4.25 25.5 5.3125 25.9375 6.1875 26.8125C7.0625 27.6875 7.5 28.75 7.5 30H3ZM10.5 30C10.5 27.925 9.76875 26.1562 8.30625 24.6938C6.84375 23.2313 5.075 22.5 3 22.5V19.5C5.925 19.5 8.40625 20.5188 10.4438 22.5563C12.4813 24.5938 13.5 27.075 13.5 30H10.5ZM16.5 30C16.5 28.125 16.1438 26.3688 15.4313 24.7313C14.7188 23.0938 13.7563 21.6688 12.5438 20.4563C11.3313 19.2438 9.90625 18.2813 8.26875 17.5688C6.63125 16.8563 4.875 16.5 3 16.5V13.5C5.275 13.5 7.4125 13.9313 9.4125 14.7938C11.4125 15.6562 13.1625 16.8375 14.6625 18.3375C16.1625 19.8375 17.3438 21.5875 18.2063 23.5875C19.0688 25.5875 19.5 27.725 19.5 30H16.5Z" fill="#121212"/>
</svg>
