<svg width="24" height="24" viewBox="0 0 24 24" fill="none" xmlns="http://www.w3.org/2000/svg">
<path d="M5 4H23V16H5V4ZM14 7C14.7956 7 15.5587 7.31607 16.1213 7.87868C16.6839 8.44129 17 9.20435 17 10C17 10.7956 16.6839 11.5587 16.1213 12.1213C15.5587 12.6839 14.7956 13 14 13C13.2044 13 12.4413 12.6839 11.8787 12.1213C11.3161 11.5587 11 10.7956 11 10C11 9.20435 11.3161 8.44129 11.8787 7.87868C12.4413 7.31607 13.2044 7 14 7ZM9 6C9 6.53043 8.78929 7.03914 8.41421 7.41421C8.03914 7.78929 7.53043 8 7 8V12C7.53043 12 8.03914 12.2107 8.41421 12.5858C8.78929 12.9609 9 13.4696 9 14H19C19 13.4696 19.2107 12.9609 19.5858 12.5858C19.9609 12.2107 20.4696 12 21 12V8C20.4696 8 19.9609 7.78929 19.5858 7.41421C19.2107 7.03914 19 6.53043 19 6H9ZM1 8H3V18H19V20H1V8Z" fill="#121212" fill-opacity="0.6"/>
</svg>
