<svg width="27" height="24" viewBox="0 0 27 24" fill="none" xmlns="http://www.w3.org/2000/svg">
<path d="M1.89474 22.7368C1.38947 22.7368 0.947368 22.5474 0.568421 22.1684C0.189474 21.7895 0 21.3474 0 20.8421V1.89474C0 1.38947 0.189474 0.947368 0.568421 0.568421C0.947368 0.189474 1.38947 0 1.89474 0H20.8421C21.3474 0 21.7895 0.189474 22.1684 0.568421C22.5474 0.947368 22.7368 1.38947 22.7368 1.89474V11.4316C22.5684 11.4105 22.4158 11.3947 22.2789 11.3842C22.1421 11.3737 21.9895 11.3684 21.8211 11.3684H20.8421V1.89474H1.89474V20.8421H6.22105C6.32632 21.1789 6.43684 21.5053 6.55263 21.8211C6.66842 22.1368 6.81053 22.4421 6.97895 22.7368H1.89474ZM1.89474 18.9474V20.8421V1.89474V18.9474ZM5.36842 17.3684H6.31579C6.54737 16.5895 6.92631 15.8105 7.45263 15.0316C7.97895 14.2526 8.57895 13.5579 9.25263 12.9474H5.36842V17.3684ZM5.36842 9.78947H9.78947V5.36842H5.36842V9.78947ZM13.8947 24C12.5053 24 11.3158 23.5053 10.3263 22.5158C9.33684 21.5263 8.8421 20.3368 8.8421 18.9474C8.8421 17.5579 9.33684 16.3684 10.3263 15.3789C11.3158 14.3895 12.5053 13.8947 13.8947 13.8947H16.1053V15.7895H13.8947C13.0105 15.7895 12.2632 16.0947 11.6526 16.7053C11.0421 17.3158 10.7368 18.0632 10.7368 18.9474C10.7368 19.8316 11.0421 20.5789 11.6526 21.1895C12.2632 21.8 13.0105 22.1053 13.8947 22.1053H16.4526V24H13.8947ZM12.9474 9.78947H17.3684V5.36842H12.9474V9.78947ZM13.8947 19.8947V18H21.4737V19.8947H13.8947ZM18.9474 24V22.1053H21.4737C22.3579 22.1053 23.1053 21.8 23.7158 21.1895C24.3263 20.5789 24.6316 19.8316 24.6316 18.9474C24.6316 18.0632 24.3263 17.3158 23.7158 16.7053C23.1053 16.0947 22.3579 15.7895 21.4737 15.7895H19.2632V13.8947H21.4737C22.8632 13.8947 24.0526 14.3842 25.0421 15.3632C26.0316 16.3421 26.5263 17.5368 26.5263 18.9474C26.5263 20.3368 26.0316 21.5263 25.0421 22.5158C24.0526 23.5053 22.8632 24 21.4737 24H18.9474Z" fill="black" fill-opacity="0.7"/>
</svg>
