<svg width="32" height="23" viewBox="0 0 32 23" fill="none" xmlns="http://www.w3.org/2000/svg">
<g clip-path="url(#clip0_173_144)">
<path d="M12.47 0H18.0219C17.6519 0.34048 17.2879 0.687067 16.93 1.03961L16.9119 1.05728H12.47C12.14 1.05728 11.84 1.18952 11.6219 1.40158C11.4044 1.61365 11.2694 1.90676 11.2694 2.22791V7.71542C11.2694 8.03656 11.405 8.32907 11.6225 8.54113C11.8031 8.71786 12.0412 8.83912 12.3044 8.87508V8.85558C12.3044 7.78794 12.7937 7.09811 13.4206 6.78733C13.6725 6.66179 13.9487 6.59964 14.2262 6.59964C14.5025 6.59964 14.7788 6.66301 15.0312 6.78733C15.3169 6.92809 15.5744 7.14625 15.7706 7.43937C14.8119 5.86594 14.1488 4.84156 12.7413 3.77575L14.4712 3.39488C14.9969 3.69043 15.3394 3.93541 15.7469 4.37355C16.8044 2.71481 17.9975 1.75076 19.4894 0.44607L19.6356 0.391225H21.2681C19.0794 2.76112 17.4525 4.65448 15.8169 7.51188C16.0281 7.85801 16.1575 8.30104 16.1575 8.83912V8.88605H19.53C19.8481 8.88605 20.1394 8.76295 20.355 8.56368L20.3769 8.54113C20.595 8.32846 20.7306 8.03595 20.7306 7.71542V2.69409C21.0575 2.3181 21.3869 1.94637 21.7156 1.57952C21.782 1.78956 21.8157 2.00812 21.8156 2.22791V7.71542C21.8156 8.32785 21.5575 8.88483 21.1437 9.28885L21.1106 9.31871C20.6987 9.70445 20.1413 9.94333 19.53 9.94333H16.1575V10.1694C16.1925 10.1603 16.2288 10.1554 16.2663 10.1554H16.8375C16.8706 10.1554 16.9025 10.1591 16.9331 10.1664C17.6187 10.2736 17.9606 10.7197 18.1225 11.2986C18.1891 11.2575 18.2662 11.2358 18.345 11.2358H18.9163C18.9494 11.2358 18.9813 11.2395 19.0119 11.2468C19.7419 11.3608 20.0819 11.8586 20.23 12.4918C20.2656 12.4826 20.3025 12.4771 20.3406 12.4771H20.9119C20.945 12.4771 20.9769 12.4814 21.0075 12.4881C22.5762 12.7331 22.5531 14.7032 22.5381 15.9884C22.5381 16.5832 22.5644 17.1743 22.57 17.7684C22.5 19.1554 21.8556 20.2377 21.1925 21.3534L21.1356 21.4491C20.8425 21.9488 20.5031 22.3303 20.1162 22.5911C19.7225 22.8562 19.2869 22.9927 18.8088 22.9976L18.77 22.9994H13.87C13.3775 23.0079 12.9944 22.7977 12.7125 22.3864C12.4862 22.0555 12.3356 21.5917 12.2544 21.0073L9.14812 16.4241C8.965 16.1828 8.7225 15.8178 8.5425 15.4199C8.40312 15.1109 8.29687 14.7751 8.275 14.4455C8.24875 14.0555 8.30438 13.7416 8.41813 13.496C8.55938 13.1913 8.78437 12.9927 9.05625 12.8848C9.31 12.7843 9.5975 12.769 9.88625 12.8251C10.2325 12.8921 10.59 13.0634 10.895 13.309L11.9663 14.1664L12.3044 14.4369V9.93784C11.7419 9.89823 11.2331 9.65692 10.8556 9.28885C10.4419 8.88544 10.1844 8.32846 10.1844 7.71542V2.22791C10.1844 1.61487 10.4419 1.05728 10.8556 0.65387C11.2694 0.250457 11.8406 0 12.47 0ZM19.3344 17.468C19.3344 17.2858 19.4862 17.1377 19.6731 17.1377C19.86 17.1377 20.0112 17.2858 20.0112 17.468V18.9775C20.0112 19.1597 19.86 19.3071 19.6731 19.3071C19.4862 19.3071 19.3344 19.1597 19.3344 18.9775V17.468ZM17.3331 16.8007C17.3331 16.6185 17.485 16.4704 17.6719 16.4704C17.8588 16.4704 18.0106 16.6185 18.0106 16.8007V17.8888V18.9768C18.0106 19.1591 17.8588 19.3071 17.6719 19.3071C17.485 19.3071 17.3331 19.1591 17.3331 18.9768V16.8007ZM2.285 0H6.20875C6.83687 0 7.40875 0.251066 7.8225 0.654479L7.85313 0.686776C8.24875 1.08775 8.49375 1.63254 8.49375 2.22791V7.71542C8.49375 8.32785 8.23625 8.88483 7.82188 9.28885C7.40813 9.69226 6.83625 9.94333 6.20875 9.94333H2.285C1.65875 9.94333 1.0875 9.69287 0.673125 9.28885H0.67125C0.2575 8.88544 0 8.32846 0 7.71542V2.22791C0 1.61487 0.256875 1.05728 0.670625 0.65387L0.70375 0.624619C1.115 0.238269 1.67313 0 2.285 0ZM6.20875 1.05728H2.285C1.96625 1.05728 1.675 1.17977 1.45938 1.37904L1.4375 1.40158C1.22 1.61365 1.08438 1.90676 1.08438 2.22791V7.71542C1.08438 8.03656 1.22 8.32907 1.43813 8.54113C1.655 8.75442 1.95563 8.88605 2.285 8.88605H6.20875C6.53687 8.88605 6.8375 8.75381 7.055 8.54113C7.27312 8.32846 7.40938 8.03595 7.40938 7.71542V2.22791C7.40938 1.91773 7.28313 1.63376 7.07875 1.42291L7.05562 1.40158C6.83812 1.18952 6.53812 1.05728 6.20875 1.05728ZM25.7913 0H29.715C30.3431 0 30.915 0.251066 31.3288 0.654479L31.3594 0.686776C31.755 1.08775 32 1.63254 32 2.22791V7.71542C32 8.32724 31.7425 8.88483 31.3281 9.28885C30.9144 9.69226 30.3425 9.94333 29.715 9.94333H25.7913C25.165 9.94333 24.5937 9.69287 24.1794 9.28885H24.1775C23.7637 8.88544 23.5063 8.32846 23.5063 7.71542V2.22791C23.5063 1.61487 23.7631 1.05728 24.1769 0.65387L24.21 0.624619C24.6212 0.238269 25.1794 0 25.7913 0ZM29.715 1.05728H25.7913C25.4725 1.05728 25.1813 1.17977 24.9656 1.37904L24.9438 1.40158C24.7263 1.61365 24.5906 1.90676 24.5906 2.22791V7.71542C24.5906 8.03656 24.7262 8.32907 24.9444 8.54113C25.1612 8.75442 25.4619 8.88605 25.7913 8.88605H29.715C30.0431 8.88605 30.3437 8.75381 30.5619 8.54113C30.7794 8.32846 30.9156 8.03595 30.9156 7.71542V2.22791C30.9156 1.91773 30.7894 1.63376 30.585 1.42291L30.5619 1.40158C30.3444 1.18952 30.0444 1.05728 29.715 1.05728Z" fill="black"/>
</g>
<defs>
<clipPath id="clip0_173_144">
<rect width="32" height="23" fill="white"/>
</clipPath>
</defs>
</svg>
