<svg width="38" height="38" viewBox="0 0 38 38" fill="none" xmlns="http://www.w3.org/2000/svg">
<circle cx="19" cy="19" r="19" fill="#001A72" fill-opacity="0.15"/>
<path d="M27 24C27.5304 24 28.0391 23.7893 28.4142 23.4142C28.7893 23.0391 29 22.5304 29 22V11C29 10.4696 28.7893 9.96086 28.4142 9.58579C28.0391 9.21071 27.5304 9 27 9H16.46C16.81 9.61 17 10.3 17 11H27V22H18V24H27ZM22 14V16H16V29H14V23H12V29H10V21H8.5V16C8.5 15.4696 8.71071 14.9609 9.08579 14.5858C9.46086 14.2107 9.96957 14 10.5 14H22ZM15 11C15 11.5304 14.7893 12.0391 14.4142 12.4142C14.0391 12.7893 13.5304 13 13 13C12.4696 13 11.9609 12.7893 11.5858 12.4142C11.2107 12.0391 11 11.5304 11 11C11 10.4696 11.2107 9.96086 11.5858 9.58579C11.9609 9.21071 12.4696 9 13 9C13.5304 9 14.0391 9.21071 14.4142 9.58579C14.7893 9.96086 15 10.4696 15 11Z" fill="#001A72"/>
</svg>
