<svg width="36" height="28" viewBox="0 0 36 28" fill="none" xmlns="http://www.w3.org/2000/svg">
<g clip-path="url(#clip0_172_121)">
<path d="M19.5132 2.8492C19.2814 2.61629 19.0099 2.50145 18.6952 2.50145C18.3809 2.50145 18.1055 2.61629 17.8775 2.8492L16.631 4.09801C16.2967 3.8807 15.9431 3.69077 15.5733 3.52087C15.2039 3.35097 14.8263 3.20521 14.4448 3.07859V1.15753C14.4448 0.833619 14.335 0.560948 14.1105 0.335686C13.887 0.110423 13.6157 0 13.2932 0H10.8946C10.5879 0 10.321 0.110423 10.089 0.335686C9.86103 0.560948 9.74678 0.833619 9.74678 1.15753V2.91634C9.346 3.01086 8.95664 3.12953 8.58281 3.27588C8.20576 3.42193 7.84805 3.5883 7.50967 3.77381L6.12949 2.40634C5.91328 2.17724 5.6499 2.05858 5.33144 2.05858C5.0165 2.05858 4.74551 2.17724 4.51348 2.40634L2.83477 4.09801C2.60303 4.33093 2.48877 4.6039 2.48877 4.91956C2.48877 5.23581 2.60303 5.5126 2.83477 5.74169L4.07754 6.99463C3.86133 7.33031 3.67266 7.68602 3.50361 8.05704C3.33428 8.42865 3.18926 8.80851 3.06299 9.1916H1.15225C0.829394 9.1916 0.558105 9.30202 0.334277 9.52728C0.110156 9.75284 0 10.0255 0 10.3497V12.7605C0 13.0682 0.110156 13.3373 0.333984 13.5705C0.557812 13.7993 0.829394 13.9142 1.15195 13.9142H2.90127C2.99561 14.3167 3.11338 14.708 3.25928 15.0835C3.40518 15.463 3.57012 15.8305 3.75469 16.1859L2.39414 17.5493C2.16592 17.7669 2.04814 18.0316 2.04814 18.352C2.04814 18.6679 2.16592 18.9409 2.39414 19.1741L4.07725 20.8852C4.30898 21.1025 4.58027 21.2097 4.89521 21.2097C5.20928 21.2097 5.48437 21.1028 5.71289 20.8852L6.95918 19.6129C7.29316 19.8299 7.64736 20.0195 8.0168 20.19C8.38652 20.3593 8.76387 20.506 9.14531 20.6323V22.5531C9.14531 22.877 9.25547 23.1493 9.4793 23.3743C9.70342 23.6002 9.975 23.7109 10.2973 23.7109H12.6955C13.0022 23.7109 13.2694 23.6002 13.5015 23.3743C13.7291 23.1493 13.8434 22.877 13.8434 22.5531V20.7942C14.2444 20.6997 14.6335 20.5811 15.007 20.4344C15.3847 20.2884 15.7506 20.122 16.1039 19.9365L17.4603 21.3043C17.6769 21.5333 17.9437 21.652 18.2669 21.652C18.5927 21.652 18.8602 21.5336 19.077 21.3043L20.7794 19.6129C20.9956 19.3794 21.1022 19.1067 21.1022 18.7907C21.1022 18.4748 20.9959 18.198 20.7794 17.9689L19.5135 16.716C19.7297 16.38 19.9184 16.0246 20.0877 15.6533C20.2562 15.2819 20.4018 14.9021 20.5277 14.519H22.4388C22.761 14.519 23.032 14.4077 23.2559 14.183C23.4803 13.9575 23.5904 13.6851 23.5904 13.3609V10.9504C23.5904 10.6421 23.4803 10.3739 23.2559 10.1401C23.032 9.91097 22.761 9.79642 22.4388 9.79642H20.6889C20.5945 9.40921 20.4765 9.02199 20.3309 8.6389C20.1855 8.25139 20.02 7.88802 19.8354 7.54762L21.1963 6.16101C21.4242 5.9437 21.5423 5.67868 21.5423 5.3589C21.5423 5.04235 21.4245 4.76997 21.1963 4.53676L19.5132 2.8492ZM32.7885 15.7975C32.6402 15.693 32.4826 15.6565 32.3118 15.6868C32.141 15.7166 32.0021 15.8049 31.9014 15.953L31.3424 16.7486C31.1408 16.6627 30.9316 16.5938 30.7143 16.5363C30.4983 16.4792 30.2795 16.4353 30.0606 16.4035L29.8802 15.3617C29.8494 15.1862 29.7645 15.0487 29.6212 14.9477C29.4788 14.8467 29.3212 14.8126 29.1463 14.8435L27.8452 15.0714C27.6794 15.1005 27.5449 15.1862 27.44 15.3302C27.3375 15.4736 27.3009 15.6326 27.3319 15.8087L27.4972 16.7622C27.2883 16.8514 27.0885 16.953 26.9004 17.0678C26.7088 17.1833 26.5304 17.3069 26.3648 17.44L25.4874 16.8296C25.3479 16.726 25.1947 16.6871 25.0216 16.7168C24.8508 16.7472 24.7151 16.8367 24.6108 16.983L23.8597 18.0605C23.756 18.2089 23.7193 18.3679 23.7492 18.5384C23.7791 18.7106 23.867 18.8496 24.0144 18.9518L24.8062 19.5133C24.7207 19.7156 24.6519 19.9262 24.595 20.1447C24.5379 20.362 24.4945 20.5816 24.4626 20.8016L23.4261 20.983C23.2515 21.0136 23.1146 21.0996 23.0142 21.2433C22.9134 21.3864 22.88 21.5451 22.9104 21.7206L23.1369 23.0283C23.1659 23.195 23.2506 23.3304 23.3947 23.4356C23.5374 23.5386 23.6956 23.5751 23.8705 23.5442L24.8194 23.3781C24.9085 23.5881 25.0093 23.7886 25.1235 23.9785C25.2384 24.1705 25.3623 24.3537 25.4962 24.5289L24.8865 25.3981C24.7831 25.538 24.7444 25.6923 24.7743 25.8663C24.8042 26.038 24.8933 26.1746 25.0392 26.2792L26.1129 27.0468C26.2591 27.1425 26.4164 27.1752 26.5869 27.1452C26.7577 27.1154 26.8972 27.0306 27 26.8914L27.5563 26.0828C27.7579 26.169 27.9674 26.2382 28.1845 26.2951C28.4007 26.3522 28.6192 26.3961 28.8378 26.4276L29.0188 27.47C29.0493 27.6458 29.1349 27.783 29.2775 27.8834C29.4199 27.9847 29.5778 28.0188 29.7524 27.9882L31.0529 27.76C31.2196 27.7306 31.3541 27.6455 31.459 27.5012C31.5612 27.3575 31.5978 27.1994 31.5668 27.023L31.4013 26.0686C31.6102 25.9794 31.8103 25.8784 31.9989 25.7633C32.1896 25.6476 32.3722 25.5236 32.5468 25.3893L33.4113 26.0021C33.5505 26.1057 33.7066 26.1443 33.8812 26.1134C34.0582 26.0828 34.1921 25.993 34.2879 25.8481L35.0522 24.7689C35.1472 24.6216 35.1797 24.4638 35.1495 24.2924C35.1199 24.1208 35.0361 23.9806 34.8976 23.8773L34.0925 23.3181C34.1786 23.1155 34.2472 22.9049 34.304 22.6867C34.3608 22.4694 34.4042 22.2498 34.4364 22.0295L35.4727 21.8481C35.6476 21.8175 35.7841 21.7321 35.8843 21.5881C35.9851 21.4444 36.0187 21.2866 35.9883 21.1108L35.7612 19.8031C35.7322 19.6361 35.6473 19.5013 35.5037 19.3956C35.361 19.2922 35.2028 19.2563 35.0279 19.2869L34.079 19.4533C33.9914 19.2519 33.8909 19.0534 33.7758 18.8593C33.6601 18.6629 33.5367 18.4815 33.4046 18.3146L34.0122 17.4327C34.1156 17.2928 34.154 17.1388 34.1235 16.9645C34.0939 16.7928 34.0049 16.6568 33.8587 16.5519L32.7885 15.7975ZM29.0508 19.1191C29.3645 19.0637 29.6713 19.0714 29.9728 19.1411C30.273 19.2136 30.5449 19.3346 30.7863 19.5036C31.028 19.675 31.2325 19.8911 31.4019 20.1508C31.5697 20.4126 31.6802 20.7 31.7355 21.0154C31.7903 21.331 31.7824 21.6393 31.7133 21.9429C31.6412 22.2442 31.5214 22.5168 31.352 22.7604C31.1815 23.0027 30.9671 23.2085 30.7087 23.3787C30.4482 23.5475 30.1623 23.6588 29.8482 23.7141C29.5348 23.7689 29.228 23.7609 28.926 23.6914C28.6257 23.619 28.3547 23.4986 28.1124 23.3287C27.8716 23.1573 27.6665 22.9417 27.4972 22.682C27.3296 22.4203 27.2183 22.1326 27.1638 21.8172C27.1087 21.5021 27.1163 21.1938 27.1857 20.8902C27.2578 20.5884 27.3782 20.3157 27.5464 20.0722C27.7172 19.8305 27.9319 19.6244 28.1903 19.4542C28.4514 19.2854 28.7373 19.1741 29.0508 19.1191ZM11.7955 7.13302C12.4403 7.13302 13.0494 7.25581 13.6271 7.50051C14.2017 7.74962 14.7012 8.08531 15.1257 8.50786C15.5461 8.93454 15.8801 9.43718 16.1279 10.0134C16.372 10.5944 16.4936 11.2072 16.4936 11.855C16.4936 12.5031 16.372 13.1159 16.1279 13.6966C15.8801 14.2734 15.5461 14.7761 15.1257 15.2027C14.7012 15.6256 14.2017 15.961 13.6271 16.2101C13.0494 16.4554 12.4403 16.5776 11.7955 16.5776C11.1507 16.5776 10.541 16.4554 9.96299 16.2101C9.38935 15.961 8.88955 15.6256 8.46533 15.2027C8.04434 14.7761 7.71035 14.2737 7.4625 13.6966C7.21904 13.1159 7.09687 12.5031 7.09687 11.855C7.09687 11.2072 7.21904 10.5944 7.4625 10.0134C7.71035 9.43689 8.04434 8.93454 8.46533 8.50786C8.88955 8.08531 9.38935 7.74933 9.96299 7.50051C10.5407 7.25581 11.1507 7.13302 11.7955 7.13302Z" fill="black"/>
</g>
<defs>
<clipPath id="clip0_172_121">
<rect width="36" height="28" fill="white"/>
</clipPath>
</defs>
</svg>
