<svg width="532" height="532" viewBox="0 0 532 532" fill="none" xmlns="http://www.w3.org/2000/svg">
<g clip-path="url(#clip0_437_10)">
<path d="M429.971 478.8H381.266V416.733C381.266 411.829 377.303 407.867 372.4 407.867H315.813L301.466 379.175V277.714L359.286 309.252C360.616 309.97 362.079 310.334 363.534 310.334C365.342 310.334 367.142 309.775 368.676 308.693C371.443 306.725 372.835 303.355 372.276 300.003L355.26 197.921L423.197 125.374C425.485 122.936 426.202 119.425 425.059 116.286C423.925 113.148 421.114 110.913 417.798 110.514L316.345 98.1979L274.069 5.19527C272.632 2.03036 269.484 0 265.999 0C262.514 0 259.367 2.03036 257.931 5.19633L215.743 97.995L114.53 106.427C111.179 106.702 108.28 108.857 107.029 111.969C105.788 115.089 106.408 118.645 108.643 121.155L176.756 197.789L159.723 300.004C159.165 303.356 160.557 306.725 163.324 308.694C166.081 310.654 169.743 310.876 172.704 309.253L230.533 277.715V379.176L216.186 407.868H159.599C154.695 407.868 150.733 411.832 150.733 416.734V478.801H102.028C84.88 478.801 70.9326 492.74 70.9326 509.887V523.134C70.9326 528.028 74.8962 532 79.7988 532H452.199C457.103 532 461.065 528.028 461.065 523.134V509.887C461.066 492.738 447.119 478.8 429.971 478.8ZM265.999 213.846L234.496 229.593C231.41 231.136 227.695 230.755 224.982 228.583C222.278 226.411 221.099 222.873 221.933 219.512L229.585 188.913L206.532 165.868C204.271 163.608 203.402 160.309 204.253 157.233C205.113 154.147 207.551 151.771 210.655 150.999L242.158 143.116L258.065 111.294C261.08 105.291 270.922 105.291 273.936 111.294L289.833 143.116L321.345 150.999C324.449 151.77 326.887 154.147 327.747 157.233C328.598 160.31 327.729 163.608 325.468 165.868L302.415 188.913L310.067 219.512C310.901 222.873 309.722 226.411 307.018 228.583C305.403 229.868 303.444 230.534 301.467 230.534C300.119 230.534 298.755 230.223 297.504 229.593L265.999 213.846Z" fill="#737373"/>
<path d="M301.854 164.4L281.585 159.337C279.076 158.708 276.966 157.014 275.804 154.7L265.997 135.087L256.199 154.7C255.037 157.014 252.928 158.708 250.409 159.337L230.141 164.4L245.666 179.926C247.866 182.134 248.76 185.326 247.999 188.35L243.805 205.116L262.035 196.002C263.285 195.372 264.642 195.062 265.998 195.062C267.364 195.062 268.721 195.372 269.97 196.002L288.192 205.116L284.006 188.35C283.244 185.326 284.13 182.134 286.329 179.926L301.854 164.4Z" fill="#737373"/>
</g>
<defs>
<clipPath id="clip0_437_10">
<rect width="532" height="532" fill="white"/>
</clipPath>
</defs>
</svg>
