<svg width="10" height="13" viewBox="0 0 10 13" fill="none" xmlns="http://www.w3.org/2000/svg">
<path d="M3.49981 3.64461C3.42324 3.63794 3.3518 3.60005 3.29969 3.53849C3.24759 3.47693 3.21866 3.39621 3.21866 3.31242C3.21866 3.22863 3.24759 3.14791 3.29969 3.08635C3.3518 3.02479 3.42324 2.9869 3.49981 2.98022H7.40593C7.4825 2.9869 7.55394 3.02479 7.60605 3.08635C7.65815 3.14791 7.68708 3.22863 7.68708 3.31242C7.68708 3.39621 7.65815 3.47693 7.60605 3.53849C7.55394 3.60005 7.4825 3.63794 7.40593 3.64461H3.49981ZM1.59329 9.52148C1.69061 9.52152 1.78626 9.54915 1.87084 9.60167C1.95543 9.65419 2.02605 9.72979 2.07577 9.82106C2.1255 9.91233 2.15262 10.0161 2.15449 10.1223C2.15635 10.2284 2.13289 10.3333 2.08641 10.4266C2.03993 10.5199 1.97202 10.5984 1.88934 10.6544C1.80666 10.7104 1.71206 10.742 1.61481 10.7461C1.51756 10.7502 1.421 10.7267 1.3346 10.6778C1.24821 10.6289 1.17494 10.5564 1.12199 10.4673H0.855315V11.8807C0.85557 11.9339 0.875064 11.9849 0.909562 12.0225C0.944061 12.0602 0.990778 12.0814 1.03957 12.0817H8.83437C8.88314 12.0814 8.92984 12.0601 8.96431 12.0225C8.98157 12.004 8.99527 11.9819 9.0046 11.9576C9.01392 11.9332 9.01869 11.9071 9.01862 11.8807V0.753255C9.0187 0.700171 8.99952 0.649209 8.96528 0.611491C8.93045 0.573783 8.88344 0.552508 8.83437 0.552246H1.03957C1.01533 0.552106 0.991317 0.557209 0.968904 0.567261C0.946492 0.577313 0.926129 0.592114 0.908994 0.610808C0.891859 0.629501 0.878292 0.651716 0.869078 0.676167C0.859864 0.700618 0.855186 0.726819 0.855315 0.753255V2.16667H1.12199C1.18784 2.05536 1.28494 1.97028 1.39877 1.92417C1.51261 1.87805 1.63707 1.87336 1.75355 1.9108C1.87003 1.94825 1.97228 2.02581 2.045 2.1319C2.11773 2.23799 2.15703 2.36691 2.15703 2.49939C2.15703 2.63187 2.11773 2.76079 2.045 2.86688C1.97228 2.97297 1.87003 3.05053 1.75355 3.08798C1.63707 3.12542 1.51261 3.12073 1.39877 3.07461C1.28494 3.0285 1.18784 2.94342 1.12199 2.83211H0.855315V4.71102H1.12199C1.18784 4.59971 1.28494 4.51464 1.39877 4.46852C1.51261 4.4224 1.63707 4.41771 1.75355 4.45516C1.87003 4.4926 1.97228 4.57016 2.045 4.67626C2.11773 4.78235 2.15703 4.91127 2.15703 5.04374C2.15703 5.17622 2.11773 5.30514 2.045 5.41123C1.97228 5.51732 1.87003 5.59488 1.75355 5.63233C1.63707 5.66977 1.51261 5.66509 1.39877 5.61897C1.28494 5.57285 1.18784 5.48778 1.12199 5.37646H0.855315V7.25537H1.12199C1.18781 7.14438 1.28477 7.0596 1.3984 7.01368C1.51202 6.96777 1.63622 6.96319 1.75242 7.00062C1.86863 7.03805 1.97063 7.11549 2.04317 7.22138C2.11571 7.32726 2.15491 7.4559 2.15491 7.58809C2.15491 7.72028 2.11571 7.84893 2.04317 7.95481C1.97063 8.06069 1.86863 8.13814 1.75242 8.17557C1.63622 8.213 1.51202 8.20842 1.3984 8.16251C1.28477 8.11659 1.18781 8.03181 1.12199 7.92082H0.855315V9.79972H1.12199C1.17307 9.71417 1.24294 9.6439 1.32525 9.59531C1.40756 9.54671 1.4997 9.52134 1.59329 9.52148ZM0.3045 10.4652C0.226587 10.4604 0.15331 10.4232 0.0997059 10.3614C0.0461017 10.2995 0.0162354 10.2176 0.0162354 10.1324C0.0162354 10.0473 0.0461017 9.96541 0.0997059 9.90353C0.15331 9.84166 0.226587 9.80452 0.3045 9.79972H0.349108V7.92082H0.3045C0.226587 7.91602 0.15331 7.87888 0.0997059 7.81701C0.0461017 7.75514 0.0162354 7.67323 0.0162354 7.58809C0.0162354 7.50296 0.0461017 7.42105 0.0997059 7.35918C0.15331 7.29731 0.226587 7.26017 0.3045 7.25537H0.349108V5.37646H0.3045C0.226587 5.37167 0.15331 5.33453 0.0997059 5.27265C0.0461017 5.21078 0.0162354 5.12888 0.0162354 5.04374C0.0162354 4.95861 0.0461017 4.8767 0.0997059 4.81483C0.15331 4.75296 0.226587 4.71581 0.3045 4.71102H0.349108V2.83211H0.3045C0.226587 2.82732 0.15331 2.79017 0.0997059 2.7283C0.0461017 2.66643 0.0162354 2.58452 0.0162354 2.49939C0.0162354 2.41425 0.0461017 2.33235 0.0997059 2.27048C0.15331 2.20861 0.226587 2.17146 0.3045 2.16667H0.349108V0.753255C0.349796 0.554609 0.422686 0.364372 0.551785 0.224284C0.615305 0.154451 0.690829 0.0989758 0.774031 0.0610342C0.857233 0.0230926 0.946479 0.00343042 1.03666 0.00317383H8.83437C8.92455 0.00343042 9.01379 0.0230926 9.09699 0.0610342C9.18019 0.0989758 9.25572 0.154451 9.31924 0.224284C9.40895 0.320769 9.47268 0.442257 9.50349 0.575521H9.56168C9.67719 0.576901 9.7876 0.627646 9.86919 0.716858C9.95078 0.80607 9.99705 0.926633 9.99806 1.05265V12.5229C9.99755 12.6491 9.95144 12.7699 9.86974 12.8593C9.78804 12.9486 9.67734 12.9992 9.56168 13H1.62529C1.52668 13 1.43096 12.9636 1.35368 12.8968C1.2764 12.8299 1.2221 12.7366 1.19957 12.6318H1.03957C0.856603 12.6313 0.681279 12.5517 0.551904 12.4106C0.422529 12.2695 0.34962 12.0782 0.349108 11.8786V10.4652H0.3045ZM3.50466 9.65161C3.42674 9.64682 3.35346 9.60967 3.29986 9.5478C3.24626 9.48593 3.21639 9.40402 3.21639 9.31889C3.21639 9.23375 3.24626 9.15185 3.29986 9.08998C3.35346 9.0281 3.42674 8.99096 3.50466 8.98617H7.40593C7.48385 8.99096 7.55713 9.0281 7.61073 9.08998C7.66433 9.15185 7.6942 9.23375 7.6942 9.31889C7.6942 9.40402 7.66433 9.48593 7.61073 9.5478C7.55713 9.60967 7.48385 9.64682 7.40593 9.65161H3.50466ZM3.50466 7.64998C3.42674 7.64519 3.35346 7.60804 3.29986 7.54617C3.24626 7.4843 3.21639 7.4024 3.21639 7.31726C3.21639 7.23213 3.24626 7.15022 3.29986 7.08835C3.35346 7.02648 3.42674 6.98933 3.50466 6.98454H7.40593C7.48385 6.98933 7.55713 7.02648 7.61073 7.08835C7.66433 7.15022 7.6942 7.23213 7.6942 7.31726C7.6942 7.4024 7.66433 7.4843 7.61073 7.54617C7.55713 7.60804 7.48385 7.64519 7.40593 7.64998H3.50466ZM3.50466 5.6473C3.42674 5.6425 3.35346 5.60536 3.29986 5.54349C3.24626 5.48162 3.21639 5.39971 3.21639 5.31458C3.21639 5.22944 3.24626 5.14753 3.29986 5.08566C3.35346 5.02379 3.42674 4.98665 3.50466 4.98185H7.40593C7.48385 4.98665 7.55713 5.02379 7.61073 5.08566C7.66433 5.14753 7.6942 5.22944 7.6942 5.31458C7.6942 5.39971 7.66433 5.48162 7.61073 5.54349C7.55713 5.60536 7.48385 5.6425 7.40593 5.6473H3.50466Z" fill="black"/>
</svg>
