<svg width="24" height="27" viewBox="0 0 24 27" fill="none" xmlns="http://www.w3.org/2000/svg">
<g clip-path="url(#clip0_173_141)">
<path d="M13.7143 13.427C14.0952 13.427 14.3783 13.1084 14.3783 12.7415C14.3783 12.3503 14.0697 12.0559 13.7143 12.0559H5.26736C4.88853 12.0559 4.60335 12.3745 4.60335 12.7415C4.60335 13.1326 4.91194 13.427 5.26736 13.427H13.7143ZM16.4831 4.33472L20.3352 0.129154C20.482 0.00171259 20.631 -0.0488245 20.8034 0.0522497L23.9021 3.15039C24.0255 3.30201 24.0489 3.47998 23.8766 3.65796L19.9521 7.94043L16.4831 4.33472ZM18.6731 9.28736L14.7018 10.1355L15.204 5.67945L18.6731 9.28736ZM4.07342 2.87574H12.9545L12.3054 4.29297H4.07342C3.3328 4.29297 2.65815 4.60718 2.16653 5.11255C1.67491 5.61792 1.37271 6.31226 1.37271 7.0813V17.1316C1.37271 17.8962 1.67704 18.595 2.16653 19.1003C2.65603 19.6057 3.33067 19.9199 4.07342 19.9199H4.86512V19.9221L4.90982 19.9243C5.28651 19.9507 5.57382 20.2891 5.54616 20.678L5.278 24.655L10.3815 21.4668C10.5049 21.3394 10.6752 21.2625 10.8646 21.2625H18.8071C19.5478 21.2625 20.2224 20.9504 20.714 20.4429C21.2035 19.9375 21.5078 19.2388 21.5078 18.4741V11.0847H22.9295V20.4648C23.004 22.5808 22.1676 23.7695 18.7944 23.9146L11.9308 23.752L4.96515 26.7996L4.9311 26.8281C4.64379 27.083 4.21176 27.0479 3.96488 26.749C3.84358 26.6018 3.79037 26.4216 3.80101 26.2437L4.13089 21.335H4.07555C2.95611 21.335 1.93669 20.8626 1.19819 20.1001C0.457569 19.342 0 18.2896 0 17.1338V7.0813C0 5.92554 0.457568 4.87305 1.19606 4.1106C1.93243 3.34815 2.95185 2.87574 4.07342 2.87574ZM16.9598 17.2305C17.3408 17.2305 17.6238 16.9119 17.6238 16.5449C17.6238 16.1516 17.3152 15.8594 16.9598 15.8594H5.26736C4.88853 15.8594 4.60335 16.178 4.60335 16.5449C4.60335 16.936 4.91194 17.2305 5.26736 17.2305H16.9598ZM10.7241 9.62574C11.103 9.62574 11.3881 9.30713 11.3881 8.94019C11.3881 8.57324 11.0795 8.25464 10.7241 8.25464H5.26736C4.88853 8.25464 4.60335 8.57324 4.60335 8.94019C4.60335 9.3313 4.91194 9.62574 5.26736 9.62574H10.7241Z" fill="black"/>
</g>
<defs>
<clipPath id="clip0_173_141">
<rect width="24" height="27" fill="white"/>
</clipPath>
</defs>
</svg>
