<svg width="22" height="22" viewBox="0 0 22 22" fill="none" xmlns="http://www.w3.org/2000/svg">
<g clip-path="url(#clip0_4203_4483)">
<path d="M17.4167 2.75033H13.585C13.2 1.68699 12.1917 0.916992 11 0.916992C9.80833 0.916992 8.8 1.68699 8.415 2.75033H4.58333C3.575 2.75033 2.75 3.57533 2.75 4.58366V17.417C2.75 18.4253 3.575 19.2503 4.58333 19.2503H17.4167C18.425 19.2503 19.25 18.4253 19.25 17.417V4.58366C19.25 3.57533 18.425 2.75033 17.4167 2.75033ZM11 2.75033C11.5042 2.75033 11.9167 3.16283 11.9167 3.66699C11.9167 4.17116 11.5042 4.58366 11 4.58366C10.4958 4.58366 10.0833 4.17116 10.0833 3.66699C10.0833 3.16283 10.4958 2.75033 11 2.75033ZM11 6.41699C12.5217 6.41699 13.75 7.64533 13.75 9.16699C13.75 10.6887 12.5217 11.917 11 11.917C9.47833 11.917 8.25 10.6887 8.25 9.16699C8.25 7.64533 9.47833 6.41699 11 6.41699ZM16.5 17.417H5.5V16.1337C5.5 14.3003 9.16667 13.292 11 13.292C12.8333 13.292 16.5 14.3003 16.5 16.1337V17.417Z" fill="#121212" fill-opacity="0.45"/>
</g>
<defs>
<clipPath id="clip0_4203_4483">
<rect width="22" height="22" fill="white"/>
</clipPath>
</defs>
</svg>
