<svg width="24" height="24" viewBox="0 0 24 24" fill="none" xmlns="http://www.w3.org/2000/svg">
<path fill-rule="evenodd" clip-rule="evenodd" d="M12 20.9499C7.05498 20.9499 3.03998 16.9349 3.03998 11.9899C3.03998 8.96093 4.54698 6.28093 6.84998 4.65893C7.18898 4.41993 7.26998 3.95194 7.03198 3.61394C6.79398 3.27494 6.32498 3.19393 5.98698 3.43193C3.29798 5.32593 1.53998 8.45393 1.53998 11.9899C1.53998 17.7629 6.22698 22.4499 12 22.4499C12.414 22.4499 12.75 22.1139 12.75 21.6999C12.75 21.2859 12.414 20.9499 12 20.9499Z" fill="black"/>
<path fill-rule="evenodd" clip-rule="evenodd" d="M12.578 3.04794C17.254 3.34594 20.96 7.23894 20.96 11.9899C20.96 14.7209 19.736 17.1669 17.807 18.8109C17.492 19.0799 17.454 19.5539 17.723 19.8689C17.991 20.1839 18.465 20.2219 18.78 19.9529C21.032 18.0339 22.46 15.1769 22.46 11.9899C22.46 6.44294 18.133 1.89894 12.673 1.55094C12.26 1.52494 11.903 1.83894 11.877 2.25194C11.851 2.66494 12.165 3.02194 12.578 3.04794Z" fill="black"/>
<path fill-rule="evenodd" clip-rule="evenodd" d="M19.79 19.1849H18.046V17.4409C18.046 17.0269 17.71 16.6909 17.296 16.6909C16.882 16.6909 16.546 17.0269 16.546 17.4409V19.9349C16.546 20.3489 16.882 20.6849 17.296 20.6849H19.79C20.204 20.6849 20.54 20.3489 20.54 19.9349C20.54 19.5209 20.204 19.1849 19.79 19.1849Z" fill="black"/>
<path fill-rule="evenodd" clip-rule="evenodd" d="M4.78998 3.91296H6.53298V5.65596C6.53298 6.06996 6.86898 6.40596 7.28298 6.40596C7.69698 6.40596 8.03298 6.06996 8.03298 5.65596V3.16296C8.03298 2.74896 7.69798 2.41296 7.28298 2.41296H4.78998C4.37598 2.41296 4.03998 2.74896 4.03998 3.16296C4.03998 3.57696 4.37598 3.91296 4.78998 3.91296Z" fill="black"/>
<path fill-rule="evenodd" clip-rule="evenodd" d="M12.29 6.2439C9.11598 6.2439 6.53998 8.8209 6.53998 11.9939C6.53998 15.1679 9.11598 17.7439 12.29 17.7439C15.463 17.7439 18.04 15.1679 18.04 11.9939C18.04 8.8209 15.463 6.2439 12.29 6.2439ZM11.29 9.2439V11.7439C11.29 11.9429 11.369 12.1339 11.51 12.2749L13.51 14.2749C13.802 14.5669 14.278 14.5669 14.57 14.2749C14.863 13.9819 14.863 13.5069 14.57 13.2139L12.79 11.4339V9.2439C12.79 8.8299 12.454 8.4939 12.04 8.4939C11.626 8.4939 11.29 8.8299 11.29 9.2439Z" fill="black"/>
</svg>
