<svg width="30" height="30" viewBox="0 0 30 30" fill="none" xmlns="http://www.w3.org/2000/svg">
<g clip-path="url(#clip0_4120_3192)">
<path d="M15.7115 19V17.75H23.9808C24.1891 17.75 24.3694 17.6859 24.5216 17.5577C24.6739 17.4295 24.75 17.2612 24.75 17.0529V8.44231C24.75 6.10096 23.889 4.14543 22.1671 2.57572C20.4451 1.00601 18.3894 0.221157 16 0.221157C13.6106 0.221157 11.5549 1.00601 9.83294 2.57572C8.11098 4.14543 7.25 6.10096 7.25 8.44231V15.5385H6.625C6.11377 15.5385 5.67347 15.3658 5.30409 15.0204C4.9347 14.6751 4.75 14.2468 4.75 13.7356V11.3798C4.75 11.0064 4.8714 10.6751 5.11419 10.3858C5.35696 10.0965 5.65223 9.86137 6 9.68028L6.02163 8.14422C6.06008 6.83974 6.35535 5.63141 6.90744 4.51922C7.45952 3.40705 8.18629 2.4391 9.08775 1.61538C9.98919 0.791667 11.0365 0.149845 12.2296 -0.310093C13.4227 -0.77003 14.6795 -1 16 -1C17.3205 -1 18.5761 -0.77003 19.7668 -0.310093C20.9575 0.149845 22.0048 0.79047 22.9087 1.61178C23.8125 2.43309 24.5393 3.39983 25.0889 4.512C25.6386 5.62419 25.9351 6.83253 25.9784 8.13703L26 9.64181C26.3317 9.79727 26.623 10.0064 26.8738 10.2692C27.1246 10.5321 27.25 10.8478 27.25 11.2163V13.9231C27.25 14.2917 27.1246 14.6074 26.8738 14.8702C26.623 15.133 26.3317 15.3422 26 15.4976V17.0529C26 17.5961 25.8033 18.0565 25.4099 18.4339C25.0164 18.8113 24.5401 19 23.9808 19H15.7115ZM12.7308 10.9231C12.4728 10.9231 12.248 10.8353 12.0565 10.6598C11.865 10.4844 11.7692 10.2676 11.7692 10.0096C11.7692 9.75161 11.865 9.53084 12.0565 9.34734C12.248 9.16386 12.4728 9.07213 12.7308 9.07213C12.9888 9.07213 13.2135 9.16386 13.405 9.34734C13.5966 9.53084 13.6923 9.75161 13.6923 10.0096C13.6923 10.2676 13.5966 10.4844 13.405 10.6598C13.2135 10.8353 12.9888 10.9231 12.7308 10.9231ZM19.2692 10.9231C19.0112 10.9231 18.7865 10.8353 18.595 10.6598C18.4034 10.4844 18.3077 10.2676 18.3077 10.0096C18.3077 9.75161 18.4034 9.53084 18.595 9.34734C18.7865 9.16386 19.0112 9.07213 19.2692 9.07213C19.5272 9.07213 19.752 9.16386 19.9435 9.34734C20.135 9.53084 20.2308 9.75161 20.2308 10.0096C20.2308 10.2676 20.135 10.4844 19.9435 10.6598C19.752 10.8353 19.5272 10.9231 19.2692 10.9231ZM9.39662 8.9375C9.28285 7.06571 9.88542 5.47035 11.2043 4.15144C12.5232 2.83252 14.1426 2.17306 16.0625 2.17306C17.6763 2.17306 19.1062 2.65744 20.3522 3.62619C21.5982 4.59494 22.359 5.86778 22.6346 7.44472C20.9792 7.42389 19.4427 7.00161 18.0252 6.17788C16.6078 5.35417 15.52 4.20833 14.762 2.74038C14.4607 4.18269 13.8337 5.44671 12.881 6.53244C11.9283 7.61819 10.7668 8.41988 9.39662 8.9375Z" fill="black"/>
</g>
<defs>
<clipPath id="clip0_4120_3192">
<rect width="30" height="30" fill="white"/>
</clipPath>
</defs>
</svg>
