<svg width="30" height="30" viewBox="0 0 30 30" fill="none" xmlns="http://www.w3.org/2000/svg">
<path d="M12.6684 26.25L12.2165 22.6346C11.8175 22.5144 11.386 22.3253 10.922 22.0673C10.4581 21.8093 10.0635 21.5329 9.73814 21.238L6.40402 22.6562L4.07227 18.5938L6.95448 16.4207C6.91763 16.1947 6.88718 15.9619 6.86314 15.7223C6.8391 15.4828 6.82708 15.25 6.82708 15.024C6.82708 14.8141 6.8391 14.5933 6.86314 14.3618C6.88718 14.1302 6.91763 13.8694 6.95448 13.5793L4.07227 11.4062L6.40402 7.39181L9.71411 8.78606C10.0875 8.47517 10.4913 8.19472 10.9256 7.94472C11.3599 7.69472 11.7822 7.5016 12.1925 7.36538L12.6684 3.75H17.3319L17.7838 7.38941C18.263 7.55768 18.6865 7.75079 19.0543 7.96875C19.4221 8.18669 19.8007 8.45912 20.1901 8.78606L23.5963 7.39181L25.9281 11.4062L22.9497 13.6514C23.0186 13.9095 23.0571 14.1462 23.0651 14.3618C23.0731 14.5773 23.0771 14.7901 23.0771 15C23.0771 15.1939 23.0691 15.3986 23.0531 15.6142C23.037 15.8297 23.0002 16.0905 22.9425 16.3966L25.8728 18.5938L23.541 22.6562L20.1901 21.2139C19.8007 21.5409 19.4088 21.8213 19.0146 22.0553C18.6204 22.2893 18.2101 22.4744 17.7838 22.6106L17.3319 26.25H12.6684ZM13.7502 25H16.1949L16.6564 21.6154C17.2862 21.4487 17.8531 21.2199 18.3571 20.9291C18.8611 20.6382 19.3744 20.2396 19.8968 19.7332L23.0146 21.0625L24.2574 18.9375L21.5218 16.8822C21.626 16.5264 21.6949 16.1991 21.7285 15.9003C21.7622 15.6014 21.779 15.3013 21.779 15C21.779 14.6827 21.7622 14.3826 21.7285 14.0997C21.6949 13.8169 21.626 13.5056 21.5218 13.1659L24.3055 11.0625L23.0627 8.9375L19.8728 10.274C19.4946 9.85897 18.9974 9.46995 18.3812 9.10697C17.765 8.74399 17.1821 8.50321 16.6324 8.38462L16.2502 5H13.7574L13.368 8.36056C12.7381 8.49519 12.1592 8.71194 11.6312 9.01081C11.1031 9.30969 10.5779 9.72034 10.0555 10.2428L6.93767 8.9375L5.69489 11.0625L8.40642 13.0865C8.30226 13.367 8.22934 13.6715 8.18767 14C8.14601 14.3285 8.12517 14.6699 8.12517 15.024C8.12517 15.3413 8.14601 15.6562 8.18767 15.9688C8.22934 16.2812 8.29424 16.5857 8.38239 16.8822L5.69489 18.9375L6.93767 21.0625L10.0314 19.75C10.5218 20.2452 11.031 20.6422 11.5591 20.9411C12.0871 21.24 12.6821 21.4728 13.3439 21.6394L13.7502 25ZM14.9665 18.125C15.8383 18.125 16.5771 17.8221 17.1829 17.2163C17.7886 16.6106 18.0915 15.8718 18.0915 15C18.0915 14.1282 17.7886 13.3894 17.1829 12.7837C16.5771 12.1779 15.8383 11.875 14.9665 11.875C14.0899 11.875 13.3499 12.1779 12.7465 12.7837C12.1432 13.3894 11.8415 14.1282 11.8415 15C11.8415 15.8718 12.1432 16.6106 12.7465 17.2163C13.3499 17.8221 14.0899 18.125 14.9665 18.125Z" fill="black"/>
</svg>
