<svg width="30" height="30" viewBox="0 0 30 30" fill="none" xmlns="http://www.w3.org/2000/svg">
<path d="M14.375 16.9712L21.3462 12.5L14.375 8.02884V16.9712ZM10.1442 21.25C9.56891 21.25 9.08854 21.0573 8.70312 20.6719C8.31771 20.2865 8.125 19.8061 8.125 19.2308V5.76922C8.125 5.19391 8.31771 4.71354 8.70312 4.32812C9.08854 3.94271 9.56891 3.75 10.1442 3.75H23.6058C24.1811 3.75 24.6615 3.94271 25.0469 4.32812C25.4323 4.71354 25.625 5.19391 25.625 5.76922V19.2308C25.625 19.8061 25.4323 20.2865 25.0469 20.6719C24.6615 21.0573 24.1811 21.25 23.6058 21.25H10.1442ZM10.1442 20H23.6058C23.7981 20 23.9744 19.9199 24.1346 19.7596C24.2949 19.5994 24.375 19.4231 24.375 19.2308V5.76922C24.375 5.57693 24.2949 5.40065 24.1346 5.24038C23.9744 5.08013 23.7981 5 23.6058 5H10.1442C9.95193 5 9.77565 5.08013 9.61537 5.24038C9.45512 5.40065 9.375 5.57693 9.375 5.76922V19.2308C9.375 19.4231 9.45512 19.5994 9.61537 19.7596C9.77565 19.9199 9.95193 20 10.1442 20ZM6.39422 25C5.81891 25 5.33854 24.8073 4.95312 24.4219C4.56771 24.0365 4.375 23.5561 4.375 22.9808V8.26922H5.625V22.9808C5.625 23.1731 5.70513 23.3494 5.86538 23.5096C6.02562 23.6699 6.20191 23.75 6.39422 23.75H21.1058V25H6.39422Z" fill="black"/>
</svg>
