<svg width="28" height="26" viewBox="0 0 28 26" fill="none" xmlns="http://www.w3.org/2000/svg">
<path d="M10.5 17.8936V18.9202C10.5 19.3247 10.5905 19.7252 10.7664 20.0989C10.9423 20.4725 11.2001 20.8121 11.5251 21.0981C11.8502 21.3841 12.236 21.611 12.6606 21.7657C13.0852 21.9206 13.5403 22.0002 14 22.0002C14.4597 22.0002 14.9148 21.9206 15.3394 21.7657C15.764 21.611 16.1498 21.3841 16.4748 21.0981C16.7999 20.8121 17.0577 20.4725 17.2335 20.0989C17.4095 19.7252 17.5 19.3247 17.5 18.9202V17.8936" stroke="#121212" stroke-width="1.5" stroke-linecap="round" stroke-linejoin="round"/>
<path d="M23.3346 17.8938C23.3346 17.8938 21.0013 12.7605 21.0013 9.68051C21.0013 6.32536 17.814 3.52051 14.0013 3.52051C10.1886 3.52051 7.0013 6.32536 7.0013 9.68051C7.0013 13.7872 4.66797 17.8938 4.66797 17.8938H23.3346Z" stroke="#121212" stroke-width="1.5" stroke-linecap="round" stroke-linejoin="round"/>
</svg>
