<svg width="28" height="25" viewBox="0 0 28 25" fill="none" xmlns="http://www.w3.org/2000/svg">
<g clip-path="url(#clip0_4110_3454)">
<path d="M12.9 11.0879V10.7879H12.6H10.15C10.1252 10.7879 10.108 10.7789 10.1007 10.7724C10.1004 10.7722 10.1002 10.772 10.1 10.7718V8.93993C10.1002 8.93973 10.1004 8.93951 10.1007 8.93929L10.1 8.9385L10.1007 8.93929C10.108 8.93287 10.1252 8.92387 10.15 8.92387H12.6H12.9V8.62387V6.47593C12.9002 6.47573 12.9004 6.47552 12.9007 6.47529C12.908 6.46887 12.9252 6.45987 12.95 6.45987H15.05C15.0748 6.45987 15.092 6.46887 15.0993 6.47529C15.0996 6.47551 15.0998 6.47573 15.1 6.47593V8.62387V8.92387H15.4H17.85C17.8748 8.92387 17.892 8.93287 17.8993 8.93929L17.9 8.93849L17.8993 8.93929C17.8996 8.93952 17.8998 8.93973 17.9 8.93993V10.7718C17.8998 10.772 17.8996 10.7722 17.8993 10.7724L17.9 10.7732L17.8993 10.7724C17.892 10.7789 17.8748 10.7879 17.85 10.7879H15.4H15.1V11.0879V13.2358C15.0998 13.236 15.0996 13.2362 15.0993 13.2364C15.092 13.2429 15.0748 13.2519 15.05 13.2519H12.95C12.9252 13.2519 12.908 13.2429 12.9007 13.2364C12.9004 13.2362 12.9002 13.236 12.9 13.2358V11.0879ZM22.4 15.0839H22.7V14.7839V4.92787V4.62787H22.4H5.6H5.3V4.92787V14.7839V15.0839H5.6H22.4ZM24.385 3.23192C24.7191 3.52596 24.8987 3.91564 24.9 4.31286V16.9479H3.1V4.31238C3.10145 3.91532 3.28105 3.52584 3.61505 3.23192C3.95031 2.93688 4.41189 2.7652 4.90039 2.76387H23.0996C23.5881 2.7652 24.0497 2.93688 24.385 3.23192ZM16.4518 19.6124C16.7046 19.402 16.8816 19.1175 16.9554 18.7799H27.3C27.4176 18.7799 27.5239 18.8213 27.5968 18.8855C27.6685 18.9486 27.7 19.0253 27.7 19.0959V19.7109C27.6981 20.2713 27.4446 20.8174 26.9793 21.2268C26.5128 21.6374 25.8733 21.8741 25.1992 21.8759H2.80078C2.12666 21.8741 1.48722 21.6374 1.02071 21.2268C0.555556 20.8175 0.302028 20.2716 0.3 19.7113V19.0959C0.3 19.0253 0.331511 18.9486 0.403214 18.8855C0.476149 18.8213 0.582409 18.7799 0.7 18.7799H10.9038C10.9762 19.0587 11.1476 19.3211 11.3691 19.5259C11.6758 19.8095 12.1076 20.0119 12.6 20.0119H15.26C15.7126 20.0119 16.1339 19.8771 16.4518 19.6124Z" fill="#121212" stroke="white" stroke-width="0.6"/>
</g>
<defs>
<clipPath id="clip0_4110_3454">
<rect width="28" height="24.64" fill="white"/>
</clipPath>
</defs>
</svg>
