<svg width="30" height="30" viewBox="0 0 30 30" fill="none" xmlns="http://www.w3.org/2000/svg">
<path d="M14.9525 25C12.4141 25 10.2013 24.1711 8.31428 22.5132C6.42726 20.8554 5.33552 18.7676 5.03906 16.25H6.30347C6.64322 18.4006 7.62279 20.1883 9.24219 21.613C10.8616 23.0377 12.765 23.75 14.9525 23.75C17.39 23.75 19.4577 22.901 21.1557 21.2031C22.8536 19.5052 23.7025 17.4375 23.7025 15C23.7025 12.5625 22.8536 10.4948 21.1557 8.79688C19.4577 7.09896 17.39 6.25 14.9525 6.25C13.6593 6.25 12.4437 6.52324 11.3059 7.06972C10.1681 7.6162 9.16406 8.3686 8.29388 9.32694H11.3948V10.5769H6.2025V5.38462H7.4525V8.37019C8.41885 7.30929 9.55147 6.48236 10.8503 5.88941C12.1492 5.29647 13.5166 5 14.9525 5C16.3387 5 17.638 5.26081 18.8503 5.78244C20.0627 6.30408 21.122 7.01803 22.0282 7.92428C22.9345 8.83053 23.6484 9.88982 24.1701 11.1022C24.6917 12.3145 24.9525 13.6138 24.9525 15C24.9525 16.3862 24.6917 17.6855 24.1701 18.8978C23.6484 20.1102 22.9345 21.1695 22.0282 22.0757C21.122 22.982 20.0627 23.6959 18.8503 24.2176C17.638 24.7392 16.3387 25 14.9525 25ZM18.9573 19.8173L14.3996 15.2596V8.75H15.6496V14.7404L19.8419 18.9327L18.9573 19.8173Z" fill="black"/>
</svg>
