<svg width="20" height="20" viewBox="0 0 20 20" fill="none" xmlns="http://www.w3.org/2000/svg">
<path d="M0 7.12511V5.73952L5.70431 0.719727H7.27884L0 7.12511ZM0 2.64473V1.35432L0.721156 0.719727H2.1875L0 2.64473ZM13.7764 4.0007C13.6322 3.89774 13.4804 3.79584 13.3209 3.69501C13.1615 3.59417 13.0048 3.50568 12.851 3.42952L15.9303 0.719727H17.5048L13.7764 4.0007ZM0.721156 14.1038L4.61778 10.6747C4.71553 10.8341 4.80648 10.9751 4.89062 11.0978C4.97475 11.2205 5.0705 11.334 5.17787 11.4384L3.375 13.0249C2.98398 13.125 2.55971 13.2678 2.10219 13.4533C1.64465 13.6387 1.1843 13.8556 0.721156 14.1038ZM15.7933 6.69781V6.68511C15.7612 6.53421 15.7099 6.36428 15.6394 6.17531C15.5689 5.98633 15.4872 5.82063 15.3943 5.6782L20 1.62511V2.99587L15.7933 6.69781ZM8.19231 3.02973L10.8245 0.719727H12.399L10.0144 2.81817C9.96154 2.80972 9.91106 2.80337 9.863 2.79914C9.81492 2.7949 9.76443 2.79279 9.71153 2.79279C9.48236 2.80688 9.22917 2.83721 8.95194 2.88376C8.67469 2.93029 8.42148 2.97894 8.19231 3.02973ZM0 11.6245V10.239L4.16347 6.57511C4.08974 6.80497 4.03044 7.03132 3.98556 7.25414C3.94069 7.47696 3.91825 7.68921 3.91825 7.89087C3.91825 7.93742 3.92066 7.98184 3.92547 8.02414C3.93028 8.06645 3.9375 8.10877 3.94713 8.15108L0 11.6245ZM18.0457 13.7167C17.895 13.6236 17.7424 13.5361 17.5877 13.4543C17.4331 13.3725 17.2628 13.2844 17.0769 13.1899L20 10.6176V12.0032L18.0457 13.7167ZM15.5505 11.4193C15.597 11.2938 15.6314 11.1729 15.6538 11.0566C15.6763 10.9402 15.6947 10.8214 15.7091 10.7001C15.73 10.5605 15.736 10.4209 15.7272 10.2813C15.7183 10.1417 15.7083 10.0112 15.6971 9.88993L20 6.09705V7.51011L15.5505 11.4193ZM10 11.4659C8.96154 11.4659 8.07693 11.1443 7.34616 10.5013C6.61539 9.85818 6.25 9.07972 6.25 8.16587C6.25 7.25203 6.61539 6.47357 7.34616 5.83049C8.07693 5.18741 8.96154 4.86587 10 4.86587C11.0385 4.86587 11.9231 5.18741 12.6538 5.83049C13.3846 6.47357 13.75 7.25203 13.75 8.16587C13.75 9.07972 13.3846 9.85818 12.6538 10.5013C11.9231 11.1443 11.0385 11.4659 10 11.4659ZM10 10.3659C10.6875 10.3659 11.276 10.1505 11.7656 9.71962C12.2552 9.28879 12.5 8.77087 12.5 8.16587C12.5 7.56087 12.2552 7.04296 11.7656 6.61212C11.276 6.18129 10.6875 5.96587 10 5.96587C9.3125 5.96587 8.72396 6.18129 8.23438 6.61212C7.74479 7.04296 7.5 7.56087 7.5 8.16587C7.5 8.77087 7.74479 9.28879 8.23438 9.71962C8.72396 10.1505 9.3125 10.3659 10 10.3659ZM1.25 19.1659V17.6153C1.25 17.1048 1.40705 16.6648 1.72116 16.2953C2.03526 15.9258 2.4327 15.6318 2.91347 15.4132C3.92789 14.9788 5.03485 14.6213 6.23438 14.3407C7.4339 14.06 8.6891 13.9197 10 13.9197C11.3109 13.9197 12.5661 14.06 13.7656 14.3407C14.9651 14.6213 16.0721 14.9788 17.0865 15.4132C17.5513 15.6177 17.9447 15.9117 18.2668 16.2953C18.5889 16.6789 18.75 17.1189 18.75 17.6153V19.1659H1.25ZM2.50722 18.0659H17.4928C17.4832 17.5906 17.4103 17.2299 17.274 16.9839C17.1378 16.7378 16.8742 16.5358 16.4832 16.3778C15.7011 16.0478 14.768 15.739 13.6839 15.4513C12.5998 15.1636 11.3718 15.0197 10 15.0197C8.62821 15.0197 7.40024 15.1636 6.31609 15.4513C5.23197 15.739 4.29887 16.0478 3.51681 16.3778C3.14181 16.5358 2.8822 16.7388 2.73797 16.987C2.59374 17.2352 2.51682 17.5949 2.50722 18.0659Z" fill="black"/>
</svg>
