<svg width="30" height="30" viewBox="0 0 30 30" fill="none" xmlns="http://www.w3.org/2000/svg">
<path d="M17.4972 14.3269C18.3644 14.3269 19.1026 14.0234 19.7115 13.4163C20.3205 12.8092 20.625 12.072 20.625 11.2048C20.625 10.3375 20.3215 9.59935 19.7144 8.99038C19.1073 8.3814 18.3701 8.07691 17.5028 8.07691C16.6356 8.07691 15.8974 8.38046 15.2885 8.98756C14.6795 9.59465 14.375 10.3318 14.375 11.1991C14.375 12.0664 14.6785 12.8045 15.2856 13.4135C15.8927 14.0224 16.6299 14.3269 17.4972 14.3269ZM10.7212 19.9279C11.6106 18.9679 12.6394 18.2272 13.8077 17.7055C14.976 17.1839 16.2067 16.9231 17.5 16.9231C18.7933 16.9231 20.024 17.1839 21.1923 17.7055C22.3606 18.2272 23.3894 18.9679 24.2788 19.9279C24.4872 19.9279 24.6595 19.8518 24.7957 19.6995C24.9319 19.5473 25 19.367 25 19.1587V5.76922C25 5.54486 24.9279 5.36057 24.7837 5.21634C24.6394 5.07211 24.4551 5 24.2308 5H10.7692C10.5449 5 10.3606 5.07211 10.2163 5.21634C10.0721 5.36057 10 5.54486 10 5.76922V19.1587C10 19.367 10.0681 19.5473 10.2043 19.6995C10.3405 19.8518 10.5128 19.9279 10.7212 19.9279ZM10.7692 21.25C10.2139 21.25 9.73857 21.0523 9.34316 20.6568C8.94772 20.2614 8.75 19.7861 8.75 19.2308V5.76922C8.75 5.21393 8.94772 4.73857 9.34316 4.34316C9.73857 3.94772 10.2139 3.75 10.7692 3.75H24.2308C24.7861 3.75 25.2614 3.94772 25.6568 4.34316C26.0523 4.73857 26.25 5.21393 26.25 5.76922V19.2308C26.25 19.7861 26.0523 20.2614 25.6568 20.6568C25.2614 21.0523 24.7861 21.25 24.2308 21.25H10.7692ZM5.76922 26.25C5.21393 26.25 4.73857 26.0523 4.34316 25.6568C3.94772 25.2614 3.75 24.7861 3.75 24.2308V8.75H5V24.2308C5 24.4551 5.07211 24.6394 5.21634 24.7837C5.36057 24.9279 5.54486 25 5.76922 25H21.25V26.25H5.76922ZM17.5 13.0769C16.9856 13.0769 16.5445 12.893 16.1767 12.5252C15.8089 12.1574 15.625 11.7163 15.625 11.2019C15.625 10.6875 15.8089 10.2464 16.1767 9.87859C16.5445 9.5108 16.9856 9.32691 17.5 9.32691C18.0144 9.32691 18.4555 9.5108 18.8233 9.87859C19.1911 10.2464 19.375 10.6875 19.375 11.2019C19.375 11.7163 19.1911 12.1574 18.8233 12.5252C18.4555 12.893 18.0144 13.0769 17.5 13.0769ZM12.4615 20H22.5385C21.8381 19.391 21.0577 18.9343 20.1971 18.6298C19.3365 18.3253 18.4375 18.1731 17.5 18.1731C16.5625 18.1731 15.6635 18.3253 14.8029 18.6298C13.9423 18.9343 13.1619 19.391 12.4615 20Z" fill="black"/>
</svg>
