<svg width="24" height="24" viewBox="0 0 24 24" fill="none" xmlns="http://www.w3.org/2000/svg">
<path d="M6.325 21.6249C5.675 21.6249 5.11667 21.3957 4.65 20.9374C4.18333 20.4791 3.95 19.9249 3.95 19.2749V5.4499H3.675C3.34167 5.4499 3.0625 5.3374 2.8375 5.1124C2.6125 4.8874 2.5 4.60824 2.5 4.2749C2.5 3.94157 2.6125 3.6624 2.8375 3.4374C3.0625 3.2124 3.34167 3.0999 3.675 3.0999H8.3C8.3 2.76657 8.4125 2.48324 8.6375 2.2499C8.8625 2.01657 9.14167 1.8999 9.475 1.8999H14.525C14.8583 1.8999 15.1417 2.01657 15.375 2.2499C15.6083 2.48324 15.725 2.76657 15.725 3.0999H20.325C20.6583 3.0999 20.9375 3.2124 21.1625 3.4374C21.3875 3.6624 21.5 3.94157 21.5 4.2749C21.5 4.60824 21.3875 4.8874 21.1625 5.1124C20.9375 5.3374 20.6583 5.4499 20.325 5.4499H20.05V19.2749C20.05 19.9249 19.8167 20.4791 19.35 20.9374C18.8833 21.3957 18.325 21.6249 17.675 21.6249H6.325ZM6.325 5.4499V19.2749H17.675V5.4499H6.325ZM8.85 16.3749C8.85 16.6249 8.94583 16.8457 9.1375 17.0374C9.32917 17.2291 9.55 17.3249 9.8 17.3249C10.0667 17.3249 10.2958 17.2291 10.4875 17.0374C10.6792 16.8457 10.775 16.6249 10.775 16.3749V8.3249C10.775 8.0749 10.675 7.8499 10.475 7.6499C10.275 7.4499 10.05 7.3499 9.8 7.3499C9.53333 7.3499 9.30833 7.4499 9.125 7.6499C8.94167 7.8499 8.85 8.0749 8.85 8.3249V16.3749ZM13.225 16.3749C13.225 16.6249 13.325 16.8457 13.525 17.0374C13.725 17.2291 13.95 17.3249 14.2 17.3249C14.4667 17.3249 14.6958 17.2291 14.8875 17.0374C15.0792 16.8457 15.175 16.6249 15.175 16.3749V8.3249C15.175 8.0749 15.0792 7.8499 14.8875 7.6499C14.6958 7.4499 14.4667 7.3499 14.2 7.3499C13.9333 7.3499 13.7042 7.4499 13.5125 7.6499C13.3208 7.8499 13.225 8.0749 13.225 8.3249V16.3749ZM6.325 5.4499V19.2749V5.4499Z" fill="black"/>
</svg>
