<svg width="14" height="19" viewBox="0 0 14 19" fill="none" xmlns="http://www.w3.org/2000/svg">
<path fill-rule="evenodd" clip-rule="evenodd" d="M2.43321 1.22581C2.4372 0.54817 2.98364 0 3.65737 0H9.73913V3.67858C9.73913 4.35976 10.2858 4.90323 10.9601 4.90323H14V15.3242C14 16.0023 13.4557 16.5484 12.7842 16.5484C12.7802 17.226 12.2368 17.7742 11.5668 17.7742C11.5628 18.4518 11.0194 19 10.3494 19H1.21582C0.542302 19 0 18.4492 0 17.7697V3.68191C0 3.00221 0.544342 2.45161 1.21582 2.45161C1.21739 1.7764 1.76173 1.22581 2.43321 1.22581ZM1.21739 16.5439C1.21739 17.2234 1.75969 17.7742 2.43321 17.7742L10.9565 17.777C10.9565 18.1081 10.684 18.3871 10.3479 18.3871H1.21737C0.885475 18.3871 0.608696 18.1139 0.608696 17.777V3.67464C0.608696 3.34355 0.881207 3.06452 1.21737 3.06452L1.21739 16.5439ZM1.82609 2.44883V16.5512C1.82609 16.8881 2.10287 17.1613 2.43476 17.1613H11.5652C11.9014 17.1613 12.1739 16.8823 12.1739 16.5512L3.6506 16.5484C2.97709 16.5484 2.43478 15.9976 2.43478 15.3181V1.83871C2.0986 1.83871 1.82609 2.11774 1.82609 2.44883ZM10.3478 0V3.67562C10.3478 4.01511 10.6223 4.29032 10.9509 4.29032H14L10.3478 0Z" fill="black"/>
</svg>
