<svg width="36" height="36" viewBox="0 0 36 36" fill="none" xmlns="http://www.w3.org/2000/svg">
<rect x="0.5" y="0.5" width="35" height="35" rx="5.5" fill="#121212" fill-opacity="0.45" stroke="white"/>
<path d="M14.7053 24.2464L14.5588 24.3929V24.6V26.3235H8.5V24.4706C8.5 23.4619 9.32988 22.4147 10.9795 21.5899C12.5993 20.7799 14.8725 20.2647 17.4118 20.2647C17.828 20.2647 18.2424 20.2747 18.6535 20.2982L14.7053 24.2464ZM28.47 18.6464L27.6471 19.4694L25.9424 17.7647L26.7653 16.9418C26.7889 16.9182 26.8237 16.9029 26.8647 16.9029C26.9057 16.9029 26.9405 16.9182 26.9641 16.9418L28.47 18.4477C28.4936 18.4713 28.5088 18.506 28.5088 18.5471C28.5088 18.5881 28.4936 18.6228 28.47 18.6464ZM17.9118 27.5V25.7836L24.5412 19.1542L26.2464 20.8594L19.6277 27.5H17.9118ZM14.4378 9.73187C15.2265 8.94312 16.2963 8.5 17.4118 8.5C18.5272 8.5 19.597 8.94312 20.3858 9.73187C21.1745 10.5206 21.6176 11.5904 21.6176 12.7059C21.6176 13.8214 21.1745 14.8911 20.3858 15.6799C19.597 16.4686 18.5272 16.9118 17.4118 16.9118C16.2963 16.9118 15.2265 16.4686 14.4378 15.6799C13.649 14.8911 13.2059 13.8214 13.2059 12.7059C13.2059 11.5904 13.649 10.5206 14.4378 9.73187Z" fill="white" stroke="white"/>
</svg>
