<svg width="24" height="24" viewBox="0 0 24 24" fill="none" xmlns="http://www.w3.org/2000/svg">
<path d="M9 9C8.80109 9 8.61032 9.07902 8.46967 9.21967C8.32902 9.36032 8.25 9.55109 8.25 9.75C8.25 9.94891 8.17098 10.1397 8.03033 10.2803C7.88968 10.421 7.69891 10.5 7.5 10.5C7.30109 10.5 7.11032 10.421 6.96967 10.2803C6.82902 10.1397 6.75 9.94891 6.75 9.75C6.75 9.15326 6.98705 8.58097 7.40901 8.15901C7.83097 7.73705 8.40326 7.5 9 7.5C9.59674 7.5 10.169 7.73705 10.591 8.15901C11.0129 8.58097 11.25 9.15326 11.25 9.75C11.25 9.94891 11.171 10.1397 11.0303 10.2803C10.8897 10.421 10.6989 10.5 10.5 10.5C10.3011 10.5 10.1103 10.421 9.96967 10.2803C9.82902 10.1397 9.75 9.94891 9.75 9.75C9.75 9.55109 9.67098 9.36032 9.53033 9.21967C9.38968 9.07902 9.19891 9 9 9ZM15 9C14.8011 9 14.6103 9.07902 14.4697 9.21967C14.329 9.36032 14.25 9.55109 14.25 9.75C14.25 9.94891 14.171 10.1397 14.0303 10.2803C13.8897 10.421 13.6989 10.5 13.5 10.5C13.3011 10.5 13.1103 10.421 12.9697 10.2803C12.829 10.1397 12.75 9.94891 12.75 9.75C12.75 9.15326 12.9871 8.58097 13.409 8.15901C13.831 7.73705 14.4033 7.5 15 7.5C15.5967 7.5 16.169 7.73705 16.591 8.15901C17.0129 8.58097 17.25 9.15326 17.25 9.75C17.25 9.94891 17.171 10.1397 17.0303 10.2803C16.8897 10.421 16.6989 10.5 16.5 10.5C16.3011 10.5 16.1103 10.421 15.9697 10.2803C15.829 10.1397 15.75 9.94891 15.75 9.75C15.75 9.55109 15.671 9.36032 15.5303 9.21967C15.3897 9.07902 15.1989 9 15 9ZM6.8025 12C6.69515 12 6.58905 12.0231 6.49137 12.0676C6.3937 12.1122 6.30673 12.1772 6.23634 12.2582C6.16595 12.3393 6.11378 12.4345 6.08336 12.5375C6.05294 12.6404 6.04497 12.7487 6.06 12.855C6.26379 14.2852 6.97677 15.5939 8.06798 16.5406C9.15918 17.4874 10.5553 18.0086 12 18.0086C13.4447 18.0086 14.8408 17.4874 15.932 16.5406C17.0232 15.5939 17.7362 14.2852 17.94 12.855C17.955 12.7486 17.947 12.6402 17.9165 12.5371C17.886 12.434 17.8337 12.3387 17.7632 12.2577C17.6926 12.1766 17.6055 12.1116 17.5076 12.0672C17.4097 12.0227 17.3035 11.9998 17.196 12H6.8025ZM12 16.5C11.0691 16.5 10.1611 16.2116 9.40092 15.6744C8.64072 15.1371 8.0657 14.3775 7.755 13.5H16.245C15.9343 14.3775 15.3593 15.1371 14.5991 15.6744C13.8389 16.2116 12.9309 16.5 12 16.5ZM21 12C21 10.8181 20.7672 9.64778 20.3149 8.55585C19.8626 7.46392 19.1997 6.47177 18.364 5.63604C17.5282 4.80031 16.5361 4.13738 15.4442 3.68508C14.3522 3.23279 13.1819 3 12 3C10.8181 3 9.64778 3.23279 8.55585 3.68508C7.46392 4.13738 6.47177 4.80031 5.63604 5.63604C4.80031 6.47177 4.13738 7.46392 3.68508 8.55585C3.23279 9.64778 3 10.8181 3 12C3 14.3869 3.94821 16.6761 5.63604 18.364C7.32387 20.0518 9.61305 21 12 21C14.3869 21 16.6761 20.0518 18.364 18.364C20.0518 16.6761 21 14.3869 21 12ZM4.5 12C4.5 10.0109 5.29018 8.10322 6.6967 6.6967C8.10322 5.29018 10.0109 4.5 12 4.5C13.9891 4.5 15.8968 5.29018 17.3033 6.6967C18.7098 8.10322 19.5 10.0109 19.5 12C19.5 13.9891 18.7098 15.8968 17.3033 17.3033C15.8968 18.7098 13.9891 19.5 12 19.5C10.0109 19.5 8.10322 18.7098 6.6967 17.3033C5.29018 15.8968 4.5 13.9891 4.5 12Z" fill="#121212"/>
</svg>
