<svg width="27" height="27" viewBox="0 0 27 27" fill="none" xmlns="http://www.w3.org/2000/svg">
<path d="M22.7329 6.42036L17.7671 1.45461C17.6716 1.36046 17.56 1.28424 17.4375 1.22961V5.06249C17.4375 5.51004 17.6153 5.93926 17.9318 6.25573C18.2482 6.5722 18.6774 6.74999 19.125 6.74999H22.9579C22.9032 6.62751 22.827 6.51586 22.7329 6.42036Z" fill="black"/>
<path d="M8.99997 5.75769L8.69116 6.37475H9.30879L8.99997 5.75769Z" fill="black"/>
<path d="M19.125 7.875C18.3794 7.87411 17.6645 7.5775 17.1372 7.05025C16.61 6.523 16.3134 5.80815 16.3125 5.0625V1.125H6.75C6.00408 1.125 5.28871 1.42132 4.76126 1.94876C4.23382 2.47621 3.9375 3.19158 3.9375 3.9375V23.0625C3.9375 23.8084 4.23382 24.5238 4.76126 25.0512C5.28871 25.5787 6.00408 25.875 6.75 25.875H20.25C20.6193 25.875 20.9851 25.8023 21.3263 25.6609C21.6675 25.5196 21.9776 25.3124 22.2387 25.0512C22.4999 24.7901 22.7071 24.48 22.8484 24.1388C22.9898 23.7976 23.0625 23.4318 23.0625 23.0625V7.875H19.125ZM11.5312 5.34375H11.8125V5.0625C11.8125 4.91332 11.8718 4.77024 11.9773 4.66475C12.0827 4.55926 12.2258 4.5 12.375 4.5C12.5242 4.5 12.6673 4.55926 12.7727 4.66475C12.8782 4.77024 12.9375 4.91332 12.9375 5.0625V5.34375H13.2188C13.3679 5.34375 13.511 5.40301 13.6165 5.5085C13.722 5.61399 13.7812 5.75707 13.7812 5.90625C13.7812 6.05543 13.722 6.19851 13.6165 6.304C13.511 6.40949 13.3679 6.46875 13.2188 6.46875H12.9375V6.75C12.9375 6.89918 12.8782 7.04226 12.7727 7.14775C12.6673 7.25324 12.5242 7.3125 12.375 7.3125C12.2258 7.3125 12.0827 7.25324 11.9773 7.14775C11.8718 7.04226 11.8125 6.89918 11.8125 6.75V6.46875H11.5312C11.3821 6.46875 11.239 6.40949 11.1335 6.304C11.028 6.19851 10.9688 6.05543 10.9688 5.90625C10.9688 5.75707 11.028 5.61399 11.1335 5.5085C11.239 5.40301 11.3821 5.34375 11.5312 5.34375ZM7.06106 8.38125C6.99493 8.34825 6.93595 8.30255 6.88748 8.24675C6.83902 8.19094 6.80203 8.12614 6.77863 8.05603C6.75523 7.98593 6.74587 7.9119 6.75109 7.83818C6.75631 7.76445 6.77601 7.69248 6.80906 7.62637L8.49656 4.25137C8.54854 4.1642 8.62226 4.09202 8.71051 4.04189C8.79875 3.99176 8.89851 3.96541 9 3.96541C9.10149 3.96541 9.20125 3.99176 9.28949 4.04189C9.37774 4.09202 9.45146 4.1642 9.50344 4.25137L11.1909 7.62637C11.2576 7.75989 11.2685 7.91444 11.2213 8.056C11.174 8.19757 11.0725 8.31456 10.9389 8.38125C10.8054 8.44794 10.6509 8.45885 10.5093 8.41159C10.3677 8.36433 10.2507 8.26277 10.1841 8.12925L9.87131 7.50262H8.12756L7.81875 8.12644C7.78601 8.19317 7.74037 8.25276 7.68447 8.30175C7.62856 8.35074 7.5635 8.38816 7.49305 8.41186C7.42259 8.43555 7.34814 8.44504 7.27399 8.43979C7.19984 8.43454 7.12747 8.41464 7.06106 8.38125ZM16.3125 22.5H7.875C7.72582 22.5 7.58274 22.4407 7.47725 22.3352C7.37176 22.2298 7.3125 22.0867 7.3125 21.9375C7.3125 21.7883 7.37176 21.6452 7.47725 21.5398C7.58274 21.4343 7.72582 21.375 7.875 21.375H16.3125C16.4617 21.375 16.6048 21.4343 16.7102 21.5398C16.8157 21.6452 16.875 21.7883 16.875 21.9375C16.875 22.0867 16.8157 22.2298 16.7102 22.3352C16.6048 22.4407 16.4617 22.5 16.3125 22.5ZM19.125 19.6875H7.875C7.72582 19.6875 7.58274 19.6282 7.47725 19.5227C7.37176 19.4173 7.3125 19.2742 7.3125 19.125C7.3125 18.9758 7.37176 18.8327 7.47725 18.7273C7.58274 18.6218 7.72582 18.5625 7.875 18.5625H19.125C19.2742 18.5625 19.4173 18.6218 19.5227 18.7273C19.6282 18.8327 19.6875 18.9758 19.6875 19.125C19.6875 19.2742 19.6282 19.4173 19.5227 19.5227C19.4173 19.6282 19.2742 19.6875 19.125 19.6875ZM19.125 16.875H7.875C7.72582 16.875 7.58274 16.8157 7.47725 16.7102C7.37176 16.6048 7.3125 16.4617 7.3125 16.3125C7.3125 16.1633 7.37176 16.0202 7.47725 15.9148C7.58274 15.8093 7.72582 15.75 7.875 15.75H19.125C19.2742 15.75 19.4173 15.8093 19.5227 15.9148C19.6282 16.0202 19.6875 16.1633 19.6875 16.3125C19.6875 16.4617 19.6282 16.6048 19.5227 16.7102C19.4173 16.8157 19.2742 16.875 19.125 16.875ZM19.125 14.0625H7.875C7.72582 14.0625 7.58274 14.0032 7.47725 13.8977C7.37176 13.7923 7.3125 13.6492 7.3125 13.5C7.3125 13.3508 7.37176 13.2077 7.47725 13.1023C7.58274 12.9968 7.72582 12.9375 7.875 12.9375H19.125C19.2742 12.9375 19.4173 12.9968 19.5227 13.1023C19.6282 13.2077 19.6875 13.3508 19.6875 13.5C19.6875 13.6492 19.6282 13.7923 19.5227 13.8977C19.4173 14.0032 19.2742 14.0625 19.125 14.0625ZM19.125 11.25H9.5625C9.41332 11.25 9.27024 11.1907 9.16475 11.0852C9.05926 10.9798 9 10.8367 9 10.6875C9 10.5383 9.05926 10.3952 9.16475 10.2898C9.27024 10.1843 9.41332 10.125 9.5625 10.125H19.125C19.2742 10.125 19.4173 10.1843 19.5227 10.2898C19.6282 10.3952 19.6875 10.5383 19.6875 10.6875C19.6875 10.8367 19.6282 10.9798 19.5227 11.0852C19.4173 11.1907 19.2742 11.25 19.125 11.25Z" fill="black"/>
</svg>
