<svg width="521" height="335" viewBox="0 0 521 335" fill="none" xmlns="http://www.w3.org/2000/svg">
<g clip-path="url(#clip0_510_14)">
<path d="M227.007 58.0537C195.375 58.0537 171.186 91.5466 171.186 132.482C171.186 173.418 195.375 206.911 227.007 206.911C258.639 206.911 282.828 173.418 282.828 132.482C282.828 91.5466 258.639 58.0537 227.007 58.0537Z" fill="#737373"/>
<path d="M502.393 74.4286H446.571V18.6071C446.571 7.44286 439.129 0 427.964 0H18.6071C7.44286 0 0 7.44286 0 18.6071V241.893C0 253.057 7.44286 260.5 18.6071 260.5H74.4286H427.964C439.129 260.5 446.571 267.943 446.571 279.107C446.571 290.271 439.129 297.714 427.964 297.714H74.4286V316.321C74.4286 327.486 81.8714 334.929 93.0357 334.929H502.393C513.557 334.929 521 327.486 521 316.321V93.0357C521 81.8714 513.557 74.4286 502.393 74.4286ZM409.357 150.718C372.143 158.161 344.232 186.071 336.789 223.286H109.782C102.339 186.071 74.4286 158.161 37.2143 150.718V109.782C74.4286 102.339 102.339 74.4286 109.782 37.2143H336.789C344.232 74.4286 372.143 102.339 409.357 109.782V150.718Z" fill="#737373"/>
</g>
<defs>
<clipPath id="clip0_510_14">
<rect width="521" height="334.929" fill="white"/>
</clipPath>
</defs>
</svg>
