<svg width="376" height="522" viewBox="0 0 376 522" fill="none" xmlns="http://www.w3.org/2000/svg">
<g clip-path="url(#clip0_506_25)">
<path d="M50.3281 288.899L32.3356 390.785C32.0385 392.186 31.4869 393.459 30.6382 394.435C24.2305 402.71 20.1991 409.796 19.011 415.525C18.1622 419.769 19.011 423.163 21.8541 425.837L92.1267 496.109C96.5824 500.395 101.802 503.111 107.997 504.215C114.787 505.488 122.68 504.766 131.761 502.305C131.888 502.305 132.101 502.22 132.27 502.22C135.708 501.287 140.248 500.183 144.534 499.122C163.375 494.539 179.798 490.508 195.074 476.674L214.679 456.22C214.892 455.881 215.189 455.584 215.443 455.287C215.74 454.99 217.65 453.08 220.238 450.619C233.648 437.507 250.24 421.339 240.141 407.165L232.29 399.315C228.471 402.964 224.44 406.571 220.578 410.051C217.056 413.149 213.746 416.034 210.691 419.09C207.466 422.315 202.204 422.315 198.978 419.09C195.753 415.822 195.753 410.603 198.978 407.378C201.991 404.322 205.768 401.012 209.63 397.575C222.912 385.863 238.146 372.453 229.956 360.741L222.19 352.976C221.766 352.551 221.427 352.042 221.045 351.575C216.589 356.158 211.667 360.529 206.871 364.773C203.349 367.87 200.039 370.756 196.984 373.811C193.716 377.079 188.497 377.079 185.272 373.811C182.004 370.586 182.004 365.324 185.272 362.099C188.285 359.086 192.062 355.734 195.923 352.297C209.205 340.585 224.44 327.175 216.25 315.463L208.484 307.697C207.932 307.146 207.508 306.552 207.126 305.915L184.338 328.703C181.071 331.928 175.851 331.928 172.626 328.703C169.401 325.435 169.401 320.216 172.626 316.991L215.358 274.258C225.585 264.032 227.919 253.38 225.246 245.318C224.27 242.347 222.615 239.759 220.578 237.679C219.517 236.618 218.329 235.685 217.013 234.879H216.971C216.334 235.176 215.868 234.539 215.274 233.945C214.552 233.606 213.746 233.266 212.982 233.011C205.895 230.678 196.687 232.332 187.351 240.183C187.224 240.31 187.097 240.438 186.969 240.522C185.951 241.371 184.932 242.305 183.914 243.323L95.2245 332.14C91.9994 335.365 86.7375 335.365 83.5124 332.14C80.5419 329.17 80.2873 324.587 82.7486 321.319L50.3281 288.899ZM106.427 297.513L109.271 294.67L167.789 236.152C161.72 233.351 156.077 229.404 151.069 224.397C128.791 202.119 128.791 166.134 151.069 143.855C173.348 121.577 209.333 121.577 231.611 143.855C253.89 166.134 253.89 202.119 231.611 224.397C231.441 224.567 231.229 224.779 231.059 224.949C231.484 225.331 231.951 225.755 232.375 226.179C234.2 228.004 235.77 229.999 237.17 232.12L309.734 159.556C298.616 148.438 298.616 130.276 309.734 119.115L255.672 65.0531C244.554 76.1711 226.392 76.1711 215.231 65.0531L64.8409 215.443C75.9589 226.561 75.9589 244.724 64.8409 255.884L106.427 297.513ZM233.987 278.247C232.035 280.963 229.786 283.679 227.113 286.31L218.626 294.797L218.541 294.585C219.178 294.924 219.729 295.349 220.323 295.943L228.428 304.048C228.853 304.472 229.277 305.024 229.617 305.533C238.74 318.009 237.297 329.17 231.102 339.354C232.248 339.778 233.309 340.415 234.115 341.264L242.22 349.369C242.644 349.793 243.069 350.345 243.408 350.854C253.211 364.348 250.749 376.103 243.408 386.839C243.748 387.051 244.045 387.348 244.384 387.688L252.489 395.793C252.914 396.217 253.338 396.769 253.677 397.278C272.519 423.036 250.07 444.89 232.035 462.543L227.368 467.211L207.253 488.301L206.617 488.938C188.2 505.657 169.91 510.113 148.82 515.248C145.298 516.096 141.691 517.03 136.769 518.261C136.641 518.261 136.556 518.345 136.429 518.345C125.014 521.443 114.617 522.207 105.324 520.552C95.861 518.855 87.671 514.611 80.839 507.906L10.6937 437.719C3.56455 430.887 1.18818 422.4 3.1402 412.385C4.7103 404.322 9.33574 395.453 16.677 385.863L35.4334 279.605V279.181C35.6031 277.865 35.8577 276.38 36.1548 274.768L0 238.613L238.613 0L375.424 136.811L233.987 278.247Z" fill="#737373"/>
</g>
<defs>
<clipPath id="clip0_506_25">
<rect width="375.424" height="521.443" fill="white"/>
</clipPath>
</defs>
</svg>
