<svg width="463" height="520" viewBox="0 0 463 520" fill="none" xmlns="http://www.w3.org/2000/svg">
<g clip-path="url(#clip0_497_30)">
<path fill-rule="evenodd" clip-rule="evenodd" d="M462.135 375.939L313.691 520L237.308 443.505L245.913 432.344L301.901 487.917L302.601 488.657C307.948 493.893 316.532 493.802 321.768 488.454L326.608 483.513L326.77 483.665L349.539 460.075L450.619 364.413L462.135 375.939ZM393.068 232.295V22.434H22.9018V408.652L30.9277 403.903C35.4835 401.214 41.1757 402.128 44.6965 405.78L79.3774 438.777L115.459 406.48C119.822 402.584 126.396 402.736 130.567 406.673L165.319 439.365L198.924 406.785C200.629 405.121 202.739 404.116 204.931 403.761C204.687 411.574 207.477 419.468 213.322 425.515C211.804 427.54 210.549 429.749 209.588 432.09L207.153 429.98L173.233 462.855C168.971 466.994 162.143 467.096 157.77 462.976L122.713 429.98L86.9772 461.962C82.7055 466.173 75.8058 466.264 71.4225 462.094L35.0472 427.474L17.9706 437.58C16.1746 438.797 14.0134 439.507 11.6898 439.507C5.50046 439.507 0.467773 434.475 0.467773 428.296V11.2119C0.467773 5.02254 5.50046 0 11.6898 0H404.28C410.469 0 415.492 5.02254 415.492 11.2119V250.447L404.574 239.499C401.226 236.14 397.268 233.736 393.068 232.295ZM324.254 237.145H82.5736V214.711H324.254V237.145ZM287.767 311.61H82.5736V289.176H310.871L287.767 311.61ZM111.126 162.436H89.7878V82.1971H137.203V99.6187H111.126V114.899H135.153V132.321H111.126V162.436ZM198.011 162.436H150.363V82.1971H198.011V99.6187H172.036V112.2H196.083V129.622H172.036V144.791H198.011V162.436ZM259.692 162.436H212.043V82.1971H259.692V99.6187H233.716V112.2H257.764V129.622H233.716V144.791H259.692V162.436ZM326.162 138.094C326.162 143.066 324.914 147.49 322.387 151.346C319.861 155.212 316.228 158.205 311.459 160.356C306.711 162.497 301.13 163.562 294.738 163.562C289.401 163.562 284.906 163.187 281.294 162.436C277.671 161.695 273.907 160.376 270 158.509V139.18C274.106 141.283 278.422 142.946 282.876 144.142C287.341 145.319 291.44 145.917 295.164 145.917C298.39 145.917 300.755 145.359 302.246 144.253C303.748 143.147 304.499 141.707 304.499 139.961C304.499 138.855 304.194 137.902 303.585 137.08C302.977 136.258 302.013 135.426 300.673 134.584C299.344 133.742 295.793 132.017 289.999 129.419C284.774 127.045 280.857 124.731 278.239 122.509C275.632 120.277 273.684 117.71 272.436 114.828C271.177 111.947 270.538 108.517 270.538 104.56C270.538 97.1836 273.217 91.4203 278.595 87.2704C283.972 83.1306 291.369 81.0708 300.775 81.0708C309.065 81.0708 317.537 82.9784 326.162 86.8239L319.536 103.535C312.027 100.106 305.564 98.3808 300.115 98.3808C297.305 98.3808 295.245 98.8882 293.967 99.8825C292.678 100.877 292.039 102.115 292.039 103.566C292.039 105.138 292.871 106.569 294.494 107.807C296.128 109.045 300.521 111.308 307.735 114.605C314.655 117.71 319.445 121.058 322.144 124.63C324.822 128.202 326.162 132.676 326.162 138.094ZM459.71 337.139L311.277 481.2L234.883 404.695L383.317 260.644L459.71 337.139ZM368.351 365.316C372.46 378.263 365.307 392.083 352.36 396.192C339.423 400.301 325.603 393.148 321.494 380.201C317.375 367.264 324.538 353.445 337.475 349.335C350.422 345.216 364.242 352.379 368.351 365.316ZM423.487 350.076L324.355 444.865C318.156 438.655 307.999 438.635 301.769 444.875L271.533 414.638C277.752 408.439 277.773 398.292 271.533 392.062L370.685 297.233C376.884 303.453 387.041 303.463 393.271 297.233L423.497 327.449C417.267 333.689 417.247 343.836 423.487 350.076Z" fill="#737373"/>
</g>
<defs>
<clipPath id="clip0_497_30">
<rect width="461.668" height="520" fill="white" transform="translate(0.467773)"/>
</clipPath>
</defs>
</svg>
