<svg width="28" height="20" viewBox="0 0 28 20" fill="none" xmlns="http://www.w3.org/2000/svg">
<path fill-rule="evenodd" clip-rule="evenodd" d="M6.02028 14.9441V7.28867H9.37215C10.7928 7.55089 12.214 8.34206 13.6351 9.2611H16.2381C17.4166 9.33425 18.0337 10.5608 16.8887 11.3669C15.9756 12.0546 14.7715 12.0157 13.5373 11.9018C12.6858 11.859 12.6485 13.0348 13.5373 13.0388C13.8453 13.0632 14.181 12.9885 14.4736 12.9885C16.0144 12.987 17.2834 12.6845 18.0608 11.4341L18.4513 10.4981L22.3233 8.52567C24.2613 7.86985 25.6384 9.95275 24.2109 11.4002C21.4059 13.4971 18.5292 15.2222 15.5871 16.6155C13.4506 17.9505 11.3135 17.9057 9.17695 16.6155L6.02028 14.9441ZM8.8311 1.30418L8.80785 2.21526H9.32759L10.215 2.19187L10.2988 2.30184L10.2072 3.44878L9.22054 3.42539H8.77685V3.5269L8.83837 5.17641H7.30145L7.37798 3.68464L7.30145 0.0940441H10.6049L10.6892 0.204011L10.5899 1.35095L9.36634 1.30418H8.8311ZM14.7414 3.92L14.8257 4.02996L14.7342 5.17641H11.2467L11.3237 3.68464L11.2467 0.0940441H14.7952L14.879 0.204011L14.7802 1.35095L13.5639 1.30418H12.7763L12.7613 2.01921H13.5179L14.3132 1.99533L14.3975 2.10529L14.3055 3.25223L13.4186 3.22885H12.7308L12.7226 3.5269L12.7381 3.96727H13.4724L14.7414 3.92ZM19.1458 3.92L19.2296 4.02996L19.1386 5.17641H15.6511L15.7281 3.68464L15.6511 0.0940441H19.1996L19.2834 0.204011L19.1841 1.35095L17.9683 1.30418H17.1803L17.1657 2.01921H17.9223L18.7177 1.99533L18.8015 2.10529L18.7099 3.25223L17.823 3.22885H17.1347L17.127 3.5269L17.1425 3.96727H17.8763L19.1458 3.92ZM21.9286 0C22.4129 0 22.8925 0.0915562 23.3662 0.275166L23.1221 1.55546L22.908 1.6495C22.6939 1.51366 22.4793 1.4037 22.273 1.32756C22.0666 1.25193 21.8956 1.20964 21.7687 1.20964C21.651 1.20964 21.5551 1.23601 21.4892 1.28029C21.4229 1.32458 21.3861 1.39076 21.3861 1.46938C21.3861 1.5684 21.4379 1.65348 21.5425 1.72414C21.6472 1.7953 21.8239 1.89233 22.0666 2.00329C22.3485 2.13266 22.5868 2.25606 22.7699 2.36852C22.9535 2.48097 23.1167 2.63821 23.2519 2.83177C23.387 3.02533 23.4587 3.27064 23.4587 3.55875C23.4587 3.8782 23.372 4.16829 23.2025 4.42654C23.0329 4.68479 22.7849 4.89378 22.4716 5.04305C22.1582 5.19233 21.7891 5.27095 21.3711 5.27095C20.8508 5.27095 20.3054 5.17143 19.7344 4.97239L19.9557 3.60552L20.1088 3.51148C20.3432 3.69459 20.597 3.84237 20.8625 3.94736C21.1274 4.05186 21.3527 4.10858 21.5314 4.10858C21.6738 4.10858 21.7799 4.08072 21.8409 4.03394C21.9019 3.98667 21.9368 3.92248 21.9368 3.84884C21.9368 3.73937 21.8797 3.64284 21.7726 3.57019C21.6656 3.49705 21.4829 3.39852 21.2408 3.29154C20.9632 3.16814 20.7273 3.04374 20.5486 2.93428C20.3703 2.82431 20.21 2.66558 20.0787 2.47052C19.9475 2.27547 19.8797 2.03215 19.8797 1.74405C19.8797 1.41365 19.9688 1.1141 20.1398 0.85187C20.3103 0.590637 20.5563 0.378167 20.8659 0.227895C21.1754 0.0771261 21.5314 0 21.9286 0ZM0 6.55323H5.01133V15.7128H0V6.55323Z" fill="black"/>
</svg>
