<svg width="20" height="20" viewBox="0 0 20 20" fill="none" xmlns="http://www.w3.org/2000/svg">
<path d="M11.25 5.3125V0H3.4375C2.91797 0 2.5 0.417969 2.5 0.9375V19.0625C2.5 19.582 2.91797 20 3.4375 20H16.5625C17.082 20 17.5 19.582 17.5 19.0625V6.25H12.1875C11.6719 6.25 11.25 5.82812 11.25 5.3125ZM13.75 14.5312C13.75 14.7891 13.5391 15 13.2812 15H6.71875C6.46094 15 6.25 14.7891 6.25 14.5312V14.2188C6.25 13.9609 6.46094 13.75 6.71875 13.75H13.2812C13.5391 13.75 13.75 13.9609 13.75 14.2188V14.5312ZM13.75 12.0312C13.75 12.2891 13.5391 12.5 13.2812 12.5H6.71875C6.46094 12.5 6.25 12.2891 6.25 12.0312V11.7188C6.25 11.4609 6.46094 11.25 6.71875 11.25H13.2812C13.5391 11.25 13.75 11.4609 13.75 11.7188V12.0312ZM13.75 9.21875V9.53125C13.75 9.78906 13.5391 10 13.2812 10H6.71875C6.46094 10 6.25 9.78906 6.25 9.53125V9.21875C6.25 8.96094 6.46094 8.75 6.71875 8.75H13.2812C13.5391 8.75 13.75 8.96094 13.75 9.21875ZM17.5 4.76172V5H12.5V0H12.7383C12.9883 0 13.2266 0.0976562 13.4023 0.273438L17.2266 4.10156C17.4023 4.27734 17.5 4.51562 17.5 4.76172Z" fill="#121212" fill-opacity="0.45"/>
</svg>
