<svg width="28" height="28" viewBox="0 0 28 28" fill="none" xmlns="http://www.w3.org/2000/svg">
<path d="M21.0001 23.483H21.1501V23.333V10.4997V10.3497H21.0001H15.3167V4.66634V4.51634H15.1667H7.00008H6.85008V4.66634V23.333V23.483H7.00008H21.0001ZM11.3168 20.6847L12.0456 17.7694L12.068 17.6798L11.9981 17.6195L9.70716 15.6409L12.7271 15.4327L12.8204 15.4262L12.8557 15.3396L14.0027 12.5242L15.1453 15.2248L15.1812 15.3096L15.2731 15.316L18.293 15.5243L16.002 17.5028L15.9322 17.5632L15.9546 17.6527L16.687 20.5824L14.0734 19.1188L13.9975 19.0763L13.9229 19.1211L11.3168 20.6847ZM7.00008 2.48301H16.2713L23.1834 9.39514V23.333C23.1834 24.5335 22.2006 25.5163 21.0001 25.5163H7.00008C5.79959 25.5163 4.81675 24.5335 4.81675 23.333V4.66634C4.81675 3.46585 5.79959 2.48301 7.00008 2.48301Z" fill="#121212" stroke="white" stroke-width="0.3"/>
</svg>
