<svg width="30" height="30" viewBox="0 0 30 30" fill="none" xmlns="http://www.w3.org/2000/svg">
<path d="M27.8777 5.86493L22.186 6.35412C22.1572 6.35659 22.1298 6.36734 22.107 6.38505C22.0842 6.40276 22.067 6.42669 22.0575 6.45395C22.048 6.48121 22.0466 6.51063 22.0535 6.53867C22.0603 6.56671 22.0751 6.59217 22.0961 6.61197L23.5319 7.96611L23.2132 8.29141L23.0006 8.50845L21.921 9.62914C21.505 10.0676 21.0907 10.507 20.6781 10.9475C20.3825 11.2644 20.0885 11.583 19.7962 11.9036C19.0965 12.6694 18.4057 13.444 17.7239 14.2273C17.3846 14.6202 17.0466 15.015 16.7135 15.4141C16.625 15.5201 16.5377 15.6274 16.4497 15.7341L16.0936 15.5339L10.5375 12.4106L9.65069 11.9123L9.01519 12.6046L8.22004 13.4708L1.95984 20.2898L3.27449 21.572L10.048 15.0356H10.0486L14.0138 17.615L16.0412 18.934L16.7765 19.4123L16.9449 19.5215L17.9016 18.6833C18.2932 18.3397 18.6789 17.9904 19.0585 17.6356C19.4395 17.2813 19.815 16.9227 20.1891 16.5629C20.9363 15.8413 21.6724 15.1098 22.3975 14.3683C23.1259 13.6292 23.8406 12.8771 24.5534 12.1237L25.6143 10.985L25.7577 10.8284L26.1328 10.4191L27.5037 11.712C27.5245 11.7316 27.5504 11.7448 27.5785 11.7502C27.6066 11.7555 27.6356 11.7526 27.6621 11.742C27.6886 11.7313 27.7115 11.7133 27.7281 11.6901C27.7447 11.6668 27.7543 11.6393 27.7557 11.6108L28.0399 6.02154C28.041 6.00021 28.0375 5.97889 28.0296 5.95902C28.0218 5.93915 28.0098 5.92119 27.9944 5.90635C27.9791 5.89151 27.9607 5.88014 27.9406 5.87299C27.9204 5.86585 27.899 5.8631 27.8777 5.86493Z" fill="#737373"/>
<path d="M3.3031 29.0783C3.30329 29.208 3.3549 29.3324 3.44662 29.4241C3.53834 29.5158 3.66269 29.5674 3.7924 29.5676H7.18415C7.31386 29.5674 7.43821 29.5158 7.52993 29.4241C7.62165 29.3324 7.67326 29.208 7.67345 29.0783V19.1816L3.3031 23.3991V29.0783Z" fill="#737373"/>
<path d="M9.36377 17.5503V29.0783C9.36396 29.208 9.41557 29.3324 9.50729 29.4241C9.59901 29.5158 9.72336 29.5674 9.85307 29.5676H13.2448C13.3745 29.5674 13.4989 29.5158 13.5906 29.4241C13.6823 29.3324 13.7339 29.208 13.7341 29.0783V19.0248L10.2106 16.7329L9.36377 17.5503Z" fill="#737373"/>
<path d="M17.0658 21.19L15.4244 20.1241V29.0784C15.4246 29.2081 15.4762 29.3324 15.568 29.4241C15.6597 29.5159 15.784 29.5675 15.9137 29.5677H19.3055C19.4352 29.5675 19.5595 29.5159 19.6513 29.4241C19.743 29.3324 19.7946 29.2081 19.7948 29.0784V18.7736C19.469 19.0755 19.1281 19.3824 18.7817 19.6866L17.0658 21.19Z" fill="#737373"/>
<path d="M23.3478 15.3051C22.6761 15.989 22.0623 16.6012 21.4851 17.1644V29.0783C21.4853 29.208 21.5369 29.3324 21.6286 29.4241C21.7203 29.5158 21.8447 29.5674 21.9744 29.5676H25.3662C25.4959 29.5674 25.6202 29.5158 25.7119 29.4241C25.8037 29.3324 25.8553 29.208 25.8555 29.0783V12.684L25.523 13.0409C24.834 13.7688 24.099 14.5433 23.3478 15.3051Z" fill="#737373"/>
</svg>
