<svg width="24" height="23" viewBox="0 0 24 23" fill="none" xmlns="http://www.w3.org/2000/svg">
<path d="M6.5 17.9404C6.3674 17.9404 6.2402 17.9909 6.14645 18.0808C6.0527 18.1706 6 18.2925 6 18.4196V20.3363C6 20.4633 6.0527 20.5852 6.14645 20.6751C6.2402 20.765 6.3674 20.8154 6.5 20.8154C6.6326 20.8154 6.7598 20.765 6.85355 20.6751C6.9473 20.5852 7 20.4633 7 20.3363V18.4196C7 18.2925 6.9473 18.1706 6.85355 18.0808C6.7598 17.9909 6.6326 17.9404 6.5 17.9404Z" fill="white"/>
<path d="M17.5 17.9404C17.3674 17.9404 17.2402 17.9909 17.1465 18.0808C17.0527 18.1706 17 18.2925 17 18.4196V20.3363C17 20.4633 17.0527 20.5852 17.1465 20.6751C17.2402 20.765 17.3674 20.8154 17.5 20.8154C17.6326 20.8154 17.7598 20.765 17.8535 20.6751C17.9473 20.5852 18 20.4633 18 20.3363V18.4196C18 18.2925 17.9473 18.1706 17.8535 18.0808C17.7598 17.9909 17.6326 17.9404 17.5 17.9404Z" fill="white"/>
<path d="M6.5 13.1488C6.3674 13.1488 6.2402 13.1993 6.14645 13.2892C6.0527 13.379 6 13.5009 6 13.628V15.5446C6 15.6717 6.0527 15.7936 6.14645 15.8835C6.2402 15.9733 6.3674 16.0238 6.5 16.0238C6.6326 16.0238 6.7598 15.9733 6.85355 15.8835C6.9473 15.7936 7 15.6717 7 15.5446V13.628C7 13.5009 6.9473 13.379 6.85355 13.2892C6.7598 13.1993 6.6326 13.1488 6.5 13.1488Z" fill="white"/>
<path d="M17 13.628V15.5446C17 15.6717 17.0527 15.7936 17.1465 15.8835C17.2402 15.9733 17.3674 16.0238 17.5 16.0238C17.6326 16.0238 17.7598 15.9733 17.8535 15.8835C17.9473 15.7936 18 15.6717 18 15.5446V13.628C18 13.5009 17.9473 13.379 17.8535 13.2892C17.7598 13.1993 17.6326 13.1488 17.5 13.1488C17.3674 13.1488 17.2402 13.1993 17.1465 13.2892C17.0527 13.379 17 13.5009 17 13.628Z" fill="white"/>
<path d="M20.5251 16.3419V14.1816C20.5251 13.8379 20.3886 13.5082 20.1455 13.2651C19.9024 13.0221 19.5727 12.8855 19.229 12.8855H18.7805C18.7459 13.1742 18.653 13.4528 18.5072 13.7044C18.3615 13.956 18.1661 14.1752 17.9328 14.3488V16.3419C17.9328 16.4565 17.8873 16.5664 17.8063 16.6474C17.7253 16.7284 17.6154 16.7739 17.5008 16.7739C17.3862 16.7739 17.2763 16.7284 17.1953 16.6474C17.1142 16.5664 17.0687 16.4565 17.0687 16.3419V14.8587C15.7333 15.5495 14.2518 15.9101 12.7482 15.9101C11.2447 15.9101 9.76315 15.5495 8.42776 14.8587V16.3419C8.42776 16.4565 8.38224 16.5664 8.30122 16.6474C8.22019 16.7284 8.1103 16.7739 7.99571 16.7739C7.88113 16.7739 7.77123 16.7284 7.69021 16.6474C7.60918 16.5664 7.56366 16.4565 7.56366 16.3419V14.3493C7.33028 14.1757 7.13474 13.9564 6.98899 13.7047C6.84324 13.4531 6.75035 13.1743 6.71599 12.8855H6.26752C5.92376 12.8855 5.59408 13.0221 5.35101 13.2651C5.10793 13.5082 4.97137 13.8379 4.97137 14.1816V16.3419C4.97137 16.6856 5.10793 17.0153 5.35101 17.2584C5.59408 17.5015 5.92376 17.638 6.26752 17.638C5.92376 17.638 5.59408 17.7746 5.35101 18.0177C5.10793 18.2607 4.97137 18.5904 4.97137 18.9342V21.0944C4.97137 21.4382 5.10793 21.7679 5.35101 22.0109C5.59408 22.254 5.92376 22.3906 6.26752 22.3906H19.229C19.5727 22.3906 19.9024 22.254 20.1455 22.0109C20.3886 21.7679 20.5251 21.4382 20.5251 21.0944V18.9342C20.5251 18.5904 20.3886 18.2607 20.1455 18.0177C19.9024 17.7746 19.5727 17.638 19.229 17.638C19.5727 17.638 19.9024 17.5015 20.1455 17.2584C20.3886 17.0153 20.5251 16.6856 20.5251 16.3419ZM8.42776 21.0944C8.42776 21.209 8.38224 21.3189 8.30122 21.3999C8.22019 21.4809 8.1103 21.5265 7.99571 21.5265C7.88113 21.5265 7.77123 21.4809 7.69021 21.3999C7.60918 21.3189 7.56366 21.209 7.56366 21.0944V18.9342C7.56366 18.8196 7.60918 18.7097 7.69021 18.6287C7.77123 18.5476 7.88113 18.5021 7.99571 18.5021C8.1103 18.5021 8.22019 18.5476 8.30122 18.6287C8.38224 18.7097 8.42776 18.8196 8.42776 18.9342V21.0944ZM17.9328 21.0944C17.9328 21.209 17.8873 21.3189 17.8063 21.3999C17.7253 21.4809 17.6154 21.5265 17.5008 21.5265C17.3862 21.5265 17.2763 21.4809 17.1953 21.3999C17.1142 21.3189 17.0687 21.209 17.0687 21.0944V18.9342C17.0687 18.8196 17.1142 18.7097 17.1953 18.6287C17.2763 18.5476 17.3862 18.5021 17.5008 18.5021C17.6154 18.5021 17.7253 18.5476 17.8063 18.6287C17.8873 18.7097 17.9328 18.8196 17.9328 18.9342V21.0944Z" fill="#737373"/>
<path d="M13.7583 12.1977C13.4384 12.3325 13.0949 12.4019 12.7478 12.4019C12.4007 12.4019 12.0571 12.3325 11.7372 12.1977L7.56362 10.4315V12.622C7.5625 12.8262 7.61009 13.0277 7.70244 13.2099C7.79478 13.392 7.92922 13.5495 8.09461 13.6693L8.11491 13.6835C8.12392 13.6905 8.1333 13.697 8.14299 13.703C9.5189 14.5799 11.1166 15.0458 12.7482 15.0458C14.3798 15.0458 15.9775 14.5799 17.3534 13.703L17.3802 13.6848C17.3867 13.6797 17.3944 13.6749 17.4018 13.6693C17.5672 13.5495 17.7016 13.392 17.794 13.2099C17.8863 13.0277 17.9339 12.8262 17.9328 12.622V10.4315L13.7583 12.1977Z" fill="#737373"/>
<path d="M18.7969 10.066V11.5894C18.7969 11.7039 18.8424 11.8138 18.9234 11.8949C19.0044 11.9759 19.1143 12.0214 19.2289 12.0214C19.3435 12.0214 19.4534 11.9759 19.5344 11.8949C19.6155 11.8138 19.661 11.7039 19.661 11.5894V9.70044L18.7969 10.066Z" fill="#737373"/>
<path d="M20.8396 6.27519L13.4218 3.13593C13.2085 3.04621 12.9795 3 12.7482 3C12.5169 3 12.2879 3.04621 12.0746 3.13593L4.6568 6.27519C4.46196 6.35819 4.29582 6.49664 4.17904 6.67332C4.06226 6.85 4 7.05712 4 7.2689C4 7.48069 4.06226 7.6878 4.17904 7.86448C4.29582 8.04116 4.46196 8.17961 4.6568 8.26261L12.0746 11.401C12.2879 11.4906 12.5169 11.5367 12.7482 11.5367C12.9795 11.5367 13.2085 11.4906 13.4218 11.401L20.8396 8.26261C21.0344 8.17961 21.2006 8.04116 21.3174 7.86448C21.4341 7.6878 21.4964 7.48069 21.4964 7.2689C21.4964 7.05712 21.4341 6.85 21.3174 6.67332C21.2006 6.49664 21.0344 6.35819 20.8396 6.27519Z" fill="#737373"/>
</svg>
