<svg width="12" height="20" viewBox="0 0 12 20" fill="none" xmlns="http://www.w3.org/2000/svg">
<g clip-path="url(#clip0_196_2)">
<path fill-rule="evenodd" clip-rule="evenodd" d="M2.49484 6.03841L5.99069 3.64746L9.50511 6.03841H2.49484ZM4.50525 18.0208H7.4947C7.58754 18.0208 7.6635 18.0941 7.6635 18.1836V18.265C7.6635 18.3545 7.58754 18.4277 7.4947 18.4277H4.50525C4.41241 18.4277 4.33645 18.3545 4.33645 18.265V18.1836C4.33645 18.0941 4.41241 18.0208 4.50525 18.0208ZM2.11167 0H9.88829C10.469 0 11.0007 0.229492 11.3822 0.595703C11.7637 0.963542 12.0017 1.47461 12.0017 2.03613V17.9639C12.0017 18.5238 11.7637 19.0365 11.3822 19.4043C11.0007 19.7721 10.4707 20 9.88829 20H2.11167C1.531 20 0.999276 19.7705 0.617787 19.4043C0.236299 19.0365 -0.00170898 18.5254 -0.00170898 17.9639V2.03613C-0.00170898 1.47624 0.236299 0.963542 0.617787 0.595703C0.999276 0.229492 1.531 0 2.11167 0ZM5.47248 14.5817C5.46404 14.5768 5.45222 14.5719 5.44378 14.5654C5.329 14.4775 5.20071 14.3799 5.09268 14.292C4.93401 14.1667 4.75001 14.0202 4.62173 13.9176C4.53564 13.8493 4.43605 13.8005 4.33983 13.7809C4.27906 13.7712 4.22505 13.7712 4.18116 13.7874C4.14571 13.8021 4.11533 13.8298 4.09676 13.8704C4.07144 13.9274 4.05793 14.0072 4.06469 14.1162C4.07144 14.2122 4.1052 14.318 4.15077 14.4206C4.21829 14.5687 4.31113 14.7087 4.38203 14.7966C4.38709 14.8031 4.39047 14.8063 4.39216 14.8128L5.71386 16.6341H9.18777C9.40215 16.2939 9.58614 15.9928 9.60808 15.568L9.59458 14.9723C9.59289 14.9642 9.59289 14.9561 9.59289 14.9479C9.59289 14.9398 9.59289 14.8828 9.59458 14.8079C9.59964 14.4124 9.60471 13.9258 9.22997 13.8656H8.9869C8.98521 13.9762 8.97846 14.0918 8.97171 14.1992C8.96495 14.2969 8.9582 14.3896 8.9582 14.4808C8.9582 14.5768 8.87718 14.6549 8.77759 14.6549C8.67799 14.6549 8.59697 14.5768 8.59697 14.4808C8.59697 14.3913 8.60372 14.2855 8.61047 14.1764C8.6341 13.8037 8.6628 13.3789 8.35558 13.3252H8.11589C8.10238 13.3252 8.09057 13.3236 8.07706 13.3203C8.07875 13.4538 8.07031 13.5938 8.06187 13.7272C8.05512 13.8249 8.04837 13.9193 8.04837 14.0088C8.04837 14.1048 7.96734 14.1829 7.86775 14.1829C7.76816 14.1829 7.68714 14.1048 7.68714 14.0088C7.68714 13.9193 7.69389 13.8118 7.70064 13.7044C7.72427 13.3317 7.75297 12.9069 7.44575 12.8532H7.20606C7.18918 12.8532 7.17398 12.8516 7.15879 12.8467V13.5254C7.15879 13.6214 7.07777 13.6995 6.97818 13.6995C6.87858 13.6995 6.79756 13.6214 6.79756 13.5254V11.7074C6.79756 11.403 6.66927 11.2093 6.50216 11.1312C6.44139 11.1019 6.37556 11.0872 6.31141 11.0872C6.24896 11.0872 6.18313 11.1019 6.12236 11.1312C5.96031 11.2109 5.83202 11.4046 5.83202 11.7171V14.9072C5.83202 15.0033 5.751 15.0814 5.65141 15.0814C5.55181 15.0814 5.47079 15.0033 5.47079 14.9072V14.5833H5.47417V14.5817H5.47248ZM5.28173 16.6374L4.10351 15.013L4.09676 15.0065C4.01573 14.904 3.90601 14.7412 3.8233 14.5638C3.76253 14.4303 3.71696 14.2839 3.70683 14.1423C3.6967 13.973 3.72033 13.8379 3.76929 13.7305C3.83005 13.5986 3.92965 13.5107 4.05118 13.4652C4.16259 13.4212 4.28919 13.4147 4.41579 13.4408C4.56771 13.4701 4.72638 13.5433 4.85805 13.6507C4.96608 13.7386 5.15007 13.8818 5.329 14.0234L5.47585 14.1406V11.7171C5.47585 11.2533 5.69023 10.9538 5.96537 10.8203C6.07678 10.7666 6.19663 10.7389 6.31817 10.7389C6.4397 10.7389 6.56124 10.7666 6.67096 10.8203C6.94779 10.9538 7.16554 11.2549 7.16554 11.7106V12.513L7.16048 12.5114C7.17567 12.5065 7.19086 12.5049 7.20774 12.5049H7.45926C7.47276 12.5049 7.48795 12.5065 7.49977 12.5098C7.83399 12.5602 7.98254 12.7474 8.0433 12.9899C8.06694 12.9801 8.09394 12.9736 8.11926 12.9736H8.37078C8.38428 12.9736 8.39947 12.9753 8.41129 12.9785C8.77083 13.0322 8.91431 13.2454 8.96664 13.514C8.97508 13.5124 8.98352 13.5124 8.99534 13.5124H9.24685C9.26035 13.5124 9.27555 13.514 9.28736 13.5173C9.97607 13.6198 9.96763 14.2806 9.96087 14.8112V14.9495L9.97607 15.5632V15.5827C9.95412 16.0173 9.80389 16.3249 9.61146 16.639H11.4902V3.13965H0.506379V16.639H5.28173V16.6374ZM2.58262 9.52637H2.86958V9.16178H2.94892V8.98763H3.17849V6.90592H2.70922V6.40625H9.27217V6.90592H8.80291V8.98763H9.03247V9.16178H9.11181V9.52637H9.39877V9.90723H2.58262V9.52637ZM4.27062 9.16178H4.53564V8.98763H4.76521V6.90592H4.04105V8.98763H4.27062V9.16178ZM5.85903 9.16178H6.12405V8.98763H6.35361V6.90592H5.62946V8.98763H5.85903V9.16178ZM7.44575 9.16178H7.71077V8.98763H7.94034V6.90592H7.21618V8.98763H7.44575V9.16178ZM4.81416 5.43457L5.99745 4.56055L7.1858 5.43457H4.81416Z" fill="#737373"/>
</g>
<defs>
<clipPath id="clip0_196_2">
<rect width="12" height="20" fill="white"/>
</clipPath>
</defs>
</svg>
