<svg width="18" height="19" viewBox="0 0 18 19" fill="none" xmlns="http://www.w3.org/2000/svg">
<g clip-path="url(#clip0_470_2)">
<path fill-rule="evenodd" clip-rule="evenodd" d="M15.5 12L15.3071 0.869749H0.874681V15.8431L1.1876 15.659C1.36523 15.5548 1.58716 15.5902 1.72444 15.7318L3.07662 17.011L4.48338 15.7589C4.65349 15.6079 4.90985 15.6138 5.07244 15.7664L6.42738 17.0339L7.73763 15.7707C7.80409 15.7062 7.88637 15.6673 7.97182 15.6535C7.96233 15.9564 8.07112 16.2625 8.29899 16.4969C8.23979 16.5754 8.19087 16.6611 8.15341 16.7518L8.05846 16.67L6.73596 17.9445C6.5698 18.105 6.30356 18.1089 6.13306 17.9492L4.76624 16.67L3.37292 17.9099C3.20637 18.0732 2.93736 18.0767 2.76646 17.915L1.34822 16.5728L0.682418 16.9646C0.612396 17.0118 0.528132 17.0394 0.437539 17.0394C0.19622 17.0394 0 16.8443 0 16.6047V0.434678C0 0.19472 0 0 0.437539 0H15.7443C15.9856 0 16.1814 0.19472 16.1814 0.434678V12.5L15.5 12ZM12.6241 9.19393H3.20123V8.32418H12.6241V9.19393ZM11.2015 12.0809H3.20123V11.2111H12.1023L11.2015 12.0809ZM4.31446 6.29752H3.48251V3.18672H5.33116V3.86214H4.31446V4.45456H5.25125V5.12998H4.31446V6.29752ZM7.70202 6.29752H5.84426V3.18672H7.70202V3.86214H6.68927V4.34992H7.62686V5.02535H6.68927V5.61344H7.70202V6.29752ZM10.1069 6.29752H8.24914V3.18672H10.1069V3.86214H9.09415V4.34992H10.0317V5.02535H9.09415V5.61344H10.1069V6.29752ZM12.6985 5.35381C12.6985 5.54657 12.6498 5.71808 12.5513 5.86756C12.4528 6.01743 12.3112 6.13348 12.1253 6.21687C11.9401 6.29988 11.7225 6.34118 11.4733 6.34118C11.2652 6.34118 11.09 6.32663 10.9491 6.29752C10.8079 6.2688 10.6611 6.21766 10.5088 6.14528V5.3959C10.6689 5.47744 10.8372 5.54191 11.0109 5.58826C11.1849 5.6339 11.3447 5.6571 11.4899 5.6571C11.6157 5.6571 11.7079 5.63547 11.7661 5.59259C11.8246 5.54971 11.8539 5.49385 11.8539 5.42619C11.8539 5.38332 11.842 5.34634 11.8183 5.31448C11.7945 5.28261 11.757 5.25036 11.7047 5.21771C11.6529 5.18506 11.5145 5.11818 11.2886 5.01748C11.0848 4.92543 10.9321 4.83574 10.8301 4.74959C10.7284 4.66305 10.6524 4.56353 10.6038 4.45181C10.5547 4.34009 10.5298 4.20713 10.5298 4.05371C10.5298 3.76773 10.6342 3.5443 10.8439 3.38341C11.0536 3.22291 11.342 3.14305 11.7087 3.14305C12.0319 3.14305 12.3622 3.21701 12.6985 3.3661L12.4402 4.01398C12.1474 3.88102 11.8954 3.81415 11.683 3.81415C11.5734 3.81415 11.4931 3.83382 11.4433 3.87237C11.393 3.91092 11.3681 3.95891 11.3681 4.01516C11.3681 4.07614 11.4005 4.1316 11.4638 4.17959C11.5275 4.22759 11.6988 4.31531 11.9801 4.44315C12.2499 4.56353 12.4366 4.69334 12.5418 4.83181C12.6463 4.97027 12.6985 5.14375 12.6985 5.35381Z" fill="#737373"/>
<path fill-rule="evenodd" clip-rule="evenodd" d="M10.8932 16.8487L10.9285 15.5421L13.0758 16.1624C13.2692 16.2049 13.4601 16.2251 13.6471 16.2258C13.8477 16.2264 14.0451 16.2049 14.2393 16.1624L16.2904 15.5355V16.8605C16.2316 17.5488 14.2569 17.7592 13.651 17.788C13.1653 17.8115 11.2469 17.5579 10.9945 17.1625C10.9403 17.0762 10.9063 16.9716 10.8932 16.8487ZM10.0232 14.6015V16.1983H9.9729C9.93825 16.1983 9.91015 16.2264 9.91015 16.2611V16.6905C9.91015 16.7245 9.93825 16.7533 9.9729 16.7533H10.0232V16.9036C9.95917 16.9154 9.91015 16.9722 9.91015 17.0396C9.91015 17.1154 9.9729 17.1781 10.0487 17.1781H10.2965C10.3723 17.1781 10.435 17.116 10.435 17.0396C10.435 16.9722 10.386 16.9154 10.3219 16.9036V16.7533H10.3723C10.4063 16.7533 10.435 16.7252 10.435 16.6905V16.2611C10.435 16.2264 10.4069 16.1983 10.3723 16.1983H10.3219V14.6949L12.9352 15.5068C13.4085 15.6192 13.8817 15.627 14.355 15.5068L17.2395 14.6459L17.5003 14.5681C17.8252 14.4354 17.7441 14.1236 17.4415 14.0517L14.1791 13.0778C13.8425 12.9817 13.5065 12.9667 13.1699 13.0778L9.96636 14.04C9.61796 14.1249 9.54933 14.4472 9.95459 14.5799L10.0232 14.6015Z" fill="#737373"/>
</g>
<defs>
<clipPath id="clip0_470_2">
<rect width="18" height="19" fill="white"/>
</clipPath>
</defs>
</svg>
