<svg width="40" height="42" viewBox="0 0 40 42" fill="none" xmlns="http://www.w3.org/2000/svg">
<g clip-path="url(#clip0_144_19)" filter="url(#filter0_d_144_19)">
<path d="M30.6141 21.674V17.456C30.6141 17.2738 30.5786 17.0934 30.5095 16.9251C30.4405 16.7567 30.3392 16.6038 30.2116 16.4749C30.084 16.3461 29.9325 16.2439 29.7658 16.1741C29.599 16.1044 29.4203 16.0685 29.2399 16.0685H28.4153V13.016C28.4153 12.6481 28.2705 12.2951 28.0128 12.0349C27.7551 11.7747 27.4056 11.6285 27.0411 11.6285H6.97707C6.24812 11.6285 5.54903 11.9209 5.03359 12.4413C4.51815 12.9617 4.22858 13.6676 4.22858 14.4035L4.22858 31.0535C4.22858 31.7895 4.51815 32.4953 5.03359 33.0157C5.54903 33.5361 6.24812 33.8285 6.97707 33.8285H29.2399C29.4208 33.83 29.6001 33.7951 29.7675 33.7259C29.9349 33.6567 30.087 33.5545 30.2149 33.4254C30.3428 33.2963 30.444 33.1427 30.5125 32.9737C30.581 32.8047 30.6156 32.6236 30.6141 32.441V28.2785C30.9218 28.2194 31.1996 28.0543 31.4001 27.8113C31.6006 27.5684 31.7114 27.2627 31.7135 26.9465V23.0615C31.7244 22.7358 31.6196 22.417 31.418 22.1625C31.2163 21.908 30.9312 21.7348 30.6141 21.674ZM7.52677 14.9585C7.52677 14.6641 7.6426 14.3818 7.84878 14.1736C8.05495 13.9655 8.33459 13.8485 8.62617 13.8485H27.3159V16.0685H8.62617C8.33459 16.0685 8.05495 15.9516 7.84878 15.7434C7.6426 15.5353 7.52677 15.2529 7.52677 14.9585ZM30.6141 26.891C30.6141 26.9646 30.5852 27.0352 30.5336 27.0872C30.4821 27.1393 30.4122 27.1685 30.3393 27.1685H25.2381C24.6981 27.1875 24.1689 27.0129 23.7443 26.6757C23.3197 26.3384 23.0271 25.8602 22.9183 25.3259C22.8634 25.0044 22.8793 24.6747 22.9649 24.3601C23.0505 24.0455 23.2037 23.7539 23.4136 23.5059C23.6236 23.2579 23.885 23.0597 24.1795 22.9253C24.4739 22.791 24.7941 22.7238 25.1171 22.7285H30.3393C30.4122 22.7285 30.4821 22.7578 30.5336 22.8098C30.5852 22.8618 30.6141 22.9324 30.6141 23.006V26.891ZM25.1171 23.8385C24.8997 23.8385 24.6871 23.9036 24.5063 24.0256C24.3255 24.1476 24.1846 24.3209 24.1014 24.5237C24.0182 24.7266 23.9964 24.9497 24.0389 25.1651C24.0813 25.3804 24.186 25.5782 24.3397 25.7334C24.4935 25.8886 24.6894 25.9944 24.9026 26.0372C25.1159 26.08 25.337 26.058 25.5379 25.974C25.7387 25.89 25.9104 25.7477 26.0312 25.5652C26.1521 25.3827 26.2165 25.1681 26.2165 24.9485C26.2165 24.6541 26.1007 24.3718 25.8945 24.1636C25.6883 23.9555 25.4087 23.8385 25.1171 23.8385Z" fill="#737373"/>
<path d="M32.7735 8.14492L35.8052 9.66084C36.0509 9.76945 35.9561 10.0507 35.6725 10.1604L34.6094 10.5719C35.2541 12.2376 34.7751 14.0529 33.6536 15.2613C33.2889 15.6877 32.8476 16.0215 32.3926 16.3198C32.0657 16.5279 31.6827 16.0649 31.9193 15.7288C32.8579 14.469 33.1655 12.8423 32.5893 11.3538L31.4199 11.8065C31.1363 11.9163 30.8768 11.7722 30.9854 11.5264L32.2064 8.3644C32.2933 8.16777 32.5768 8.05803 32.7735 8.14492Z" fill="#737373"/>
</g>
<defs>
<filter id="filter0_d_144_19" x="-4" y="0" width="45" height="45" filterUnits="userSpaceOnUse" color-interpolation-filters="sRGB">
<feFlood flood-opacity="0" result="BackgroundImageFix"/>
<feColorMatrix in="SourceAlpha" type="matrix" values="0 0 0 0 0 0 0 0 0 0 0 0 0 0 0 0 0 0 127 0" result="hardAlpha"/>
<feOffset dy="4"/>
<feGaussianBlur stdDeviation="2"/>
<feComposite in2="hardAlpha" operator="out"/>
<feColorMatrix type="matrix" values="0 0 0 0 0 0 0 0 0 0 0 0 0 0 0 0 0 0 0.25 0"/>
<feBlend mode="normal" in2="BackgroundImageFix" result="effect1_dropShadow_144_19"/>
<feBlend mode="normal" in="SourceGraphic" in2="effect1_dropShadow_144_19" result="shape"/>
</filter>
<clipPath id="clip0_144_19">
<rect width="37" height="37" fill="white"/>
</clipPath>
</defs>
</svg>
