<svg width="23" height="20" viewBox="0 0 23 20" fill="none" xmlns="http://www.w3.org/2000/svg">
<g clip-path="url(#clip0_153_140)">
<path fill-rule="evenodd" clip-rule="evenodd" d="M11.5228 0.333346C5.94807 0.17779 1.38093 4.72223 1.38093 10.3333H-0.579546C-1.0724 10.3333 -1.31336 10.9333 -0.962879 11.2778L2.09284 14.3889C2.31188 14.6111 2.65141 14.6111 2.87045 14.3889L5.92617 11.2778C6.26569 10.9333 6.02474 10.3333 5.53188 10.3333H3.57141C3.57141 6.00001 7.05426 2.50001 11.3476 2.55557C15.4219 2.61112 18.85 6.0889 18.9047 10.2222C18.9595 14.5667 15.5095 18.1111 11.2381 18.1111C9.47474 18.1111 7.84284 17.5 6.55045 16.4667C6.11236 16.1222 5.49903 16.1556 5.10474 16.5556C4.64474 17.0222 4.6776 17.8111 5.19236 18.2111C6.85712 19.5445 8.94903 20.3333 11.2381 20.3333C16.769 20.3333 21.2486 15.7 21.0952 10.0445C20.9528 4.83335 16.6595 0.47779 11.5228 0.333346ZM10.9643 5.8889C10.5152 5.8889 10.1428 6.26668 10.1428 6.72223V10.8111C10.1428 11.2 10.3509 11.5667 10.6795 11.7667L14.0966 13.8222C14.4909 14.0556 14.9947 13.9222 15.2247 13.5333C15.4547 13.1333 15.3233 12.6222 14.94 12.3889L11.7857 10.4889V6.71112C11.7857 6.26668 11.4133 5.8889 10.9643 5.8889Z" fill="#737373"/>
</g>
<defs>
<clipPath id="clip0_153_140">
<rect width="23" height="20" fill="white"/>
</clipPath>
</defs>
</svg>
