<svg width="19" height="17" viewBox="0 0 19 17" fill="none" xmlns="http://www.w3.org/2000/svg">
<g clip-path="url(#clip0_202_5)">
<path fill-rule="evenodd" clip-rule="evenodd" d="M9.57421 0C11.1854 0 12.4904 1.29999 12.4904 2.90496C12.4904 4.50992 11.1854 5.80991 9.57421 5.80991C7.96305 5.80991 6.65803 4.50992 6.65803 2.90496C6.65958 1.29999 7.96459 0 9.57421 0ZM4.66804 7.324C5.07934 6.73716 5.64062 6.68787 6.46321 6.59237H12.5754C13.5248 6.76488 14.1943 6.92969 14.6505 7.71523L18.2393 12.6041C18.649 13.1616 19.0015 13.5097 19 14.2522C18.9984 14.859 18.7047 15.4166 18.2207 15.7293C17.5991 16.1328 17.1244 16.0142 16.4967 15.7955L14.0335 14.9391V17H4.89225V15.0608L2.03173 15.8987C1.09781 16.1005 0.43139 15.7555 0.160801 15.107C-0.290696 14.0304 0.287591 13.2941 0.879795 12.4993L4.66804 7.324ZM4.97729 11.7092V8.21736L9.52009 9.75301L14.1186 8.10492V11.7369C10.9442 11.0746 10.8112 13.941 12.7733 14.8652L9.46443 15.8987L6.26839 14.782C8.28466 13.8578 7.87337 10.8913 4.97729 11.7092Z" fill="#737373"/>
</g>
<defs>
<clipPath id="clip0_202_5">
<rect width="19" height="17" fill="white"/>
</clipPath>
</defs>
</svg>
