<svg width="32" height="32" viewBox="0 0 32 32" fill="none" xmlns="http://www.w3.org/2000/svg">
<path d="M24.8809 7.4546C24.7574 7.01156 24.5234 6.60712 24.2009 6.27914L20.7209 2.79914C20.3929 2.47667 19.9885 2.24271 19.5455 2.11914V5.63641C19.5455 6.11863 19.737 6.58109 20.078 6.92206C20.419 7.26304 20.8814 7.4546 21.3637 7.4546H24.8809Z" fill="black"/>
<path d="M21.3636 9.27273C20.3992 9.27273 19.4743 8.88961 18.7923 8.20766C18.1104 7.52571 17.7273 6.60079 17.7273 5.63636V2H9.54545C8.33993 2 7.18377 2.47889 6.33133 3.33133C5.47889 4.18377 5 5.33993 5 6.54545V22.9091C5 24.1146 5.47889 25.2708 6.33133 26.1232C7.18377 26.9757 8.33993 27.4545 9.54545 27.4545H20.4545C21.6601 27.4545 22.8162 26.9757 23.6687 26.1232C24.5211 25.2708 25 24.1146 25 22.9091V9.27273H21.3636ZM10.4545 9.27273H14.0909C14.332 9.27273 14.5632 9.36851 14.7337 9.53899C14.9042 9.70948 15 9.94071 15 10.1818C15 10.4229 14.9042 10.6542 14.7337 10.8246C14.5632 10.9951 14.332 11.0909 14.0909 11.0909H10.4545C10.2134 11.0909 9.98221 10.9951 9.81172 10.8246C9.64123 10.6542 9.54545 10.4229 9.54545 10.1818C9.54545 9.94071 9.64123 9.70948 9.81172 9.53899C9.98221 9.36851 10.2134 9.27273 10.4545 9.27273ZM17.7273 22H10.4545C10.2134 22 9.98221 21.9042 9.81172 21.7337C9.64123 21.5632 9.54545 21.332 9.54545 21.0909C9.54545 20.8498 9.64123 20.6186 9.81172 20.4481C9.98221 20.2776 10.2134 20.1818 10.4545 20.1818H17.7273C17.9684 20.1818 18.1996 20.2776 18.3701 20.4481C18.5406 20.6186 18.6364 20.8498 18.6364 21.0909C18.6364 21.332 18.5406 21.5632 18.3701 21.7337C18.1996 21.9042 17.9684 22 17.7273 22ZM19.5455 18.3636H10.4545C10.2134 18.3636 9.98221 18.2679 9.81172 18.0974C9.64123 17.9269 9.54545 17.6957 9.54545 17.4545C9.54545 17.2134 9.64123 16.9822 9.81172 16.8117C9.98221 16.6412 10.2134 16.5455 10.4545 16.5455H19.5455C19.7866 16.5455 20.0178 16.6412 20.1883 16.8117C20.3588 16.9822 20.4545 17.2134 20.4545 17.4545C20.4545 17.6957 20.3588 17.9269 20.1883 18.0974C20.0178 18.2679 19.7866 18.3636 19.5455 18.3636ZM19.5455 14.7273H10.4545C10.2134 14.7273 9.98221 14.6315 9.81172 14.461C9.64123 14.2905 9.54545 14.0593 9.54545 13.8182C9.54545 13.5771 9.64123 13.3458 9.81172 13.1754C9.98221 13.0049 10.2134 12.9091 10.4545 12.9091H19.5455C19.7866 12.9091 20.0178 13.0049 20.1883 13.1754C20.3588 13.3458 20.4545 13.5771 20.4545 13.8182C20.4545 14.0593 20.3588 14.2905 20.1883 14.461C20.0178 14.6315 19.7866 14.7273 19.5455 14.7273Z" fill="black"/>
</svg>
