<svg width="27" height="18" viewBox="0 0 27 18" fill="none" xmlns="http://www.w3.org/2000/svg">
<g clip-path="url(#clip0_166_51)">
<path fill-rule="evenodd" clip-rule="evenodd" d="M19.4691 16.3739V8.96005H15.9935C14.5203 9.21307 13.0472 9.98016 11.5741 10.8697H8.87474C7.65272 10.94 7.01241 12.1288 8.20095 12.9099C9.14677 13.5766 10.396 13.5385 11.6766 13.428C12.5596 13.3859 12.5973 14.5244 11.6766 14.5285C11.3565 14.5526 11.0091 14.4803 10.7057 14.4803C9.10701 14.4783 7.79291 14.1851 6.9873 12.9742L6.58344 12.0686L2.56792 10.1589C0.559114 9.52432 -0.870068 11.5404 0.611427 12.9441C3.52001 14.9742 6.50184 16.645 9.55271 17.9944C11.7687 19.2876 13.9846 19.2434 16.1985 17.9944L19.4691 16.3739ZM7.19236 3.19285V0H12.4592V3.20891H15.0058L9.808 9.0725L4.59347 3.19285H7.19236ZM25.7111 8.24718H20.5154V17.1189H25.7111V8.24718Z" fill="#737373"/>
</g>
<defs>
<clipPath id="clip0_166_51">
<rect width="27" height="18" fill="white"/>
</clipPath>
</defs>
</svg>
