<svg width="23" height="23" viewBox="0 0 23 23" fill="none" xmlns="http://www.w3.org/2000/svg">
<g clip-path="url(#clip0_166_44)">
<path d="M0.617411 7.79048L1.68419 7.95666C2.25499 5.81332 3.48786 3.92421 5.16103 2.52646C6.94142 1.03977 9.22327 0.105545 11.7396 0.00852913C14.7269 -0.107351 17.481 0.981834 19.5178 2.83502C21.5537 4.68821 22.8724 7.3054 22.9896 10.2455C23.0334 11.35 22.907 12.4185 22.6337 13.4246C22.428 14.1823 22.1378 14.909 21.7736 15.594L21.7472 15.5518C21.4867 15.1457 21.1166 14.808 20.6695 14.5834C20.4746 14.4855 20.2652 14.4082 20.0444 14.3557C20.2702 13.8881 20.455 13.3976 20.5933 12.8879C20.8155 12.07 20.9186 11.2089 20.8835 10.3268C20.789 7.95576 19.7277 5.84701 18.0887 4.35539C16.4498 2.86422 14.2314 1.98838 11.8222 2.0818C9.79727 2.15995 7.95938 2.91317 6.52393 4.11195C5.22719 5.19485 4.25942 6.64111 3.7785 8.28185L4.63539 8.41479C4.9265 8.45926 5.12635 8.72785 5.08118 9.01441C5.06156 9.13972 4.99814 9.24841 4.9087 9.32656L2.51416 11.4254C2.29378 11.6186 1.95522 11.5993 1.75856 11.3819C1.72525 11.3455 1.69833 11.3051 1.67734 11.2633L0.0753529 8.57559C-0.07385 8.32541 0.011474 8.00337 0.265621 7.8565C0.37604 7.79272 0.500148 7.77296 0.617411 7.79048ZM5.04787 20.8616V14.702C8.13459 14.702 8.65931 14.565 11.4417 16.2888H13.6282C14.6178 16.3468 15.1362 17.3349 14.1739 17.9835C13.4078 18.5373 12.3962 18.5058 11.3591 18.4142C10.6437 18.3792 10.6131 19.3251 11.3591 19.3282C11.6183 19.3484 11.8993 19.2882 12.1448 19.2882C13.4384 19.2864 14.5042 19.043 15.1567 18.0369L15.4839 17.2846L18.7362 15.6982C20.3633 15.1709 21.5209 16.8462 20.3209 18.0122C17.9651 19.6988 15.55 21.0866 13.0793 22.2077C11.2843 23.2825 9.48973 23.2452 7.69656 22.2077L5.04787 20.8616ZM0.22775 14.11H4.20011V21.4805H0.22775V14.11ZM8.85779 8.88146L9.43544 7.60094H11.6133C11.5859 7.50976 11.5384 7.42038 11.4695 7.33324C11.4006 7.24566 11.3158 7.1702 11.2154 7.10598C11.115 7.0422 11.0023 6.98965 10.8782 6.95102C10.7541 6.91015 10.6222 6.89083 10.484 6.89083H8.85779L9.43544 5.61031H15.67L15.0924 6.89083H13.5867C13.6455 6.9353 13.7007 6.98785 13.7523 7.04803C13.8034 7.10597 13.8486 7.16616 13.8883 7.23219C13.9257 7.29641 13.959 7.36019 13.9868 7.42442C14.0124 7.4882 14.0302 7.54839 14.0379 7.60094H15.67L15.0924 8.88146H13.9115C13.8248 9.09885 13.6971 9.30456 13.5255 9.49859C13.354 9.69442 13.155 9.86689 12.9282 10.0223C12.6996 10.1777 12.4533 10.3057 12.1868 10.4122C11.9208 10.5168 11.6511 10.5869 11.3769 10.6255L14.653 13.9456H12.0627L9.14159 10.7903V9.61492H10.4347C10.5588 9.61492 10.6811 9.5956 10.8015 9.55473C10.9238 9.51386 11.0361 9.45951 11.1364 9.39169C11.2391 9.32567 11.3276 9.24617 11.4025 9.15903C11.4773 9.06965 11.5307 8.97848 11.5621 8.88146H8.85779Z" fill="#737373"/>
</g>
<defs>
<clipPath id="clip0_166_44">
<rect width="23" height="23" fill="white"/>
</clipPath>
</defs>
</svg>
