<svg width="28" height="28" viewBox="0 0 28 28" fill="none" xmlns="http://www.w3.org/2000/svg">
<mask id="path-1-inside-1_520_2221" fill="white">
<path d="M7 19.25L3.5 22.68V12.8333H7V19.25ZM12.8333 17.1033L11.0017 15.54L9.33333 17.08V8.16667H12.8333V17.1033ZM18.6667 15.1667L15.1667 18.6667V3.5H18.6667V15.1667ZM21.945 14.945L19.8333 12.8333H25.6667V18.6667L23.5783 16.5783L15.1667 24.92L11.1183 21.3967L6.70833 25.6667H3.5L11.0483 18.27L15.1667 21.7467"/>
</mask>
<path d="M7 19.25L3.5 22.68V12.8333H7V19.25ZM12.8333 17.1033L11.0017 15.54L9.33333 17.08V8.16667H12.8333V17.1033ZM18.6667 15.1667L15.1667 18.6667V3.5H18.6667V15.1667ZM21.945 14.945L19.8333 12.8333H25.6667V18.6667L23.5783 16.5783L15.1667 24.92L11.1183 21.3967L6.70833 25.6667H3.5L11.0483 18.27L15.1667 21.7467" fill="#121212"/>
<path d="M7 19.25L7.20998 19.4643L7.3 19.376V19.25H7ZM3.5 22.68H3.2V23.394L3.70998 22.8943L3.5 22.68ZM3.5 12.8333V12.5333H3.2V12.8333H3.5ZM7 12.8333H7.3V12.5333H7V12.8333ZM12.8333 17.1033L12.6386 17.3315L13.1333 17.7538V17.1033H12.8333ZM11.0017 15.54L11.1964 15.3118L10.9939 15.1389L10.7982 15.3196L11.0017 15.54ZM9.33333 17.08H9.03333V17.7652L9.53682 17.3004L9.33333 17.08ZM9.33333 8.16667V7.86667H9.03333V8.16667H9.33333ZM12.8333 8.16667H13.1333V7.86667H12.8333V8.16667ZM18.6667 15.1667L18.8788 15.3788L18.9667 15.2909V15.1667H18.6667ZM15.1667 18.6667H14.8667V19.3909L15.3788 18.8788L15.1667 18.6667ZM15.1667 3.5V3.2H14.8667V3.5H15.1667ZM18.6667 3.5H18.9667V3.2H18.6667V3.5ZM19.8333 12.8333V12.5333H19.1091L19.6212 13.0455L19.8333 12.8333ZM25.6667 12.8333H25.9667V12.5333H25.6667V12.8333ZM25.6667 18.6667L25.4545 18.8788L25.9667 19.3909V18.6667H25.6667ZM23.5783 16.5783L23.7905 16.3662L23.5792 16.155L23.3671 16.3653L23.5783 16.5783ZM15.1667 24.92L14.9697 25.1463L15.18 25.3293L15.3779 25.133L15.1667 24.92ZM11.1183 21.3967L11.3153 21.1704L11.1075 20.9895L10.9096 21.1811L11.1183 21.3967ZM6.70833 25.6667V25.9667H6.82977L6.91702 25.8822L6.70833 25.6667ZM3.5 25.6667L3.29003 25.4524L2.76521 25.9667H3.5V25.6667ZM11.0483 18.27L11.2419 18.0408L11.0333 17.8647L10.8384 18.0557L11.0483 18.27ZM6.79002 19.0357L3.29002 22.4657L3.70998 22.8943L7.20998 19.4643L6.79002 19.0357ZM3.8 22.68V12.8333H3.2V22.68H3.8ZM3.5 13.1333H7V12.5333H3.5V13.1333ZM6.7 12.8333V19.25H7.3V12.8333H6.7ZM13.0281 16.8751L11.1964 15.3118L10.8069 15.7682L12.6386 17.3315L13.0281 16.8751ZM10.7982 15.3196L9.12985 16.8596L9.53682 17.3004L11.2052 15.7604L10.7982 15.3196ZM9.63333 17.08V8.16667H9.03333V17.08H9.63333ZM9.33333 8.46667H12.8333V7.86667H9.33333V8.46667ZM12.5333 8.16667V17.1033H13.1333V8.16667H12.5333ZM18.4545 14.9545L14.9545 18.4545L15.3788 18.8788L18.8788 15.3788L18.4545 14.9545ZM15.4667 18.6667V3.5H14.8667V18.6667H15.4667ZM15.1667 3.8H18.6667V3.2H15.1667V3.8ZM18.3667 3.5V15.1667H18.9667V3.5H18.3667ZM22.1571 14.7329L20.0455 12.6212L19.6212 13.0455L21.7329 15.1571L22.1571 14.7329ZM19.8333 13.1333H25.6667V12.5333H19.8333V13.1333ZM25.3667 12.8333V18.6667H25.9667V12.8333H25.3667ZM25.8788 18.4545L23.7905 16.3662L23.3662 16.7905L25.4545 18.8788L25.8788 18.4545ZM23.3671 16.3653L14.9554 24.707L15.3779 25.133L23.7896 16.7913L23.3671 16.3653ZM15.3636 24.6937L11.3153 21.1704L10.9214 21.623L14.9697 25.1463L15.3636 24.6937ZM10.9096 21.1811L6.49965 25.4511L6.91702 25.8822L11.327 21.6122L10.9096 21.1811ZM6.70833 25.3667H3.5V25.9667H6.70833V25.3667ZM3.70997 25.8809L11.2583 18.4843L10.8384 18.0557L3.29003 25.4524L3.70997 25.8809ZM10.8548 18.4992L14.9731 21.9759L15.3602 21.5174L11.2419 18.0408L10.8548 18.4992Z" fill="white" mask="url(#path-1-inside-1_520_2221)"/>
</svg>
