<svg width="28" height="26" viewBox="0 0 28 26" fill="none" xmlns="http://www.w3.org/2000/svg">
<g clip-path="url(#clip0_166_24)">
<path fill-rule="evenodd" clip-rule="evenodd" d="M9.56156 14.0213C8.93539 13.4572 8.44047 13.0508 8.33492 11.8806L8.26711 11.8818C8.11234 11.8801 7.96305 11.8436 7.82305 11.7634C7.59828 11.6346 7.44133 11.4128 7.33414 11.1629C7.10828 10.6386 6.93055 9.26002 7.49766 8.86518L7.39156 8.7944L7.37953 8.64122C7.35766 8.36417 7.35164 8.02796 7.34617 7.67625C7.32594 6.38004 7.29969 4.97876 6.26883 4.66411L5.82695 4.52807L6.11844 4.16365C6.95133 3.12292 7.82141 2.2127 8.69859 1.51427C9.69172 0.724044 10.7013 0.197596 11.6878 0.0460762C12.7034 -0.109867 13.6872 0.125707 14.5955 0.868374C14.8635 1.08736 15.1244 1.35114 15.3748 1.65971C16.3445 1.75427 17.1369 2.28237 17.7023 3.03499C18.0398 3.48513 18.2962 4.01711 18.4598 4.58227C18.6227 5.14521 18.6938 5.74465 18.6637 6.3347C18.6085 7.39146 18.2263 8.25413 17.4563 9.00675C17.5908 9.01173 17.7193 9.04325 17.832 9.10408C18.2618 9.33633 18.2755 9.84121 18.1623 10.2654C18.0512 10.6193 17.9091 11.0301 17.7751 11.3747C17.6127 11.8403 17.3748 11.9271 16.9154 11.8768C16.8919 13.0281 16.3658 13.345 15.6576 14.0213C15.6871 15.7549 9.52383 15.5509 9.56156 14.0213ZM19.8029 19.3272L20.1731 18.4839H21.5693C21.4813 18.1847 21.1351 18.0166 20.8452 18.0166H19.8029L20.1731 17.1733H24.1686L23.7989 18.0166H22.8331C22.9616 18.1156 23.0989 18.3202 23.123 18.4839H24.1686L23.7989 19.3272H23.042C22.7981 19.956 22.0533 20.3829 21.4173 20.4752L23.5167 22.6607H21.8575L19.9855 20.5842V19.81H20.8141C21.0963 19.81 21.4468 19.6093 21.5365 19.3272H19.8029ZM9.24273 15.4491L11.077 20.3187L11.9984 17.6644L11.5462 17.165C11.2066 16.6635 11.3236 16.0933 11.953 15.9899C12.1652 15.9556 12.4048 15.9772 12.6361 15.9772C12.88 15.9772 13.1529 15.954 13.3848 16.0054C13.9694 16.1359 14.0301 16.7094 13.7391 17.165L13.2869 17.6644L14.2089 20.3187L15.8676 15.4491C16.275 15.8207 16.6999 16.1204 17.133 16.3698C17.3201 16.1099 17.5263 15.8655 17.7499 15.6393C18.836 14.5372 20.3383 13.8565 21.9948 13.8565C23.6491 13.8565 25.1502 14.5372 26.2369 15.6355C27.3268 16.7381 28 18.2555 28 19.9289C28 21.6039 27.3268 23.123 26.2407 24.2212L26.1805 24.2771C25.0988 25.3427 23.6217 26.0002 21.9948 26.0002C20.3377 26.0002 18.836 25.3194 17.7499 24.2212C17.4525 23.9204 17.1869 23.589 16.9575 23.2325H0C0 16.3704 5.15867 19.1669 9.24273 15.4491ZM21.9948 14.905C24.7384 14.905 26.9631 17.1545 26.9631 19.9289C26.9631 22.7027 24.7384 24.9517 21.9948 24.9517C19.2516 24.9517 17.0275 22.7027 17.0275 19.9289C17.0275 17.1545 19.2516 14.905 21.9948 14.905Z" fill="#737373"/>
</g>
<defs>
<clipPath id="clip0_166_24">
<rect width="28" height="26" fill="white"/>
</clipPath>
</defs>
</svg>
