<svg width="22" height="15" viewBox="0 0 22 15" fill="none" xmlns="http://www.w3.org/2000/svg">
<g clip-path="url(#clip0_471_9)">
<path fill-rule="evenodd" clip-rule="evenodd" d="M1.31425 0H20.222C20.9404 0 21.5362 0.595794 21.5362 1.31425V13.6857C21.5362 14.4042 20.9404 15 20.222 15H1.31425C0.595794 15 0 14.4042 0 13.6857V1.31425C0 0.595794 0.595794 0 1.31425 0ZM12.2488 11.0923H17.243V11.7932H12.2488V11.0923ZM12.2488 9.30491H19.1005V10.0058H12.2488V9.30491ZM16.139 6.13318H17.1203C17.1729 6.13318 17.2079 6.16822 17.2079 6.22079V8.14836C17.2079 8.20093 17.1729 8.23598 17.1203 8.23598H16.139C16.0864 8.23598 16.0514 8.20093 16.0514 8.14836V6.22079C16.0514 6.18575 16.0864 6.13318 16.139 6.13318ZM12.354 4.95911H13.3353C13.3879 4.95911 13.4229 4.99416 13.4229 5.04673V8.16589C13.4229 8.21846 13.3879 8.2535 13.3353 8.2535H12.354C12.3014 8.2535 12.2664 8.21846 12.2664 8.16589V5.04673C12.2488 4.99416 12.3014 4.95911 12.354 4.95911ZM14.2465 4.29322H15.2278C15.2804 4.29322 15.3154 4.32827 15.3154 4.38084V8.16589C15.3154 8.21846 15.2804 8.2535 15.2278 8.2535H14.2465C14.1939 8.2535 14.1589 8.21846 14.1589 8.16589V4.38084C14.1589 4.32827 14.1939 4.29322 14.2465 4.29322ZM6.88668 8.44626L9.86565 8.49883C9.86565 9.56776 9.33995 10.5491 8.46379 11.1449L6.88668 8.44626ZM6.58878 7.93808L6.55374 4.46846V4.24065L6.78154 4.25818C7.06192 4.2757 7.34229 4.32827 7.60514 4.39836C7.86799 4.46846 8.11332 4.5736 8.35865 4.69626C9.56776 5.3271 10.4089 6.58879 10.479 8.0257L10.4965 8.2535H10.2687L6.81659 8.14836H6.62383L6.58878 7.93808ZM6.9743 4.67874L7.00935 7.7278L10.0409 7.81542C9.91822 6.62383 9.18224 5.58995 8.16589 5.04673C7.95561 4.94159 7.7278 4.85397 7.5 4.78388C7.30724 4.74883 7.14953 4.71379 6.9743 4.67874ZM6.29089 8.27103L7.99065 11.215C7.46495 11.5129 6.88668 11.6706 6.29089 11.6706C4.41589 11.6706 2.89136 10.146 2.89136 8.27103C2.89136 6.4486 4.32827 4.94159 6.1507 4.8715L6.29089 8.27103ZM20.257 2.47079H1.26168V13.7558H20.257V2.47079Z" fill="#737373"/>
</g>
<defs>
<clipPath id="clip0_471_9">
<rect width="22" height="15" fill="white"/>
</clipPath>
</defs>
</svg>
