<svg width="23" height="23" viewBox="0 0 23 23" fill="none" xmlns="http://www.w3.org/2000/svg">
<g clip-path="url(#clip0_152_117)">
<path d="M22.708 12.2024C22.8001 12.1107 22.8732 12.0016 22.9231 11.8815C22.973 11.7615 22.9987 11.6327 22.9987 11.5027C22.9987 11.3726 22.973 11.2439 22.9231 11.1238C22.8732 11.0037 22.8001 10.8947 22.708 10.8029L21.8982 9.99297C21.7603 9.85325 21.6668 9.67593 21.6293 9.48324C21.5918 9.29055 21.612 9.09107 21.6873 8.90983L22.1234 7.85065C22.1716 7.72887 22.1953 7.59878 22.1932 7.46783C22.1911 7.33688 22.1632 7.20762 22.1112 7.08745C22.0591 6.96727 21.9839 6.85854 21.8898 6.76746C21.7957 6.67638 21.6846 6.60474 21.5628 6.55663L20.5182 6.1205C20.3366 6.04618 20.1812 5.9194 20.0719 5.75635C19.9627 5.5933 19.9045 5.40138 19.9048 5.2051V4.06924C19.9048 3.80612 19.8003 3.55378 19.6143 3.36773C19.4283 3.18168 19.176 3.07715 18.913 3.07715H17.7869C17.5908 3.07693 17.3991 3.01913 17.2356 2.91093C17.0721 2.80273 16.9439 2.64889 16.8669 2.46849L16.4309 1.40931C16.381 1.28864 16.3079 1.179 16.2156 1.08668C16.1233 0.99435 16.0137 0.921155 15.893 0.871287C15.7724 0.821419 15.6431 0.795859 15.5126 0.796072C15.382 0.796285 15.2528 0.822267 15.1323 0.872528L14.0878 1.30866C13.9061 1.38346 13.7064 1.4029 13.5137 1.36453C13.321 1.32616 13.144 1.23169 13.0048 1.09299L12.1998 0.292615C12.1081 0.200454 11.9991 0.127322 11.8791 0.0774208C11.759 0.0275194 11.6303 0.00183105 11.5003 0.00183105C11.3703 0.00183105 11.2415 0.0275194 11.1215 0.0774208C11.0014 0.127322 10.8924 0.200454 10.8007 0.292615L9.99089 1.10258C9.8512 1.24047 9.67391 1.33404 9.48126 1.37155C9.28861 1.40907 9.08918 1.38886 8.90797 1.31345L7.84901 0.877321C7.72726 0.829125 7.5972 0.805399 7.46628 0.807499C7.33535 0.809599 7.20612 0.837483 7.08597 0.889558C6.96582 0.941632 6.85711 1.01688 6.76605 1.11099C6.67499 1.20511 6.60336 1.31625 6.55526 1.43806L6.11922 2.48286C6.04492 2.66453 5.91816 2.81992 5.75515 2.92919C5.59213 3.03846 5.40025 3.09665 5.20401 3.09632H4.06839C3.80861 3.09628 3.55919 3.19816 3.37372 3.38009C3.18825 3.56201 3.08153 3.80946 3.07651 4.06924V5.21468C3.07629 5.41081 3.0185 5.60255 2.91032 5.76613C2.80214 5.92971 2.64833 6.05793 2.46797 6.13487L1.40901 6.57101C1.28837 6.62086 1.17875 6.69405 1.08645 6.78637C0.994143 6.87868 0.920964 6.98832 0.871106 7.10898C0.821248 7.22964 0.795693 7.35896 0.795906 7.48952C0.796119 7.62008 0.822096 7.74932 0.872347 7.86982L1.30839 8.91462C1.38318 9.09632 1.40261 9.29607 1.36424 9.48879C1.32588 9.6815 1.23143 9.85857 1.09276 9.99776L0.292555 10.8029C0.200412 10.8947 0.127296 11.0037 0.0774051 11.1238C0.027514 11.2439 0.00183105 11.3726 0.00183105 11.5027C0.00183105 11.6327 0.027514 11.7615 0.0774051 11.8815C0.127296 12.0016 0.200412 12.1107 0.292555 12.2024L1.10235 13.0123C1.24021 13.1521 1.33376 13.3294 1.37127 13.5221C1.40877 13.7148 1.38857 13.9142 1.31318 14.0955L0.877138 15.1547C0.828953 15.2765 0.805232 15.4065 0.807331 15.5375C0.80943 15.6684 0.837309 15.7977 0.889373 15.9179C0.941437 16.038 1.01667 16.1468 1.11076 16.2379C1.20486 16.3289 1.31597 16.4006 1.43776 16.4487L2.48235 16.8848C2.66397 16.9591 2.81933 17.0859 2.92858 17.249C3.03782 17.412 3.096 17.6039 3.09568 17.8002V18.9361C3.09568 19.1992 3.20018 19.4515 3.38619 19.6376C3.57221 19.8236 3.82449 19.9282 4.08755 19.9282H5.23276C5.42885 19.9284 5.62055 19.9862 5.7841 20.0944C5.94764 20.2026 6.07583 20.3564 6.15276 20.5368L6.58881 21.596C6.63865 21.7167 6.71182 21.8263 6.80412 21.9186C6.89642 22.011 7.00603 22.0842 7.12667 22.134C7.2473 22.1839 7.3766 22.2095 7.50713 22.2092C7.63766 22.209 7.76687 22.1831 7.88735 22.1328L8.93193 21.6967C9.11359 21.6219 9.3133 21.6024 9.50598 21.6408C9.69865 21.6792 9.87569 21.7736 10.0148 21.9123L10.8198 22.7127C10.9116 22.8049 11.0206 22.878 11.1406 22.9279C11.2607 22.9778 11.3894 23.0035 11.5194 23.0035C11.6494 23.0035 11.7782 22.9778 11.8982 22.9279C12.0183 22.878 12.1273 22.8049 12.219 22.7127L13.0288 21.9027C13.1685 21.7649 13.3458 21.6713 13.5384 21.6338C13.7311 21.5963 13.9305 21.6165 14.1117 21.6919L15.1707 22.128C15.4143 22.2194 15.684 22.2119 15.9221 22.1072C16.1603 22.0024 16.348 21.8086 16.4453 21.5673L16.8813 20.5225C16.9556 20.3408 17.0824 20.1854 17.2454 20.0761C17.4084 19.9669 17.6003 19.9087 17.7965 19.909H18.9321C19.1952 19.909 19.4475 19.8045 19.6335 19.6184C19.8195 19.4324 19.924 19.18 19.924 18.9169V17.7906C19.9242 17.5945 19.982 17.4028 20.0902 17.2392C20.1984 17.0756 20.3522 16.9474 20.5326 16.8704L21.5915 16.4343C21.7122 16.3845 21.8218 16.3113 21.9141 16.219C22.0064 16.1266 22.0796 16.017 22.1294 15.8963C22.1793 15.7757 22.2048 15.6464 22.2046 15.5158C22.2044 15.3852 22.1784 15.256 22.1282 15.1355L21.6921 14.0907C21.6174 13.909 21.5979 13.7092 21.6363 13.5165C21.6746 13.3238 21.7691 13.1467 21.9078 13.0076L22.708 12.2024ZM8.62526 7.18926C8.90957 7.18926 9.1875 7.27359 9.42389 7.43157C9.66029 7.58956 9.84454 7.81411 9.95334 8.07684C10.0621 8.33956 10.0906 8.62866 10.0351 8.90756C9.97968 9.18647 9.84277 9.44266 9.64173 9.64374C9.44069 9.84482 9.18455 9.98176 8.90571 10.0372C8.62686 10.0927 8.33782 10.0642 8.07516 9.95541C7.81249 9.84659 7.58798 9.6623 7.43003 9.42586C7.27207 9.18941 7.18776 8.91143 7.18776 8.62706C7.18776 8.24573 7.33921 7.88002 7.6088 7.61038C7.87838 7.34074 8.24401 7.18926 8.62526 7.18926ZM14.3753 15.8161C14.091 15.8161 13.813 15.7317 13.5766 15.5737C13.3402 15.4158 13.156 15.1912 13.0472 14.9285C12.9384 14.6658 12.9099 14.3767 12.9654 14.0978C13.0209 13.8189 13.1578 13.5627 13.3588 13.3616C13.5598 13.1605 13.816 13.0236 14.0948 12.9681C14.3737 12.9126 14.6627 12.9411 14.9254 13.0499C15.188 13.1587 15.4125 13.343 15.5705 13.5795C15.7285 13.8159 15.8128 14.0939 15.8128 14.3783C15.8128 14.7596 15.6613 15.1253 15.3917 15.3949C15.1221 15.6646 14.7565 15.8161 14.3753 15.8161ZM15.5301 8.82356L8.82172 15.5333C8.73581 15.6336 8.63009 15.7151 8.51119 15.7727C8.3923 15.8302 8.2628 15.8625 8.13081 15.8676C7.99883 15.8727 7.86722 15.8505 7.74425 15.8023C7.62127 15.7541 7.50958 15.681 7.41618 15.5876C7.32279 15.4942 7.24971 15.3825 7.20153 15.2595C7.15335 15.1365 7.13111 15.0048 7.13621 14.8728C7.1413 14.7408 7.17363 14.6113 7.23115 14.4924C7.28867 14.3734 7.37015 14.2677 7.47047 14.1818L14.1788 7.47203C14.2647 7.37169 14.3704 7.29019 14.4893 7.23266C14.6082 7.17512 14.7377 7.14279 14.8697 7.13769C15.0017 7.13259 15.1333 7.15484 15.2563 7.20303C15.3793 7.25122 15.491 7.32431 15.5843 7.41773C15.6777 7.51114 15.7508 7.62285 15.799 7.74586C15.8472 7.86886 15.8694 8.0005 15.8643 8.13251C15.8592 8.26452 15.8269 8.39405 15.7694 8.51297C15.7119 8.63189 15.6304 8.73763 15.5301 8.82356Z" fill="#737373"/>
</g>
<defs>
<clipPath id="clip0_152_117">
<rect width="23" height="23" fill="white"/>
</clipPath>
</defs>
</svg>
