<svg width="16" height="12" viewBox="0 0 16 12" fill="none" xmlns="http://www.w3.org/2000/svg">
<g clip-path="url(#clip0_202_19)">
<path fill-rule="evenodd" clip-rule="evenodd" d="M9.27784 3.94484C9.54025 4.20339 9.54534 4.62093 9.28973 4.87362L9.15131 5.01001L10.2638 6.08773L7.45037 8.7586L6.36679 7.65243L2.14286 11.8144C1.88725 12.0662 1.46265 12.0612 1.20025 11.8027C0.937848 11.5441 0.932753 11.1266 1.18836 10.8739L5.42757 6.69688L4.57922 5.8275L7.23891 3.1558L8.19087 4.07621L8.33693 3.93229C8.59169 3.68127 9.01544 3.68629 9.27784 3.94484ZM7.12342 1.87558C7.33233 2.08142 7.33657 2.41361 7.13276 2.61443L4.03064 5.67103C3.82683 5.87185 3.4897 5.86767 3.28079 5.66183C3.07189 5.45599 3.06764 5.12381 3.27145 4.92299L6.37358 1.86638C6.57739 1.66556 6.91452 1.66975 7.12342 1.87558ZM11.5333 6.22077C11.7422 6.42661 11.7465 6.7588 11.5427 6.95961L8.44053 10.0171C8.23672 10.2179 7.89959 10.2137 7.69069 10.0079C7.48179 9.80202 7.47754 9.46983 7.68135 9.26901L10.7835 6.2124C10.9873 6.01075 11.3244 6.01493 11.5333 6.22077Z" fill="black"/>
<path fill-rule="evenodd" clip-rule="evenodd" d="M11.3388 1.64555C9.27853 1.68148 7.66883 3.43536 7.76278 5.50649L7.03914 5.53932C6.85722 5.54757 6.77833 5.77307 6.91346 5.89434L8.09346 6.99153C8.17803 7.06989 8.30335 7.0642 8.38048 6.97851L9.4563 5.779C9.57585 5.64617 9.47687 5.42874 9.29495 5.43699L8.57131 5.46982C8.49875 3.87033 9.72572 2.52012 11.3114 2.46874C12.8162 2.42102 14.1398 3.64732 14.2292 5.17207C14.3221 6.77474 13.108 8.14081 11.5314 8.21233C10.8805 8.24185 10.2679 8.04361 9.77361 7.68383C9.60614 7.56403 9.3803 7.5866 9.24147 7.74085C9.07949 7.9208 9.10482 8.21144 9.30153 8.35047C9.93834 8.81474 10.7237 9.0709 11.5686 9.03258C13.6102 8.93997 15.186 7.15474 15.0347 5.06977C14.8949 3.14867 13.2373 1.61286 11.3388 1.64555ZM11.2257 3.70553C11.0599 3.71305 10.9288 3.85873 10.9364 4.02688L11.0049 5.53614C11.0114 5.67969 11.0944 5.81154 11.219 5.87986L12.5147 6.58138C12.6642 6.6609 12.8479 6.60325 12.9263 6.45586C13.0045 6.30436 12.9474 6.11791 12.802 6.0382L11.6059 5.3897L11.5427 3.99527C11.5352 3.83122 11.3914 3.69801 11.2257 3.70553Z" fill="#1D1D1D"/>
</g>
<defs>
<clipPath id="clip0_202_19">
<rect width="16" height="12" fill="white"/>
</clipPath>
</defs>
</svg>
