<svg width="20" height="16" viewBox="0 0 20 16" fill="none" xmlns="http://www.w3.org/2000/svg">
<path d="M1.64961 15.425C1.31628 15.425 1.03711 15.3125 0.812109 15.0875C0.587109 14.8625 0.474609 14.5833 0.474609 14.25V10.65C0.474609 9.2 0.978776 7.975 1.98711 6.975C2.99544 5.975 4.21628 5.475 5.64961 5.475H15.0246L12.3996 2.85C12.1829 2.63333 12.0788 2.36667 12.0871 2.05C12.0954 1.73333 12.2079 1.45833 12.4246 1.225C12.6579 0.991667 12.9329 0.875 13.2496 0.875C13.5663 0.875 13.8413 0.991667 14.0746 1.225L18.6746 5.825C18.7913 5.94167 18.8829 6.07083 18.9496 6.2125C19.0163 6.35417 19.0496 6.5 19.0496 6.65C19.0496 6.8 19.0163 6.94583 18.9496 7.0875C18.8829 7.22917 18.7913 7.35833 18.6746 7.475L14.0496 12.1C13.8329 12.3167 13.5663 12.425 13.2496 12.425C12.9329 12.425 12.6579 12.3083 12.4246 12.075C12.1913 11.8417 12.0746 11.5667 12.0746 11.25C12.0746 10.9333 12.1913 10.6583 12.4246 10.425L15.0246 7.825H5.64961C4.86628 7.825 4.20378 8.09583 3.66211 8.6375C3.12044 9.17917 2.84961 9.85 2.84961 10.65V14.25C2.84961 14.5833 2.73294 14.8625 2.49961 15.0875C2.26628 15.3125 1.98294 15.425 1.64961 15.425Z" fill="black"/>
</svg>
