<svg width="394" height="512" viewBox="0 0 394 512" fill="none" xmlns="http://www.w3.org/2000/svg">
<g clip-path="url(#clip0_601_79)">
<path fill-rule="evenodd" clip-rule="evenodd" d="M158.912 88.1152C151.009 64.8012 143.892 41.2232 137.886 17.2772C160.284 -7.3058 246.85 -4.0388 271.746 16.8932L248.696 71.6962C261.092 55.4112 265.259 48.7262 272.654 39.6532C275.756 41.6928 278.694 43.971 281.441 46.4672C287.998 52.4032 293.854 58.9622 295.038 68.1052C295.806 74.0342 294.111 80.0582 288.835 86.2162L235.951 147.811C229.144 146.695 222.492 145.062 216.037 142.767C219.036 135.709 222.653 127.944 225.652 120.885L206.399 141.68C186.341 137.448 170.211 139.973 155.18 147.923L101.548 83.5562C98.3621 79.7172 96.9121 75.8782 96.9241 72.0392C96.9751 56.4802 120.142 43.0522 132.32 37.9692L158.912 88.1152ZM154.398 329.073L161.172 313.814H186.721C185.108 308.399 178.776 305.352 173.473 305.352H154.398L161.172 290.092H234.303L227.529 305.352H209.864C212.209 307.15 214.72 310.854 215.159 313.814H234.303L227.529 329.073H213.679C209.208 340.454 195.574 348.186 183.946 349.859L222.373 389.418H191.992L157.727 351.824V337.813H172.895C178.056 337.813 184.483 334.187 186.12 329.073H154.398ZM227.639 204.409L217.172 156.538C262.004 164.876 333.863 256.073 357.083 297.537C368.935 318.7 379.315 342.016 387.814 368.081C404.745 431.162 388.436 490.174 320.006 503.92C277.13 512.533 197.169 513.143 152.077 510.81C103.601 508.301 28.5831 508.379 8.98711 458.606C-22.6409 378.268 35.3061 282.561 88.1421 223.983C95.0941 216.275 102.283 209.092 109.721 202.461C128.94 185.551 149.664 165.486 174.403 157.143L150.508 201.637L185.213 155.627H203.501L227.639 204.409ZM107.682 292.637C133.162 244.77 192.614 226.623 240.481 252.103C288.348 277.582 306.495 337.034 281.016 384.902C255.536 432.769 196.084 450.916 148.217 425.437C100.349 399.957 82.2031 340.505 107.682 292.637Z" fill="#737373"/>
</g>
<defs>
<clipPath id="clip0_601_79">
<rect width="394" height="511.981" fill="white"/>
</clipPath>
</defs>
</svg>
