<svg width="22" height="22" viewBox="0 0 22 22" fill="none" xmlns="http://www.w3.org/2000/svg">
<path d="M11 1.08337C3.41667 1.08337 1.08333 3.41671 1.08333 11C1.08333 13.8336 1.40911 15.9341 2.21283 17.4539C3.56006 20.0013 6.25022 20.9167 11 20.9167C17.5631 20.9167 20.1938 19.169 20.7828 13.7829C20.8744 12.9456 20.9167 12.0203 20.9167 11C20.9167 3.41671 18.5833 1.08337 11 1.08337Z" stroke="#A0A0A0" stroke-width="1.5" stroke-linecap="round" stroke-linejoin="round"/>
<path fill-rule="evenodd" clip-rule="evenodd" d="M9.47283 7.32041C9.47283 8.50925 8.508 9.47408 7.31916 9.47408C6.1315 9.47408 5.16666 8.50925 5.16666 7.32041C5.16666 6.13158 6.1315 5.16675 7.31916 5.16675C8.508 5.16675 9.47283 6.13158 9.47283 7.32041Z" stroke="#A0A0A0" stroke-width="1.5" stroke-linecap="round" stroke-linejoin="round"/>
<path d="M2.21283 17.454L5.85009 13.8166C6.76131 12.9055 8.2387 12.9055 9.1499 13.8166L9.3501 14.0168C10.2613 14.928 11.7387 14.928 12.6499 14.0168L15.1834 11.4833C16.0946 10.5721 17.5721 10.5721 18.4832 11.4833L20.7829 13.7829" stroke="#A0A0A0" stroke-width="1.5" stroke-linecap="round" stroke-linejoin="round"/>
</svg>
