<svg width="20" height="20" viewBox="0 0 20 20" fill="none" xmlns="http://www.w3.org/2000/svg">
<path d="M13.841 0.833496H6.15933C2.82266 0.833496 0.833496 2.82266 0.833496 6.15933V13.841C0.833496 14.8402 1.00766 15.711 1.34683 16.4443C2.13516 18.186 3.82183 19.1668 6.15933 19.1668H13.841C17.1777 19.1668 19.1668 17.1777 19.1668 13.841V11.7418V6.15933C19.1668 2.82266 17.1777 0.833496 13.841 0.833496ZM17.6727 10.4585C16.9577 9.84433 15.8027 9.84433 15.0877 10.4585L11.2743 13.731C10.5593 14.3452 9.40433 14.3452 8.68933 13.731L8.37766 13.4743C7.72683 12.906 6.691 12.851 5.95766 13.346L2.52933 15.6468C2.32766 15.1335 2.2085 14.5377 2.2085 13.841V6.15933C2.2085 3.57433 3.57433 2.2085 6.15933 2.2085H13.841C16.426 2.2085 17.7918 3.57433 17.7918 6.15933V10.5593L17.6727 10.4585Z" fill="#002BBE"/>
</svg>
