<svg width="18" height="14" viewBox="0 0 18 14" fill="none" xmlns="http://www.w3.org/2000/svg">
<path d="M14.0982 4.75597V4.91876L14.2576 4.95181C16.2756 5.37017 17.7999 7.15959 17.7999 9.29549C17.7999 11.742 15.8182 13.7317 13.3727 13.7317C10.9264 13.7317 8.93047 11.7411 8.93047 9.29549C8.93047 7.13629 10.5016 5.33165 12.5188 4.93935L12.6806 4.90788V4.74303V3.54896V3.34896H12.4806H11.8808V2.22219H12.4806H12.6806V2.02219V1.13164H14.0982V2.02219V2.22219H14.2982H14.8252V3.34896H14.2982H14.0982V3.54896V4.75597ZM10.3602 9.29541C10.3602 10.96 11.7142 12.314 13.3788 12.314C15.0435 12.314 16.3974 10.9601 16.3975 9.29542C16.3975 7.63071 15.0435 6.27671 13.3788 6.27671C11.7142 6.27671 10.3602 7.63071 10.3602 9.29541Z" fill="#121212" stroke="white" stroke-width="0.4"/>
<path d="M3.95628 9.18925V9.0243L3.79435 8.9929C1.77704 8.60182 0.2 6.79621 0.2 4.63621C0.2 2.19079 2.19885 0.2 4.64537 0.2C7.09103 0.2 9.07554 2.18994 9.07554 4.63621C9.07554 6.77086 7.55137 8.5596 5.53324 8.97904L5.37393 9.01214V9.17485V11.2595V11.6766L5.69916 11.4155L6.23872 10.9822L6.96188 11.8578L4.67741 13.7217L2.46336 11.8531L3.18412 10.9949L3.62567 11.3757L3.95628 11.6608V11.2242V9.18925ZM4.6514 1.61758C2.9867 1.61758 1.6327 2.97157 1.6327 4.63621C1.6327 6.30092 2.9867 7.65491 4.6514 7.65491C6.31611 7.65491 7.67011 6.30092 7.67011 4.63621C7.67011 2.97157 6.31611 1.61758 4.6514 1.61758Z" fill="#121212" stroke="white" stroke-width="0.4"/>
</svg>
