<svg width="575" height="417" viewBox="0 0 575 417" fill="none" xmlns="http://www.w3.org/2000/svg">
<path d="M541.412 100.143C540.33 98.4084 538.914 96.9063 537.247 95.7238C535.579 94.5414 533.694 93.7022 531.699 93.255C529.704 92.8079 527.641 92.7617 525.628 93.1191C523.615 93.4765 521.694 94.2304 519.975 95.337C518.256 96.4436 516.775 97.8808 515.616 99.5651C514.458 101.249 513.646 103.147 513.228 105.148C512.809 107.149 512.793 109.213 513.179 111.22C513.565 113.227 514.347 115.138 515.478 116.841C520.631 124.768 525.091 133.125 528.809 141.819C530.413 145.296 533.249 148.054 536.768 149.561C540.288 151.068 544.242 151.215 547.864 149.976C551.487 148.736 554.521 146.197 556.38 142.85C558.239 139.503 558.79 135.585 557.928 131.855C557.655 131.081 557.473 130.353 557.109 129.535C552.738 119.301 547.486 109.466 541.412 100.143ZM338.036 127.715C338.036 123.491 339.714 119.441 342.7 116.454C345.686 113.468 349.737 111.79 353.96 111.79C358.184 111.79 362.234 113.468 365.22 116.454C368.207 119.441 369.884 123.491 369.884 127.715V224.307L436.039 253.38C439.882 255.075 442.894 258.228 444.413 262.145C445.932 266.061 445.833 270.42 444.137 274.264C442.442 278.107 439.289 281.119 435.373 282.638C431.456 284.157 427.097 284.058 423.254 282.362L348.045 249.467C345.069 248.29 342.518 246.238 340.732 243.582C338.945 240.926 338.005 237.79 338.036 234.589V127.715ZM514.568 53.8714C515.239 55.5529 515.609 57.3394 515.66 59.1491C516.325 63.2436 515.484 67.4403 513.292 70.9621C511.1 74.4839 507.707 77.0921 503.74 78.3038L457.878 92.3172C455.692 93.087 453.372 93.406 451.06 93.2547C448.747 93.1034 446.489 92.4851 444.422 91.437C442.355 90.3889 440.522 88.9329 439.034 87.1567C437.545 85.3806 436.432 83.3212 435.761 81.1028C435.09 78.8845 434.876 76.5533 435.131 74.2498C435.386 71.9464 436.106 69.7186 437.246 67.7009C438.386 65.6832 439.923 63.9174 441.764 62.5101C443.605 61.1029 445.713 60.0834 447.959 59.5131L452.509 58.1482C413.47 36.9645 367.816 31.4872 324.875 42.8357C281.933 54.1842 244.946 81.5017 221.47 119.206C219.683 118.52 217.86 117.927 216.01 117.432C214.645 116.113 213.235 114.839 211.46 113.61L209.686 112.063C205.156 108.472 200.224 105.418 194.99 102.964C203.329 89.6501 213.159 77.3315 224.291 66.2468C255.896 34.6157 296.987 14.2008 341.287 8.12112C385.586 2.04145 430.658 10.6313 469.616 32.5783L465.43 21.3403C464.436 17.2762 464.958 12.9892 466.898 9.28209C468.837 5.57497 472.062 2.702 475.967 1.20121C479.872 -0.299589 484.191 -0.325277 488.114 1.12895C492.037 2.58318 495.295 5.41759 497.279 9.10138L514.386 53.8714H514.568ZM369.247 385.279C370.019 385.208 370.796 385.208 371.568 385.279C372.476 385.207 373.389 385.207 374.298 385.279C383.725 385.139 393.121 384.149 402.37 382.321C403.391 382.138 404.426 382.047 405.464 382.048C409.257 382.159 412.877 383.66 415.636 386.267C418.394 388.873 420.098 392.402 420.424 396.183C420.75 399.964 419.675 403.732 417.403 406.772C415.131 409.812 411.821 411.91 408.103 412.668C397.137 414.776 386.009 415.933 374.844 416.126C373.921 416.226 372.991 416.226 372.068 416.126C371.139 416.309 370.194 416.401 369.247 416.399C359.675 416.394 350.114 415.741 340.629 414.443C343.706 411.096 345.935 407.061 347.13 402.676C348.326 398.29 348.452 393.682 347.499 389.237L346.407 384.05C353.949 385.053 361.549 385.555 369.156 385.552L369.247 385.279ZM455.33 362.985C451.655 364.795 448.851 367.99 447.532 371.868C446.214 375.746 446.49 379.989 448.3 383.663C450.11 387.338 453.306 390.143 457.184 391.461C461.062 392.779 465.305 392.503 468.979 390.693C479.404 385.191 489.237 378.636 498.325 371.129C501.324 368.755 503.333 365.351 503.964 361.579C504.594 357.807 503.8 353.935 501.737 350.715C499.673 347.494 496.487 345.156 492.796 344.153C489.105 343.15 485.174 343.553 481.764 345.286C480.78 345.78 479.85 346.375 478.989 347.06C471.619 353.012 463.766 358.338 455.512 362.985H455.33ZM516.206 304.975C514.028 308.438 513.315 312.624 514.224 316.613C515.132 320.602 517.588 324.067 521.051 326.245C524.515 328.423 528.701 329.136 532.69 328.227C536.679 327.319 540.144 324.863 542.322 321.4C548.234 311.955 553.377 302.05 557.7 291.78C559.478 288.116 559.735 283.897 558.414 280.044C557.093 276.191 554.301 273.017 550.649 271.215C546.996 269.413 542.779 269.129 538.917 270.424C535.056 271.72 531.864 274.49 530.037 278.131C526.013 287.307 521.455 296.24 516.388 304.884L516.206 304.975ZM542.595 224.898C542.371 226.912 542.545 228.95 543.109 230.896C543.673 232.842 544.614 234.658 545.879 236.24C547.145 237.822 548.709 239.14 550.484 240.117C552.258 241.095 554.208 241.713 556.221 241.937C558.235 242.161 560.273 241.987 562.219 241.423C564.165 240.86 565.981 239.918 567.563 238.653C570.759 236.097 572.808 232.377 573.26 228.311C574.307 216.899 574.307 205.416 573.26 194.005C572.923 189.927 570.978 186.149 567.855 183.504C564.733 180.859 560.687 179.563 556.608 179.901C552.53 180.239 548.752 182.183 546.107 185.306C543.462 188.429 542.166 192.474 542.504 196.553C543.277 205.986 543.277 215.466 542.504 224.898H542.595Z" fill="#737373"/>
<path fill-rule="evenodd" clip-rule="evenodd" d="M93.3431 231.683L208.885 141L325.007 231.683H93.3431ZM171.254 327.002L171.503 284.672H167.218V338.034C173.525 336.454 180.007 335.675 186.51 335.716C192.762 335.646 198.982 336.625 204.911 338.614C201.161 335.582 196.889 333.26 192.305 331.762C186.418 329.9 180.217 329.239 174.069 329.817C173.729 329.848 173.386 329.812 173.061 329.71C172.735 329.608 172.432 329.442 172.17 329.223C171.909 329.004 171.693 328.735 171.536 328.432C171.379 328.129 171.283 327.797 171.254 327.457C171.234 327.306 171.234 327.153 171.254 327.002ZM240.41 273.598C234.804 272.961 229.127 273.67 223.851 275.668C218.828 277.436 214.523 280.803 211.597 285.252V333.17C215.804 330.271 220.359 327.914 225.155 326.153C230.025 324.224 235.269 323.424 240.493 323.814V273.598H240.41ZM246.62 279.456H253.678C254.366 279.461 255.024 279.739 255.509 280.227C255.993 280.716 256.265 281.376 256.265 282.064V341.926C256.268 342.267 256.203 342.606 256.074 342.922C255.946 343.239 255.755 343.526 255.515 343.769C255.274 344.011 254.988 344.204 254.673 344.335C254.358 344.466 254.019 344.534 253.678 344.534C253.388 344.54 253.1 344.491 252.829 344.389C245.825 342.249 238.562 341.072 231.24 340.891C224.046 340.791 216.915 342.245 210.334 345.155C209.888 345.425 209.376 345.568 208.854 345.568C208.332 345.568 207.82 345.425 207.374 345.155C200.799 342.251 193.676 340.797 186.489 340.891C179.174 341.074 171.918 342.251 164.92 344.389C164.649 344.489 164.361 344.538 164.072 344.534C163.387 344.528 162.732 344.254 162.248 343.77C161.764 343.286 161.49 342.631 161.484 341.946V282.064C161.49 281.374 161.766 280.714 162.254 280.226C162.742 279.738 163.402 279.461 164.092 279.456H171.503V270.783C171.505 270.188 171.712 269.613 172.089 269.153C172.466 268.693 172.99 268.377 173.573 268.258C181.066 266.737 188.836 267.332 196.01 269.976C201.127 271.837 205.613 275.11 208.947 279.415C212.381 275.31 216.846 272.194 221.884 270.39C229.064 267.827 236.774 267.115 244.301 268.32C244.92 268.409 245.485 268.717 245.895 269.188C246.306 269.659 246.533 270.262 246.537 270.887V279.559L246.62 279.456ZM214.039 338.221C219.613 336.487 225.424 335.642 231.261 335.716C237.764 335.667 244.246 336.446 250.552 338.034V284.672H246.599V327.291C246.602 327.633 246.537 327.972 246.408 328.288C246.279 328.604 246.089 328.892 245.848 329.134C245.608 329.377 245.322 329.569 245.006 329.701C244.691 329.832 244.353 329.9 244.011 329.9C243.812 329.921 243.611 329.921 243.411 329.9C237.832 329.066 232.132 329.672 226.852 331.659C222.332 333.345 218.042 335.591 214.081 338.345L214.039 338.221ZM206.319 332.653V285.252C203.58 280.624 199.301 277.107 194.23 275.316C188.969 273.256 183.257 272.621 177.671 273.474L177.381 323.98C183 323.729 188.616 324.53 193.94 326.339C198.38 327.747 202.57 329.842 206.36 332.549L206.319 332.653ZM209.175 171.945C213.976 171.945 218.67 173.369 222.662 176.036C226.654 178.703 229.766 182.493 231.605 186.929C233.443 191.364 233.925 196.245 232.99 200.954C232.055 205.664 229.744 209.99 226.351 213.386C222.957 216.783 218.633 219.097 213.924 220.036C209.216 220.975 204.335 220.497 199.898 218.663C195.461 216.828 191.667 213.719 188.997 209.729C186.327 205.739 184.899 201.047 184.895 196.246C184.917 189.821 187.485 183.666 192.036 179.131C196.587 174.595 202.75 172.049 209.175 172.049V171.945ZM95.7235 355.711H108.143V353.641C108.148 351.568 108.974 349.581 110.441 348.115C111.907 346.649 113.894 345.823 115.967 345.817V261.448H100.401V244.35H317.328V261.448H301.845V345.714C303.918 345.719 305.905 346.545 307.371 348.011C308.837 349.477 309.663 351.464 309.669 353.538V355.608H322.585C323.903 355.619 325.163 356.148 326.093 357.082C327.023 358.016 327.547 359.278 327.553 360.596V372.043H331.32C332.638 372.048 333.9 372.573 334.834 373.503C335.768 374.432 336.298 375.693 336.309 377.011V383.22C336.292 384.538 335.762 385.798 334.83 386.73C333.898 387.662 332.638 388.193 331.32 388.209H86.9885C85.6898 388.199 84.4454 387.687 83.5156 386.78C82.5858 385.874 82.0427 384.642 82 383.345V377.135C82.0055 375.815 82.5335 374.552 83.4684 373.621C84.4033 372.69 85.669 372.167 86.9885 372.167H90.7557V360.72C90.7611 359.399 91.2885 358.133 92.2228 357.199C93.1571 356.265 94.4228 355.737 95.7442 355.732L95.7235 355.711ZM152.108 355.711H265.683V353.641C265.683 353.331 265.683 353.02 265.683 352.71C265.934 350.863 266.833 349.165 268.222 347.921C269.61 346.677 271.396 345.968 273.259 345.921V261.448H144.47V345.714C146.512 345.762 148.455 346.608 149.882 348.07C151.31 349.532 152.108 351.495 152.108 353.538V355.608V355.711Z" fill="#737373"/>
<path d="M212.579 190.329H217.97L219.936 187H200.967L199 190.329H206.286C207.893 190.803 209.199 191.754 209.921 192.962H200.967L199 196.291H210.365C209.691 198.565 207.085 200.259 203.969 200.259H200.084V203.26L211.109 212.599H215.91V211.438L205.835 203.096C210.063 202.929 213.516 200.036 214.149 196.291H217.97L219.936 192.962H213.952C213.671 192.001 213.2 191.113 212.579 190.329Z" fill="#737373"/>
</svg>
