<svg width="468" height="455" viewBox="0 0 468 455" fill="none" xmlns="http://www.w3.org/2000/svg">
<g clip-path="url(#clip0_508_37)">
<path fill-rule="evenodd" clip-rule="evenodd" d="M20.8437 166.635L233.16 0L446.541 166.635H20.8437ZM164.011 341.79L164.467 264.007H156.594V362.063C168.184 359.159 180.095 357.728 192.043 357.803C203.533 357.674 214.963 359.474 225.857 363.128C218.966 357.557 211.116 353.29 202.693 350.538C191.875 347.116 180.48 345.901 169.184 346.963C168.559 347.02 167.929 346.954 167.33 346.766C166.731 346.579 166.175 346.275 165.694 345.872C165.213 345.469 164.817 344.975 164.528 344.418C164.239 343.861 164.063 343.252 164.011 342.627C163.973 342.349 163.973 342.068 164.011 341.79ZM291.088 243.658C280.787 242.487 270.356 243.791 260.66 247.461C251.43 250.711 243.52 256.897 238.143 265.072V353.125C245.873 347.798 254.243 343.466 263.056 340.231C272.005 336.686 281.642 335.217 291.241 335.933V243.658H291.088ZM302.499 254.422H315.469C316.734 254.432 317.943 254.941 318.834 255.839C319.724 256.737 320.224 257.95 320.224 259.214V369.214C320.229 369.842 320.11 370.464 319.873 371.045C319.636 371.626 319.287 372.155 318.845 372.601C318.403 373.046 317.877 373.4 317.298 373.641C316.718 373.882 316.097 374.007 315.469 374.007C314.937 374.018 314.408 373.927 313.91 373.74C301.039 369.808 287.693 367.645 274.239 367.312C261.018 367.129 247.915 369.802 235.822 375.148C235.002 375.644 234.062 375.907 233.103 375.907C232.144 375.907 231.203 375.644 230.383 375.148C218.301 369.811 205.212 367.139 192.005 367.312C178.564 367.649 165.23 369.811 152.372 373.74C151.873 373.924 151.344 374.014 150.812 374.007C149.554 373.997 148.351 373.493 147.461 372.603C146.572 371.714 146.068 370.51 146.058 369.252V259.214C146.068 257.946 146.576 256.733 147.472 255.837C148.369 254.94 149.582 254.432 150.85 254.422H164.467V238.485C164.471 237.392 164.852 236.334 165.544 235.489C166.237 234.644 167.2 234.063 168.271 233.844C182.041 231.049 196.317 232.143 209.502 237.001C218.904 240.422 227.146 246.436 233.274 254.346C239.583 246.803 247.789 241.078 257.046 237.762C270.239 233.052 284.407 231.744 298.239 233.959C299.375 234.122 300.415 234.689 301.169 235.554C301.922 236.42 302.341 237.527 302.347 238.675V254.612L302.499 254.422ZM242.631 362.406C252.873 359.22 263.552 357.667 274.277 357.803C286.226 357.713 298.138 359.144 309.726 362.063V264.007H302.461V342.323C302.466 342.95 302.347 343.573 302.11 344.154C301.874 344.735 301.524 345.264 301.082 345.709C300.64 346.155 300.114 346.508 299.535 346.75C298.956 346.991 298.334 347.115 297.707 347.115C297.34 347.155 296.97 347.155 296.604 347.115C286.351 345.584 275.877 346.697 266.175 350.348C257.87 353.446 249.985 357.574 242.707 362.634L242.631 362.406ZM228.443 352.174V265.072C223.411 256.568 215.548 250.105 206.23 246.815C196.562 243.03 186.066 241.862 175.802 243.429L175.269 336.237C185.594 335.777 195.913 337.247 205.698 340.573C213.855 343.16 221.556 347.01 228.519 351.984L228.443 352.174ZM233.692 56.8636C242.515 56.8636 251.139 59.4793 258.476 64.3801C265.812 69.2809 271.531 76.2468 274.909 84.3971C278.287 92.5474 279.172 101.516 277.454 110.17C275.735 118.823 271.49 126.773 265.254 133.015C259.018 139.256 251.072 143.508 242.42 145.234C233.768 146.96 224.798 146.081 216.645 142.71C208.492 139.339 201.521 133.627 196.614 126.295C191.707 118.963 189.084 110.34 189.076 101.518C189.117 89.7112 193.835 78.402 202.198 70.0677C210.56 61.7334 221.886 57.0537 233.692 57.0538V56.8636ZM25.2178 394.546H48.0393V390.742C48.0493 386.932 49.5673 383.281 52.2615 380.587C54.9556 377.893 58.6068 376.375 62.4168 376.365V221.331H33.8139V189.913H432.43V221.331H403.979V376.175C407.789 376.185 411.44 377.703 414.134 380.397C416.828 383.091 418.346 386.742 418.356 390.552V394.356H442.091C444.512 394.376 446.828 395.349 448.537 397.065C450.246 398.781 451.209 401.101 451.219 403.522V424.556H458.142C460.563 424.566 462.884 425.53 464.599 427.239C466.315 428.947 467.289 431.263 467.309 433.685V445.096C467.279 447.518 466.304 449.832 464.591 451.545C462.878 453.257 460.564 454.233 458.142 454.262H9.16664C6.78033 454.244 4.49359 453.303 2.78502 451.637C1.07646 449.971 0.0784937 447.709 0 445.324L0 433.913C0.0100605 431.488 0.980268 429.167 2.69826 427.456C4.41625 425.745 6.74207 424.784 9.16664 424.784H16.0892V403.751C16.0992 401.323 17.0682 398.997 18.7851 397.28C20.502 395.563 22.8277 394.594 25.2558 394.584L25.2178 394.546ZM128.827 394.546H337.53V390.742C337.53 390.172 337.53 389.601 337.53 389.031C337.99 385.636 339.644 382.517 342.195 380.231C344.745 377.944 348.027 376.641 351.451 376.555V221.331H114.792V376.175C118.546 376.264 122.115 377.818 124.738 380.505C127.361 383.192 128.829 386.798 128.827 390.552V394.356V394.546Z" fill="#737373"/>
<path d="M240.962 80.1009H252.459L256.654 73H216.195L212 80.1009H227.54C230.967 81.1114 233.753 83.1405 235.293 85.7161H216.195L212 92.817H236.241C234.803 97.6662 229.243 101.28 222.599 101.28H214.312V107.68L237.827 127.599H248.065V125.123L226.578 107.331C235.595 106.974 242.961 100.803 244.31 92.8169H252.459L256.654 85.716H243.891C243.291 83.6669 242.286 81.7717 240.962 80.1009Z" fill="#737373"/>
</g>
<defs>
<clipPath id="clip0_508_37">
<rect width="467.385" height="454.49" fill="white"/>
</clipPath>
</defs>
</svg>
