<svg width="54" height="54" viewBox="0 0 54 54" fill="none" xmlns="http://www.w3.org/2000/svg">
<circle cx="27" cy="27" r="27" fill="#E8F4EA"/>
<path d="M16.395 16.395C13.68 19.11 12 22.86 12 27C12 31.14 13.68 34.89 16.395 37.605L18.51 35.49C16.335 33.33 15 30.33 15 27C15 23.685 16.335 20.67 18.51 18.51L16.395 16.395ZM37.605 16.395L35.49 18.51C37.665 20.67 39 23.685 39 27C39 30.33 37.665 33.33 35.49 35.49L37.605 37.605C40.32 34.89 42 31.14 42 27C42 22.86 40.32 19.11 37.605 16.395ZM20.64 20.64C19.005 22.275 18 24.525 18 27C18 29.475 19.005 31.725 20.64 33.36L22.755 31.245C21.675 30.165 21 28.665 21 27C21 25.335 21.675 23.835 22.755 22.755L20.64 20.64ZM33.36 20.64L31.245 22.755C32.325 23.835 33 25.335 33 27C33 28.665 32.325 30.165 31.245 31.245L33.36 33.36C34.995 31.725 36 29.475 36 27C36 24.525 34.995 22.275 33.36 20.64ZM27 24C26.2044 24 25.4413 24.3161 24.8787 24.8787C24.3161 25.4413 24 26.2044 24 27C24 27.7957 24.3161 28.5587 24.8787 29.1213C25.4413 29.6839 26.2044 30 27 30C27.7956 30 28.5587 29.6839 29.1213 29.1213C29.6839 28.5587 30 27.7957 30 27C30 26.2044 29.6839 25.4413 29.1213 24.8787C28.5587 24.3161 27.7956 24 27 24Z" fill="#0FC92E"/>
</svg>
