<svg width="36" height="36" viewBox="0 0 36 36" fill="none" xmlns="http://www.w3.org/2000/svg">
<circle cx="18" cy="18" r="18" fill="#001A72" fill-opacity="0.15"/>
<path d="M9.6 16.8001C10.9238 16.8001 12 15.7238 12 14.4001C12 13.0763 10.9238 12.0001 9.6 12.0001C8.27625 12.0001 7.2 13.0763 7.2 14.4001C7.2 15.7238 8.27625 16.8001 9.6 16.8001ZM26.4 16.8001C27.7238 16.8001 28.8 15.7238 28.8 14.4001C28.8 13.0763 27.7238 12.0001 26.4 12.0001C25.0763 12.0001 24 13.0763 24 14.4001C24 15.7238 25.0763 16.8001 26.4 16.8001ZM27.6 18.0001H25.2C24.54 18.0001 23.9438 18.2663 23.5088 18.6976C25.02 19.5263 26.0925 21.0226 26.325 22.8001H28.8C29.4638 22.8001 30 22.2638 30 21.6001V20.4001C30 19.0763 28.9238 18.0001 27.6 18.0001ZM18 18.0001C20.3213 18.0001 22.2 16.1213 22.2 13.8001C22.2 11.4788 20.3213 9.6001 18 9.6001C15.6788 9.6001 13.8 11.4788 13.8 13.8001C13.8 16.1213 15.6788 18.0001 18 18.0001ZM20.88 19.2001H20.5688C19.7888 19.5751 18.9225 19.8001 18 19.8001C17.0775 19.8001 16.215 19.5751 15.4313 19.2001H15.12C12.735 19.2001 10.8 21.1351 10.8 23.5201V24.6001C10.8 25.5938 11.6063 26.4001 12.6 26.4001H23.4C24.3938 26.4001 25.2 25.5938 25.2 24.6001V23.5201C25.2 21.1351 23.265 19.2001 20.88 19.2001ZM12.4913 18.6976C12.0563 18.2663 11.46 18.0001 10.8 18.0001H8.4C7.07625 18.0001 6 19.0763 6 20.4001V21.6001C6 22.2638 6.53625 22.8001 7.2 22.8001H9.67125C9.9075 21.0226 10.98 19.5263 12.4913 18.6976Z" fill="#001A72"/>
</svg>
