<svg width="23" height="20" viewBox="0 0 23 20" fill="none" xmlns="http://www.w3.org/2000/svg">
<g clip-path="url(#clip0_153_140)">
<path fill-rule="evenodd" clip-rule="evenodd" d="M13.4276 -2.83162e-05C7.85286 -0.155584 3.28572 4.38886 3.28572 9.99997H1.32524C0.832382 9.99997 0.59143 10.6 0.941906 10.9444L3.99762 14.0555C4.21667 14.2777 4.55619 14.2777 4.77524 14.0555L7.83095 10.9444C8.17048 10.6 7.92953 9.99997 7.43667 9.99997H5.47619C5.47619 5.66664 8.95905 2.16664 13.2524 2.22219C17.3267 2.27775 20.7548 5.75553 20.8095 9.88886C20.8643 14.2333 17.4143 17.7777 13.1429 17.7777C11.3795 17.7777 9.74762 17.1666 8.45524 16.1333C8.01714 15.7889 7.40381 15.8222 7.00953 16.2222C6.54953 16.6889 6.58238 17.4777 7.09714 17.8777C8.76191 19.2111 10.8538 20 13.1429 20C18.6738 20 23.1533 15.3666 23 9.71108C22.8576 4.49997 18.5643 0.144416 13.4276 -2.83162e-05ZM12.869 5.55553C12.42 5.55553 12.0476 5.9333 12.0476 6.38886V10.4777C12.0476 10.8666 12.2557 11.2333 12.5843 11.4333L16.0014 13.4889C16.3957 13.7222 16.8995 13.5889 17.1295 13.2C17.3595 12.8 17.2281 12.2889 16.8448 12.0555L13.6905 10.1555V6.37775C13.6905 5.9333 13.3181 5.55553 12.869 5.55553Z" fill="#1D1D1D"/>
</g>
<defs>
<clipPath id="clip0_153_140">
<rect width="23" height="20" fill="white"/>
</clipPath>
</defs>
</svg>
