<svg width="32" height="24" viewBox="0 0 32 24" fill="none" xmlns="http://www.w3.org/2000/svg">
<g clip-path="url(#clip0_172_132)">
<path fill-rule="evenodd" clip-rule="evenodd" d="M2.27604 4.35382H3.47917V21.1934H2.27604C1.67306 21.1927 1.09493 20.9562 0.668316 20.5356C0.2417 20.1151 0.00137785 19.5448 0 18.9497L0 6.59756C0.00206273 6.00266 0.242604 5.43275 0.669073 5.01234C1.09554 4.59192 1.67327 4.35518 2.27604 4.35382ZM19.3594 22.7586C19.2214 22.2446 19.3828 21.6612 19.7109 20.9595L16.4505 19.97C16.2526 19.9392 16.2292 19.8338 16.2969 19.6822L16.7526 19.0191C16.7934 18.9724 16.8437 18.9347 16.9002 18.9086C16.9568 18.8825 17.0183 18.8684 17.0807 18.8674L20.6771 18.5333L22.7135 14.7089L14.8047 12.018C14.6094 11.964 14.5651 11.8586 14.7057 11.6813L15.4635 10.6532L24.8385 10.7663L26.6797 7.36346C27.3437 6.39709 28.0937 5.84451 28.7812 5.82137C28.9264 5.79678 29.0758 5.8187 29.2075 5.8839C29.3391 5.94911 29.4462 6.05419 29.513 6.18376C29.901 6.7749 29.8073 7.72585 29.2682 8.82844L27.2005 12.1028L31.9922 20.0702L31.4714 21.2268C31.388 21.4324 31.2734 21.4478 31.1276 21.3091L24.8047 15.9118L22.4609 19.5614L23.9661 22.8049C23.9969 22.8583 24.0157 22.9176 24.021 22.9789C24.0264 23.0401 24.0184 23.1017 23.9974 23.1596L23.6719 23.8843C23.5729 24.018 23.4661 24.0514 23.3437 23.8843L20.8333 21.6123C20.3906 22.2394 19.9583 22.6661 19.4349 22.8049C19.388 22.8049 19.3724 22.8049 19.3594 22.7586ZM10.638 0H15.1641C15.8426 0.0013583 16.4929 0.267973 16.9727 0.741481C17.4524 1.21499 17.7226 1.85681 17.724 2.52645V3.87578H16.0937V2.52131C16.0931 2.28635 15.9982 2.06121 15.8298 1.89507C15.6615 1.72893 15.4334 1.63529 15.1953 1.63461H10.6068C10.3687 1.63529 10.1406 1.72893 9.97224 1.89507C9.8039 2.06121 9.70902 2.28635 9.70833 2.52131V3.87578H8.07292V2.52645C8.0743 1.85592 8.34516 1.21332 8.82606 0.739668C9.30696 0.266013 9.95861 -1.38221e-06 10.638 0ZM4.82813 4.35382H20.8542V8.1088L15.6458 8.04455C15.1953 8.01133 14.7436 8.09208 14.3335 8.27917C13.9234 8.46626 13.5684 8.7535 13.3021 9.11373L12.5937 10.057C12.2793 10.4154 12.0658 10.8491 11.9744 11.3145C11.883 11.78 11.917 12.2609 12.0729 12.7094C12.2123 13.1601 12.4696 13.5665 12.8189 13.8878C13.1682 14.2091 13.5972 14.4338 14.0625 14.5393L18.6224 16.0968L16.862 16.2613C16.4688 16.2866 16.0846 16.3889 15.7318 16.562C15.3916 16.7251 15.0845 16.948 14.8255 17.22C14.7297 17.3187 14.6426 17.4253 14.5651 17.5387L14.2031 18.0527C14.0642 18.2266 13.9487 18.4175 13.8594 18.6207C13.5733 19.2169 13.515 19.8951 13.6953 20.5303C13.7305 20.6677 13.7775 20.8018 13.8359 20.9312C13.8776 21.0212 13.9219 21.1112 13.9687 21.1883H4.82813V4.35382ZM22.2057 4.35382H23.7109C24.2853 4.35154 24.8392 4.56467 25.2604 4.9501C25.0028 5.2256 24.7661 5.51939 24.5521 5.82909C24.4783 5.92912 24.4113 6.03387 24.3516 6.14264L23.2734 8.13707L22.2161 8.12422V4.35382H22.2057Z" fill="black"/>
</g>
<defs>
<clipPath id="clip0_172_132">
<rect width="32" height="24" fill="white"/>
</clipPath>
</defs>
</svg>
