<svg width="28" height="28" viewBox="0 0 28 28" fill="none" xmlns="http://www.w3.org/2000/svg">
<path d="M4.66797 11.6667L14.0013 3.5L23.3346 11.6667V23.3333H17.5013V18.6667C17.5013 17.7385 17.1325 16.8482 16.4762 16.1918C15.8198 15.5355 14.9296 15.1667 14.0013 15.1667C13.0731 15.1667 12.1828 15.5355 11.5264 16.1918C10.8701 16.8482 10.5013 17.7384 10.5013 18.6667V23.3333H4.66797V11.6667Z" fill="#1C023B"/>
<path d="M4.66797 11.6667L14.0013 3.5L23.3346 11.6667V23.3333H17.5013V18.6667C17.5013 17.7385 17.1325 16.8482 16.4762 16.1918C15.8198 15.5355 14.9295 15.1667 14.0013 15.1667C13.073 15.1667 12.1828 15.5355 11.5264 16.1918C10.8701 16.8482 10.5013 17.7384 10.5013 18.6667V23.3333H4.66798L4.66797 11.6667Z" stroke="#1C023B" stroke-width="1.5" stroke-linecap="round" stroke-linejoin="round"/>
</svg>
