<svg width="28" height="28" viewBox="0 0 28 28" fill="none" xmlns="http://www.w3.org/2000/svg">
<path d="M2.33398 22.1668V14.7293C2.33398 14.2432 2.43121 13.7863 2.62565 13.3585C2.8201 12.9307 3.11176 12.5807 3.50065 12.3085V8.92516C3.50065 8.05016 3.79718 7.31614 4.39023 6.72308C4.98329 6.13002 5.71732 5.8335 6.59232 5.8335H11.8423C12.2701 5.8335 12.6687 5.93072 13.0382 6.12516C13.4076 6.31961 13.7284 6.58211 14.0007 6.91266C14.2729 6.58211 14.5888 6.31961 14.9486 6.12516C15.3083 5.93072 15.702 5.8335 16.1298 5.8335H21.3798C22.2548 5.8335 22.9937 6.13002 23.5965 6.72308C24.1993 7.31614 24.5007 8.05016 24.5007 8.92516V12.3085C24.8895 12.5807 25.1812 12.9307 25.3757 13.3585C25.5701 13.7863 25.6673 14.2432 25.6673 14.7293V22.1668H23.9173V19.8335H4.08398V22.1668H2.33398ZM14.8757 11.8127H22.7507V8.92516C22.7507 8.53627 22.6194 8.21544 22.3569 7.96266C22.0944 7.70989 21.7687 7.5835 21.3798 7.5835H16.0423C15.7118 7.5835 15.4347 7.71961 15.2111 7.99183C14.9875 8.26405 14.8757 8.57516 14.8757 8.92516V11.8127ZM5.25065 11.8127H13.1257V8.92516C13.1257 8.57516 13.0138 8.26405 12.7902 7.99183C12.5666 7.71961 12.2895 7.5835 11.959 7.5835H6.59232C6.22287 7.5835 5.9069 7.71475 5.6444 7.97725C5.3819 8.23975 5.25065 8.55572 5.25065 8.92516V11.8127ZM4.08398 18.0835H23.9173V14.7293C23.9173 14.3988 23.8055 14.1217 23.5819 13.8981C23.3583 13.6745 23.0812 13.5627 22.7507 13.5627H5.25065C4.9201 13.5627 4.64301 13.6745 4.4194 13.8981C4.19579 14.1217 4.08398 14.3988 4.08398 14.7293V18.0835Z" fill="black"/>
</svg>
