<svg width="178" height="178" viewBox="0 0 178 178" fill="none" xmlns="http://www.w3.org/2000/svg">
<g clip-path="url(#clip0_626_58)">
<rect width="178" height="178" fill="white"/>
<circle cx="89" cy="89" r="89" fill="#EFE9F5"/>
<path d="M130.292 125.583H54.7085L65.9039 103.196C66.3489 103.252 66.7902 103.333 67.25 103.333C68.6109 103.333 69.8977 103.052 71.1029 102.607L75.386 106.927C74.9447 108.125 74.6666 109.4 74.6666 110.75C74.6666 116.884 79.658 121.875 85.7916 121.875C91.9251 121.875 96.9165 116.884 96.9165 110.75C96.9165 107.891 95.8004 105.306 94.0241 103.333L101.86 88.1996C102.657 88.3851 103.48 88.5 104.333 88.5C105.386 88.5 106.388 88.3072 107.355 88.0291L113.115 94.4001C112.273 95.9649 111.75 97.7263 111.75 99.625C111.75 105.759 116.741 110.75 122.875 110.75C129.009 110.75 134 105.759 134 99.625C134 93.4915 129.009 88.5 122.875 88.5C121.347 88.5 119.89 88.8115 118.566 89.3714L113.452 83.7162C114.709 81.914 115.458 79.7335 115.458 77.375C115.458 71.2415 110.467 66.25 104.333 66.25C98.1998 66.25 93.2083 71.2415 93.2083 77.375C93.2083 79.9485 94.1205 82.2886 95.5927 84.176L87.5012 99.7992C86.9413 99.7102 86.3775 99.6248 85.7916 99.6248C83.726 99.6248 81.8163 100.226 80.1587 101.212L76.7989 97.8226C77.7779 96.1686 78.375 94.2626 78.375 92.2081C78.375 86.0746 73.3835 81.0831 67.25 81.0831C61.1165 81.0831 56.125 86.0746 56.125 92.2081C56.125 95.2007 57.3265 97.9078 59.2548 99.9103L52.4166 113.583V47.7083C52.4167 45.6613 50.7591 44 48.7083 44C46.6576 44 45 45.6613 45 47.7083V129.292C45 129.473 45.0779 129.633 45.1038 129.807C45.1446 130.078 45.1669 130.341 45.2632 130.593C45.3485 130.816 45.482 131.001 45.6081 131.201C45.7304 131.405 45.838 131.613 46.0049 131.791C46.1829 131.988 46.4054 132.125 46.6242 132.277C46.7763 132.381 46.8838 132.525 47.0507 132.611C47.0952 132.633 47.1471 132.64 47.1953 132.663C47.262 132.692 47.3324 132.711 47.403 132.737C47.8294 132.896 48.2671 133 48.7046 133H48.7083H130.292C132.342 133 134 131.339 134 129.292C134 127.245 132.342 125.583 130.292 125.583Z" fill="#420789"/>
</g>
<defs>
<clipPath id="clip0_626_58">
<rect width="178" height="178" fill="white"/>
</clipPath>
</defs>
</svg>
