<svg width="54" height="54" viewBox="0 0 54 54" fill="none" xmlns="http://www.w3.org/2000/svg">
<rect x="0.699219" y="0.399414" width="52.8" height="52.8" rx="26.4" fill="#4B1A85" fill-opacity="0.1"/>
<path d="M37.5167 16.5325V16.3825H37.3667H24.6811C24.658 15.5937 24.4534 14.8191 24.0925 14.1158H37.3667C38.0076 14.1158 38.6223 14.3704 39.0755 14.8236C39.5287 15.2769 39.7833 15.8915 39.7833 16.5325V30.6492C39.7833 31.2901 39.5287 31.9048 39.0755 32.358C38.6223 32.8112 38.0076 33.0658 37.3667 33.0658H25.9667V30.7992H37.3667H37.5167V30.6492V16.5325ZM15.55 29.2158H13.775V22.9492C13.775 22.3082 14.0296 21.6935 14.4828 21.2403C14.936 20.7871 15.5507 20.5325 16.1917 20.5325H30.8V22.7992H23.25H23.1V22.9492V39.4825H20.8333V31.9325V31.7825H20.6833H18.1167H17.9667V31.9325V39.4825H15.7V29.3658V29.2158H15.55ZM21.8167 16.5325C21.8167 17.1734 21.5621 17.7881 21.1088 18.2413C20.6556 18.6945 20.0409 18.9492 19.4 18.9492C18.7591 18.9492 18.1444 18.6945 17.6912 18.2413C17.2379 17.7881 16.9833 17.1734 16.9833 16.5325C16.9833 15.8915 17.2379 15.2769 17.6912 14.8236C18.1444 14.3704 18.7591 14.1158 19.4 14.1158C20.0409 14.1158 20.6556 14.3704 21.1088 14.8236C21.5621 15.2769 21.8167 15.8915 21.8167 16.5325Z" fill="#1C023B" stroke="#EDE8F3" stroke-width="0.3"/>
</svg>
