<svg width="178" height="178" viewBox="0 0 178 178" fill="none" xmlns="http://www.w3.org/2000/svg">
<g clip-path="url(#clip0_609_82)">
<rect width="178" height="178" fill="white"/>
<circle cx="89" cy="89" r="89" fill="#EFE9F5"/>
<path fill-rule="evenodd" clip-rule="evenodd" d="M110.455 97.3333L110.197 87.5526L94.1128 92.1972C92.6629 92.5167 91.2376 92.6641 89.8369 92.6641C88.3378 92.6764 86.8634 92.5044 85.4012 92.1972L70.0421 87.5035V97.4193C70.4845 102.568 85.266 104.153 89.8123 104.374C93.4493 104.546 107.813 102.654 109.693 99.6924C110.099 99.0289 110.357 98.2548 110.455 97.3333ZM17.3176 124.009H33.7456C32.5292 123.702 31.6199 122.571 31.6199 121.269V50.8261C31.6199 49.2779 32.8978 48 34.446 48H143.778C145.326 48 146.604 49.2779 146.604 50.8261V121.244C146.604 122.559 145.707 123.677 144.478 123.984H161.656C163.487 123.984 164.973 125.471 164.973 127.302C164.973 129.133 163.487 130.619 161.656 130.619H17.3176C15.4868 130.619 14 129.133 14 127.302C14 125.496 15.4868 124.009 17.3176 124.009ZM36.4611 52.4357H142.168V120.458H36.4611V52.4357ZM84.836 125.25H94.1497C95.0221 125.25 95.747 125.963 95.747 126.835C95.747 127.707 95.0344 128.432 94.1497 128.432H84.836C83.9636 128.432 83.2386 127.72 83.2386 126.835C83.2386 125.963 83.9636 125.25 84.836 125.25ZM116.967 80.5121V92.4675H117.348C117.606 92.4675 117.815 92.6764 117.815 92.9345V96.1414C117.815 96.3995 117.606 96.6083 117.348 96.6083H116.967V97.7388C117.446 97.8248 117.815 98.2548 117.815 98.7586C117.815 99.3238 117.348 99.803 116.783 99.803H114.927C114.362 99.803 113.883 99.3361 113.883 98.7586C113.883 98.2548 114.252 97.8371 114.731 97.7388V96.6083H114.35C114.092 96.6083 113.883 96.3995 113.883 96.1414V92.9345C113.883 92.6764 114.092 92.4675 114.35 92.4675H114.731V81.2124L95.1695 87.2946C91.6308 88.1424 88.0798 88.1916 84.5411 87.2946L62.9524 80.8438L60.9987 80.254C58.5658 79.2588 59.1802 76.9242 61.4288 76.3835L85.8558 69.0849C88.3747 68.3723 90.8936 68.2617 93.4125 69.0849L117.385 76.2975C119.99 76.9365 120.506 79.3448 117.471 80.34L116.967 80.5121Z" fill="#420789"/>
</g>
<defs>
<clipPath id="clip0_609_82">
<rect width="178" height="178" fill="white"/>
</clipPath>
</defs>
</svg>
