<svg width="48" height="48" viewBox="0 0 48 48" fill="none" xmlns="http://www.w3.org/2000/svg">
<rect width="48" height="48" rx="24" fill="#4B1A85" fill-opacity="0.1"/>
<path d="M23.6617 22.1203C22.4707 22.1203 21.4962 21.7414 20.7383 20.9835C19.9805 20.2256 19.6015 19.2511 19.6015 18.0602C19.6015 16.8692 19.9805 15.8947 20.7383 15.1368C21.4962 14.3789 22.4707 14 23.6617 14C24.8526 14 25.8271 14.3789 26.585 15.1368C27.3429 15.8947 27.7218 16.8692 27.7218 18.0602C27.7218 19.2511 27.3429 20.2256 26.585 20.9835C25.8271 21.7414 24.8526 22.1203 23.6617 22.1203ZM15 30.809V28.2647C15 27.6331 15.1579 27.0647 15.4737 26.5594C15.7895 26.0541 16.2451 25.6662 16.8406 25.3955C18.1398 24.818 19.3444 24.403 20.4541 24.1504C21.5639 23.8977 22.6331 23.7714 23.6617 23.7714H24.2842C24.1759 24.0241 24.0947 24.2722 24.0406 24.5158C23.9865 24.7594 23.9414 25.0526 23.9053 25.3955H23.6617C22.615 25.3955 21.591 25.5083 20.5895 25.7338C19.588 25.9594 18.5549 26.3338 17.4902 26.8571C17.2015 27.0015 16.985 27.2045 16.8406 27.4662C16.6962 27.7278 16.6241 27.994 16.6241 28.2647V29.185H23.9053C23.9955 29.5098 24.1038 29.803 24.2301 30.0647C24.3564 30.3263 24.5098 30.5744 24.6902 30.809H15ZM30.8887 32L30.618 30.2135C30.3113 30.1233 30 29.9925 29.6842 29.8211C29.3684 29.6496 29.1023 29.4556 28.8857 29.2391L27.397 29.5639L26.7203 28.4271L27.9925 27.2361C27.9564 27.0737 27.9383 26.8481 27.9383 26.5594C27.9383 26.2707 27.9564 26.0451 27.9925 25.8827L26.7203 24.6917L27.397 23.5549L28.8857 23.8797C29.1023 23.6632 29.3684 23.4692 29.6842 23.2977C30 23.1263 30.3113 22.9955 30.618 22.9053L30.8887 21.1188H32.3504L32.6211 22.9053C32.9278 22.9955 33.2391 23.1263 33.5549 23.2977C33.8707 23.4692 34.1368 23.6632 34.3534 23.8797L35.8421 23.5549L36.5188 24.6917L35.2466 25.8827C35.2827 26.0451 35.3008 26.2707 35.3008 26.5594C35.3008 26.8481 35.2827 27.0737 35.2466 27.2361L36.5188 28.4271L35.8421 29.5639L34.3534 29.2391C34.1368 29.4556 33.8707 29.6496 33.5549 29.8211C33.2391 29.9925 32.9278 30.1233 32.6211 30.2135L32.3504 32H30.8887ZM31.6196 28.7248C32.2692 28.7248 32.7925 28.5263 33.1895 28.1293C33.5865 27.7323 33.785 27.209 33.785 26.5594C33.785 25.9098 33.5865 25.3865 33.1895 24.9895C32.7925 24.5925 32.2692 24.394 31.6196 24.394C30.9699 24.394 30.4466 24.5925 30.0496 24.9895C29.6526 25.3865 29.4541 25.9098 29.4541 26.5594C29.4541 27.209 29.6526 27.7323 30.0496 28.1293C30.4466 28.5263 30.9699 28.7248 31.6196 28.7248ZM23.6617 20.4962C24.3654 20.4962 24.9474 20.2662 25.4075 19.806C25.8677 19.3459 26.0977 18.7639 26.0977 18.0602C26.0977 17.3564 25.8677 16.7744 25.4075 16.3143C24.9474 15.8541 24.3654 15.6241 23.6617 15.6241C22.9579 15.6241 22.3759 15.8541 21.9158 16.3143C21.4556 16.7744 21.2256 17.3564 21.2256 18.0602C21.2256 18.7639 21.4556 19.3459 21.9158 19.806C22.3759 20.2662 22.9579 20.4962 23.6617 20.4962Z" fill="#1C023B"/>
</svg>
