<svg width="54" height="54" viewBox="0 0 54 54" fill="none" xmlns="http://www.w3.org/2000/svg">
<rect x="0.599609" y="0.399414" width="52.8" height="52.8" rx="26.4" fill="#4B1A85" fill-opacity="0.1"/>
<path d="M34.6991 37.2158H34.8491V37.0658V22.9492V22.7992H34.6991H28.4324V16.5325V16.3825H28.2824H19.2991H19.1491V16.5325V37.0658V37.2158H19.2991H34.6991ZM24.0241 34.1842L24.8346 30.9422L24.857 30.8526L24.7871 30.7923L22.2395 28.5921L25.5977 28.3605L25.691 28.354L25.7263 28.2674L27.0017 25.137L28.2726 28.1409L28.3085 28.2258L28.4004 28.2321L31.7587 28.4637L29.211 30.664L29.1412 30.7243L29.1636 30.8139L29.9777 34.0702L27.0724 32.4433L26.9965 32.4008L26.9219 32.4455L24.0241 34.1842ZM19.2991 14.1158H29.5036L37.1158 21.728V37.0658C37.1158 38.3946 36.0279 39.4825 34.6991 39.4825H19.2991C17.9703 39.4825 16.8824 38.3946 16.8824 37.0658V16.5325C16.8824 15.2037 17.9703 14.1158 19.2991 14.1158Z" fill="#1C023B" stroke="#EDE8F3" stroke-width="0.3"/>
</svg>
