<svg width="48" height="48" viewBox="0 0 48 48" fill="none" xmlns="http://www.w3.org/2000/svg">
<rect width="48" height="48" rx="24" fill="#4B1A85" fill-opacity="0.1"/>
<path d="M13.8947 35C13.3895 35 12.9474 34.8105 12.5684 34.4316C12.1895 34.0526 12 33.6105 12 33.1053V17.6632C12 17.1579 12.1895 16.7158 12.5684 16.3368C12.9474 15.9579 13.3895 15.7684 13.8947 15.7684H19.8947V12.8947C19.8947 12.3895 20.0842 11.9474 20.4632 11.5684C20.8421 11.1895 21.2842 11 21.7895 11H27.4737C27.9789 11 28.4211 11.1895 28.8 11.5684C29.1789 11.9474 29.3684 12.3895 29.3684 12.8947V15.7684H35.3684C35.8737 15.7684 36.3158 15.9579 36.6947 16.3368C37.0737 16.7158 37.2632 17.1579 37.2632 17.6632V33.1053C37.2632 33.6105 37.0737 34.0526 36.6947 34.4316C36.3158 34.8105 35.8737 35 35.3684 35H13.8947ZM21.7895 15.7684H27.4737V12.8947H21.7895V15.7684ZM35.3684 27.0737H27.5053V28.9684H21.8211V27.0737H13.8947V33.1053H35.3684V27.0737ZM23.7158 27.0737H25.6105V25.1789H23.7158V27.0737ZM13.8947 25.1789H21.8211V23.2842H27.5053V25.1789H35.3684V17.6632H13.8947V25.1789Z" fill="#1C023B"/>
</svg>
