<svg width="178" height="178" viewBox="0 0 178 178" fill="none" xmlns="http://www.w3.org/2000/svg">
<g clip-path="url(#clip0_388_25)">
<rect width="178" height="178" fill="white"/>
<circle cx="89" cy="89" r="89" fill="#EFE9F5"/>
<path d="M103.749 112.604L93.7983 122.036V82.7072C93.7983 81.6195 93.3405 80.5764 92.5256 79.8073C91.7107 79.0382 90.6055 78.6061 89.453 78.6061C88.3006 78.6061 87.1953 79.0382 86.3804 79.8073C85.5655 80.5764 85.1077 81.6195 85.1077 82.7072V122.036L75.157 112.604C74.753 112.219 74.2724 111.914 73.7429 111.706C73.2134 111.498 72.6454 111.391 72.0718 111.391C71.4982 111.391 70.9302 111.498 70.4007 111.706C69.8712 111.914 69.3906 112.219 68.9867 112.604C68.5794 112.985 68.2561 113.438 68.0355 113.938C67.8149 114.438 67.7013 114.974 67.7013 115.515C67.7013 116.057 67.8149 116.593 68.0355 117.092C68.2561 117.592 68.5794 118.046 68.9867 118.427L86.3679 134.831C86.7811 135.205 87.2684 135.497 87.8018 135.692C88.8597 136.103 90.0463 136.103 91.1042 135.692C91.6376 135.497 92.1249 135.205 92.5382 134.831L109.919 118.427C110.325 118.045 110.646 117.591 110.865 117.091C111.084 116.592 111.197 116.056 111.197 115.515C111.197 114.975 111.084 114.439 110.865 113.94C110.646 113.44 110.325 112.986 109.919 112.604C109.514 112.221 109.033 111.918 108.504 111.711C107.975 111.504 107.407 111.398 106.834 111.398C106.261 111.398 105.694 111.504 105.165 111.711C104.635 111.918 104.154 112.221 103.749 112.604ZM50.3453 86.8082C51.4978 86.8082 52.603 86.3761 53.4179 85.607C54.2328 84.8379 54.6906 83.7948 54.6906 82.7072V66.3031C54.6906 65.2154 55.1484 64.1723 55.9633 63.4032C56.7782 62.6341 57.8835 62.202 59.0359 62.202H119.87C121.023 62.202 122.128 62.6341 122.943 63.4032C123.758 64.1723 124.215 65.2154 124.215 66.3031V82.7072C124.215 83.7948 124.673 84.8379 125.488 85.607C126.303 86.3761 127.408 86.8082 128.561 86.8082C129.713 86.8082 130.818 86.3761 131.633 85.607C132.448 84.8379 132.906 83.7948 132.906 82.7072V66.3031C132.906 63.0401 131.533 59.9108 129.088 57.6035C126.643 55.2962 123.327 54 119.87 54H59.0359C55.5786 54 52.2629 55.2962 49.8181 57.6035C47.3734 59.9108 46 63.0401 46 66.3031V82.7072C46 83.7948 46.4578 84.8379 47.2727 85.607C48.0876 86.3761 49.1929 86.8082 50.3453 86.8082Z" fill="#420789"/>
</g>
<defs>
<clipPath id="clip0_388_25">
<rect width="178" height="178" fill="white"/>
</clipPath>
</defs>
</svg>
