<svg width="178" height="178" viewBox="0 0 178 178" fill="none" xmlns="http://www.w3.org/2000/svg">
<g clip-path="url(#clip0_388_28)">
<rect width="178" height="178" fill="white"/>
<circle cx="89" cy="89" r="89" fill="#EFE9F5"/>
<path fill-rule="evenodd" clip-rule="evenodd" d="M100.269 50.962C100.269 46.5647 96.7044 43 92.3071 43H84.771C80.3736 43 76.8088 46.5647 76.8088 50.962C76.8088 54.3447 74.624 57.2812 71.6514 58.8957C71.1866 59.1481 70.7282 59.4106 70.2765 59.6829C67.3579 61.4423 63.7003 61.8647 60.7423 60.1723C56.8824 57.9638 51.9638 59.2817 49.7252 63.1242L46.0857 69.3714C43.8559 73.1989 45.1718 78.11 49.0165 80.31C51.9618 81.9949 53.4279 85.3625 53.3561 88.755C53.3509 89.0024 53.3483 89.251 53.3483 89.5C53.3483 89.749 53.3509 89.9976 53.3562 90.2456C53.4279 93.638 51.9618 97.0051 49.0166 98.6899C45.172 100.89 43.8561 105.801 46.0858 109.628L49.7254 115.876C51.964 119.718 56.8826 121.036 60.7425 118.828C63.7004 117.135 67.358 117.558 70.2766 119.317C70.7283 119.59 71.1867 119.852 71.6514 120.104C74.624 121.719 76.8088 124.655 76.8088 128.038C76.8088 132.436 80.3736 136 84.771 136H92.3071C96.7044 136 100.269 132.436 100.269 128.038C100.269 124.655 102.454 121.719 105.427 120.104C105.891 119.852 106.35 119.59 106.802 119.317C109.72 117.558 113.378 117.135 116.336 118.828C120.195 121.036 125.114 119.718 127.353 115.876L130.992 109.628C133.222 105.801 131.906 100.89 128.061 98.6905C125.116 97.0051 123.65 93.638 123.722 90.2456C123.727 89.9976 123.73 89.749 123.73 89.5C123.73 89.251 123.727 89.0024 123.722 88.755C123.65 85.3625 125.116 81.9949 128.061 80.31C131.906 78.11 133.222 73.1989 130.992 69.3714L127.353 63.1242C125.114 59.2816 120.196 57.9637 116.336 60.1722C113.378 61.8647 109.72 61.4423 106.802 59.6829C106.35 59.4106 105.891 59.1481 105.427 58.8957C102.454 57.2812 100.269 54.3447 100.269 50.962Z" stroke="#420789" stroke-width="8"/>
<path d="M88.5 105C97.0606 105 104 98.0606 104 89.5C104 80.9393 97.0606 74 88.5 74C79.9393 74 73 80.9393 73 89.5C73 98.0606 79.9393 105 88.5 105Z" stroke="#420789" stroke-width="10.3333" stroke-linecap="round" stroke-linejoin="round"/>
</g>
<defs>
<clipPath id="clip0_388_28">
<rect width="178" height="178" fill="white"/>
</clipPath>
</defs>
</svg>
