<svg width="48" height="48" viewBox="0 0 48 48" fill="none" xmlns="http://www.w3.org/2000/svg">
<rect width="48" height="48" rx="24" fill="#4B1A85" fill-opacity="0.1"/>
<path d="M16.8105 36C16.5368 36 16.2947 35.9211 16.0842 35.7632C15.8737 35.6053 15.7684 35.4 15.7684 35.1474V32.4947C15.1579 32.1579 14.7105 31.6737 14.4263 31.0421C14.1421 30.4105 14 29.7368 14 29.0211V16.4842C14 14.9263 14.8053 13.7895 16.4158 13.0737C18.0263 12.3579 20.6 12 24.1368 12C27.6316 12 30.1842 12.3579 31.7947 13.0737C33.4053 13.7895 34.2105 14.9263 34.2105 16.4842V29.0211C34.2105 29.7368 34.0684 30.4105 33.7842 31.0421C33.5 31.6737 33.0526 32.1579 32.4421 32.4947V35.1474C32.4421 35.4 32.3368 35.6053 32.1263 35.7632C31.9158 35.9211 31.6737 36 31.4 36H30.8C30.5053 36 30.2526 35.9211 30.0421 35.7632C29.8316 35.6053 29.7263 35.4 29.7263 35.1474V33.4105H18.4842V35.1474C18.4842 35.4 18.3789 35.6053 18.1684 35.7632C17.9579 35.9211 17.7053 36 17.4105 36H16.8105ZM24.1368 15.6632H32.3158H15.8947H24.1368ZM29.7263 24.9158H15.8947H32.3158H29.7263ZM15.8947 23.0211H32.3158V17.5579H15.8947V23.0211ZM19.2421 29.9368C19.7263 29.9368 20.1368 29.7684 20.4737 29.4316C20.8105 29.0947 20.9789 28.6842 20.9789 28.2C20.9789 27.7158 20.8105 27.3053 20.4737 26.9684C20.1368 26.6316 19.7263 26.4632 19.2421 26.4632C18.7579 26.4632 18.3474 26.6316 18.0105 26.9684C17.6737 27.3053 17.5053 27.7158 17.5053 28.2C17.5053 28.6842 17.6737 29.0947 18.0105 29.4316C18.3474 29.7684 18.7579 29.9368 19.2421 29.9368ZM28.9684 29.9368C29.4526 29.9368 29.8632 29.7684 30.2 29.4316C30.5368 29.0947 30.7053 28.6842 30.7053 28.2C30.7053 27.7158 30.5368 27.3053 30.2 26.9684C29.8632 26.6316 29.4526 26.4632 28.9684 26.4632C28.4842 26.4632 28.0737 26.6316 27.7368 26.9684C27.4 27.3053 27.2316 27.7158 27.2316 28.2C27.2316 28.6842 27.4 29.0947 27.7368 29.4316C28.0737 29.7684 28.4842 29.9368 28.9684 29.9368ZM15.8947 15.6632H32.3158C31.8105 15.1158 30.8421 14.6842 29.4105 14.3684C27.9789 14.0526 26.2211 13.8947 24.1368 13.8947C21.6526 13.8947 19.7474 14.0368 18.4211 14.3211C17.0947 14.6053 16.2526 15.0526 15.8947 15.6632ZM18.4842 31.5158H29.7263C30.4632 31.5158 31.0789 31.2316 31.5737 30.6632C32.0684 30.0947 32.3158 29.4421 32.3158 28.7053V24.9158H15.8947V28.7053C15.8947 29.4421 16.1421 30.0947 16.6368 30.6632C17.1316 31.2316 17.7474 31.5158 18.4842 31.5158Z" fill="#1C023B"/>
</svg>
