<svg width="48" height="48" viewBox="0 0 48 48" fill="none" xmlns="http://www.w3.org/2000/svg">
<rect width="48" height="48" rx="24" fill="#4B1A85" fill-opacity="0.1"/>
<path d="M32 16V32H16V16H32ZM32 14H16C14.9 14 14 14.9 14 16V32C14 33.1 14.9 34 16 34H32C33.1 34 34 33.1 34 32V16C34 14.9 33.1 14 32 14ZM28.5 22.67V21C28.5 19.9 27.6 19 26.5 19H21.5C20.4 19 19.5 19.9 19.5 21V22.67C18.62 23.02 18 23.87 18 24.87V29H19.5V27.5H28.5V29H30V24.87C30 23.87 29.38 23.02 28.5 22.67ZM27 20.5V22.5H21V20.5H27ZM19.5 24.87C19.5 24.39 19.89 24 20.37 24H27.64C28.12 24 28.51 24.39 28.51 24.87V26H19.51V24.87H19.5Z" fill="#1C023B"/>
</svg>
