<svg width="48" height="48" viewBox="0 0 48 48" fill="none" xmlns="http://www.w3.org/2000/svg">
<rect width="48" height="48" rx="24" fill="#4B1A85" fill-opacity="0.1"/>
<path d="M19.8 23.7V21.9H29.4V23.7H19.8ZM19.8 18.9V17.1H29.4V18.9H19.8ZM16.8 26.7H26.4C26.9286 26.7 27.4208 26.82 27.8765 27.06C28.3322 27.3 28.72 27.62 29.04 28.02L32.4 32.4V13.8H16.8V26.7ZM16.8 34.2H31.5L27.63 29.13C27.4787 28.9324 27.2959 28.778 27.0815 28.6668C26.8672 28.5556 26.64 28.5 26.4 28.5H16.8V34.2ZM32.4 36H16.8C16.32 36 15.9 35.82 15.54 35.46C15.18 35.1 15 34.68 15 34.2V13.8C15 13.32 15.18 12.9 15.54 12.54C15.9 12.18 16.32 12 16.8 12H32.4C32.88 12 33.3 12.18 33.66 12.54C34.02 12.9 34.2 13.32 34.2 13.8V34.2C34.2 34.68 34.02 35.1 33.66 35.46C33.3 35.82 32.88 36 32.4 36Z" fill="#1C023B"/>
</svg>
