<svg width="178" height="178" viewBox="0 0 178 178" fill="none" xmlns="http://www.w3.org/2000/svg">
<g clip-path="url(#clip0_618_63)">
<rect width="178" height="178" fill="white"/>
<circle cx="89" cy="89" r="89" fill="#EFE9F5"/>
<path d="M89.4994 65.613C96.8367 65.613 102.806 59.6437 102.806 52.3065C102.806 44.9694 96.8365 39 89.4994 39C82.162 39 76.1929 44.9694 76.1929 52.3065C76.1929 59.6437 82.162 65.613 89.4994 65.613Z" fill="#420789"/>
<path d="M68.0402 97.6634H110.958C112.732 97.6634 114.171 96.2252 114.171 94.4513C114.171 80.8474 103.103 69.7802 89.4995 69.7802C75.8958 69.7802 64.8281 80.8474 64.8281 94.4513C64.8281 96.2252 66.2663 97.6634 68.0402 97.6634Z" fill="#420789"/>
<path d="M102.463 109.993L95.4962 108.981L92.3804 102.668C91.2039 100.284 87.7955 100.285 86.6196 102.668L83.5039 108.981L76.5369 109.993C73.9062 110.375 72.8542 113.617 74.7567 115.472L79.7979 120.386L78.6078 127.325C78.1584 129.945 80.9166 131.947 83.2683 130.711L89.4998 127.435L95.7313 130.711C98.0639 131.937 100.845 129.964 100.392 127.325L99.2017 120.386L104.243 115.472C106.147 113.616 105.092 110.375 102.463 109.993Z" fill="#420789"/>
<path d="M66.677 109.993L59.71 108.98L56.5942 102.667C55.4178 100.284 52.0093 100.285 50.8335 102.667L47.7179 108.98L40.7509 109.993C38.1202 110.375 37.0685 113.617 38.9708 115.472L44.0119 120.386L42.8218 127.324C42.3724 129.945 45.1306 131.947 47.4823 130.711L53.7138 127.435L59.9453 130.711C62.2779 131.937 65.0587 129.964 64.6059 127.324L63.4158 120.386L68.4571 115.472C70.3608 113.616 69.3061 110.375 66.677 109.993Z" fill="#420789"/>
<path d="M138.249 109.993L131.282 108.98L128.166 102.667C127.201 100.712 125.071 100.877 125.286 100.877C124.063 100.877 122.947 101.571 122.405 102.667L119.29 108.98L112.323 109.993C109.692 110.375 108.64 113.617 110.543 115.472L115.584 120.386L114.394 127.325C113.945 129.945 116.703 131.947 119.055 130.711L125.286 127.435L131.518 130.711C133.85 131.937 136.631 129.964 136.178 127.325L134.988 120.386L140.029 115.472C141.932 113.616 140.878 110.375 138.249 109.993Z" fill="#420789"/>
</g>
<defs>
<clipPath id="clip0_618_63">
<rect width="178" height="178" fill="white"/>
</clipPath>
</defs>
</svg>
