<svg width="54" height="54" viewBox="0 0 54 54" fill="none" xmlns="http://www.w3.org/2000/svg">
<rect x="0.601562" y="0.300781" width="52.8" height="52.8" rx="26.4" fill="#4B1A85" fill-opacity="0.1"/>
<mask id="path-2-inside-1_4120_3578" fill="white">
<path d="M19.3012 32.4754L15.4512 36.2484V25.4171H19.3012V32.4754ZM25.7178 30.1141L23.703 28.3944L21.8678 30.0884V20.2837H25.7178V30.1141ZM32.1345 27.9837L28.2845 31.8337V15.1504H32.1345V27.9837ZM35.7407 27.7399L33.4178 25.4171H39.8345V31.8337L37.5373 29.5366L28.2845 38.7124L23.8313 34.8367L18.9803 39.5337H15.4512L23.7543 31.3974L28.2845 35.2217"/>
</mask>
<path d="M19.3012 32.4754L15.4512 36.2484V25.4171H19.3012V32.4754ZM25.7178 30.1141L23.703 28.3944L21.8678 30.0884V20.2837H25.7178V30.1141ZM32.1345 27.9837L28.2845 31.8337V15.1504H32.1345V27.9837ZM35.7407 27.7399L33.4178 25.4171H39.8345V31.8337L37.5373 29.5366L28.2845 38.7124L23.8313 34.8367L18.9803 39.5337H15.4512L23.7543 31.3974L28.2845 35.2217" fill="#1C023B"/>
<path d="M19.3012 32.4754L19.5111 32.6897L19.6012 32.6014V32.4754H19.3012ZM15.4512 36.2484H15.1512V36.9624L15.6612 36.4627L15.4512 36.2484ZM15.4512 25.4171V25.1171H15.1512V25.4171H15.4512ZM19.3012 25.4171H19.6012V25.1171H19.3012V25.4171ZM25.7178 30.1141L25.5231 30.3422L26.0178 30.7645V30.1141H25.7178ZM23.703 28.3944L23.8978 28.1662L23.6952 27.9933L23.4995 28.1739L23.703 28.3944ZM21.8678 30.0884H21.5678V30.7736L22.0713 30.3088L21.8678 30.0884ZM21.8678 20.2837V19.9837H21.5678V20.2837H21.8678ZM25.7178 20.2837H26.0178V19.9837H25.7178V20.2837ZM32.1345 27.9837L32.3466 28.1959L32.4345 28.108V27.9837H32.1345ZM28.2845 31.8337H27.9845V32.558L28.4966 32.0459L28.2845 31.8337ZM28.2845 15.1504V14.8504H27.9845V15.1504H28.2845ZM32.1345 15.1504H32.4345V14.8504H32.1345V15.1504ZM33.4178 25.4171V25.1171H32.6936L33.2057 25.6292L33.4178 25.4171ZM39.8345 25.4171H40.1345V25.1171H39.8345V25.4171ZM39.8345 31.8337L39.6224 32.0459L40.1345 32.558V31.8337H39.8345ZM37.5373 29.5366L37.7495 29.3244L37.5382 29.1132L37.3261 29.3235L37.5373 29.5366ZM28.2845 38.7124L28.0876 38.9387L28.2978 39.1217L28.4957 38.9254L28.2845 38.7124ZM23.8313 34.8367L24.0283 34.6104L23.8205 34.4296L23.6227 34.6212L23.8313 34.8367ZM18.9803 39.5337V39.8337H19.1018L19.189 39.7492L18.9803 39.5337ZM15.4512 39.5337L15.2412 39.3194L14.7164 39.8337H15.4512V39.5337ZM23.7543 31.3974L23.9479 31.1682L23.7393 30.9921L23.5444 31.1831L23.7543 31.3974ZM19.0912 32.2611L15.2412 36.0341L15.6612 36.4627L19.5111 32.6897L19.0912 32.2611ZM15.7512 36.2484V25.4171H15.1512V36.2484H15.7512ZM15.4512 25.7171H19.3012V25.1171H15.4512V25.7171ZM19.0012 25.4171V32.4754H19.6012V25.4171H19.0012ZM25.9126 29.8859L23.8978 28.1662L23.5082 28.6226L25.5231 30.3422L25.9126 29.8859ZM23.4995 28.1739L21.6644 29.8679L22.0713 30.3088L23.9065 28.6148L23.4995 28.1739ZM22.1678 30.0884V20.2837H21.5678V30.0884H22.1678ZM21.8678 20.5837H25.7178V19.9837H21.8678V20.5837ZM25.4178 20.2837V30.1141H26.0178V20.2837H25.4178ZM31.9224 27.7716L28.0724 31.6216L28.4966 32.0459L32.3466 28.1959L31.9224 27.7716ZM28.5845 31.8337V15.1504H27.9845V31.8337H28.5845ZM28.2845 15.4504H32.1345V14.8504H28.2845V15.4504ZM31.8345 15.1504V27.9837H32.4345V15.1504H31.8345ZM35.9528 27.5278L33.63 25.2049L33.2057 25.6292L35.5285 27.952L35.9528 27.5278ZM33.4178 25.7171H39.8345V25.1171H33.4178V25.7171ZM39.5345 25.4171V31.8337H40.1345V25.4171H39.5345ZM40.0466 31.6216L37.7495 29.3244L37.3252 29.7487L39.6224 32.0459L40.0466 31.6216ZM37.3261 29.3235L28.0733 38.4994L28.4957 38.9254L37.7486 29.7496L37.3261 29.3235ZM28.4815 38.4861L24.0283 34.6104L23.6344 35.063L28.0876 38.9387L28.4815 38.4861ZM23.6227 34.6212L18.7717 39.3182L19.189 39.7492L24.04 35.0522L23.6227 34.6212ZM18.9803 39.2337H15.4512V39.8337H18.9803V39.2337ZM15.6611 39.748L23.9643 31.6117L23.5444 31.1831L15.2412 39.3194L15.6611 39.748ZM23.5608 31.6266L28.091 35.451L28.478 34.9925L23.9479 31.1682L23.5608 31.6266Z" fill="#EDE8F3" mask="url(#path-2-inside-1_4120_3578)"/>
</svg>
