<svg width="54" height="54" viewBox="0 0 54 54" fill="none" xmlns="http://www.w3.org/2000/svg">
<rect x="0.599609" y="0.699219" width="52.8" height="52.8" rx="26.4" fill="#4B1A85" fill-opacity="0.1"/>
<path d="M35.8324 18.85V25.024H34.8491V19.399V19.1557L34.6318 19.2649L31.9239 20.6253L31.8183 20.6783L31.8452 20.7934C31.9326 21.1682 31.9824 21.5545 31.9824 21.9656C31.9824 24.7189 29.7524 26.949 26.9991 26.949C24.2458 26.949 22.0158 24.7189 22.0158 21.9656C22.0158 21.5545 22.0655 21.1682 22.153 20.7934L22.1799 20.6782L22.0742 20.6252L18.3507 18.7575L26.9991 14.4333L35.8324 18.85ZM24.4995 21.8315L24.2824 21.7229V21.9656C24.2824 23.4601 25.5046 24.6823 26.9991 24.6823C28.4936 24.6823 29.7158 23.4601 29.7158 21.9656V21.7229L29.4987 21.8315L26.9991 23.0813L24.4995 21.8315ZM30.5965 18.7882L30.8582 18.6544L30.5964 18.521L27.2725 16.827L27.2044 16.7923L27.1363 16.827L23.6842 18.5851L23.4213 18.719L23.6844 18.8525L27.021 20.5465L27.0892 20.5811L27.1572 20.5464L30.5965 18.7882ZM19.0208 34.9273V35.0773H19.1708H34.8274H34.9774V34.9273V33.5156C34.9774 33.3558 34.883 33.2011 34.7587 33.0635C34.63 32.921 34.4471 32.7726 34.2235 32.6233C33.7754 32.3241 33.1435 32.0083 32.3965 31.7202C30.9026 31.144 28.9271 30.6706 26.9991 30.6706C25.052 30.6706 23.0764 31.1439 21.587 31.7202C20.8424 32.0084 20.214 32.3243 19.7688 32.6235C19.5467 32.7729 19.3652 32.9214 19.2375 33.0639C19.114 33.2018 19.0208 33.3563 19.0208 33.5156V34.9273ZM26.9991 28.5323C28.6937 28.5323 31.2415 28.9555 33.3617 29.8033C34.4217 30.2271 35.3654 30.7534 36.0417 31.3782C36.7169 32.0019 37.1158 32.7139 37.1158 33.5156V37.2156H16.8824V33.5156C16.8824 32.7139 17.2813 32.0019 17.9565 31.3782C18.6328 30.7534 19.5765 30.2271 20.6365 29.8033C22.7567 28.9555 25.3044 28.5323 26.9991 28.5323Z" fill="#1C023B" stroke="#EDE8F3" stroke-width="0.3"/>
</svg>
