<svg width="54" height="54" viewBox="0 0 54 54" fill="none" xmlns="http://www.w3.org/2000/svg">
<rect x="0.599609" y="0.399414" width="52.8" height="52.8" rx="26.4" fill="#4B1A85" fill-opacity="0.1"/>
<path d="M25.3563 27.9729L25.3556 27.9722C23.3463 26.1185 20.8437 24.8216 18.0425 24.3159L17.8659 24.284V24.4635V33.3827V33.5144L17.9965 33.5314C21.3201 33.9644 24.3633 35.2377 26.91 37.1222L26.9992 37.1883L27.0884 37.1222C29.6351 35.2377 32.6784 33.9644 36.0019 33.5314L36.1325 33.5144V33.3827V24.4635V24.284L35.9559 24.3159C33.1547 24.8216 30.6521 26.1185 28.6428 27.9722L28.6422 27.9729L26.9992 29.5071L25.3563 27.9729ZM36.0052 22.0066L36.0054 22.0066C36.7839 21.8868 37.5854 21.8234 38.3992 21.8165V35.6331C33.9783 35.6708 30.0084 37.3731 26.9992 40.1216C23.99 37.3731 20.0202 35.6708 15.5992 35.6331V21.8165C16.413 21.8234 17.2146 21.8868 17.9931 22.0066L17.9933 22.0066C21.4145 22.5281 24.48 24.0797 26.8973 26.3189L26.9992 26.4133L27.1012 26.3189C29.5184 24.0797 32.584 22.5281 36.0052 22.0066ZM28.011 18.8382L28.0166 18.8332L28.0216 18.8276C28.2866 18.5347 28.4325 18.2048 28.4325 17.8158C28.4325 17.4268 28.2866 17.0969 28.0216 16.804L28.0152 16.797L28.008 16.7908C27.7196 16.5436 27.3911 16.3825 26.9992 16.3825C26.6073 16.3825 26.2788 16.5436 25.9904 16.7908L25.9817 16.7983L25.9742 16.807C25.7264 17.0961 25.5659 17.4375 25.5659 17.8158C25.5659 18.1942 25.7264 18.5355 25.9742 18.8246L25.9804 18.8318L25.9874 18.8382C26.2809 19.1038 26.6238 19.2492 26.9992 19.2492C27.3882 19.2492 27.7181 19.1032 28.011 18.8382ZM29.6138 20.4304C28.923 21.1213 27.9857 21.5158 26.9992 21.5158C26.0128 21.5158 25.0755 21.1213 24.3846 20.4304C23.6938 19.7396 23.2992 18.8023 23.2992 17.8158C23.2992 16.8294 23.6938 15.8921 24.3846 15.2012C25.0755 14.5104 26.0128 14.1158 26.9992 14.1158C27.9857 14.1158 28.923 14.5104 29.6138 15.2012C30.3047 15.8921 30.6992 16.8294 30.6992 17.8158C30.6992 18.8023 30.3047 19.7396 29.6138 20.4304Z" fill="#1C023B" stroke="#EDE8F3" stroke-width="0.3"/>
</svg>
