<svg width="54" height="54" viewBox="0 0 54 54" fill="none" xmlns="http://www.w3.org/2000/svg">
<rect x="0.599609" y="0.399414" width="52.8" height="52.8" rx="26.4" fill="#4B1A85" fill-opacity="0.1"/>
<path d="M33.266 24.2325V24.3825H33.416H38.5493C39.1723 24.3825 39.6827 24.8928 39.6827 25.5158V39.4825H29.716V33.2158V33.0658H29.566H24.4327H24.2827V33.2158V39.4825H14.316V25.5158C14.316 24.8928 14.8264 24.3825 15.4493 24.3825H20.5827H20.7327V24.2325V21.7674L26.4134 19.4951L26.5077 19.4574V19.3558V14.1158H30.6993V16.3825H27.641H27.491V16.5325V19.3558V19.4574L27.5853 19.4951L33.266 21.7674V24.2325ZM21.866 37.2158H22.016V37.0658V33.2158V33.0658H21.866H16.7327H16.5827V33.2158V37.0658V37.2158H16.7327H21.866ZM21.866 30.7992H22.016V30.6492V26.7992V26.6492H21.866H16.7327H16.5827V26.7992V30.6492V30.7992H16.7327H21.866ZM29.566 30.7992H29.716V30.6492V26.7992V26.6492H29.566H24.4327H24.2827V26.7992V30.6492V30.7992H24.4327H29.566ZM37.266 37.2158H37.416V37.0658V33.2158V33.0658H37.266H32.1327H31.9827V33.2158V37.0658V37.2158H32.1327H37.266ZM37.266 30.7992H37.416V30.6492V26.7992V26.6492H37.266H32.1327H31.9827V26.7992V30.6492V30.7992H32.1327H37.266ZM28.4327 22.9492C28.4327 22.1605 27.788 21.5158 26.9993 21.5158C26.2107 21.5158 25.566 22.1605 25.566 22.9492C25.566 23.7378 26.2107 24.3825 26.9993 24.3825C27.788 24.3825 28.4327 23.7378 28.4327 22.9492Z" fill="#1C023B" stroke="#EDE8F3" stroke-width="0.3"/>
</svg>
