<svg width="48" height="48" viewBox="0 0 48 48" fill="none" xmlns="http://www.w3.org/2000/svg">
<rect width="48" height="48" rx="24" fill="#4B1A85" fill-opacity="0.1"/>
<path d="M24.5 14.1757C24.5 14.7766 24.2876 15.2894 23.8628 15.7142C23.4381 16.139 22.9252 16.3514 22.3243 16.3514C22.055 16.3514 21.8011 16.3047 21.5628 16.2115C21.3245 16.1182 21.1018 15.9887 20.8946 15.823C20.3351 16.1545 19.8689 16.5793 19.4959 17.0973C19.123 17.6153 18.9261 18.1955 18.9054 18.8378H35.3784L34.1351 27.5405H28.727V25.6757H32.6122C32.7365 24.8468 32.8556 24.018 32.9696 23.1892C33.0836 22.3604 33.2027 21.5315 33.327 20.7027H15.0514C15.1757 21.5315 15.2948 22.3604 15.4088 23.1892C15.5227 24.018 15.6419 24.8468 15.7662 25.6757H19.6514V27.5405H14.2432L13 18.8378H17.0405C17.0613 17.8225 17.3565 16.9005 17.9264 16.0716C18.4962 15.2428 19.2369 14.5901 20.1486 14.1135C20.1694 13.5126 20.3869 13.0101 20.8014 12.6061C21.2158 12.202 21.7234 12 22.3243 12C22.9252 12 23.4381 12.2124 23.8628 12.6372C24.2876 13.0619 24.5 13.5748 24.5 14.1757ZM20.8946 33.1351H27.4838L28.3541 24.4324H20.0243L20.8946 33.1351ZM19.2162 35L18.1905 24.6189C18.1491 24.0802 18.3149 23.6036 18.6878 23.1892C19.0608 22.7748 19.5167 22.5676 20.0554 22.5676H28.323C28.8617 22.5676 29.3176 22.7748 29.6905 23.1892C30.0635 23.6036 30.2293 24.0802 30.1878 24.6189L29.1622 35H19.2162Z" fill="#1C023B"/>
</svg>
