<svg width="11" height="13" viewBox="0 0 11 13" fill="none" xmlns="http://www.w3.org/2000/svg">
<path fill-rule="evenodd" clip-rule="evenodd" d="M1.8295 0H10.647V9.97005C10.6314 10.2483 10.2763 10.2557 9.89207 10.2377H1.69897C1.1685 10.2377 0.734099 10.6768 0.734099 11.2153C0.734099 11.7527 1.16746 12.1928 1.69897 12.1928H10.245V11.1528H11V12.4742C11 12.7154 10.8058 12.9111 10.5687 12.9111H1.73657C0.78109 13.2708 0 12.4784 0 11.5115V1.85352C0 0.833659 0.822859 0 1.8295 0ZM5.5 8.82113L2.56778 5.73193H4.45472V2.85856H6.54424V5.73193H8.43118L5.5 8.82113Z" fill="black"/>
</svg>
