<svg width="29" height="36" viewBox="0 0 29 36" fill="none" xmlns="http://www.w3.org/2000/svg">
<path d="M14.4 22.95C15.93 22.95 17.3175 22.59 18.5625 21.87C19.8075 21.15 20.805 20.19 21.555 18.99C20.535 18.21 19.425 17.625 18.225 17.235C17.025 16.845 15.75 16.65 14.4 16.65C13.05 16.65 11.775 16.845 10.575 17.235C9.375 17.625 8.265 18.21 7.245 18.99C7.995 20.19 8.9925 21.15 10.2375 21.87C11.4825 22.59 12.87 22.95 14.4 22.95ZM14.4 13.95C15.27 13.95 16.0125 13.6425 16.6275 13.0275C17.2425 12.4125 17.55 11.67 17.55 10.8C17.55 9.93 17.2425 9.1875 16.6275 8.5725C16.0125 7.9575 15.27 7.65 14.4 7.65C13.53 7.65 12.7875 7.9575 12.1725 8.5725C11.5575 9.1875 11.25 9.93 11.25 10.8C11.25 11.67 11.5575 12.4125 12.1725 13.0275C12.7875 13.6425 13.53 13.95 14.4 13.95ZM14.4 32.445C18.39 28.815 21.3375 25.5225 23.2425 22.5675C25.1475 19.6125 26.1 17.01 26.1 14.76C26.1 11.22 24.9675 8.325 22.7025 6.075C20.4375 3.825 17.67 2.7 14.4 2.7C11.13 2.7 8.3625 3.825 6.0975 6.075C3.8325 8.325 2.7 11.22 2.7 14.76C2.7 17.01 3.675 19.6125 5.625 22.5675C7.575 25.5225 10.5 28.815 14.4 32.445ZM14.4 36C9.57 31.89 5.9625 28.0725 3.5775 24.5475C1.1925 21.0225 0 17.76 0 14.76C0 10.26 1.4475 6.675 4.3425 4.005C7.2375 1.335 10.59 0 14.4 0C18.21 0 21.5625 1.335 24.4575 4.005C27.3525 6.675 28.8 10.26 28.8 14.76C28.8 17.76 27.6075 21.0225 25.2225 24.5475C22.8375 28.0725 19.23 31.89 14.4 36Z" fill="black" fill-opacity="0.7"/>
</svg>
