<svg width="42" height="42" viewBox="0 0 42 42" fill="none" xmlns="http://www.w3.org/2000/svg">
<circle cx="21" cy="21" r="21" fill="#001A72" fill-opacity="0.15"/>
<path d="M22.5 15.375V9H13.125C12.5016 9 12 9.50156 12 10.125V31.875C12 32.4984 12.5016 33 13.125 33H28.875C29.4984 33 30 32.4984 30 31.875V16.5H23.625C23.0063 16.5 22.5 15.9938 22.5 15.375ZM25.5 26.4375C25.5 26.7469 25.2469 27 24.9375 27H17.0625C16.7531 27 16.5 26.7469 16.5 26.4375V26.0625C16.5 25.7531 16.7531 25.5 17.0625 25.5H24.9375C25.2469 25.5 25.5 25.7531 25.5 26.0625V26.4375ZM25.5 23.4375C25.5 23.7469 25.2469 24 24.9375 24H17.0625C16.7531 24 16.5 23.7469 16.5 23.4375V23.0625C16.5 22.7531 16.7531 22.5 17.0625 22.5H24.9375C25.2469 22.5 25.5 22.7531 25.5 23.0625V23.4375ZM25.5 20.0625V20.4375C25.5 20.7469 25.2469 21 24.9375 21H17.0625C16.7531 21 16.5 20.7469 16.5 20.4375V20.0625C16.5 19.7531 16.7531 19.5 17.0625 19.5H24.9375C25.2469 19.5 25.5 19.7531 25.5 20.0625ZM30 14.7141V15H24V9H24.2859C24.5859 9 24.8719 9.11719 25.0828 9.32812L29.6719 13.9219C29.8828 14.1328 30 14.4188 30 14.7141Z" fill="#001A72"/>
</svg>
