<svg width="24" height="25" viewBox="0 0 24 25" fill="none" xmlns="http://www.w3.org/2000/svg">
<path d="M2 24.0667C1.46667 24.0667 1 23.8667 0.6 23.4667C0.2 23.0667 0 22.6 0 22.0667V15.0667H2V22.0667H22V2H2V9.06667H0V2C0 1.46667 0.2 1 0.6 0.6C1 0.2 1.46667 0 2 0H22C22.5333 0 23 0.2 23.4 0.6C23.8 1 24 1.46667 24 2V22.0667C24 22.6 23.8 23.0667 23.4 23.4667C23 23.8667 22.5333 24.0667 22 24.0667H2ZM9.76667 18.5L8.26667 17L12.2 13.0667H0V11.0667H12.2L8.26667 7.13333L9.76667 5.63333L16.2 12.0667L9.76667 18.5Z" fill="black" fill-opacity="0.8"/>
</svg>
