<svg width="28" height="28" viewBox="0 0 28 28" fill="none" xmlns="http://www.w3.org/2000/svg">
<path d="M12.5157 15.0567L12.515 15.0561C10.6866 13.3692 8.40916 12.189 5.85999 11.7287L5.68333 11.6968V11.8763V19.9847V20.1164L5.81396 20.1334C8.83303 20.5267 11.5974 21.6834 13.9108 23.3953L14 23.4613L14.0892 23.3953C16.4026 21.6834 19.167 20.5267 22.186 20.1334L22.3167 20.1164V19.9847V11.8763V11.6968L22.14 11.7287C19.5908 12.189 17.3134 13.3692 15.485 15.0561L15.4843 15.0567L14 16.4428L12.5157 15.0567ZM22.1893 9.6563L22.1895 9.65626C22.8922 9.54816 23.6155 9.4906 24.35 9.48371V22.017C20.3374 22.0546 16.7338 23.5995 14 26.0925C11.2662 23.5995 7.66265 22.0546 3.65 22.017V9.48371C4.38449 9.4906 5.10783 9.54816 5.81052 9.65626L5.81073 9.6563C8.91809 10.1299 11.7024 11.5392 13.8981 13.5731L14 13.6675L14.1019 13.5731C16.2976 11.5392 19.0819 10.1299 22.1893 9.6563ZM14.929 6.77257L14.9345 6.76754L14.9396 6.76198C15.1824 6.4936 15.3167 6.1905 15.3167 5.83301C15.3167 5.47552 15.1824 5.17242 14.9396 4.90404L14.9332 4.89698L14.926 4.89079C14.662 4.66458 14.3604 4.51634 14 4.51634C13.6396 4.51634 13.338 4.66458 13.074 4.89079L13.0653 4.8983L13.0578 4.90706C12.831 5.17166 12.6833 5.48501 12.6833 5.83301C12.6833 6.18101 12.831 6.49436 13.0578 6.75896L13.064 6.76619L13.071 6.77257C13.34 7.01596 13.6549 7.14967 14 7.14967C14.3575 7.14967 14.6606 7.01539 14.929 6.77257ZM16.3673 8.20028C15.7417 8.8258 14.8931 9.18301 14 9.18301C13.1069 9.18301 12.2583 8.8258 11.6327 8.20028C11.0072 7.57475 10.65 6.72611 10.65 5.83301C10.65 4.93991 11.0072 4.09126 11.6327 3.46574C12.2583 2.84022 13.1069 2.48301 14 2.48301C14.8931 2.48301 15.7417 2.84022 16.3673 3.46574C16.9928 4.09126 17.35 4.93991 17.35 5.83301C17.35 6.72611 16.9928 7.57475 16.3673 8.20028Z" fill="#121212" stroke="white" stroke-width="0.3"/>
</svg>
