<svg width="22" height="28" viewBox="0 0 22 28" fill="none" xmlns="http://www.w3.org/2000/svg">
<g clip-path="url(#clip0_4203_4031)">
<path d="M2 28C1.45 28 0.979167 27.8042 0.5875 27.4125C0.195833 27.0208 0 26.55 0 26V11.5333C0 10.9833 0.195833 10.5125 0.5875 10.1208C0.979167 9.72917 1.45 9.53333 2 9.53333H4.33333V6.33333C4.33333 4.58111 4.95118 3.0875 6.18687 1.8525C7.42256 0.6175 8.917 0 10.6702 0C12.4234 0 13.9167 0.6175 15.15 1.8525C16.3833 3.0875 17 4.58111 17 6.33333V9.53333H19.3333C19.8833 9.53333 20.3542 9.72917 20.7458 10.1208C21.1375 10.5125 21.3333 10.9833 21.3333 11.5333V26C21.3333 26.55 21.1375 27.0208 20.7458 27.4125C20.3542 27.8042 19.8833 28 19.3333 28H2ZM10.6723 21.3333C11.3796 21.3333 11.9833 21.0885 12.4833 20.599C12.9833 20.1094 13.2333 19.5208 13.2333 18.8333C13.2333 18.1667 12.9815 17.5611 12.4777 17.0167C11.974 16.4722 11.3684 16.2 10.6611 16.2C9.95369 16.2 9.35 16.4722 8.85 17.0167C8.35 17.5611 8.1 18.1722 8.1 18.85C8.1 19.5278 8.35187 20.1111 8.8556 20.6C9.35933 21.0889 9.96489 21.3333 10.6723 21.3333ZM6.33333 9.53333H15V6.33333C15 5.12962 14.5791 4.10648 13.7373 3.2639C12.8954 2.4213 11.8732 2 10.6706 2C9.46798 2 8.44444 2.4213 7.6 3.2639C6.75556 4.10648 6.33333 5.12962 6.33333 6.33333V9.53333Z" fill="#121212"/>
</g>
<defs>
<clipPath id="clip0_4203_4031">
<rect width="22" height="28" fill="white"/>
</clipPath>
</defs>
</svg>
