<svg width="27" height="27" viewBox="0 0 27 27" fill="none" xmlns="http://www.w3.org/2000/svg">
<g clip-path="url(#clip0_160_264)">
<path d="M0.750094 24.6561C0.729914 24.9386 0.821938 25.2176 1.0062 25.4327C1.19046 25.6477 1.45209 25.7815 1.73433 25.8048C1.90458 25.7998 2.0704 25.7494 2.21465 25.6589C2.35891 25.5683 2.47636 25.4409 2.55488 25.2897C2.63325 25.4409 2.75061 25.5684 2.89481 25.6589C3.03901 25.7495 3.20479 25.7999 3.375 25.8048C3.54521 25.7999 3.711 25.7495 3.85519 25.6589C3.99939 25.5684 4.11675 25.4409 4.19513 25.2897C4.27364 25.4409 4.39109 25.5683 4.53535 25.6589C4.6796 25.7494 4.84542 25.7998 5.01567 25.8048C5.29791 25.7815 5.55954 25.6477 5.7438 25.4327C5.92806 25.2176 6.02009 24.9386 5.99991 24.6561C6.00105 24.4279 5.94118 24.2036 5.82652 24.0064C6.12502 23.5619 6.29708 23.0447 6.32431 22.51C6.35153 21.9754 6.23289 21.4433 5.98108 20.9709C5.72927 20.4984 5.35376 20.1033 4.89472 19.8278C4.43568 19.5523 3.91037 19.4067 3.375 19.4067C2.83963 19.4067 2.31432 19.5523 1.85528 19.8278C1.39624 20.1033 1.02073 20.4984 0.76892 20.9709C0.517109 21.4433 0.398471 21.9754 0.425697 22.51C0.452922 23.0447 0.624987 23.5619 0.923485 24.0064C0.808819 24.2036 0.748957 24.4279 0.750094 24.6561ZM4.86338 21.2929C5.04642 21.4481 5.16105 21.6691 5.18252 21.9081C5.20399 22.1471 5.13058 22.385 4.97813 22.5703C4.7927 22.7222 4.55502 22.7952 4.3163 22.7735C4.07758 22.7518 3.85694 22.6372 3.70195 22.4543L4.86338 21.2929ZM1.88663 21.2929L3.04678 22.453C2.89201 22.6357 2.67172 22.7503 2.4333 22.7723C2.19488 22.7942 1.95738 22.7217 1.77188 22.5703C1.61943 22.385 1.54601 22.1471 1.56748 21.9081C1.58895 21.6691 1.70359 21.4481 1.88663 21.2929Z" fill="black"/>
<path d="M25.5863 18.5034C25.8046 17.976 25.9878 17.4346 26.1348 16.883L25.3214 16.6641C25.183 17.181 25.0109 17.6883 24.8063 18.1828L25.5863 18.5034Z" fill="black"/>
<path d="M26.4609 11.7412C26.3851 11.1756 26.2723 10.6156 26.1234 10.0647L25.3091 10.2858C25.4487 10.8007 25.5544 11.3243 25.6255 11.853L26.4609 11.7412Z" fill="black"/>
<path d="M3.77578 6.07496L3.10584 5.56238C2.75895 6.0157 2.44201 6.49118 2.15704 6.98578L2.889 7.40766C3.15526 6.94459 3.45148 6.49941 3.77578 6.07496Z" fill="black"/>
<path d="M1.40229 8.52185C1.18556 9.04994 1.00321 9.59149 0.856384 10.1431L1.67229 10.3595C1.80888 9.84262 1.97941 9.33527 2.18276 8.84079L1.40229 8.52185Z" fill="black"/>
<path d="M5.51182 3.14429C5.06064 3.4931 4.63253 3.87077 4.23016 4.27491L4.82838 4.86976C5.20505 4.49169 5.60568 4.13827 6.02777 3.81169L5.51182 3.14429Z" fill="black"/>
<path d="M0.536194 15.2327C0.611039 15.7982 0.722793 16.3582 0.870741 16.9092L1.68749 16.6902C1.54888 16.1748 1.44417 15.6508 1.37404 15.1217L0.536194 15.2327Z" fill="black"/>
<path d="M23.2095 20.9452L23.8781 21.4591C24.2256 21.0069 24.5432 20.5325 24.8291 20.0391L24.0992 19.6172C23.8315 20.0785 23.5343 20.5221 23.2095 20.9452Z" fill="black"/>
<path d="M25.7344 13.4473V13.5C25.7345 14.0338 25.7001 14.567 25.6315 15.0964L26.4676 15.2052C26.5416 14.6366 26.5785 14.0637 26.5782 13.4903V13.4481L25.7344 13.4473Z" fill="black"/>
<path d="M8.46068 1.42847C7.93445 1.64789 7.42317 1.90155 6.93011 2.18784L7.35452 2.91726C7.81519 2.64879 8.29309 2.41104 8.7851 2.20556L8.46068 1.42847Z" fill="black"/>
<path d="M11.9159 25.6332L11.8079 26.4698C12.369 26.5421 12.9342 26.5783 13.5 26.5782H13.5131L13.5 25.7344C12.9703 25.7344 12.4412 25.7006 11.9159 25.6332Z" fill="black"/>
<path d="M16.6775 25.3175C16.1622 25.4556 15.6384 25.5597 15.1094 25.6293L15.2191 26.4658C15.7848 26.3917 16.345 26.2803 16.8961 26.1326L16.6775 25.3175Z" fill="black"/>
<path d="M10.3465 25.3243C9.83044 25.1872 9.32406 25.0159 8.83067 24.8118L8.50836 25.5918C9.03626 25.8101 9.578 25.9933 10.13 26.1403L10.3465 25.3243Z" fill="black"/>
<path d="M10.298 1.68755C10.8133 1.54865 11.3371 1.44352 11.8661 1.37283L11.7547 0.536255C11.1891 0.611886 10.629 0.724629 10.0782 0.873755L10.298 1.68755Z" fill="black"/>
<path d="M13.4603 0.421875L13.5 1.26562C14.0218 1.26566 14.5432 1.29849 15.0609 1.36392L15.1672 0.526922C14.6142 0.456934 14.0574 0.421849 13.5 0.421875H13.4603Z" fill="black"/>
<path d="M1.36561 11.929L0.52861 11.8214C0.457425 12.3781 0.421775 12.9388 0.421875 13.5001V13.5262L1.26563 13.5001C1.2656 12.9748 1.299 12.45 1.36561 11.929Z" fill="black"/>
<path d="M19.6239 24.0938C19.1618 24.3612 18.6826 24.5981 18.1896 24.8029L18.5136 25.5817C19.0401 25.3624 19.5517 25.1087 20.045 24.8223L19.6239 24.0938Z" fill="black"/>
<path d="M16.6286 1.6693C17.1455 1.80545 17.6528 1.97556 18.1474 2.1785L18.4676 1.39803C17.9393 1.18121 17.3975 0.999271 16.8454 0.853394L16.6286 1.6693Z" fill="black"/>
<path d="M20.9524 23.2031L21.4667 23.8718C21.9188 23.5241 22.3478 23.1473 22.7508 22.7437L22.1543 22.1484C21.7767 22.5255 21.3753 22.8777 20.9524 23.2031Z" fill="black"/>
<path d="M23.625 1.19519C23.0898 1.19534 22.5647 1.34092 22.1059 1.61637C21.647 1.89182 21.2716 2.28678 21.0199 2.75904C20.7681 3.23131 20.6494 3.76311 20.6764 4.29761C20.7035 4.83211 20.8753 5.3492 21.1735 5.79363C21.0587 5.991 20.9989 6.21545 21.0001 6.44374C20.9796 6.72643 21.0714 7.0058 21.2557 7.22114C21.44 7.43648 21.7018 7.57039 21.9843 7.59377C22.1546 7.58875 22.3204 7.53836 22.4646 7.4478C22.6089 7.35724 22.7263 7.22981 22.8049 7.07866C22.8792 7.23299 22.9957 7.36321 23.1407 7.45433C23.2858 7.54546 23.4537 7.5938 23.625 7.5938C23.7963 7.5938 23.9642 7.54546 24.1092 7.45433C24.2543 7.36321 24.3707 7.23299 24.4451 7.07866C24.5236 7.22981 24.6411 7.35724 24.7853 7.4478C24.9296 7.53836 25.0954 7.58875 25.2657 7.59377C25.5478 7.57039 25.8094 7.43672 25.9936 7.22175C26.1779 7.00678 26.27 6.72784 26.2499 6.44542C26.2511 6.21714 26.1912 5.99269 26.0765 5.79532C26.3751 5.35087 26.5473 4.8336 26.5746 4.29885C26.6019 3.76409 26.4833 3.23198 26.2315 2.75944C25.9796 2.2869 25.6041 1.89173 25.1449 1.61619C24.6858 1.34066 24.1604 1.19513 23.625 1.19519ZM22.0219 4.35925C21.87 4.1739 21.797 3.93628 21.8187 3.69763C21.8404 3.45898 21.955 3.23842 22.1379 3.0835L23.298 4.24324C23.1429 4.426 22.9222 4.54047 22.6834 4.56193C22.4447 4.5834 22.2071 4.51015 22.0219 4.35799V4.35925ZM25.2306 4.35925C25.0453 4.51127 24.8075 4.5843 24.5688 4.5626C24.33 4.54089 24.1094 4.42619 23.9545 4.24324L25.1146 3.0835C25.2967 3.23874 25.4106 3.45922 25.4318 3.69755C25.4531 3.93588 25.3799 4.17303 25.2281 4.35799L25.2306 4.35925Z" fill="black"/>
<path d="M13.5 5.48438C11.3188 7.68011 8.50411 9.13681 5.45189 9.64955L4.64062 9.7875C5.22492 14.8795 7.89708 19.0873 12.0125 22.1117L13.5 23.2031L15.3563 21.7687C19.2489 18.7557 21.7725 14.7023 22.3594 9.79763V9.78581L21.5481 9.64955C18.4959 9.13681 15.6812 7.68011 13.5 5.48438ZM16.4531 15.1875C16.4531 15.2994 16.4087 15.4067 16.3296 15.4858C16.2504 15.5649 16.1431 15.6094 16.0312 15.6094H13.9219V16.4531H14.7656V17.2969H12.2344V16.4531H13.0781V15.6094H10.9688C10.8569 15.6094 10.7496 15.5649 10.6704 15.4858C10.5913 15.4067 10.5469 15.2994 10.5469 15.1875V11.8125C10.5469 11.7006 10.5913 11.5933 10.6704 11.5142C10.7496 11.4351 10.8569 11.3906 10.9688 11.3906H16.0312C16.1431 11.3906 16.2504 11.4351 16.3296 11.5142C16.4087 11.5933 16.4531 11.7006 16.4531 11.8125V15.1875Z" fill="black"/>
</g>
<defs>
<clipPath id="clip0_160_264">
<rect width="27" height="27" fill="white"/>
</clipPath>
</defs>
</svg>
