<svg width="21" height="24" viewBox="0 0 21 24" fill="none" xmlns="http://www.w3.org/2000/svg">
<g clip-path="url(#clip0_168_94)">
<path fill-rule="evenodd" clip-rule="evenodd" d="M1.55965 0H19.4384C19.8524 0.000516843 20.2493 0.166537 20.5421 0.461649C20.8348 0.75676 20.9995 1.15687 21 1.57422V16.7461C20.9985 17.1629 20.8334 17.5623 20.5408 17.8568C20.2482 18.1514 19.8519 18.3173 19.4384 18.3184H12.1226V18.2871C12.1226 18.0234 12.1226 17.7656 12.111 17.334H19.6399C19.6966 17.334 19.7526 17.3227 19.805 17.3008C19.8573 17.2789 19.9048 17.2468 19.9447 17.2063C19.9847 17.1658 20.0163 17.1178 20.0378 17.065C20.0593 17.0121 20.0703 16.9555 20.07 16.8984V3.80078H0.991973V16.8984C0.991592 16.9353 0.996154 16.9721 1.00554 17.0078C0.982067 17.1097 0.969723 17.2138 0.968724 17.3184C0.963419 17.599 1.02034 17.8772 1.13534 18.1328C1.1551 18.1801 1.17842 18.2258 1.20509 18.2695C0.864223 18.1879 0.56031 17.9935 0.341874 17.7174C0.123437 17.4412 0.00307404 17.0993 0 16.7461L0 1.57422C0.000511327 1.15721 0.164933 0.757393 0.457257 0.462337C0.749581 0.167282 1.14598 0.00103317 1.55965 0ZM5.20786 13.4902C5.2967 13.4841 5.38584 13.4964 5.46977 13.5264C5.55371 13.5563 5.63065 13.6033 5.69585 13.6645C5.76104 13.7256 5.8131 13.7996 5.8488 13.8818C5.8845 13.9641 5.90308 14.0528 5.9034 14.1426V18.3262H6.32383V16.2734C6.32383 15.4434 7.62192 15.4687 7.62192 16.3203V18.3711H7.64129H8.0966V16.7344C8.0966 15.9043 9.39469 15.9297 9.39469 16.7793V18.2949H9.85192V17.1406C9.85192 16.3105 11.15 16.3359 11.15 17.1855C11.15 18.1426 11.2043 19.2715 11.1694 20.2266C11.1326 21.2754 10.9175 22.457 10.1639 23.1172C9.77116 23.4648 9.30664 23.72 8.80398 23.8643C8.30133 24.0085 7.77313 24.0382 7.25768 23.9512C5.47135 23.666 5.01993 22.5625 4.16939 21.2031L2.00913 17.7539C1.87545 17.4395 1.89289 17.2266 2.02657 17.0898C2.60781 16.7148 3.53391 17.5117 4.5685 18.6387H4.60531V14.0977C4.60583 13.9367 4.66947 13.7825 4.78236 13.6687C4.89525 13.5549 5.04821 13.4907 5.20786 13.4902ZM3.34791 7.87109C3.2583 7.71937 3.22986 7.53876 3.26844 7.36652C3.30703 7.19427 3.4097 7.04352 3.5553 6.94533C3.70089 6.84715 3.8783 6.80903 4.05096 6.83882C4.22361 6.86862 4.37835 6.96406 4.48325 7.10547L4.85331 7.51562L5.94022 6.14844C6.05532 6.00754 6.22122 5.91851 6.40144 5.90093C6.58166 5.88335 6.76142 5.93866 6.90119 6.05469C7.04096 6.17072 7.12927 6.33797 7.14671 6.51965C7.16415 6.70132 7.10929 6.88254 6.99419 7.02344L5.35123 9.01367C5.3053 9.07391 5.25041 9.12661 5.18849 9.16992C5.11348 9.2201 5.02939 9.25485 4.94103 9.27219C4.85267 9.28953 4.76178 9.28912 4.67359 9.27097C4.58539 9.25282 4.50161 9.2173 4.42705 9.16645C4.3525 9.11559 4.28864 9.0504 4.23914 8.97461L3.34791 7.86523V7.87109ZM17.0747 13.3926C17.2582 13.383 17.4309 13.3027 17.5574 13.1684C17.6838 13.0342 17.7543 12.8561 17.7543 12.6709C17.7543 12.4857 17.6838 12.3076 17.5574 12.1734C17.4309 12.0391 17.2582 11.9588 17.0747 11.9492H9.59231C9.49516 11.9441 9.398 11.959 9.30675 11.993C9.2155 12.0269 9.13205 12.0793 9.0615 12.1468C8.99095 12.2143 8.93477 12.2956 8.89638 12.3857C8.85799 12.4758 8.83819 12.5728 8.83819 12.6709C8.83819 12.769 8.85799 12.866 8.89638 12.9561C8.93477 13.0462 8.99095 13.1275 9.0615 13.195C9.13205 13.2625 9.2155 13.3149 9.30675 13.3488C9.398 13.3828 9.49516 13.3977 9.59231 13.3926H17.0747ZM17.0747 8.31445C17.2582 8.30483 17.4309 8.2246 17.5574 8.09031C17.6838 7.95603 17.7543 7.77793 17.7543 7.59277C17.7543 7.40761 17.6838 7.22952 17.5574 7.09523C17.4309 6.96095 17.2582 6.88072 17.0747 6.87109H9.59231C9.49516 6.866 9.398 6.88089 9.30675 6.91485C9.2155 6.94882 9.13205 7.00115 9.0615 7.06867C8.99095 7.13618 8.93477 7.21747 8.89638 7.30757C8.85799 7.39767 8.83819 7.49471 8.83819 7.59277C8.83819 7.69084 8.85799 7.78787 8.89638 7.87798C8.93477 7.96808 8.99095 8.04936 9.0615 8.11688C9.13205 8.18439 9.2155 8.23673 9.30675 8.27069C9.398 8.30466 9.49516 8.31955 9.59231 8.31445H17.0747ZM3.41766 10.6699H6.97481C7.10379 10.6699 7.22748 10.7216 7.31868 10.8135C7.40988 10.9054 7.46111 11.0301 7.46111 11.1602V14.1816C7.4606 14.3115 7.4092 14.4359 7.31812 14.5277C7.22703 14.6195 7.10363 14.6714 6.97481 14.6719H6.87213V14.1426C6.87586 13.7567 6.73784 13.3831 6.48464 13.0938V11.6504H3.90396V13.2324C3.73474 13.4887 3.64442 13.7898 3.64434 14.0977V14.6719H3.41766C3.28884 14.6714 3.16544 14.6195 3.07436 14.5277C2.98327 14.4359 2.93187 14.3115 2.93136 14.1816V11.1602C2.93136 11.0301 2.98259 10.9054 3.07379 10.8135C3.16499 10.7216 3.28868 10.6699 3.41766 10.6699ZM17.9524 1.36719C18.1057 1.36719 18.2555 1.41301 18.3829 1.49885C18.5104 1.5847 18.6097 1.70671 18.6684 1.84947C18.727 1.99222 18.7424 2.1493 18.7125 2.30085C18.6826 2.4524 18.6088 2.5916 18.5004 2.70086C18.392 2.81012 18.2539 2.88453 18.1036 2.91468C17.9533 2.94482 17.7974 2.92935 17.6558 2.87022C17.5142 2.81109 17.3932 2.71095 17.308 2.58248C17.2229 2.454 17.1774 2.30295 17.1774 2.14844C17.1774 1.94124 17.2591 1.74252 17.4044 1.59601C17.5497 1.4495 17.7469 1.36719 17.9524 1.36719ZM12.731 1.36719C12.8842 1.36719 13.0341 1.41301 13.1615 1.49885C13.289 1.5847 13.3883 1.70671 13.447 1.84947C13.5056 1.99222 13.521 2.1493 13.4911 2.30085C13.4612 2.4524 13.3873 2.5916 13.279 2.70086C13.1706 2.81012 13.0325 2.88453 12.8822 2.91468C12.7318 2.94482 12.576 2.92935 12.4344 2.87022C12.2928 2.81109 12.1718 2.71095 12.0866 2.58248C12.0014 2.454 11.956 2.30295 11.956 2.14844C11.956 1.94124 12.0376 1.74252 12.183 1.59601C12.3283 1.4495 12.5254 1.36719 12.731 1.36719ZM15.3427 1.36719C15.4959 1.36719 15.6458 1.41301 15.7732 1.49885C15.9007 1.5847 16 1.70671 16.0586 1.84947C16.1173 1.99222 16.1326 2.1493 16.1027 2.30085C16.0728 2.4524 15.999 2.5916 15.8906 2.70086C15.7823 2.81012 15.6442 2.88453 15.4938 2.91468C15.3435 2.94482 15.1877 2.92935 15.0461 2.87022C14.9045 2.81109 14.7834 2.71095 14.6983 2.58248C14.6131 2.454 14.5677 2.30295 14.5677 2.14844C14.5677 1.94124 14.6493 1.74252 14.7947 1.59601C14.94 1.4495 15.1371 1.36719 15.3427 1.36719Z" fill="black"/>
</g>
<defs>
<clipPath id="clip0_168_94">
<rect width="21" height="24" fill="white"/>
</clipPath>
</defs>
</svg>
