<svg width="42" height="42" viewBox="0 0 42 42" fill="none" xmlns="http://www.w3.org/2000/svg">
<circle cx="21" cy="21" r="21" fill="#FFF2E2"/>
<path d="M26.8333 17.5013H15.1667V15.168H26.8333M26.8333 22.168H15.1667V19.8346H26.8333M23.3333 26.8346H15.1667V24.5013H23.3333M21 10.5013C21.3094 10.5013 21.6062 10.6242 21.825 10.843C22.0437 11.0618 22.1667 11.3585 22.1667 11.668C22.1667 11.9774 22.0437 12.2741 21.825 12.4929C21.6062 12.7117 21.3094 12.8346 21 12.8346C20.6906 12.8346 20.3938 12.7117 20.175 12.4929C19.9562 12.2741 19.8333 11.9774 19.8333 11.668C19.8333 11.3585 19.9562 11.0618 20.175 10.843C20.3938 10.6242 20.6906 10.5013 21 10.5013ZM29.1667 10.5013H24.29C23.8 9.14797 22.5167 8.16797 21 8.16797C19.4833 8.16797 18.2 9.14797 17.71 10.5013H12.8333C12.2145 10.5013 11.621 10.7471 11.1834 11.1847C10.7458 11.6223 10.5 12.2158 10.5 12.8346V29.168C10.5 29.7868 10.7458 30.3803 11.1834 30.8179C11.621 31.2555 12.2145 31.5013 12.8333 31.5013H29.1667C29.7855 31.5013 30.379 31.2555 30.8166 30.8179C31.2542 30.3803 31.5 29.7868 31.5 29.168V12.8346C31.5 12.2158 31.2542 11.6223 30.8166 11.1847C30.379 10.7471 29.7855 10.5013 29.1667 10.5013Z" fill="#FCAB40"/>
</svg>
