<svg width="21" height="12" viewBox="0 0 21 12" fill="none" xmlns="http://www.w3.org/2000/svg">
<path fill-rule="evenodd" clip-rule="evenodd" d="M15.7373 7.54911L16.0498 7.54094L16.3102 7.53439C16.0059 6.5955 16.1084 5.73349 16.8376 5.00069C16.9613 5.40307 17.2396 5.73512 17.7116 5.98048C17.9378 6.14895 18.1559 6.35342 18.3675 6.58732C18.4049 6.43193 18.2633 6.24382 18.0892 6.04918C18.2503 6.12933 18.3968 6.24055 18.5026 6.45483C18.6246 6.70346 18.623 6.91446 18.5823 7.18272C18.5628 7.30867 18.5335 7.4248 18.4895 7.53276H18.9209C19.3766 6.55134 19.0869 5.09556 18.1543 4.4789C17.8678 4.2908 17.6627 4.29734 17.3275 4.29734C16.9434 4.29734 16.7464 4.30879 16.4176 4.52797C15.9326 4.85021 15.6348 5.40798 15.5095 6.1833C15.485 6.57096 15.4671 7.23833 15.7373 7.54911ZM0.5 11.0283C0.537434 9.96832 2.14547 9.92579 3.13178 9.30749L3.79258 11.0283H0.5ZM5.12881 10.4459H5.25902C5.3762 10.4459 5.47223 10.3494 5.47223 10.2317V9.8849C5.47223 9.76713 5.3762 9.67062 5.25902 9.67062H4.48755C4.37036 9.67062 4.27434 9.76713 4.27434 9.8849V10.2317C4.27434 10.3494 4.37036 10.4459 4.48755 10.4459H4.61938L4.50545 11.0283H5.23949L5.12881 10.4459ZM3.77956 8.55998C3.80397 8.35879 3.21316 7.69633 3.10411 7.32993C2.873 6.96026 2.78999 6.57587 3.04227 6.18494C3.14318 6.02955 3.10086 5.60917 3.10086 5.3949C3.10086 3.26848 6.80847 3.26685 6.80847 5.3949C6.80847 5.66315 6.74662 6.01319 6.89147 6.22583C7.13398 6.57914 7.00866 7.00279 6.80358 7.33157C6.67338 7.71759 6.05327 8.34243 6.09559 8.56161C6.13302 9.65099 3.77142 9.615 3.77956 8.55998ZM9.87807 8.14287L10.8058 10.8827L11.2729 9.25679L11.0434 9.00652C10.9392 8.8544 10.9181 8.72355 10.975 8.60905C11.0987 8.36369 11.3543 8.40786 11.5935 8.40786C11.8442 8.40786 12.155 8.36042 12.2332 8.67611C12.2592 8.78243 12.2267 8.89202 12.1534 9.00652L11.9239 9.25679L12.391 10.8827L13.2309 8.14287C14.323 9.13247 16.5251 8.55343 16.792 11.0283H6.02398C6.30392 8.42094 8.7762 9.14065 9.87807 8.14287ZM9.12125 4.51489C9.12613 4.66864 9.20588 4.87147 9.36375 5.10538L9.36701 5.10865L9.8862 5.93631C10.0945 6.26836 10.3094 6.60368 10.5795 6.85067C10.8351 7.08621 11.1476 7.24651 11.5577 7.24651C12.0037 7.24815 12.3276 7.0813 12.5929 6.83268C12.8695 6.5726 13.0893 6.21438 13.3057 5.85616L13.8884 4.89274C14.0072 4.62121 14.043 4.456 14.004 4.37585C13.9828 4.33005 13.9014 4.3137 13.7712 4.32024C13.6817 4.34641 13.5759 4.34478 13.4522 4.31043L13.6882 3.40098C11.8604 3.59072 10.8318 1.8716 9.52977 3.17852L9.70229 4.25481C9.4907 4.29898 9.10822 4.16158 9.12125 4.51489ZM14.0414 4.00946C14.1635 4.04708 14.253 4.11741 14.3067 4.22701C14.3946 4.40366 14.3588 4.66537 14.1944 5.04158C14.1911 5.04813 14.1879 5.05467 14.1846 5.06121L13.5938 6.03773C13.3643 6.41557 13.1332 6.79506 12.8223 7.08785C12.5001 7.39209 12.0997 7.59655 11.5545 7.59328C11.045 7.59164 10.6609 7.39699 10.3468 7.10747C10.0441 6.82941 9.81459 6.47282 9.59487 6.12278L9.0773 5.29512C8.88525 5.00724 8.78596 4.74389 8.77946 4.52634C8.7762 4.42165 8.7941 4.32842 8.83317 4.24336C8.87385 4.15667 8.9357 4.08143 9.02034 4.02418C9.06102 3.99801 9.10822 3.97347 9.15705 3.95548C9.1245 3.50893 9.11311 2.95607 9.13589 2.49153C9.14729 2.37866 9.16844 2.2658 9.19937 2.15294C9.3312 1.67695 9.66485 1.29583 10.075 1.03085C10.2199 0.939246 10.3777 0.860733 10.547 0.800212C11.5431 0.438722 12.8614 0.635006 13.5678 1.40379C13.8559 1.7162 14.0365 2.13167 14.0756 2.68127L14.0414 4.00946ZM16.9254 9.33366L17.1582 8.51909L17.0443 8.39314C16.9922 8.31789 16.9824 8.25083 17.0101 8.19522C17.0719 8.07254 17.2005 8.09544 17.3193 8.09544C17.4446 8.09544 17.5993 8.0709 17.6383 8.22957C17.6513 8.28191 17.6351 8.33752 17.5993 8.39477L17.4853 8.52072L17.7181 9.3353L17.3209 9.65099L16.9254 9.33366ZM19.0136 9.05069C18.8362 8.69411 18.6132 8.3915 18.3512 8.10852C18.8427 8.2999 19.3456 8.48801 19.7167 8.72355C19.9527 8.8724 20.0764 8.98526 20.1708 9.16519C20.3743 9.54958 20.3971 9.89307 20.4264 10.3102L20.498 11.0299H17.6253C17.5472 10.6978 17.5049 10.4198 17.3421 10.0517C17.8369 9.55776 18.3675 9.15864 19.0136 9.05069ZM15.4899 8.42912C15.765 8.30808 16.0482 8.20339 16.2956 8.10852C16.154 8.26228 16.0238 8.42094 15.9066 8.58942C15.7748 8.53381 15.6348 8.47983 15.4899 8.42912Z" fill="black"/>
</svg>
