<svg width="22" height="22" viewBox="0 0 22 22" fill="none" xmlns="http://www.w3.org/2000/svg">
<path d="M18.332 18.3337H6.41536C5.92913 18.3337 5.46282 18.1405 5.119 17.7967C4.77519 17.4529 4.58203 16.9866 4.58203 16.5003V8.19533L2.04286 5.17033C1.91453 5.01449 1.83203 4.80366 1.83203 4.58366C1.83203 4.34054 1.92861 4.10739 2.10052 3.93548C2.27242 3.76357 2.50558 3.66699 2.7487 3.66699H18.332C18.8183 3.66699 19.2846 3.86015 19.6284 4.20396C19.9722 4.54778 20.1654 5.0141 20.1654 5.50033V16.5003C20.1654 16.9866 19.9722 17.4529 19.6284 17.7967C19.2846 18.1405 18.8183 18.3337 18.332 18.3337ZM7.79036 6.41699C7.66881 6.41699 7.55223 6.46528 7.46627 6.55123C7.38032 6.63719 7.33203 6.75377 7.33203 6.87533V7.79199C7.33203 7.91355 7.38032 8.03013 7.46627 8.11608C7.55223 8.20204 7.66881 8.25033 7.79036 8.25033H16.957C17.0786 8.25033 17.1952 8.20204 17.2811 8.11608C17.3671 8.03013 17.4154 7.91355 17.4154 7.79199V6.87533C17.4154 6.75377 17.3671 6.63719 17.2811 6.55123C17.1952 6.46528 17.0786 6.41699 16.957 6.41699H7.79036ZM7.79036 10.0837C7.66881 10.0837 7.55223 10.1319 7.46627 10.2179C7.38032 10.3039 7.33203 10.4204 7.33203 10.542V11.4587C7.33203 11.5802 7.38032 11.6968 7.46627 11.7828C7.55223 11.8687 7.66881 11.917 7.79036 11.917H16.957C17.0786 11.917 17.1952 11.8687 17.2811 11.7828C17.3671 11.6968 17.4154 11.5802 17.4154 11.4587V10.542C17.4154 10.4204 17.3671 10.3039 17.2811 10.2179C17.1952 10.1319 17.0786 10.0837 16.957 10.0837H7.79036ZM7.79036 13.7503C7.66881 13.7503 7.55223 13.7986 7.46627 13.8846C7.38032 13.9705 7.33203 14.0871 7.33203 14.2087V15.1253C7.33203 15.2469 7.38032 15.3635 7.46627 15.4494C7.55223 15.5354 7.66881 15.5837 7.79036 15.5837H12.3737C12.4953 15.5837 12.6118 15.5354 12.6978 15.4494C12.7837 15.3635 12.832 15.2469 12.832 15.1253V14.2087C12.832 14.0871 12.7837 13.9705 12.6978 13.8846C12.6118 13.7986 12.4953 13.7503 12.3737 13.7503H7.79036Z" fill="#121212" fill-opacity="0.45"/>
</svg>
