<svg width="30" height="30" viewBox="0 0 30 30" fill="none" xmlns="http://www.w3.org/2000/svg">
<path d="M21.5625 26.25C20.5312 26.25 19.5938 25.5938 19.2188 24.5625C19.2188 24.4688 19.2187 24.375 19.125 24.375H10.7812C10.7812 24.4688 10.7812 24.5625 10.6875 24.5625C10.4062 25.5938 9.46875 26.25 8.4375 26.25C7.875 26.25 7.5 26.625 7.5 27.1875C7.5 27.75 7.875 28.125 8.4375 28.125H21.5625C22.125 28.125 22.5 27.75 22.5 27.1875C22.5 26.625 22.125 26.25 21.5625 26.25Z" fill="black"/>
<path d="M10.3125 12.1875V10.3125C8.71875 10.3125 7.5 11.5312 7.5 13.125C7.5 14.7188 8.71875 15.9375 10.3125 15.9375C11.9063 15.9375 13.125 14.7188 13.125 13.125H11.25C10.6875 13.125 10.3125 12.75 10.3125 12.1875Z" fill="black"/>
<path d="M25.3125 2.8125H4.6875C3.09375 2.8125 1.875 4.03125 1.875 5.625V19.6875C1.875 21.2813 3.09375 22.5 4.6875 22.5H11.1562H18.75H25.3125C26.9063 22.5 28.125 21.2813 28.125 19.6875V5.625C28.125 4.03125 26.9063 2.8125 25.3125 2.8125ZM15 13.125C15 15.75 12.9375 17.8125 10.3125 17.8125C7.6875 17.8125 5.625 15.75 5.625 13.125C5.625 10.5 7.6875 8.4375 10.3125 8.4375C10.3125 7.875 10.6875 7.5 11.25 7.5C13.875 7.5 15.9375 9.5625 15.9375 12.1875C15.9375 12.75 15.5625 13.125 15 13.125ZM23.4375 15H21.5625C21 15 20.625 14.625 20.625 14.0625C20.625 13.5 21 13.125 21.5625 13.125H23.4375C24 13.125 24.375 13.5 24.375 14.0625C24.375 14.625 24 15 23.4375 15ZM23.4375 12.1875H18.75C18.1875 12.1875 17.8125 11.8125 17.8125 11.25C17.8125 10.6875 18.1875 10.3125 18.75 10.3125H23.4375C24 10.3125 24.375 10.6875 24.375 11.25C24.375 11.8125 24 12.1875 23.4375 12.1875Z" fill="black"/>
</svg>
