<svg width="69" height="79" viewBox="0 0 69 79" fill="none" xmlns="http://www.w3.org/2000/svg">
<path opacity="0.4" d="M67 17.0835V68.5271C67 75.0933 62.2457 77.8557 56.44 74.6858L38.4743 64.7684C36.5543 63.7269 33.4457 63.7269 31.5257 64.7684L13.56 74.6858C7.75428 77.8557 3 75.0933 3 68.5271V17.0835C3 9.33981 9.4 3 17.2171 3H52.7829C60.6 3 67 9.33981 67 17.0835Z" fill="white"/>
<path d="M66 17.0835V68.5271C66 75.0934 61.32 77.8557 55.605 74.6858L37.92 64.7684C36.03 63.7269 32.97 63.7269 31.08 64.7684L13.395 74.6858C7.68 77.8557 3 75.0934 3 68.5271V17.0835C3 9.33981 9.29996 3 16.995 3H34.5H52.005C59.7 3 66 9.33981 66 17.0835Z" fill="white" stroke="#292D32" stroke-width="5.5" stroke-linecap="round" stroke-linejoin="round"/>
</svg>
