<svg width="24" height="24" viewBox="0 0 24 24" fill="none" xmlns="http://www.w3.org/2000/svg">
<g clip-path="url(#clip0_6558_11077)">
<path d="M6 2C4.9 2 4.01 2.9 4.01 4L4 20C4 21.1 4.89 22 5.99 22H18C19.1 22 20 21.1 20 20V8L14 2H6ZM13 9V3.5L18.5 9H13Z" fill="#EE3833"/>
<path d="M6.70579 19V14.6364H8.34215C8.67738 14.6364 8.95863 14.6989 9.1859 14.8239C9.4146 14.9489 9.58718 15.1207 9.70366 15.3395C9.82156 15.5568 9.8805 15.804 9.8805 16.081C9.8805 16.3608 9.82156 16.6094 9.70366 16.8267C9.58576 17.044 9.41175 17.2152 9.18164 17.3402C8.95153 17.4638 8.66815 17.5256 8.3315 17.5256H7.24698V16.8757H8.22496C8.42099 16.8757 8.5815 16.8416 8.7065 16.7734C8.8315 16.7053 8.92383 16.6115 8.98349 16.4922C9.04457 16.3729 9.07511 16.2358 9.07511 16.081C9.07511 15.9261 9.04457 15.7898 8.98349 15.6719C8.92383 15.554 8.83079 15.4624 8.70437 15.397C8.57937 15.3303 8.41815 15.2969 8.2207 15.2969H7.49627V19H6.70579ZM12.0458 19H10.5671V14.6364H12.0756C12.5089 14.6364 12.881 14.7237 13.1921 14.8984C13.5046 15.0717 13.7447 15.321 13.9123 15.6463C14.0799 15.9716 14.1637 16.3608 14.1637 16.8139C14.1637 17.2685 14.0792 17.6591 13.9102 17.9858C13.7425 18.3125 13.5004 18.5632 13.1836 18.7379C12.8683 18.9126 12.489 19 12.0458 19ZM11.3576 18.3161H12.0075C12.3114 18.3161 12.565 18.2607 12.7681 18.1499C12.9712 18.0376 13.1239 17.8707 13.2262 17.6491C13.3285 17.4261 13.3796 17.1477 13.3796 16.8139C13.3796 16.4801 13.3285 16.2031 13.2262 15.983C13.1239 15.7614 12.9727 15.5959 12.7724 15.4865C12.5735 15.3757 12.3263 15.3203 12.0309 15.3203H11.3576V18.3161ZM14.9148 19V14.6364H17.7102V15.299H15.7053V16.4837H17.5185V17.1463H15.7053V19H14.9148Z" fill="white"/>
</g>
<defs>
<clipPath id="clip0_6558_11077">
<rect width="24" height="24" fill="white"/>
</clipPath>
</defs>
</svg>
