<svg width="18" height="18" viewBox="0 0 18 18" fill="none" xmlns="http://www.w3.org/2000/svg">
<path d="M11.2875 3.75C12.0201 3.89292 12.6933 4.25119 13.2211 4.77895C13.7488 5.30671 14.1071 5.97995 14.25 6.7125L11.2875 3.75ZM11.2875 0.75C12.8095 0.919077 14.2287 1.60063 15.3122 2.68276C16.3957 3.76488 17.079 5.18326 17.25 6.705L11.2875 0.75ZM16.5 12.69V14.94C16.5009 15.1489 16.4581 15.3556 16.3744 15.547C16.2907 15.7384 16.168 15.9102 16.0141 16.0514C15.8601 16.1926 15.6784 16.3001 15.4806 16.367C15.2827 16.4339 15.073 16.4588 14.865 16.44C12.5571 16.1892 10.3403 15.4006 8.3925 14.1375C6.58037 12.986 5.04401 11.4496 3.8925 9.6375C2.62499 7.6809 1.83619 5.45325 1.59 3.135C1.57126 2.9276 1.59591 2.71857 1.66238 2.52122C1.72885 2.32387 1.83568 2.14252 1.97608 1.98872C2.11647 1.83491 2.28736 1.71203 2.47785 1.62789C2.66834 1.54375 2.87426 1.5002 3.0825 1.5H5.3325C5.69648 1.49642 6.04935 1.62531 6.32532 1.86265C6.6013 2.09999 6.78156 2.42959 6.8325 2.79C6.92747 3.51005 7.10359 4.21705 7.3575 4.8975C7.45841 5.16594 7.48025 5.45769 7.42043 5.73816C7.36062 6.01863 7.22165 6.27608 7.02 6.48L6.0675 7.4325C7.13517 9.31016 8.68984 10.8648 10.5675 11.9325L11.52 10.98C11.7239 10.7784 11.9814 10.6394 12.2618 10.5796C12.5423 10.5198 12.8341 10.5416 13.1025 10.6425C13.783 10.8964 14.49 11.0725 15.21 11.1675C15.5743 11.2189 15.9071 11.4024 16.1449 11.6831C16.3828 11.9638 16.5091 12.3222 16.5 12.69Z" stroke="black" stroke-opacity="0.9" stroke-width="1.3" stroke-linecap="round" stroke-linejoin="round"/>
</svg>
