<svg width="6" height="6" viewBox="0 0 6 6" fill="none" xmlns="http://www.w3.org/2000/svg">
<path d="M2 2.27344V1.54545C2 1.24545 2.25962 1 2.57692 1H5.17308C5.49038 1 5.75 1.24545 5.75 1.54545V3.45455C5.75 3.75455 5.49038 4 5.17308 4H4" stroke="black" stroke-width="0.2" stroke-miterlimit="10" stroke-linecap="round"/>
<path d="M2 1.75L3.875 2.5L5.75 1.75" stroke="black" stroke-width="0.2" stroke-miterlimit="10" stroke-linecap="round" stroke-linejoin="round"/>
<path d="M4.38594 4.14397L3.72712 3.75429C3.61746 3.68936 3.51564 3.69734 3.43138 3.77446C3.19478 3.99045 3.04482 3.94029 3.02029 3.92959C2.87647 3.86722 2.74064 3.80837 2.52566 3.61597C2.25876 3.37679 2.15861 3.22033 2.0855 3.09239C2.0563 3.04121 2.01635 2.866 2.17969 2.67222C2.25607 2.58173 2.25783 2.47555 2.18471 2.37343C2.12837 2.29472 2.12837 2.29472 2.08429 2.23699C2.04081 2.17994 1.95394 2.06596 1.72455 1.7604C1.67499 1.69448 1.60805 1.66465 1.51994 1.66942C1.42004 1.67483 1.37219 1.72812 1.33362 1.77095L1.13311 1.99396C0.991141 2.15179 0.983844 2.23825 0.989059 2.33465C0.995625 2.45601 1.21399 3.23756 2.09307 4.02212C2.96963 4.80986 3.77092 4.94233 3.89244 4.93575L3.8971 4.9355C3.99276 4.92891 4.07714 4.91168 4.21703 4.75602L4.41754 4.53301C4.45611 4.49018 4.50403 4.43688 4.49864 4.33717C4.49388 4.24917 4.45694 4.18596 4.38594 4.14397ZM4.31232 4.4387L4.1118 4.66171C3.99925 4.7869 3.94757 4.79047 3.88481 4.79472C3.8761 4.79491 3.11048 4.74658 2.18758 3.91701C1.27247 3.1003 1.13087 2.33376 1.13036 2.327C1.12698 2.26445 1.12431 2.21516 1.23833 2.08827L1.43885 1.86525C1.47408 1.82622 1.48822 1.81258 1.52757 1.81045C1.57371 1.80796 1.59388 1.82193 1.61136 1.84517C1.84114 2.15127 1.92817 2.26552 1.97171 2.3225C2.01465 2.37874 2.01465 2.37874 2.06962 2.45561C2.11315 2.51641 2.09623 2.55198 2.07146 2.58133C1.86363 2.82765 1.90935 3.06896 1.96251 3.16227C2.04103 3.29989 2.1484 3.46784 2.43115 3.72108C2.66312 3.92883 2.81607 3.99503 2.96388 4.05917C3.00458 4.0767 3.05689 4.08483 3.11129 4.08189C3.20498 4.07682 3.353 4.03748 3.52687 3.87871C3.55151 3.85609 3.56975 3.85262 3.58134 3.852C3.60161 3.8509 3.62642 3.85896 3.65498 3.87595L4.31379 4.26549C4.33874 4.28019 4.35484 4.2987 4.35733 4.34482C4.35946 4.3841 4.34741 4.39967 4.31232 4.4387Z" fill="black" stroke="black" stroke-width="0.1"/>
</svg>
