<svg width="89" height="89" viewBox="0 0 89 89" fill="none" xmlns="http://www.w3.org/2000/svg">
<g clip-path="url(#clip0_76_2)">
<path d="M44.5 0C35.6988 0 27.0951 2.60988 19.7771 7.4996C12.4592 12.3893 6.75548 19.3393 3.38738 27.4706C0.0192811 35.6019 -0.861967 44.5494 0.855075 53.1815C2.57212 61.8137 6.81033 69.7428 13.0338 75.9663C19.2572 82.1897 27.1863 86.4279 35.8185 88.1449C44.4507 89.862 53.3981 88.9807 61.5294 85.6126C69.6607 82.2445 76.6107 76.5409 81.5004 69.2229C86.3901 61.9049 89 53.3013 89 44.5C88.9812 32.7036 84.2868 21.3958 75.9455 13.0545C67.6042 4.71325 56.2964 0.018829 44.5 0ZM63.2256 45.9952L34.7456 63.7952C34.4652 63.9648 34.1473 64.0626 33.82 64.08C33.5218 64.0815 33.228 64.008 32.9656 63.8664C32.6872 63.7098 32.455 63.4825 32.2925 63.2075C32.1299 62.9325 32.0429 62.6194 32.04 62.3V26.7C32.0429 26.3806 32.1299 26.0675 32.2925 25.7925C32.455 25.5175 32.6872 25.2902 32.9656 25.1336C33.2391 24.9669 33.5532 24.8788 33.8734 24.8788C34.1937 24.8788 34.5078 24.9669 34.7812 25.1336L63.2612 42.9336C63.5193 43.0887 63.7328 43.3078 63.881 43.5699C64.0292 43.8319 64.1071 44.1278 64.1071 44.4288C64.1071 44.7298 64.0292 45.0257 63.881 45.2877C63.7328 45.5498 63.5193 45.7689 63.2612 45.924L63.2256 45.9952Z" fill="#0E1D25"/>
</g>
<defs>
<clipPath id="clip0_76_2">
<rect width="89" height="89" fill="white"/>
</clipPath>
</defs>
</svg>
