<svg width="83" height="74" viewBox="0 0 83 74" fill="none" xmlns="http://www.w3.org/2000/svg">
<path fill-rule="evenodd" clip-rule="evenodd" d="M15.4173 73C15.905 73 16.356 72.7229 16.5731 72.279L23.2889 58.6091H74.808C78.7567 58.6091 81.969 55.3968 81.969 51.4488L81.9684 8.28897C81.9684 4.34093 78.7561 1.12799 74.808 1.12799H8.16101C4.21361 1.12799 1.00003 4.34028 1.00003 8.28897V51.4475C1.00003 55.3961 4.21297 58.6084 8.16101 58.6084L10.5731 58.6078L14.1726 72.0439C14.3227 72.6044 14.8349 73 15.4173 73ZM74.808 3.70568C77.3355 3.70568 79.3919 5.76153 79.3919 8.28961L79.3913 51.4481C79.3913 53.9755 77.3355 56.032 74.8074 56.032L22.4855 56.0314C21.994 56.0314 21.5456 56.311 21.3297 56.7517L15.773 68.063L12.8055 56.9862C12.4376 55.6126 10.3786 56.0314 8.15972 56.0314C5.63292 56.0314 3.57708 53.9755 3.57708 51.4475V8.28897C3.57708 5.76153 5.63292 3.70504 8.15972 3.70504H74.808V3.70568Z" fill="black" stroke="black" stroke-width="2"/>
<path d="M69.499 40.7894V45.3239L28.1216 44.7571L32.0893 40.7894H69.499Z" fill="black"/>
<path d="M40.7059 11.3151C41.8916 11.3151 42.5067 11.4079 44.1213 12.7621C45.7697 14.145 46.0664 15.2228 46.1354 16.423C46.2087 17.7145 45.7733 19.2831 44.5632 20.5106L21.597 43.5072C21.2233 43.8489 21.1443 43.8302 20.895 43.9051L13.5469 45.7441C12.4891 45.9593 11.4961 44.9894 11.7145 43.9101L13.5519 36.5523C13.6238 36.312 13.6475 36.1803 13.9493 35.8493C21.6351 28.1533 29.1793 20.3127 37.0082 12.7621C38.0292 11.8015 39.521 11.3151 40.7059 11.3151ZM40.7059 14.2961C40.0879 14.3076 39.4858 14.563 39.0453 14.9983L16.3816 37.6927L15.2563 42.1976L19.756 41.0716C27.3326 33.485 35.1471 26.1286 42.4844 18.3103C43.6873 16.9972 42.8034 14.3868 40.8274 14.2975C40.7871 14.2961 40.7469 14.2954 40.7059 14.2961Z" fill="black" stroke="black"/>
</svg>
