<svg width="85" height="75" viewBox="0 0 85 75" fill="none" xmlns="http://www.w3.org/2000/svg">
<path fill-rule="evenodd" clip-rule="evenodd" d="M68.5962 74C68.1008 74 67.6427 73.7186 67.4222 73.2678L60.601 59.3832H8.27336C4.26271 59.3832 1 56.1205 1 52.1105L1.00065 8.27337C1.00065 4.26336 4.26336 1 8.27336 1H75.9664C79.9757 1 83.2398 4.26271 83.2398 8.27337V52.1092C83.2398 56.1199 79.9764 59.3826 75.9664 59.3826L73.5164 59.3819L69.8604 73.0289C69.708 73.5982 69.1877 74 68.5962 74ZM8.27336 3.61815C5.70626 3.61815 3.6175 5.70626 3.6175 8.27402L3.61815 52.1099C3.61815 54.677 5.70626 56.7658 8.27402 56.7658L61.417 56.7651C61.9163 56.7651 62.3718 57.0491 62.591 57.4967L68.235 68.9855L71.249 57.7349C71.6227 56.3398 73.714 56.7651 75.9677 56.7651C78.5341 56.7651 80.6223 54.677 80.6223 52.1092V8.27337C80.6223 5.70626 78.5341 3.6175 75.9677 3.6175H8.27336V3.61815Z" fill="black" stroke="black" stroke-width="2"/>
<line x1="16" y1="21" x2="68" y2="21" stroke="black" stroke-width="4"/>
<line x1="16" y1="38" x2="53" y2="38" stroke="black" stroke-width="4"/>
</svg>
