<svg width="417" height="415" viewBox="0 0 417 415" fill="none" xmlns="http://www.w3.org/2000/svg">
<path d="M381.354 379H190" stroke="black" stroke-width="16" stroke-linecap="round" stroke-linejoin="round"/>
<path d="M327.892 47.5949L368.436 88.1371C385.227 104.93 385.227 132.157 368.436 148.951L158.372 359.014C151.445 365.94 142.36 370.294 132.621 371.355L63.4799 378.887C48.3028 380.538 35.491 367.727 37.144 352.551L44.6743 283.408C45.735 273.67 50.0892 264.585 57.0163 257.658L267.08 47.5949C283.872 30.8017 311.1 30.8017 327.892 47.5949Z" stroke="black" stroke-width="20"/>
<path d="M267.462 47.5949C284.254 30.8017 311.483 30.8017 328.274 47.5949L368.818 88.1371C385.61 104.93 385.61 132.157 368.818 148.951L334.356 183.411L233 82.0558L267.462 47.5949Z" stroke="black" stroke-width="20"/>
</svg>
