<svg width="88" height="88" viewBox="0 0 88 88" fill="none" xmlns="http://www.w3.org/2000/svg">
<path d="M12.9734 13.1054L12.9738 13.105C20.6429 5.38336 31.2197 0.574165 42.8996 0.517456L42.9169 0.5H43.1254C54.8876 0.5 65.5452 5.30313 73.2605 13.0885L73.2609 13.0889C80.9587 20.8736 85.734 31.6255 85.734 43.4907C85.734 47.6567 85.1393 51.7031 84.0348 55.527C82.9879 59.1657 81.4699 62.6075 79.5604 65.7722L87.2995 84.8191C87.5242 85.2457 87.5609 85.7514 87.4052 86.2229C87.0858 87.1897 86.0509 87.7327 85.0746 87.4044L64.7164 80.5623C61.6127 82.3928 58.2645 83.8608 54.7352 84.8687C51.0293 85.9323 47.1365 86.4983 43.1086 86.4983C31.3463 86.4983 20.6887 81.6951 12.9734 73.9098L12.973 73.9094C5.27527 66.1246 0.5 55.3728 0.5 43.5076C0.5 31.6429 5.25816 20.8907 12.9734 13.1054ZM82.4293 82.6523L75.8014 66.3394L75.801 66.3384C75.5507 65.7185 75.6608 65.0343 76.037 64.5288C77.9561 61.4533 79.4779 58.0954 80.5039 54.5387C81.4992 51.057 82.0465 47.3578 82.0465 43.5246C82.0465 32.6783 77.6846 22.8546 70.6355 15.7415C63.5864 8.6285 53.8531 4.22876 43.1086 4.22876C32.711 4.22876 23.2602 8.34902 16.2727 15.0612L15.5985 15.7415C8.54939 22.8546 4.18742 32.6783 4.18742 43.5246C4.18742 54.3708 8.54939 64.1945 15.5985 71.3076C22.6475 78.4206 32.3809 82.8203 43.1254 82.8203C46.8087 82.8203 50.3732 82.3181 53.7366 81.3484C57.219 80.3444 60.5027 78.8718 63.5212 76.9974L63.5233 76.9961C64.0478 76.6739 64.681 76.6478 65.2066 76.87L82.4293 82.6523Z" fill="black" stroke="black"/>
<path d="M40.9841 53.9448L41.3293 53.9349L41.4503 54.4473H45.7382H46.2289L46.2382 53.9568C46.2718 52.1758 46.3899 50.937 46.5901 50.2131C46.7947 49.4735 47.0899 48.8403 47.5042 48.2726L47.5056 48.2706C47.9057 47.7166 48.8216 46.8105 50.2744 45.5096C52.456 43.5816 53.9527 41.9059 54.7341 40.5028C55.5174 39.0966 55.9071 37.5493 55.9071 35.8875C55.9071 33 54.8009 30.5473 52.5829 28.523C50.3511 26.486 47.3952 25.5 43.754 25.5C40.3167 25.5 37.4987 26.4174 35.3521 28.3153C33.1859 30.2156 31.935 32.9309 31.5038 36.3975L31.4419 36.8952L31.9398 36.9556L36.5136 37.5105L36.992 37.5685L37.0676 37.0926C37.4619 34.612 38.2553 32.8855 39.4206 31.7968C40.5818 30.7131 42.0374 30.149 43.8213 30.149C45.6657 30.149 47.203 30.7589 48.4496 31.9744C49.7255 33.2188 50.3333 34.6068 50.3333 36.1902C50.3333 37.068 50.1344 37.8541 49.712 38.5783C49.2836 39.3126 48.3427 40.362 46.8035 41.7171L46.8015 41.7189C45.2738 43.0787 44.1706 44.1275 43.5549 44.8664L43.5538 44.8677C42.7178 45.8778 42.116 46.8823 41.7237 47.8987C41.2089 49.2302 40.9503 50.8072 40.9503 52.6021C40.9503 52.8222 40.9599 53.1383 40.9716 53.5249C40.9757 53.6569 40.9799 53.7972 40.9841 53.9448ZM40.7149 62.8595V63.3595H41.2149H46.2763H46.7763V62.8595V57.7812V57.2812H46.2763H41.2149H40.7149V57.7812V62.8595Z" fill="black" stroke="black"/>
</svg>
