<svg width="95" height="95" viewBox="0 0 95 95" fill="none" xmlns="http://www.w3.org/2000/svg">
<path d="M56.9087 66.0713C56.1613 66.0678 55.4342 65.8273 54.8323 65.3845L46.834 59.572L38.8339 65.3845C38.2306 65.8222 37.5043 66.0579 36.7588 66.0577C36.0134 66.0573 35.2872 65.8213 34.684 65.383C34.0811 64.9448 33.6321 64.327 33.4016 63.6181C33.1712 62.9092 33.1711 62.1454 33.4011 61.4365L36.4556 52.0328L28.4556 46.2204C27.8523 45.782 27.4031 45.1638 27.1727 44.4546C26.9423 43.7451 26.9425 42.9812 27.1731 42.2719C27.4035 41.5626 27.8526 40.9447 28.4561 40.5065C29.0594 40.068 29.7862 39.8322 30.532 39.8323H40.4195L43.4793 30.4286C43.7115 29.722 44.1608 29.1069 44.7633 28.6708C45.3655 28.2347 46.0903 28 46.834 28C47.5777 28 48.3023 28.2347 48.9047 28.6708C49.5071 29.1069 49.9565 29.722 50.1887 30.4286L53.2485 39.8323H63.136C63.8818 39.8322 64.6084 40.068 65.2119 40.5065C65.8153 40.9447 66.2643 41.5626 66.4949 42.2719C66.7255 42.9812 66.7255 43.7451 66.4951 44.4546C66.2647 45.1638 65.8157 45.782 65.2124 46.2204L57.2123 52.0328L60.2669 61.4365C60.5061 62.1447 60.5107 62.9112 60.2801 63.6222C60.0495 64.3334 59.5961 64.9512 58.9868 65.3845C58.3844 65.8276 57.6566 66.0681 56.9087 66.0713ZM46.834 56.039C47.5796 56.0397 48.3058 56.2765 48.9086 56.7152L56.9087 62.5277L53.8541 53.124C53.6219 52.4149 53.6209 51.6505 53.8513 50.9409C54.0817 50.2313 54.5316 49.6134 55.136 49.176L63.136 43.3636H53.2485C52.5034 43.3627 51.7776 43.1263 51.1751 42.6881C50.5725 42.2497 50.1241 41.632 49.8938 40.9235L46.834 31.5198V31.4986L43.7795 40.9235C43.5489 41.6329 43.0997 42.2512 42.496 42.6895C41.8924 43.1279 41.1655 43.3638 40.4195 43.3636H30.532L38.5356 49.176C39.1383 49.6143 39.5868 50.232 39.8172 50.9409C40.0475 51.6497 40.0475 52.4133 39.8174 53.1222L36.7629 62.5277L44.7612 56.7152C45.3634 56.2768 46.0889 56.0401 46.834 56.039Z" fill="black"/>
<path d="M91 47.5C91 44.695 87.754 42.25 87.229 39.595C86.689 36.8635 88.741 33.3625 87.6985 30.8485C86.638 28.2985 82.7005 27.2725 81.1795 24.9985C79.6585 22.7245 80.2015 18.682 78.2605 16.7395C76.3195 14.797 72.292 15.355 70 13.8205C67.708 12.286 66.7 8.362 64.15 7.3015C61.6375 6.259 58.135 8.311 55.4035 7.771C52.75 7.246 50.305 4 47.5 4C44.695 4 42.25 7.246 39.595 7.771C36.8635 8.311 33.3625 6.259 30.8485 7.3015C28.2985 8.362 27.2725 12.2995 24.9985 13.8205C22.7245 15.3415 18.682 14.7985 16.7395 16.7395C14.797 18.6805 15.355 22.708 13.8205 25C12.286 27.292 8.362 28.3 7.3015 30.85C6.259 33.364 8.311 36.8665 7.771 39.598C7.246 42.25 4 44.695 4 47.5C4 50.305 7.246 52.75 7.771 55.405C8.311 58.1365 6.259 61.6375 7.3015 64.1515C8.362 66.7015 12.2995 67.7275 13.8205 70.0015C15.3415 72.2755 14.7985 76.318 16.7395 78.2605C18.6805 80.203 22.708 79.6465 24.9985 81.181C27.289 82.7155 28.2985 86.6395 30.8485 87.7C33.361 88.75 36.8635 86.6905 39.595 87.2305C42.25 87.754 44.695 91 47.5 91C50.305 91 52.75 87.754 55.405 87.229C58.1365 86.689 61.6375 88.741 64.1515 87.6985C66.7015 86.638 67.7275 82.7005 70.0015 81.1795C72.2755 79.6585 76.318 80.2015 78.2605 78.2605C80.203 76.3195 79.645 72.292 81.1795 70C82.714 67.708 86.638 66.7 87.6985 64.15C88.7485 61.6375 86.689 58.135 87.229 55.4035C87.754 52.75 91 50.305 91 47.5ZM47.5 79C41.2699 79 35.1798 77.1526 29.9995 73.6913C24.8194 70.2301 20.782 65.3104 18.3978 59.5546C16.0136 53.7986 15.3898 47.465 16.6052 41.3546C17.8207 35.2442 20.8209 29.6316 25.2262 25.2262C29.6316 20.8209 35.2442 17.8207 41.3546 16.6052C47.465 15.3898 53.7986 16.0136 59.5546 18.3978C65.3104 20.782 70.2301 24.8194 73.6913 29.9995C77.1526 35.1798 79 41.2699 79 47.5C79 55.8542 75.6813 63.8665 69.7738 69.7738C63.8665 75.6813 55.8542 79 47.5 79Z" fill="white"/>
<path d="M47.5 82C40.6765 82 34.0063 79.9766 28.3329 76.1857C22.6594 72.3949 18.2374 67.0066 15.6263 60.7025C13.0149 54.3986 12.3318 47.4618 13.6629 40.7694C14.9941 34.077 18.2799 27.9297 23.1049 23.1049C27.9297 18.2799 34.077 14.9941 40.7694 13.6629C47.4618 12.3318 54.3986 13.0149 60.7025 15.6263C67.0066 18.2374 72.3949 22.6594 76.1857 28.3329C79.9766 34.0063 82 40.6765 82 47.5C81.9896 56.6467 78.3515 65.416 71.8838 71.8838C65.416 78.3515 56.6467 81.9896 47.5 82ZM47.5 16.1364C41.2969 16.1364 35.2331 17.9759 30.0753 21.4221C24.9176 24.8683 20.8977 29.7667 18.5238 35.4976C16.15 41.2287 15.5289 47.5348 16.739 53.6187C17.9492 59.7027 20.9363 65.2912 25.3226 69.6774C29.7088 74.0638 35.2974 77.0508 41.3813 78.261C47.4652 79.4712 53.7715 78.8502 59.5024 76.4762C65.2333 74.1025 70.1317 70.0825 73.5779 64.9247C77.0242 59.767 78.8636 53.7031 78.8636 47.5C78.8541 39.1847 75.5466 31.2129 69.6669 25.3331C63.7871 19.4534 55.8153 16.146 47.5 16.1364Z" fill="black"/>
<mask id="path-4-outside-1_20_2" maskUnits="userSpaceOnUse" x="0" y="0" width="95" height="95" fill="black">
<rect fill="white" width="95" height="95"/>
<path d="M47.5 93C45.5487 92.8046 43.7018 92.0249 42.2008 90.7629C41.3102 90.0516 40.2978 89.5079 39.2129 89.1583C38.0345 89.0571 36.8475 89.1727 35.7109 89.4995C33.8831 90.0863 31.92 90.1027 30.0826 89.5465C28.3713 88.6237 26.9777 87.2066 26.0831 85.4804C25.5261 84.4657 24.7873 83.5619 23.9037 82.8141C22.8658 82.2757 21.7379 81.9323 20.5761 81.8009C18.6528 81.6346 16.8237 80.8949 15.3254 79.6776C14.1089 78.1794 13.3693 76.3511 13.2021 74.4284C13.0707 73.2668 12.7278 72.139 12.1905 71.1009C11.4411 70.2154 10.5359 69.4747 9.51963 68.9153C7.79336 68.0214 6.37642 66.6283 5.45345 64.9174C4.89648 63.0797 4.91288 61.1157 5.50047 59.2875C5.82713 58.1514 5.94279 56.9649 5.84172 55.7871C5.49216 54.7022 4.94846 53.6898 4.23708 52.7992C2.97508 51.2982 2.19539 49.4513 2 47.5C2.19539 45.5487 2.97508 43.7018 4.23708 42.2008C4.94846 41.3102 5.49216 40.2978 5.84172 39.2129C5.94274 38.0346 5.82708 36.8477 5.50047 35.7109C4.91359 33.8832 4.89718 31.9199 5.45345 30.0826C6.3764 28.3713 7.79332 26.9777 9.51963 26.0831C10.5343 25.5261 11.4381 24.7873 12.1859 23.9037C12.7244 22.8658 13.0678 21.7379 13.1991 20.5761C13.3654 18.6528 14.1051 16.8237 15.3224 15.3254C16.8206 14.1089 18.6489 13.3693 20.5716 13.2021C21.7332 13.0707 22.861 12.7278 23.8991 12.1905C24.7846 11.4411 25.5253 10.5359 26.0847 9.51963C26.9786 7.79336 28.3716 6.37642 30.0826 5.45345C31.9206 4.89802 33.884 4.91443 35.7125 5.50047C36.8489 5.82546 38.0351 5.94109 39.2129 5.84172C40.2978 5.49216 41.3102 4.94846 42.2008 4.23708C43.7018 2.97508 45.5487 2.19539 47.5 2C49.4513 2.19539 51.2982 2.97508 52.7992 4.23708C53.6898 4.94846 54.7022 5.49216 55.7871 5.84172C56.9654 5.94204 58.1522 5.8264 59.289 5.50047C61.1169 4.91435 63.08 4.89796 64.9174 5.45345C66.6287 6.3764 68.0223 7.79332 68.9168 9.51963C69.4739 10.5343 70.2127 11.4381 71.0963 12.1859C72.1342 12.7244 73.2621 13.0678 74.4239 13.1991C76.3472 13.3654 78.1763 14.1051 79.6746 15.3224C80.8911 16.8206 81.6308 18.6489 81.7979 20.5716C81.9292 21.7332 82.2722 22.861 82.8095 23.8991C83.5581 24.782 84.4616 25.5206 85.4758 26.0786C87.2021 26.9725 88.6191 28.3656 89.542 30.0765C90.0989 31.9143 90.0825 33.8782 89.495 35.7064C89.1683 36.8425 89.0527 38.029 89.1537 39.2069C89.5033 40.2917 90.0471 41.3041 90.7584 42.1947C92.0231 43.6968 92.8045 45.5461 93 47.5C92.8046 49.4513 92.0249 51.2982 90.7629 52.7992C90.0516 53.6898 89.5079 54.7022 89.1583 55.7871C89.0573 56.9654 89.173 58.1523 89.4995 59.289C90.0865 61.1168 90.1029 63.0801 89.5465 64.9174C88.6237 66.6287 87.2066 68.0223 85.4804 68.9168C84.4657 69.4739 83.5619 70.2127 82.8141 71.0963C82.2757 72.1342 81.9323 73.2621 81.8009 74.4239C81.6346 76.3472 80.8949 78.1763 79.6776 79.6746C78.1794 80.8911 76.3511 81.6308 74.4284 81.7979C73.2668 81.9292 72.139 82.2722 71.1009 82.8095C70.218 83.5581 69.4794 84.4616 68.9214 85.4758C68.0275 87.2021 66.6344 88.6191 64.9235 89.542C63.0859 90.0997 61.1216 90.0833 59.2936 89.495C58.1572 89.17 56.971 89.0544 55.7931 89.1537C54.7083 89.5033 53.6959 90.0471 52.8053 90.7584C51.3032 92.0231 49.4539 92.8045 47.5 93ZM38.4774 86.0597C38.9216 86.0576 39.3651 86.0987 39.8014 86.1826C41.2968 86.5919 42.6946 87.2981 43.9116 88.2589C44.9318 89.1413 46.1717 89.7313 47.5 89.9667C48.8283 89.7313 50.0682 89.1413 51.0884 88.2589C52.3054 87.2981 53.7032 86.5919 55.1986 86.1826C56.7764 85.9827 58.3783 86.1013 59.9094 86.5314C61.1498 86.9426 62.4774 87.0158 63.7556 86.7438C64.8742 86.0229 65.7784 85.0145 66.3734 83.8242C67.1373 82.4557 68.169 81.2548 69.4067 80.2934C70.7766 79.5088 72.2905 79.0084 73.8582 78.8222C75.1754 78.726 76.443 78.28 77.53 77.53C78.2804 76.4442 78.7271 75.1775 78.8237 73.8612C79.0098 72.2934 79.5108 70.7792 80.2964 69.4098C81.2577 68.1723 82.4578 67.1407 83.8257 66.3764C85.0169 65.7814 86.0259 64.8766 86.7468 63.7572C87.0175 62.4788 86.9436 61.1514 86.5329 59.9109C86.1031 58.3797 85.985 56.7778 86.1856 55.2001C86.595 53.7047 87.3011 52.3069 88.2619 51.09C89.1434 50.0689 89.7325 48.8284 89.9667 47.5C89.7313 46.1717 89.1413 44.9318 88.2589 43.9116C87.2981 42.6946 86.5919 41.2968 86.1826 39.8014C85.9818 38.2236 86.1004 36.6216 86.5314 35.0906C86.9411 33.8498 87.0143 32.5226 86.7438 31.2444C86.0229 30.1258 85.0145 29.2216 83.8242 28.6266C82.4557 27.8627 81.2548 26.831 80.2934 25.5933C79.5088 24.2234 79.0084 22.7095 78.8222 21.1418C78.726 19.8246 78.28 18.557 77.53 17.47C76.4442 16.7196 75.1775 16.2729 73.8612 16.1763C72.2934 15.9902 70.7792 15.4892 69.4098 14.7036C68.1723 13.7424 67.1407 12.5422 66.3764 11.1743C65.7814 9.98314 64.8766 8.97413 63.7572 8.25322C62.4788 7.9817 61.1512 8.05552 59.9109 8.46707C58.3794 8.89521 56.7779 9.01328 55.2001 8.81438C53.7047 8.40499 52.3069 7.69887 51.09 6.73807C50.0689 5.85658 48.8284 5.26755 47.5 5.03333C46.1717 5.26869 44.9318 5.85876 43.9116 6.7411C42.6954 7.70461 41.2974 8.41333 39.8014 8.825C38.2236 9.02427 36.6219 8.90566 35.0906 8.47617C33.8497 8.06729 32.5228 7.99403 31.2444 8.26383C30.1269 8.98264 29.2228 9.98831 28.6266 11.1758C27.8627 12.5444 26.831 13.7452 25.5933 14.7066C24.2234 15.4912 22.7095 15.9916 21.1418 16.1778C19.8246 16.274 18.557 16.72 17.47 17.47C16.7196 18.5558 16.2729 19.8225 16.1763 21.1388C15.9902 22.7066 15.4892 24.2208 14.7036 25.5902C13.7424 26.8277 12.5422 27.8593 11.1743 28.6236C9.98314 29.2186 8.97413 30.1234 8.25322 31.2428C7.98252 32.5212 8.05632 33.8486 8.46707 35.0891C8.90062 36.62 9.02235 38.2225 8.825 39.8014C8.41561 41.2968 7.70949 42.6946 6.74868 43.9116C5.8636 44.9311 5.27087 46.1709 5.03333 47.5C5.26869 48.8283 5.85876 50.0682 6.7411 51.0884C7.70461 52.3046 8.41333 53.7026 8.825 55.1986C9.02584 56.7764 8.9072 58.3784 8.47617 59.9094C8.0665 61.1502 7.99323 62.4774 8.26383 63.7556C8.98264 64.8731 9.98831 65.7772 11.1758 66.3734C12.5444 67.1373 13.7452 68.169 14.7066 69.4067C15.4912 70.7766 15.9916 72.2905 16.1778 73.8582C16.274 75.1754 16.72 76.443 17.47 77.53C18.5558 78.2804 19.8225 78.7271 21.1388 78.8237C22.7066 79.0098 24.2208 79.5108 25.5902 80.2964C26.8277 81.2577 27.8593 82.4578 28.6236 83.8257C29.2186 85.0169 30.1234 86.0259 31.2428 86.7468C32.5212 87.0167 33.8485 86.9429 35.0891 86.5329C36.1995 86.2602 37.3348 86.1016 38.4774 86.0597Z"/>
</mask>
<path d="M47.5 93C45.5487 92.8046 43.7018 92.0249 42.2008 90.7629C41.3102 90.0516 40.2978 89.5079 39.2129 89.1583C38.0345 89.0571 36.8475 89.1727 35.7109 89.4995C33.8831 90.0863 31.92 90.1027 30.0826 89.5465C28.3713 88.6237 26.9777 87.2066 26.0831 85.4804C25.5261 84.4657 24.7873 83.5619 23.9037 82.8141C22.8658 82.2757 21.7379 81.9323 20.5761 81.8009C18.6528 81.6346 16.8237 80.8949 15.3254 79.6776C14.1089 78.1794 13.3693 76.3511 13.2021 74.4284C13.0707 73.2668 12.7278 72.139 12.1905 71.1009C11.4411 70.2154 10.5359 69.4747 9.51963 68.9153C7.79336 68.0214 6.37642 66.6283 5.45345 64.9174C4.89648 63.0797 4.91288 61.1157 5.50047 59.2875C5.82713 58.1514 5.94279 56.9649 5.84172 55.7871C5.49216 54.7022 4.94846 53.6898 4.23708 52.7992C2.97508 51.2982 2.19539 49.4513 2 47.5C2.19539 45.5487 2.97508 43.7018 4.23708 42.2008C4.94846 41.3102 5.49216 40.2978 5.84172 39.2129C5.94274 38.0346 5.82708 36.8477 5.50047 35.7109C4.91359 33.8832 4.89718 31.9199 5.45345 30.0826C6.3764 28.3713 7.79332 26.9777 9.51963 26.0831C10.5343 25.5261 11.4381 24.7873 12.1859 23.9037C12.7244 22.8658 13.0678 21.7379 13.1991 20.5761C13.3654 18.6528 14.1051 16.8237 15.3224 15.3254C16.8206 14.1089 18.6489 13.3693 20.5716 13.2021C21.7332 13.0707 22.861 12.7278 23.8991 12.1905C24.7846 11.4411 25.5253 10.5359 26.0847 9.51963C26.9786 7.79336 28.3716 6.37642 30.0826 5.45345C31.9206 4.89802 33.884 4.91443 35.7125 5.50047C36.8489 5.82546 38.0351 5.94109 39.2129 5.84172C40.2978 5.49216 41.3102 4.94846 42.2008 4.23708C43.7018 2.97508 45.5487 2.19539 47.5 2C49.4513 2.19539 51.2982 2.97508 52.7992 4.23708C53.6898 4.94846 54.7022 5.49216 55.7871 5.84172C56.9654 5.94204 58.1522 5.8264 59.289 5.50047C61.1169 4.91435 63.08 4.89796 64.9174 5.45345C66.6287 6.3764 68.0223 7.79332 68.9168 9.51963C69.4739 10.5343 70.2127 11.4381 71.0963 12.1859C72.1342 12.7244 73.2621 13.0678 74.4239 13.1991C76.3472 13.3654 78.1763 14.1051 79.6746 15.3224C80.8911 16.8206 81.6308 18.6489 81.7979 20.5716C81.9292 21.7332 82.2722 22.861 82.8095 23.8991C83.5581 24.782 84.4616 25.5206 85.4758 26.0786C87.2021 26.9725 88.6191 28.3656 89.542 30.0765C90.0989 31.9143 90.0825 33.8782 89.495 35.7064C89.1683 36.8425 89.0527 38.029 89.1537 39.2069C89.5033 40.2917 90.0471 41.3041 90.7584 42.1947C92.0231 43.6968 92.8045 45.5461 93 47.5C92.8046 49.4513 92.0249 51.2982 90.7629 52.7992C90.0516 53.6898 89.5079 54.7022 89.1583 55.7871C89.0573 56.9654 89.173 58.1523 89.4995 59.289C90.0865 61.1168 90.1029 63.0801 89.5465 64.9174C88.6237 66.6287 87.2066 68.0223 85.4804 68.9168C84.4657 69.4739 83.5619 70.2127 82.8141 71.0963C82.2757 72.1342 81.9323 73.2621 81.8009 74.4239C81.6346 76.3472 80.8949 78.1763 79.6776 79.6746C78.1794 80.8911 76.3511 81.6308 74.4284 81.7979C73.2668 81.9292 72.139 82.2722 71.1009 82.8095C70.218 83.5581 69.4794 84.4616 68.9214 85.4758C68.0275 87.2021 66.6344 88.6191 64.9235 89.542C63.0859 90.0997 61.1216 90.0833 59.2936 89.495C58.1572 89.17 56.971 89.0544 55.7931 89.1537C54.7083 89.5033 53.6959 90.0471 52.8053 90.7584C51.3032 92.0231 49.4539 92.8045 47.5 93ZM38.4774 86.0597C38.9216 86.0576 39.3651 86.0987 39.8014 86.1826C41.2968 86.5919 42.6946 87.2981 43.9116 88.2589C44.9318 89.1413 46.1717 89.7313 47.5 89.9667C48.8283 89.7313 50.0682 89.1413 51.0884 88.2589C52.3054 87.2981 53.7032 86.5919 55.1986 86.1826C56.7764 85.9827 58.3783 86.1013 59.9094 86.5314C61.1498 86.9426 62.4774 87.0158 63.7556 86.7438C64.8742 86.0229 65.7784 85.0145 66.3734 83.8242C67.1373 82.4557 68.169 81.2548 69.4067 80.2934C70.7766 79.5088 72.2905 79.0084 73.8582 78.8222C75.1754 78.726 76.443 78.28 77.53 77.53C78.2804 76.4442 78.7271 75.1775 78.8237 73.8612C79.0098 72.2934 79.5108 70.7792 80.2964 69.4098C81.2577 68.1723 82.4578 67.1407 83.8257 66.3764C85.0169 65.7814 86.0259 64.8766 86.7468 63.7572C87.0175 62.4788 86.9436 61.1514 86.5329 59.9109C86.1031 58.3797 85.985 56.7778 86.1856 55.2001C86.595 53.7047 87.3011 52.3069 88.2619 51.09C89.1434 50.0689 89.7325 48.8284 89.9667 47.5C89.7313 46.1717 89.1413 44.9318 88.2589 43.9116C87.2981 42.6946 86.5919 41.2968 86.1826 39.8014C85.9818 38.2236 86.1004 36.6216 86.5314 35.0906C86.9411 33.8498 87.0143 32.5226 86.7438 31.2444C86.0229 30.1258 85.0145 29.2216 83.8242 28.6266C82.4557 27.8627 81.2548 26.831 80.2934 25.5933C79.5088 24.2234 79.0084 22.7095 78.8222 21.1418C78.726 19.8246 78.28 18.557 77.53 17.47C76.4442 16.7196 75.1775 16.2729 73.8612 16.1763C72.2934 15.9902 70.7792 15.4892 69.4098 14.7036C68.1723 13.7424 67.1407 12.5422 66.3764 11.1743C65.7814 9.98314 64.8766 8.97413 63.7572 8.25322C62.4788 7.9817 61.1512 8.05552 59.9109 8.46707C58.3794 8.89521 56.7779 9.01328 55.2001 8.81438C53.7047 8.40499 52.3069 7.69887 51.09 6.73807C50.0689 5.85658 48.8284 5.26755 47.5 5.03333C46.1717 5.26869 44.9318 5.85876 43.9116 6.7411C42.6954 7.70461 41.2974 8.41333 39.8014 8.825C38.2236 9.02427 36.6219 8.90566 35.0906 8.47617C33.8497 8.06729 32.5228 7.99403 31.2444 8.26383C30.1269 8.98264 29.2228 9.98831 28.6266 11.1758C27.8627 12.5444 26.831 13.7452 25.5933 14.7066C24.2234 15.4912 22.7095 15.9916 21.1418 16.1778C19.8246 16.274 18.557 16.72 17.47 17.47C16.7196 18.5558 16.2729 19.8225 16.1763 21.1388C15.9902 22.7066 15.4892 24.2208 14.7036 25.5902C13.7424 26.8277 12.5422 27.8593 11.1743 28.6236C9.98314 29.2186 8.97413 30.1234 8.25322 31.2428C7.98252 32.5212 8.05632 33.8486 8.46707 35.0891C8.90062 36.62 9.02235 38.2225 8.825 39.8014C8.41561 41.2968 7.70949 42.6946 6.74868 43.9116C5.8636 44.9311 5.27087 46.1709 5.03333 47.5C5.26869 48.8283 5.85876 50.0682 6.7411 51.0884C7.70461 52.3046 8.41333 53.7026 8.825 55.1986C9.02584 56.7764 8.9072 58.3784 8.47617 59.9094C8.0665 61.1502 7.99323 62.4774 8.26383 63.7556C8.98264 64.8731 9.98831 65.7772 11.1758 66.3734C12.5444 67.1373 13.7452 68.169 14.7066 69.4067C15.4912 70.7766 15.9916 72.2905 16.1778 73.8582C16.274 75.1754 16.72 76.443 17.47 77.53C18.5558 78.2804 19.8225 78.7271 21.1388 78.8237C22.7066 79.0098 24.2208 79.5108 25.5902 80.2964C26.8277 81.2577 27.8593 82.4578 28.6236 83.8257C29.2186 85.0169 30.1234 86.0259 31.2428 86.7468C32.5212 87.0167 33.8485 86.9429 35.0891 86.5329C36.1995 86.2602 37.3348 86.1016 38.4774 86.0597Z" fill="black"/>
<path d="M47.5 93C45.5487 92.8046 43.7018 92.0249 42.2008 90.7629C41.3102 90.0516 40.2978 89.5079 39.2129 89.1583C38.0345 89.0571 36.8475 89.1727 35.7109 89.4995C33.8831 90.0863 31.92 90.1027 30.0826 89.5465C28.3713 88.6237 26.9777 87.2066 26.0831 85.4804C25.5261 84.4657 24.7873 83.5619 23.9037 82.8141C22.8658 82.2757 21.7379 81.9323 20.5761 81.8009C18.6528 81.6346 16.8237 80.8949 15.3254 79.6776C14.1089 78.1794 13.3693 76.3511 13.2021 74.4284C13.0707 73.2668 12.7278 72.139 12.1905 71.1009C11.4411 70.2154 10.5359 69.4747 9.51963 68.9153C7.79336 68.0214 6.37642 66.6283 5.45345 64.9174C4.89648 63.0797 4.91288 61.1157 5.50047 59.2875C5.82713 58.1514 5.94279 56.9649 5.84172 55.7871C5.49216 54.7022 4.94846 53.6898 4.23708 52.7992C2.97508 51.2982 2.19539 49.4513 2 47.5C2.19539 45.5487 2.97508 43.7018 4.23708 42.2008C4.94846 41.3102 5.49216 40.2978 5.84172 39.2129C5.94274 38.0346 5.82708 36.8477 5.50047 35.7109C4.91359 33.8832 4.89718 31.9199 5.45345 30.0826C6.3764 28.3713 7.79332 26.9777 9.51963 26.0831C10.5343 25.5261 11.4381 24.7873 12.1859 23.9037C12.7244 22.8658 13.0678 21.7379 13.1991 20.5761C13.3654 18.6528 14.1051 16.8237 15.3224 15.3254C16.8206 14.1089 18.6489 13.3693 20.5716 13.2021C21.7332 13.0707 22.861 12.7278 23.8991 12.1905C24.7846 11.4411 25.5253 10.5359 26.0847 9.51963C26.9786 7.79336 28.3716 6.37642 30.0826 5.45345C31.9206 4.89802 33.884 4.91443 35.7125 5.50047C36.8489 5.82546 38.0351 5.94109 39.2129 5.84172C40.2978 5.49216 41.3102 4.94846 42.2008 4.23708C43.7018 2.97508 45.5487 2.19539 47.5 2C49.4513 2.19539 51.2982 2.97508 52.7992 4.23708C53.6898 4.94846 54.7022 5.49216 55.7871 5.84172C56.9654 5.94204 58.1522 5.8264 59.289 5.50047C61.1169 4.91435 63.08 4.89796 64.9174 5.45345C66.6287 6.3764 68.0223 7.79332 68.9168 9.51963C69.4739 10.5343 70.2127 11.4381 71.0963 12.1859C72.1342 12.7244 73.2621 13.0678 74.4239 13.1991C76.3472 13.3654 78.1763 14.1051 79.6746 15.3224C80.8911 16.8206 81.6308 18.6489 81.7979 20.5716C81.9292 21.7332 82.2722 22.861 82.8095 23.8991C83.5581 24.782 84.4616 25.5206 85.4758 26.0786C87.2021 26.9725 88.6191 28.3656 89.542 30.0765C90.0989 31.9143 90.0825 33.8782 89.495 35.7064C89.1683 36.8425 89.0527 38.029 89.1537 39.2069C89.5033 40.2917 90.0471 41.3041 90.7584 42.1947C92.0231 43.6968 92.8045 45.5461 93 47.5C92.8046 49.4513 92.0249 51.2982 90.7629 52.7992C90.0516 53.6898 89.5079 54.7022 89.1583 55.7871C89.0573 56.9654 89.173 58.1523 89.4995 59.289C90.0865 61.1168 90.1029 63.0801 89.5465 64.9174C88.6237 66.6287 87.2066 68.0223 85.4804 68.9168C84.4657 69.4739 83.5619 70.2127 82.8141 71.0963C82.2757 72.1342 81.9323 73.2621 81.8009 74.4239C81.6346 76.3472 80.8949 78.1763 79.6776 79.6746C78.1794 80.8911 76.3511 81.6308 74.4284 81.7979C73.2668 81.9292 72.139 82.2722 71.1009 82.8095C70.218 83.5581 69.4794 84.4616 68.9214 85.4758C68.0275 87.2021 66.6344 88.6191 64.9235 89.542C63.0859 90.0997 61.1216 90.0833 59.2936 89.495C58.1572 89.17 56.971 89.0544 55.7931 89.1537C54.7083 89.5033 53.6959 90.0471 52.8053 90.7584C51.3032 92.0231 49.4539 92.8045 47.5 93ZM38.4774 86.0597C38.9216 86.0576 39.3651 86.0987 39.8014 86.1826C41.2968 86.5919 42.6946 87.2981 43.9116 88.2589C44.9318 89.1413 46.1717 89.7313 47.5 89.9667C48.8283 89.7313 50.0682 89.1413 51.0884 88.2589C52.3054 87.2981 53.7032 86.5919 55.1986 86.1826C56.7764 85.9827 58.3783 86.1013 59.9094 86.5314C61.1498 86.9426 62.4774 87.0158 63.7556 86.7438C64.8742 86.0229 65.7784 85.0145 66.3734 83.8242C67.1373 82.4557 68.169 81.2548 69.4067 80.2934C70.7766 79.5088 72.2905 79.0084 73.8582 78.8222C75.1754 78.726 76.443 78.28 77.53 77.53C78.2804 76.4442 78.7271 75.1775 78.8237 73.8612C79.0098 72.2934 79.5108 70.7792 80.2964 69.4098C81.2577 68.1723 82.4578 67.1407 83.8257 66.3764C85.0169 65.7814 86.0259 64.8766 86.7468 63.7572C87.0175 62.4788 86.9436 61.1514 86.5329 59.9109C86.1031 58.3797 85.985 56.7778 86.1856 55.2001C86.595 53.7047 87.3011 52.3069 88.2619 51.09C89.1434 50.0689 89.7325 48.8284 89.9667 47.5C89.7313 46.1717 89.1413 44.9318 88.2589 43.9116C87.2981 42.6946 86.5919 41.2968 86.1826 39.8014C85.9818 38.2236 86.1004 36.6216 86.5314 35.0906C86.9411 33.8498 87.0143 32.5226 86.7438 31.2444C86.0229 30.1258 85.0145 29.2216 83.8242 28.6266C82.4557 27.8627 81.2548 26.831 80.2934 25.5933C79.5088 24.2234 79.0084 22.7095 78.8222 21.1418C78.726 19.8246 78.28 18.557 77.53 17.47C76.4442 16.7196 75.1775 16.2729 73.8612 16.1763C72.2934 15.9902 70.7792 15.4892 69.4098 14.7036C68.1723 13.7424 67.1407 12.5422 66.3764 11.1743C65.7814 9.98314 64.8766 8.97413 63.7572 8.25322C62.4788 7.9817 61.1512 8.05552 59.9109 8.46707C58.3794 8.89521 56.7779 9.01328 55.2001 8.81438C53.7047 8.40499 52.3069 7.69887 51.09 6.73807C50.0689 5.85658 48.8284 5.26755 47.5 5.03333C46.1717 5.26869 44.9318 5.85876 43.9116 6.7411C42.6954 7.70461 41.2974 8.41333 39.8014 8.825C38.2236 9.02427 36.6219 8.90566 35.0906 8.47617C33.8497 8.06729 32.5228 7.99403 31.2444 8.26383C30.1269 8.98264 29.2228 9.98831 28.6266 11.1758C27.8627 12.5444 26.831 13.7452 25.5933 14.7066C24.2234 15.4912 22.7095 15.9916 21.1418 16.1778C19.8246 16.274 18.557 16.72 17.47 17.47C16.7196 18.5558 16.2729 19.8225 16.1763 21.1388C15.9902 22.7066 15.4892 24.2208 14.7036 25.5902C13.7424 26.8277 12.5422 27.8593 11.1743 28.6236C9.98314 29.2186 8.97413 30.1234 8.25322 31.2428C7.98252 32.5212 8.05632 33.8486 8.46707 35.0891C8.90062 36.62 9.02235 38.2225 8.825 39.8014C8.41561 41.2968 7.70949 42.6946 6.74868 43.9116C5.8636 44.9311 5.27087 46.1709 5.03333 47.5C5.26869 48.8283 5.85876 50.0682 6.7411 51.0884C7.70461 52.3046 8.41333 53.7026 8.825 55.1986C9.02584 56.7764 8.9072 58.3784 8.47617 59.9094C8.0665 61.1502 7.99323 62.4774 8.26383 63.7556C8.98264 64.8731 9.98831 65.7772 11.1758 66.3734C12.5444 67.1373 13.7452 68.169 14.7066 69.4067C15.4912 70.7766 15.9916 72.2905 16.1778 73.8582C16.274 75.1754 16.72 76.443 17.47 77.53C18.5558 78.2804 19.8225 78.7271 21.1388 78.8237C22.7066 79.0098 24.2208 79.5108 25.5902 80.2964C26.8277 81.2577 27.8593 82.4578 28.6236 83.8257C29.2186 85.0169 30.1234 86.0259 31.2428 86.7468C32.5212 87.0167 33.8485 86.9429 35.0891 86.5329C36.1995 86.2602 37.3348 86.1016 38.4774 86.0597Z" stroke="black" stroke-width="2" mask="url(#path-4-outside-1_20_2)"/>
</svg>
