<svg width="22" height="22" viewBox="0 0 22 22" fill="none" xmlns="http://www.w3.org/2000/svg">
<path d="M3.66536 19.25H17.4154C17.9016 19.25 18.3679 19.0568 18.7117 18.713C19.0555 18.3692 19.2487 17.9029 19.2487 17.4167V11.9167H15.582V13.75L11.9154 11L15.582 8.25V10.0833H19.2487V4.58333C19.2487 4.0971 19.0555 3.63079 18.7117 3.28697C18.3679 2.94315 17.9016 2.75 17.4154 2.75H3.66536C3.17913 2.75 2.71282 2.94315 2.369 3.28697C2.02519 3.63079 1.83203 4.0971 1.83203 4.58333V17.4167C1.83203 17.9029 2.02519 18.3692 2.369 18.713C2.71282 19.0568 3.17913 19.25 3.66536 19.25ZM3.66536 13.75H7.33203V15.5833H3.66536V13.75ZM3.66536 10.0833H10.082V11.9167H3.66536V10.0833ZM3.66536 6.41667H10.082V8.25H3.66536V6.41667ZM19.2487 10.0833H21.9987V11.9167H19.2487V10.0833Z" fill="#121212" fill-opacity="0.45"/>
</svg>
