<svg class="svg-icon" style="width: 1em; height: 1em;vertical-align: middle;fill: currentColor;overflow: hidden;" viewBox="0 0 1024 1024" version="1.1" xmlns="http://www.w3.org/2000/svg"><path d="M128 213.333333l0 597.333333c0 46.933333 37.973333 85.333333 85.333333 85.333333l597.333333 0c46.933333 0 85.333333-38.4 85.333333-85.333333L896 213.333333c0-46.933333-38.4-85.333333-85.333333-85.333333L213.333333 128C165.973333 128 128 166.4 128 213.333333zM640 384c0 70.826667-57.173333 128-128 128s-128-57.173333-128-128 57.173333-128 128-128S640 313.173333 640 384zM256 725.333333c0-85.333333 170.666667-132.266667 256-132.266667s256 46.933333 256 132.266667l0 42.666667L256 768 256 725.333333z"  /></svg>