<svg width="35" height="35" viewBox="0 0 35 35" fill="none" xmlns="http://www.w3.org/2000/svg">
<g clip-path="url(#clip0_156_222)">
<g clip-path="url(#clip1_156_222)">
<path fill-rule="evenodd" clip-rule="evenodd" d="M27.0607 18.3947L26.9345 13.7426L19.2572 15.9511C18.5654 16.1024 17.883 16.1745 17.2146 16.1769C16.4971 16.1792 15.7913 16.1024 15.0972 15.9511L7.76348 13.7194V18.4366C7.97382 20.8871 15.0341 21.6364 17.2006 21.7388C18.937 21.8226 25.7963 20.9197 26.6984 19.5117C26.8924 19.2045 27.014 18.8322 27.0607 18.3947ZM30.1713 10.3938V16.0791H30.3513C30.4752 16.0791 30.5756 16.1792 30.5756 16.3025V17.8315C30.5756 17.9525 30.4752 18.0549 30.3513 18.0549H30.1713V18.5902C30.4004 18.632 30.5756 18.8345 30.5756 19.0742C30.5756 19.3442 30.3513 19.5676 30.0802 19.5676H29.1944C28.9233 19.5676 28.699 19.3465 28.699 19.0742C28.699 18.8345 28.8743 18.632 29.1033 18.5902V18.0549H28.9233C28.8018 18.0549 28.699 17.9548 28.699 17.8315V16.3025C28.699 16.1792 28.7995 16.0791 28.9233 16.0791H29.1033V10.7266L19.7597 13.617C18.0676 14.0172 16.3756 14.0452 14.6836 13.617L4.37005 10.5521L3.43756 10.2751C2.27603 9.80271 2.56583 8.69264 3.6479 8.43665L15.3122 4.96915C16.5158 4.62705 17.7171 4.57352 18.9207 4.96915L30.3747 8.39476C31.6203 8.6973 31.8657 9.8446 30.4167 10.317L30.1713 10.3938Z" fill="black"/>
</g>
<path d="M8.38015 27.7503C8.55804 27.581 8.7182 27.3915 8.86023 27.1886C9.4167 26.385 9.67311 25.3648 9.65956 24.3976C9.65969 24.3597 9.65863 24.3228 9.65653 24.2847L8.73483 24.2145C8.77979 24.8557 8.62236 25.4861 8.34824 25.9294C8.19941 26.1699 8.01556 26.3634 7.80592 26.4873C7.56614 26.6292 7.30063 26.6825 7.01994 26.6211C6.95722 26.607 6.89595 26.5875 6.83392 26.5623C6.92009 26.8814 7.0361 27.151 7.18141 27.3444C7.32657 27.5401 7.50033 27.6706 7.70059 27.7336C7.8921 27.7939 8.11714 27.7993 8.38015 27.7503ZM17.9057 28.4069C17.8888 28.3378 17.8908 28.2687 17.9094 28.2041L17.735 28.1918C17.7428 28.2459 17.7393 28.3014 17.7237 28.3551C17.3888 29.5076 16.8606 30.4669 16.095 31.1878C15.3259 31.9119 14.3292 32.3848 13.0596 32.5625C12.8469 32.5924 12.6519 32.4449 12.6216 32.232C12.5913 32.0192 12.7384 31.8244 12.9511 31.7945C14.053 31.6407 14.9115 31.2371 15.5645 30.6216C16.2211 30.003 16.6794 29.162 16.9773 28.1388L15.5943 28.0403C15.6105 28.0134 15.6255 27.9876 15.6417 27.9607L15.5362 27.9529L8.63192 28.4929C8.19966 28.5902 7.813 28.5822 7.46943 28.4732C7.10732 28.3574 6.80531 28.1361 6.56328 27.8115C6.19353 27.3158 5.96562 26.4766 5.90104 25.5585C5.89603 25.5314 5.89338 25.5023 5.89622 25.4745C5.877 25.1553 5.87716 24.8295 5.89732 24.5049C5.94304 23.7691 6.09245 23.0344 6.3531 22.4307C6.6334 21.7802 7.04662 21.2711 7.60878 21.0403C7.96941 20.8927 8.3796 20.8632 8.83819 20.9885L16.0163 22.4344L20.6267 22.5755L26.9025 21.9863C27.0091 21.9764 27.1085 22.0107 27.1861 22.0725C27.6225 22.4107 27.9578 22.8506 28.2012 23.3505C28.6199 24.2086 28.7642 25.2433 28.6693 26.2326C28.5742 27.2241 28.2381 28.1801 27.7004 28.8788C27.4091 29.2574 27.0566 29.5618 26.6482 29.7599C26.5665 29.8005 26.4756 29.8091 26.3919 29.7904L26.3908 29.7914L19.6782 28.2693L19.3661 28.246C19.3437 28.2658 19.3202 28.2844 19.2968 28.3029L18.668 28.2582C18.8899 29.1595 18.9259 30.0166 18.7463 30.8242C18.5622 31.6504 18.1575 32.4168 17.4995 33.1122C17.3527 33.2669 17.1068 33.2734 16.952 33.1263C16.7971 32.9791 16.7901 32.7332 16.9369 32.5785C17.4946 31.9882 17.8381 31.3452 17.9914 30.6553C18.1439 29.9599 18.1081 29.2077 17.9057 28.4069ZM9.56367 23.4988C9.44246 22.8996 9.2066 22.3679 8.86446 21.9844C8.77677 21.8873 8.68186 21.7986 8.57842 21.7217C8.31787 21.6593 8.09249 21.6772 7.89908 21.7552C7.54304 21.9009 7.26395 22.2625 7.06048 22.736C6.83515 23.256 6.70814 23.8996 6.66635 24.5542C6.64937 24.8276 6.64676 25.103 6.6604 25.3684C6.85214 25.6763 7.03132 25.8273 7.18657 25.8607C7.26144 25.8766 7.33721 25.8603 7.40902 25.818C7.51096 25.7576 7.60663 25.6543 7.68868 25.519C7.94044 25.1122 8.05225 24.4799 7.90187 23.8834C7.84894 23.6758 7.9736 23.4651 8.18105 23.4125C8.22411 23.4019 8.26557 23.3989 8.30662 23.4027L9.56367 23.4988ZM15.9541 27.2063C16.3057 26.0728 16.3736 24.5127 16.2001 23.2116L15.9784 23.2053C15.9482 23.2067 15.916 23.2035 15.884 23.1981L9.8101 21.9746C10.1292 22.5128 10.3304 23.1718 10.4041 23.8717L10.4052 23.8896L10.4051 23.8918C10.4218 24.0536 10.4305 24.2182 10.4336 24.3835C10.4501 25.5016 10.15 26.6864 9.49682 27.6277L9.48578 27.6437L15.4819 27.175C15.5078 27.1711 15.5346 27.1705 15.5623 27.1734L15.9541 27.2063ZM20.1344 23.3329C20.5425 24.8454 20.473 26.4679 19.9174 27.527L26.422 29.0012C26.6698 28.8563 26.8922 28.6519 27.0852 28.402C27.533 27.8203 27.8145 27.007 27.8964 26.1552C27.9786 25.299 27.8595 24.4143 27.5061 23.6921C27.3339 23.3396 27.1067 23.0271 26.8177 22.7754L20.6824 23.3479L20.6826 23.3457C20.6669 23.3469 20.6512 23.3481 20.6334 23.347L20.1344 23.3329Z" fill="black"/>
</g>
<defs>
<clipPath id="clip0_156_222">
<rect width="35" height="35" fill="white"/>
</clipPath>
<clipPath id="clip1_156_222">
<rect width="28.7179" height="17.0513" fill="white" transform="translate(2.69232 4.69226)"/>
</clipPath>
</defs>
</svg>
