<svg width="30" height="34" viewBox="0 0 30 34" fill="none" xmlns="http://www.w3.org/2000/svg">
<path d="M5.16638 19.7346C5.59425 20.2803 6.02214 20.8259 6.45001 21.3676C6.54422 21.4854 6.55604 21.5992 6.48538 21.7327C6.32836 22.031 6.17525 22.3294 6.02608 22.6316C5.63353 23.4285 5.26062 24.2332 4.85237 25.0222C4.53048 25.6464 4.26745 26.2941 4.18894 26.981C4.07902 27.9428 4.14185 28.9085 4.50299 29.8231C5.10752 31.3501 6.0928 32.5631 7.53345 33.3796C7.83178 33.5484 7.82393 33.5444 8.01627 33.25C8.90736 31.8918 9.79847 30.5336 10.6974 29.1793C10.9918 28.7357 11.2902 28.2882 11.5806 27.8407L5.16638 19.7346Z" fill="url(#paint0_linear_230_1571)"/>
<path d="M13.5239 18.2258C13.0882 17.2719 12.5229 16.3729 11.9851 15.4661C11.4041 14.4887 10.7839 13.5309 10.1833 12.5652C9.59841 11.6231 9.01353 10.681 8.42863 9.73888C7.83588 8.78891 7.24312 7.83895 6.65038 6.88506C6.16754 6.10389 5.69647 5.31879 5.21364 4.53762C4.66407 3.65046 4.11059 2.76723 3.5571 1.884C3.20773 1.32658 2.86232 0.769164 2.5051 0.196045C2.45014 0.227449 2.4266 0.2353 2.41089 0.254928C1.87703 0.934035 1.44126 1.67202 1.09189 2.46104C0.730748 3.27362 0.436337 4.11367 0.306796 4.9969C0.192958 5.77022 0.0712794 6.54746 0.0241737 7.32863C-0.0307829 8.18046 0.00454062 9.04014 0.165485 9.88412C0.295026 10.5475 0.40101 11.2188 0.554103 11.8783C0.648315 12.2904 0.777896 12.6948 0.93884 13.0873C1.24895 13.8488 1.56295 14.6104 1.93195 15.3445C2.39908 16.2709 3.04678 17.0795 3.69841 17.8882C4.19302 18.5005 4.67978 19.1208 5.16654 19.7371L11.5416 27.9099C12.1225 27.0149 12.7152 26.0414 13.1667 25.0679C13.5631 24.216 13.8772 23.3406 14.0538 22.4064C14.3286 20.9422 14.1284 19.5447 13.5239 18.2258Z" fill="url(#paint1_linear_230_1571)"/>
<path d="M29.2816 6.65761C29.2542 6.10412 29.1796 5.62128 29.0814 5.06779C29.0657 4.98535 29.0461 4.90292 29.0304 4.81656C28.9833 4.53785 28.893 4.18456 28.8145 3.91762C28.5201 2.94018 28.1432 1.99414 27.6055 1.11876C27.3778 0.749767 27.1187 0.396473 26.8518 0C26.3101 0.863605 25.8037 1.65655 25.3051 2.45735C24.6967 3.43479 24.1 4.42009 23.4955 5.40145C23.0127 6.18262 22.5259 6.96379 22.0431 7.74496C21.4621 8.68315 20.8811 9.62134 20.2962 10.5556C19.7545 11.4231 19.1892 12.2789 18.6671 13.1582L22.7889 21.5509C22.7732 21.4645 22.7889 21.3781 22.8674 21.2839C23.1893 20.8953 23.4877 20.491 23.7978 20.0945C24.6103 19.0621 25.4268 18.0297 26.2394 16.9973C26.891 16.1651 27.4367 15.2622 27.8567 14.2966C28.159 13.6018 28.4573 12.8952 28.6614 12.165C28.8852 11.3682 28.9951 10.5399 29.1561 9.7234C29.3562 8.71063 29.3327 7.68216 29.2816 6.65761Z" fill="url(#paint2_linear_230_1571)"/>
<g opacity="0.55" filter="url(#filter0_d_230_1571)">
<path d="M22.7406 21.49L23.5454 20.4301L18.6699 13.1641L22.7406 21.49Z" fill="#596880"/>
</g>
<path d="M24.0806 24.3075C23.9275 23.9896 23.8097 23.6559 23.6566 23.3379C23.3897 22.7805 23.111 22.2349 22.8362 21.6814C22.8166 21.6382 22.8009 21.599 22.793 21.5597L18.6713 13.167C19.1933 12.2877 19.7586 11.4359 20.3003 10.5645C19.7076 11.5144 19.0834 12.4448 18.5221 13.4143C17.8665 14.5488 17.2463 15.7029 16.6379 16.8609C16.002 18.0739 15.5191 19.3457 15.2483 20.7C14.9421 22.2427 15.1815 23.6912 15.9431 25.0259C16.6065 26.1839 17.3759 27.2791 18.106 28.3979C18.7498 29.3832 19.4053 30.3567 20.053 31.3341C20.528 32.0525 21.0069 32.7748 21.4898 33.5049C21.6939 33.3832 21.8862 33.2812 22.0629 33.1595C22.2631 33.026 22.4633 32.8847 22.6478 32.7277C24.163 31.4362 25.0933 29.8542 25.1483 27.813C25.1718 26.8748 24.9088 26.019 24.5477 25.1633C24.3985 24.8767 24.2219 24.598 24.0806 24.3075Z" fill="url(#paint3_linear_230_1571)"/>
<path opacity="0.3" d="M11.5118 27.857L6.55388 21.5645L6.0907 22.5144L11.5118 27.857Z" fill="#7F8E9B"/>
<defs>
<filter id="filter0_d_230_1571" x="14.6699" y="13.1641" width="12.8755" height="16.3259" filterUnits="userSpaceOnUse" color-interpolation-filters="sRGB">
<feFlood flood-opacity="0" result="BackgroundImageFix"/>
<feColorMatrix in="SourceAlpha" type="matrix" values="0 0 0 0 0 0 0 0 0 0 0 0 0 0 0 0 0 0 127 0" result="hardAlpha"/>
<feOffset dy="4"/>
<feGaussianBlur stdDeviation="2"/>
<feComposite in2="hardAlpha" operator="out"/>
<feColorMatrix type="matrix" values="0 0 0 0 0 0 0 0 0 0 0 0 0 0 0 0 0 0 0.25 0"/>
<feBlend mode="normal" in2="BackgroundImageFix" result="effect1_dropShadow_230_1571"/>
<feBlend mode="normal" in="SourceGraphic" in2="effect1_dropShadow_230_1571" result="shape"/>
</filter>
<linearGradient id="paint0_linear_230_1571" x1="6.40664" y1="22.1962" x2="7.8603" y2="33.4922" gradientUnits="userSpaceOnUse">
<stop stop-color="#214496"/>
<stop offset="1" stop-color="#438DCA"/>
</linearGradient>
<linearGradient id="paint1_linear_230_1571" x1="0.915255" y1="0.457036" x2="11.8983" y2="27.9147" gradientUnits="userSpaceOnUse">
<stop stop-color="#3484C8"/>
<stop offset="1" stop-color="#26B9EA"/>
</linearGradient>
<linearGradient id="paint2_linear_230_1571" x1="28.3725" y1="6.14126e-08" x2="20.5928" y2="19.9068" gradientUnits="userSpaceOnUse">
<stop offset="0.010247" stop-color="#2BBAF3"/>
<stop offset="1" stop-color="#3A86C1"/>
</linearGradient>
<linearGradient id="paint3_linear_230_1571" x1="20.1343" y1="10.5645" x2="20.1343" y2="33.5049" gradientUnits="userSpaceOnUse">
<stop stop-color="#233F93"/>
<stop offset="1" stop-color="#4494CF"/>
</linearGradient>
</defs>
</svg>
