<svg width="197" height="204" viewBox="0 0 197 204" fill="none" xmlns="http://www.w3.org/2000/svg">
<g filter="url(#filter0_i_4468_3082)">
<path d="M171.5 114.9C171 104.401 164 101.706 156.5 103.9C127.421 112.406 103 135.901 103 154.401C103 177.901 132 196.044 152.5 201.901C168.5 206.472 171.5 199.401 171.5 189.901V114.9Z" fill="url(#paint0_linear_4468_3082)"/>
<path d="M171.5 114.9C171 104.401 164 101.706 156.5 103.9C127.421 112.406 103 135.901 103 154.401C103 177.901 132 196.044 152.5 201.901C168.5 206.472 171.5 199.401 171.5 189.901V114.9Z" stroke="white"/>
</g>
<g filter="url(#filter1_i_4468_3082)">
<path d="M25 114.9C25.5 104.401 32.5 101.706 40 103.9C69.079 112.406 93.5 135.901 93.5 154.401C93.5 177.901 64.5 196.044 44 201.901C28 206.472 25 199.401 25 189.901V114.9Z" fill="url(#paint1_linear_4468_3082)"/>
<path d="M25 114.9C25.5 104.401 32.5 101.706 40 103.9C69.079 112.406 93.5 135.901 93.5 154.401C93.5 177.901 64.5 196.044 44 201.901C28 206.472 25 199.401 25 189.901V114.9Z" stroke="white"/>
</g>
<path d="M0 82.3909V9.39077C0.5 3.19117 3.5 0.941171 6.5 0.191171C8.7502 -0.371229 19.1667 0.390771 23.5 1.39077C51.9 6.59077 92.5 32.3906 93 57.8909C93.395 78.0539 93 124.691 93 149.891C85 121.391 41.8333 102.391 20.5 96.8909C13.9086 95.1919 2.5 95.1919 0 82.3909Z" fill="url(#paint2_linear_4468_3082)"/>
<path d="M196.176 82.5818V9.58213C195.676 3.38263 192.676 1.13253 189.676 0.382633C187.426 -0.179867 177.009 0.58213 172.676 1.58213C144.276 6.78213 103.676 32.5819 103.176 58.0818C102.78 78.2448 103.176 124.882 103.176 150.082C111.176 121.582 154.342 102.582 175.676 97.0818C182.267 95.3828 193.676 95.3828 196.176 82.5818Z" fill="url(#paint3_linear_4468_3082)"/>
<defs>
<filter id="filter0_i_4468_3082" x="102.5" y="102.691" width="75.5" height="111.135" filterUnits="userSpaceOnUse" color-interpolation-filters="sRGB">
<feFlood flood-opacity="0" result="BackgroundImageFix"/>
<feBlend mode="normal" in="SourceGraphic" in2="BackgroundImageFix" result="shape"/>
<feColorMatrix in="SourceAlpha" type="matrix" values="0 0 0 0 0 0 0 0 0 0 0 0 0 0 0 0 0 0 127 0" result="hardAlpha"/>
<feOffset dx="6" dy="10"/>
<feGaussianBlur stdDeviation="10"/>
<feComposite in2="hardAlpha" operator="arithmetic" k2="-1" k3="1"/>
<feColorMatrix type="matrix" values="0 0 0 0 0 0 0 0 0 0 0 0 0 0 0 0 0 0 0.2 0"/>
<feBlend mode="normal" in2="shape" result="effect1_innerShadow_4468_3082"/>
</filter>
<filter id="filter1_i_4468_3082" x="20.5" y="102.691" width="73.5" height="111.135" filterUnits="userSpaceOnUse" color-interpolation-filters="sRGB">
<feFlood flood-opacity="0" result="BackgroundImageFix"/>
<feBlend mode="normal" in="SourceGraphic" in2="BackgroundImageFix" result="shape"/>
<feColorMatrix in="SourceAlpha" type="matrix" values="0 0 0 0 0 0 0 0 0 0 0 0 0 0 0 0 0 0 127 0" result="hardAlpha"/>
<feOffset dx="-4" dy="10"/>
<feGaussianBlur stdDeviation="10"/>
<feComposite in2="hardAlpha" operator="arithmetic" k2="-1" k3="1"/>
<feColorMatrix type="matrix" values="0 0 0 0 0 0 0 0 0 0 0 0 0 0 0 0 0 0 0.2 0"/>
<feBlend mode="normal" in2="shape" result="effect1_innerShadow_4468_3082"/>
</filter>
<linearGradient id="paint0_linear_4468_3082" x1="121.5" y1="131.5" x2="173.919" y2="201.565" gradientUnits="userSpaceOnUse">
<stop stop-color="#05369C"/>
<stop offset="1" stop-color="#03C0F7"/>
</linearGradient>
<linearGradient id="paint1_linear_4468_3082" x1="84.5" y1="137.5" x2="24.4431" y2="194.355" gradientUnits="userSpaceOnUse">
<stop stop-color="#05369C"/>
<stop offset="1" stop-color="#03C0F7"/>
</linearGradient>
<linearGradient id="paint2_linear_4468_3082" x1="-11.5" y1="55.4999" x2="66.5" y2="95.9999" gradientUnits="userSpaceOnUse">
<stop stop-color="#05369C"/>
<stop offset="1" stop-color="#03C0F7"/>
</linearGradient>
<linearGradient id="paint3_linear_4468_3082" x1="207.676" y1="55.6908" x2="129.676" y2="96.1908" gradientUnits="userSpaceOnUse">
<stop stop-color="#05369C"/>
<stop offset="1" stop-color="#03C0F7"/>
</linearGradient>
</defs>
</svg>
