<svg id="Layer_1" data-name="Layer 1" xmlns="http://www.w3.org/2000/svg" viewBox="0 0 118.86 122.88"><title>receipt-rupee</title><path d="M113.28,113.76l-2.17-2.5-10.56,10.56a3.18,3.18,0,0,1-4.46,0L85.33,111.38,74.79,121.5a3.19,3.19,0,0,1-4.43.13L59.17,111.3,48.84,122a3.2,3.2,0,0,1-4.51,0L33.69,111.3l-11,10.44a3.17,3.17,0,0,1-4.44-.06L7.85,111.14l-2.1,2.43A3.18,3.18,0,0,1,0,111.68V3.18A3.19,3.19,0,0,1,3.18,0H115.67a3.19,3.19,0,0,1,3.19,3.18v108.5a3.22,3.22,0,0,1-1.11,2.4,3.17,3.17,0,0,1-4.47-.32ZM14.84,57.05l2.53-5.72H27a3.48,3.48,0,0,0-.63-1.2,4.37,4.37,0,0,0-1.12-1,5.75,5.75,0,0,0-1.48-.69A5.22,5.22,0,0,0,22,48.16H14.84l2.53-5.73H44.8l-2.54,5.73H35.63a4.37,4.37,0,0,1,.73.7,5.22,5.22,0,0,1,.6.82c.16.29.31.58.43.86a3.75,3.75,0,0,1,.23.79H44.8l-2.54,5.72h-5.2a9.56,9.56,0,0,1-1.69,2.76,14.1,14.1,0,0,1-2.63,2.34,17.51,17.51,0,0,1-3.26,1.74,15.74,15.74,0,0,1-3.57,1L40.32,79.68H28.93L16.08,65.58V60.33h5.69a5,5,0,0,0,1.61-.27,5.83,5.83,0,0,0,1.48-.73,5.32,5.32,0,0,0,1.17-1,3.68,3.68,0,0,0,.7-1.24ZM83.3,74a3,3,0,1,1,0,6h-28a3,3,0,0,1,0-6ZM99,58a3,3,0,0,1,0,6H55.25a3,3,0,0,1,0-6Zm.1-15.91a3,3,0,1,1,0,6H55.25a3,3,0,0,1,0-6ZM96,15.68a5.29,5.29,0,1,1-3.74,1.55A5.24,5.24,0,0,1,96,15.68Zm-24.37,0a5.27,5.27,0,1,1-3.74,1.55,5.27,5.27,0,0,1,3.74-1.55Zm-24.36,0a5.29,5.29,0,1,1-3.74,1.55,5.24,5.24,0,0,1,3.74-1.55Zm-24.37,0a5.27,5.27,0,1,1-3.74,1.55,5.27,5.27,0,0,1,3.74-1.55Zm89.61,88V6.37H6.37V103.6a3.18,3.18,0,0,1,3.41.48L20.6,115l11-10.44a3.18,3.18,0,0,1,4.44.06l10.56,10.55,10.21-10.52a3.19,3.19,0,0,1,4.43-.12l11.27,10.4,10.67-10.25a3.18,3.18,0,0,1,4.44,0l10.68,10.39L109,104.36a3.19,3.19,0,0,1,3.48-.69Z"/></svg>