<svg width="800" height="800" viewBox="0 0 800 800" fill="none" xmlns="http://www.w3.org/2000/svg">
<path d="M683.577 33.333V155.858H550.773" stroke="#71717A" stroke-width="50" stroke-linecap="round" stroke-linejoin="round"/>
<path d="M647.847 151.512C657.887 160.99 673.71 160.535 683.187 150.495C692.667 140.455 692.21 124.633 682.17 115.154L647.847 151.512ZM778.303 542.426C783.327 529.566 776.973 515.07 764.11 510.046C751.25 505.023 736.753 511.376 731.73 524.24L778.303 542.426ZM413.347 741.666C224.649 741.666 71.6796 588.696 71.6796 400H21.6797C21.6797 616.31 197.035 791.666 413.347 791.666V741.666ZM71.6796 400C71.6796 211.302 224.649 58.333 413.347 58.333V8.33301C197.035 8.33301 21.6797 183.688 21.6797 400H71.6796ZM413.347 58.333C504.15 58.333 586.633 93.723 647.847 151.512L682.17 115.154C612.047 48.9533 517.413 8.33301 413.347 8.33301V58.333ZM731.73 524.24C682.013 651.546 558.173 741.666 413.347 741.666V791.666C579.45 791.666 721.347 688.276 778.303 542.426L731.73 524.24Z" fill="#737373"/>
</svg>
