<svg class="svg-icon" style="width: 1em; height: 1em;vertical-align: middle;fill: currentColor;overflow: hidden;" viewBox="0 0 1024 1024" version="1.1" xmlns="http://www.w3.org/2000/svg"><path d="M815.343988 561.191978c-43.381998-31.173999-90.611996-55.167998-140.363994-71.555997C741.129991 439.971983 783.999989 360.897986 783.999989 271.999989 783.999989 122.019995 661.981994 0 512 0S240.000011 122.019995 240.000011 271.999989c0 89.007997 42.975998 168.167993 109.265995 217.821992-60.735998 19.995999-117.725995 51.109998-167.605993 92.137996-91.463996 75.233997-155.057994 180.171993-179.063993 295.485989-7.524 36.131999 1.49 73.243997 24.725999 101.815996C50.444018 1007.693961 84.730017 1023.99996 121.386015 1023.99996H533.999999c22.091999 0 39.999998-17.907999 39.999999-39.999998s-17.907999-39.999998-39.999999-39.999999H121.386015c-17.075999 0-27.377999-9.532-31.997998-15.211999-7.978-9.81-11.066-22.579999-8.472-35.037999 41.511998-199.389992 217.381992-345.041987 420.479983-349.953986a274.457989 274.457989 0 0 0 21.286-0.004c88.931997 2.104 173.765993 30.471999 245.97599 82.363997 17.937999 12.891999 42.933998 8.798 55.825998-9.138 12.891999-17.939999 8.8-42.933998-9.14-55.825998z m-293.605988-97.435996a526.255979 526.255979 0 0 0-19.418 0.002C400.930004 458.699982 320.000007 374.623985 320.000007 271.999989c0-105.869996 86.129997-191.999993 191.999993-191.999992s191.999993 86.129997 191.999993 191.999992c0 102.603996-80.899997 186.667993-182.261993 191.755993z"  /><path d="M910.569984 853.999967l101.713996-101.713996c15.621999-15.621999 15.621999-40.949998 0-56.569998-15.621999-15.621999-40.947998-15.621999-56.567997 0L853.999987 797.429969l-101.715996-101.715996c-15.621999-15.621999-40.947998-15.621999-56.567998 0-15.619999 15.621999-15.621999 40.949998 0 56.569998L797.429989 853.999967l-101.713996 101.713996c-15.621999 15.621999-15.621999 40.949998 0 56.569997A39.865998 39.865998 0 0 0 723.999992 1023.99996a39.871998 39.871998 0 0 0 28.283999-11.714L853.999987 910.569964l101.715996 101.715996A39.871998 39.871998 0 0 0 983.999982 1023.99996a39.871998 39.871998 0 0 0 28.283998-11.714c15.621999-15.621999 15.621999-40.949998 0-56.569997L910.569984 853.999967z"  /></svg>