<svg width="19" height="19" viewBox="0 0 19 19" fill="none" xmlns="http://www.w3.org/2000/svg">
<path d="M14.5528 2.3762H3.77031C3.75253 2.3746 3.73466 2.3746 3.71688 2.3762C3.02908 2.42996 2.38676 2.74092 1.91799 3.24711C1.44921 3.7533 1.18839 4.41755 1.1875 5.10746V13.3012C1.18829 13.8647 1.41249 14.4049 1.81095 14.8034C2.20941 15.2018 2.74963 15.426 3.31313 15.4268H5.92563V17.8968C5.92563 17.9657 5.9448 18.0333 5.98105 18.0919C6.01727 18.1505 6.06913 18.1979 6.13077 18.2287C6.1924 18.2596 6.26142 18.2726 6.33006 18.2664C6.3987 18.2602 6.46425 18.2351 6.51938 18.1937L8.82313 16.4659L11.1269 18.1937C11.1907 18.2428 11.269 18.2694 11.3495 18.2694C11.4301 18.2694 11.5084 18.2428 11.5722 18.1937L13.8759 16.4659L16.1797 18.1937C16.2435 18.2427 16.3219 18.2688 16.4023 18.2679C16.4512 18.2683 16.4996 18.259 16.5448 18.2405C16.59 18.222 16.6311 18.1947 16.6656 18.1601C16.7002 18.1256 16.7275 18.0845 16.746 18.0393C16.7645 17.9941 16.7738 17.9457 16.7734 17.8968V4.59387C16.7727 4.00543 16.5383 3.44137 16.122 3.02556C15.7056 2.60975 15.1412 2.3762 14.5528 2.3762ZM5.92563 14.6936H3.31313C2.94622 14.6936 2.59433 14.5478 2.33489 14.2883C2.07544 14.0289 1.92969 13.677 1.92969 13.3101V5.11637C1.92969 4.58647 2.14019 4.07828 2.51489 3.70358C2.88957 3.32889 3.39776 3.11839 3.92766 3.11839C4.45755 3.11839 4.96574 3.32889 5.34043 3.70358C5.71511 4.07828 5.92563 4.58647 5.92563 5.11637V14.6936ZM13.4336 14.2601H9.27734C9.17893 14.2601 9.08452 14.221 9.01494 14.1514C8.94535 14.0818 8.90625 13.9874 8.90625 13.889C8.90625 13.7906 8.94535 13.6962 9.01494 13.6266C9.08452 13.557 9.17893 13.5179 9.27734 13.5179H13.4336C13.532 13.5179 13.6264 13.557 13.696 13.6266C13.7656 13.6962 13.8047 13.7906 13.8047 13.889C13.8047 13.9874 13.7656 14.0818 13.696 14.1514C13.6264 14.221 13.532 14.2601 13.4336 14.2601ZM13.4336 12.8559H9.27734C9.17813 12.8559 9.08298 12.8165 9.01283 12.7463C8.94271 12.6762 8.90328 12.581 8.90328 12.4818C8.90328 12.3826 8.94271 12.2875 9.01283 12.2173C9.08298 12.1472 9.17813 12.1078 9.27734 12.1078H13.4336C13.532 12.1078 13.6264 12.1469 13.696 12.2165C13.7656 12.286 13.8047 12.3805 13.8047 12.4789C13.8047 12.5773 13.7656 12.6717 13.696 12.7413C13.6264 12.8109 13.532 12.85 13.4336 12.85V12.8559Z" fill="black"/>
<path d="M10 5H13M10 6.38889H13M12.125 10L10 7.77778H10.75C12.4167 7.77778 12.4167 5 10.75 5" stroke="white" stroke-linecap="round" stroke-linejoin="round"/>
</svg>
