<svg width="22" height="22" viewBox="0 0 22 22" fill="none" xmlns="http://www.w3.org/2000/svg">
<path d="M20.9447 6.3387C20.7837 6.25371 20.5956 6.23601 20.4217 6.2895C20.2477 6.34298 20.102 6.46328 20.0166 6.62402L18.9063 8.75183C18.4262 6.82993 17.3415 5.11308 15.8119 3.85433C14.2823 2.59558 12.3888 1.86153 10.4104 1.76036C8.43205 1.65919 6.47352 2.19626 4.8235 3.2924C3.17347 4.38855 1.91924 5.98579 1.24566 7.84869C0.57208 9.7116 0.514792 11.7416 1.08224 13.6395C1.64969 15.5375 2.81185 17.2029 4.39743 18.3904C5.98301 19.5778 7.90813 20.2245 9.88904 20.235C11.87 20.2456 13.8019 19.6195 15.4 18.449C15.4758 18.3967 15.5402 18.3298 15.5896 18.2521C15.639 18.1744 15.6723 18.0876 15.6875 17.9969C15.7027 17.9061 15.6995 17.8132 15.6782 17.7237C15.6568 17.6341 15.6177 17.5498 15.5631 17.4757C15.5086 17.4016 15.4397 17.3392 15.3606 17.2921C15.2814 17.2451 15.1937 17.2145 15.1025 17.2021C15.0113 17.1896 14.9185 17.1956 14.8297 17.2196C14.7409 17.2437 14.6578 17.2854 14.5853 17.3421C13.6649 18.0182 12.6083 18.4858 11.4889 18.7125C10.3696 18.9391 9.21429 18.9194 8.10333 18.6546C6.99238 18.3899 5.95237 17.8864 5.05555 17.1793C4.15873 16.4722 3.42658 15.5783 2.90998 14.5598C2.39337 13.5412 2.10468 12.4224 2.06396 11.2811C2.02324 10.1397 2.23147 9.00321 2.67418 7.95044C3.11688 6.89766 3.78346 5.95388 4.62761 5.18464C5.47176 4.4154 6.47325 3.83914 7.56251 3.49589C8.64557 3.15518 9.7895 3.05268 10.9159 3.19542C12.0423 3.33817 13.1244 3.72277 14.0883 4.32288C15.0521 4.92299 15.8748 5.72441 16.4999 6.67221C17.125 7.62 17.5378 8.69176 17.71 9.81402L14.7538 8.24995C14.5924 8.16471 14.4038 8.14706 14.2294 8.20089C14.055 8.25472 13.9092 8.37562 13.8239 8.53698C13.7387 8.69835 13.721 8.88697 13.7749 9.06135C13.8287 9.23573 13.9496 9.38159 14.111 9.46683L18.1638 11.605H18.1844C18.2187 11.6216 18.2543 11.6354 18.291 11.6462H18.3322C18.3807 11.6573 18.4303 11.663 18.48 11.6634C18.5356 11.6632 18.5911 11.6563 18.645 11.6428H18.6863C18.7279 11.6294 18.7682 11.6122 18.8066 11.5912L18.8444 11.5706C18.8907 11.5414 18.9334 11.5068 18.9716 11.4675V11.4468C19.0045 11.4099 19.0333 11.3696 19.0575 11.3265V11.3059L21.1956 7.25308C21.2792 7.09759 21.2997 6.91593 21.253 6.74571C21.2063 6.57549 21.0959 6.42976 20.9447 6.3387Z" fill="black"/>
<path d="M7.21875 7.90625H12.7188M7.21875 10.0069H12.7188M11.1146 15.4688L7.21875 12.1076H8.59375C11.6495 12.1076 11.6495 7.90625 8.59375 7.90625" stroke="black" stroke-linecap="round" stroke-linejoin="round"/>
</svg>
