<svg width="35" height="35" viewBox="0 0 35 35" fill="none" xmlns="http://www.w3.org/2000/svg">
<path d="M0.000869751 3.76736C0.000869751 2.72685 0.368637 1.83883 1.10417 1.1033C1.8397 0.367766 2.72772 0 3.76823 0L13.4557 0C14.4962 0 15.3843 0.367766 16.1198 1.1033C16.8553 1.83883 17.2231 2.72685 17.2231 3.76736C17.2231 4.80787 16.8553 5.69589 16.1198 6.43142C15.3843 7.16696 14.4962 7.53472 13.4557 7.53472L3.76823 7.53472C2.72772 7.53472 1.8397 7.16696 1.10417 6.43142C0.368637 5.69589 0.000869751 4.80787 0.000869751 3.76736ZM0.000869751 17.2222C0.000869751 16.1817 0.368637 15.2937 1.10417 14.5582C1.8397 13.8226 2.72772 13.4549 3.76823 13.4549L30.678 13.4549C31.7185 13.4549 32.6065 13.8226 33.342 14.5582C34.0775 15.2937 34.4453 16.1817 34.4453 17.2222C34.4453 18.2627 34.0775 19.1508 33.342 19.8863C32.6065 20.6218 31.7185 20.9896 30.678 20.9896L3.76823 20.9896C2.72772 20.9896 1.8397 20.6218 1.10417 19.8863C0.368637 19.1508 0.000869751 18.2627 0.000869751 17.2222ZM0.000869751 30.6771C0.000869751 29.6366 0.368637 28.7486 1.10417 28.013C1.8397 27.2775 2.72772 26.9097 3.76823 26.9097L19.9141 26.9097C20.9546 26.9097 21.8426 27.2775 22.5781 28.013C23.3137 28.7486 23.6814 29.6366 23.6814 30.6771C23.6814 31.7176 23.3137 32.6056 22.5781 33.3411C21.8426 34.0767 20.9546 34.4444 19.9141 34.4444L3.76823 34.4444C2.72772 34.4444 1.8397 34.0767 1.10417 33.3411C0.368637 32.6056 0.000869751 31.7176 0.000869751 30.6771Z" fill="#232323" fill-opacity="0.8"/>
</svg>
