<svg width="20" height="16" viewBox="0 0 20 16" fill="none" xmlns="http://www.w3.org/2000/svg">
<path d="M18.3496 15.425C18.0163 15.425 17.7371 15.3125 17.5121 15.0875C17.2871 14.8625 17.1746 14.5833 17.1746 14.25V10.65C17.1746 9.85 16.8996 9.17917 16.3496 8.6375C15.7996 8.09583 15.1329 7.825 14.3496 7.825H4.97461L7.59961 10.45C7.81628 10.6667 7.92044 10.9333 7.91211 11.25C7.90378 11.5667 7.79128 11.8417 7.57461 12.075C7.34128 12.3083 7.06211 12.425 6.73711 12.425C6.41211 12.425 6.13294 12.3083 5.89961 12.075L1.29961 7.475C1.18294 7.35833 1.09961 7.22917 1.04961 7.0875C0.999609 6.94583 0.974609 6.8 0.974609 6.65C0.974609 6.5 0.999609 6.35417 1.04961 6.2125C1.09961 6.07083 1.18294 5.94167 1.29961 5.825L5.92461 1.2C6.14128 0.983333 6.41211 0.875 6.73711 0.875C7.06211 0.875 7.34128 0.991667 7.57461 1.225C7.80794 1.45833 7.92461 1.73333 7.92461 2.05C7.92461 2.36667 7.80794 2.64167 7.57461 2.875L4.97461 5.475H14.3496C15.7829 5.475 17.0038 5.975 18.0121 6.975C19.0204 7.975 19.5246 9.2 19.5246 10.65V14.25C19.5246 14.5833 19.4121 14.8625 19.1871 15.0875C18.9621 15.3125 18.6829 15.425 18.3496 15.425Z" fill="black"/>
</svg>
