<svg width="30" height="30" viewBox="0 0 30 30" fill="none" xmlns="http://www.w3.org/2000/svg">
<path d="M12.6665 26.25L12.2146 22.6346C11.8155 22.5144 11.384 22.3253 10.9201 22.0673C10.4562 21.8093 10.0615 21.5329 9.73619 21.238L6.40206 22.6562L4.07031 18.5938L6.95253 16.4207C6.91568 16.1947 6.88523 15.9619 6.86119 15.7223C6.83715 15.4828 6.82512 15.25 6.82512 15.024C6.82512 14.8141 6.83715 14.5933 6.86119 14.3618C6.88523 14.1302 6.91568 13.8694 6.95253 13.5793L4.07031 11.4062L6.40206 7.39181L9.71216 8.78606C10.0856 8.47517 10.4894 8.19472 10.9237 7.94472C11.358 7.69472 11.7803 7.5016 12.1905 7.36538L12.6665 3.75H17.33L17.7819 7.38941C18.261 7.55768 18.6845 7.75079 19.0523 7.96875C19.4201 8.18669 19.7987 8.45912 20.1881 8.78606L23.5944 7.39181L25.9261 11.4062L22.9478 13.6514C23.0167 13.9095 23.0551 14.1462 23.0631 14.3618C23.0711 14.5773 23.0752 14.7901 23.0752 15C23.0752 15.1939 23.0671 15.3986 23.0511 15.6142C23.0351 15.8297 22.9982 16.0905 22.9405 16.3966L25.8708 18.5938L23.5391 22.6562L20.1881 21.2139C19.7987 21.5409 19.4069 21.8213 19.0127 22.0553C18.6184 22.2893 18.2082 22.4744 17.7819 22.6106L17.33 26.25H12.6665ZM13.7482 25H16.1929L16.6545 21.6154C17.2843 21.4487 17.8512 21.2199 18.3552 20.9291C18.8592 20.6382 19.3724 20.2396 19.8948 19.7332L23.0127 21.0625L24.2554 18.9375L21.5198 16.8822C21.624 16.5264 21.6929 16.1991 21.7266 15.9003C21.7602 15.6014 21.7771 15.3013 21.7771 15C21.7771 14.6827 21.7602 14.3826 21.7266 14.0997C21.6929 13.8169 21.624 13.5056 21.5198 13.1659L24.3035 11.0625L23.0607 8.9375L19.8708 10.274C19.4926 9.85897 18.9954 9.46995 18.3792 9.10697C17.763 8.74399 17.1801 8.50321 16.6304 8.38462L16.2482 5H13.7554L13.366 8.36056C12.7362 8.49519 12.1573 8.71194 11.6292 9.01081C11.1012 9.30969 10.5759 9.72034 10.0535 10.2428L6.93572 8.9375L5.69294 11.0625L8.40447 13.0865C8.3003 13.367 8.22739 13.6715 8.18572 14C8.14405 14.3285 8.12322 14.6699 8.12322 15.024C8.12322 15.3413 8.14405 15.6562 8.18572 15.9688C8.22739 16.2812 8.29229 16.5857 8.38044 16.8822L5.69294 18.9375L6.93572 21.0625L10.0295 19.75C10.5198 20.2452 11.0291 20.6422 11.5571 20.9411C12.0852 21.24 12.6801 21.4728 13.342 21.6394L13.7482 25ZM14.9646 18.125C15.8364 18.125 16.5751 17.8221 17.1809 17.2163C17.7867 16.6106 18.0896 15.8718 18.0896 15C18.0896 14.1282 17.7867 13.3894 17.1809 12.7837C16.5751 12.1779 15.8364 11.875 14.9646 11.875C14.088 11.875 13.348 12.1779 12.7446 12.7837C12.1412 13.3894 11.8396 14.1282 11.8396 15C11.8396 15.8718 12.1412 16.6106 12.7446 17.2163C13.348 17.8221 14.088 18.125 14.9646 18.125Z" fill="black"/>
</svg>
