<svg width="17" height="18" viewBox="0 0 17 18" fill="none" xmlns="http://www.w3.org/2000/svg">
<g clip-path="url(#clip0_236_2)">
<path fill-rule="evenodd" clip-rule="evenodd" d="M11.3003 3.95505C11.7805 4.23196 12.2131 4.58148 12.5821 4.9907C12.9459 5.39239 13.2379 5.85149 13.4456 6.34861C13.5621 6.63016 13.6546 6.92071 13.722 7.21726C13.8747 7.89151 13.8869 8.58906 13.7579 9.26804C13.6867 9.6341 13.5787 9.99231 13.4352 10.3374L13.4187 10.374C13.1199 11.1064 12.5851 11.8154 12.0742 12.5156C11.8142 12.8701 11.5558 13.2202 11.3391 13.56C11.2709 13.6658 11.1747 13.7513 11.0608 13.8076C10.9468 13.8638 10.8195 13.8886 10.6922 13.8794L6.5808 14.4785C6.41124 14.5027 6.23851 14.4653 6.09515 14.3732C5.95178 14.2812 5.84768 14.141 5.80243 13.979C5.70021 13.6862 5.5738 13.402 5.42446 13.1294C5.30043 12.8949 5.1501 12.6748 4.97626 12.4731C4.76412 12.2358 4.54749 11.9927 4.33236 11.7187C4.09237 11.4018 3.88517 11.0622 3.71385 10.7051C3.53368 10.3296 3.3935 9.93687 3.29553 9.53318C3.1983 9.12906 3.15065 8.71499 3.15361 8.29978C3.15793 7.86808 3.21664 7.43856 3.3284 7.02097C3.44775 6.57278 3.61867 6.13933 3.83785 5.72898L3.86773 5.67625C4.15024 5.20035 4.50888 4.77204 4.92995 4.40769C5.34814 4.04932 5.82425 3.7617 6.33877 3.55662L6.3821 3.5405C6.76656 3.39069 7.16774 3.28596 7.57728 3.22849C8.01038 3.16888 8.44909 3.15904 8.88451 3.19919C9.3095 3.2371 9.72888 3.32111 10.135 3.44968C10.5416 3.57448 10.9325 3.74402 11.3003 3.95505ZM10.7206 16.7505C10.4953 17.1313 10.1731 17.4483 9.78538 17.6704C9.45757 17.8576 9.08981 17.9674 8.71121 17.9912C8.33083 18.015 7.95061 17.9423 7.60716 17.7802C7.3612 17.6615 7.13944 17.4996 6.9528 17.3027L10.7206 16.7505ZM11.0792 14.6836V14.9253V15.0088C11.0904 15.1673 11.0904 15.3263 11.0792 15.4848L11.0045 15.8335L6.43887 16.4985L6.35969 16.3198L6.1819 15.605V15.3969L11.0672 14.6836H11.0792ZM8.39001 0.546362C8.39431 0.398197 8.45809 0.257686 8.56747 0.155372C8.67685 0.0530589 8.82301 -0.0027864 8.97415 -2.42786e-05H9.013C9.1535 0.0122451 9.28466 0.0742017 9.38201 0.174292C9.48487 0.280563 9.54164 0.421831 9.54037 0.568335C9.54116 0.578086 9.54116 0.587882 9.54037 0.597632L9.509 1.79734C9.50974 1.81002 9.50974 1.82274 9.509 1.83542C9.49798 1.97723 9.43215 2.10957 9.32498 2.2054C9.2178 2.30123 9.07735 2.35333 8.93232 2.35105H8.89198C8.75197 2.34083 8.6209 2.27971 8.52446 2.17966C8.42097 2.0732 8.36412 1.93122 8.3661 1.78416C8.36532 1.77441 8.36532 1.76461 8.3661 1.75486L8.39598 0.550757L8.39001 0.546362ZM2.09139 2.65134C1.981 2.54922 1.91561 2.4089 1.90912 2.26023C1.90572 2.18618 1.91731 2.1122 1.94324 2.04258C1.96916 1.97295 2.0089 1.90904 2.06016 1.85456C2.11142 1.80008 2.17319 1.7561 2.24188 1.72516C2.31058 1.69421 2.38485 1.67693 2.4604 1.67429C2.6117 1.66804 2.75938 1.7207 2.87124 1.82078L3.78855 2.66013C3.89957 2.76163 3.96516 2.90205 3.97104 3.05077C3.97692 3.19949 3.9226 3.34446 3.81992 3.45408C3.71531 3.56253 3.57165 3.62665 3.41953 3.63279C3.2687 3.63897 3.1215 3.5863 3.01018 3.4863L2.09139 2.65134ZM0.597406 8.83591C0.521664 8.83866 0.446113 8.82673 0.375074 8.80082C0.304036 8.77491 0.238903 8.73553 0.183401 8.68492C0.1279 8.63431 0.0831174 8.57347 0.0516159 8.50587C0.0201144 8.43828 0.00251164 8.36526 -0.000185742 8.29099C-0.00383758 8.21748 0.00749372 8.14399 0.0331457 8.07483C0.0587976 8.00566 0.0982555 7.9422 0.149212 7.88816C0.200774 7.83435 0.262712 7.7911 0.331441 7.76093C0.400169 7.73076 0.47432 7.71425 0.549599 7.71238L1.80155 7.67136C1.87732 7.66803 1.953 7.67949 2.02421 7.7051C2.09541 7.7307 2.16072 7.76992 2.21632 7.82049C2.27193 7.87106 2.31673 7.93196 2.34811 7.99966C2.3795 8.06735 2.39685 8.14049 2.39915 8.21482V8.22361V8.24412C2.39759 8.38235 2.34444 8.51523 2.24975 8.61765C2.19711 8.67136 2.13403 8.7142 2.06424 8.74363C1.99445 8.77307 1.91936 8.78851 1.84339 8.78904H1.82098L0.583961 8.83005L0.597406 8.83591ZM16.3738 7.09421H16.3933C16.5365 7.08572 16.6777 7.13014 16.7892 7.21873C16.9066 7.31364 16.9817 7.44977 16.9983 7.59812C16.9983 7.59812 16.9983 7.61277 16.9983 7.6157C17.0052 7.75925 16.9558 7.89994 16.8602 8.0089C16.7647 8.11786 16.6302 8.18682 16.4844 8.20164L15.2384 8.34959C15.0873 8.36475 14.9362 8.32052 14.8183 8.2266C14.7004 8.13269 14.6253 7.99675 14.6094 7.84861C14.594 7.7002 14.6393 7.55186 14.7354 7.43621C14.8315 7.32055 14.9705 7.24707 15.1219 7.23191C15.5372 7.18796 15.9555 7.14109 16.3723 7.10154L16.3738 7.09421ZM13.9058 2.20457C13.9473 2.14313 14.0009 2.09037 14.0634 2.04934C14.1258 2.00831 14.196 1.97982 14.2697 1.96552C14.3435 1.95122 14.4194 1.95139 14.4931 1.96602C14.5668 1.98065 14.6368 2.00945 14.6991 2.05076C14.7614 2.09169 14.8147 2.14438 14.856 2.20575C14.8973 2.26711 14.9257 2.33593 14.9396 2.40818C14.9687 2.55431 14.9381 2.70579 14.8545 2.83005L14.1568 3.85544C14.0712 3.97899 13.9391 4.06414 13.7894 4.09216C13.6398 4.12018 13.485 4.08877 13.359 4.00486C13.233 3.92094 13.1461 3.79139 13.1176 3.64469C13.089 3.49799 13.121 3.34618 13.2066 3.22263L13.9058 2.19724V2.20457ZM9.15194 8.04343H10.0319C10.0621 8.04343 10.092 8.04927 10.1199 8.0606C10.1479 8.07194 10.1732 8.08856 10.1946 8.10951C10.2159 8.13045 10.2329 8.15532 10.2445 8.18269C10.256 8.21006 10.262 8.23939 10.262 8.26902C10.2619 8.31384 10.2484 8.35765 10.2231 8.395L8.13155 11.9004C8.11604 11.9258 8.09556 11.9479 8.07129 11.9655C8.04702 11.9831 8.01943 11.9958 7.99012 12.0029C7.96081 12.0099 7.93037 12.0113 7.90053 12.0067C7.8707 12.0022 7.84208 11.992 7.81632 11.9765C7.77552 11.9524 7.74329 11.9166 7.72404 11.8738C7.70479 11.8311 7.69945 11.7836 7.70875 11.7378L8.01801 9.58738L6.97222 9.60496C6.94208 9.60554 6.91211 9.60027 6.88406 9.58945C6.856 9.57863 6.8304 9.56248 6.80874 9.54192C6.78708 9.52136 6.76978 9.4968 6.75784 9.46966C6.74589 9.44251 6.73955 9.41332 6.73916 9.38376C6.73784 9.34209 6.74873 9.30091 6.77053 9.26511L8.83073 5.76121C8.86211 5.71003 8.91279 5.67302 8.97179 5.65822C9.03079 5.64341 9.09337 5.652 9.14596 5.6821C9.18643 5.70368 9.21924 5.73681 9.24006 5.7771C9.26087 5.81739 9.26869 5.86294 9.26249 5.90769L9.15791 8.04343H9.15194Z" fill="black"/>
</g>
<defs>
<clipPath id="clip0_236_2">
<rect width="17" height="18" fill="white"/>
</clipPath>
</defs>
</svg>
