<svg width="16" height="12" viewBox="0 0 16 12" fill="none" xmlns="http://www.w3.org/2000/svg">
<g clip-path="url(#clip0_237_12)">
<path fill-rule="evenodd" clip-rule="evenodd" d="M6.59297 1.00616H11.8004L12.9868 3.15086H15.4312C15.5613 3.15086 15.6675 3.26233 15.6675 3.39077V11.7612C15.6675 11.8896 15.5589 12.0011 15.4312 12.0011H1.23632C1.10981 11.9999 1 11.892 1 11.7612V3.39077C1 3.2587 1.10623 3.15086 1.23632 3.15086H2.33558V2.38143H3.69384V3.15086H5.16907C5.47581 2.53532 5.78255 1.92099 6.0893 1.30545C6.27549 0.931036 6.17284 1.00616 6.59297 1.00616ZM14.1374 4.21109C14.5265 4.21109 14.8416 4.53098 14.8416 4.92599C14.8416 5.321 14.5265 5.64089 14.1374 5.64089C13.7483 5.64089 13.4332 5.321 13.4332 4.92599C13.4344 4.53098 13.7495 4.21109 14.1374 4.21109ZM8.95382 5.04352C10.1318 5.04352 11.0879 6.01409 11.0879 7.21003C11.0879 8.40597 10.1318 9.37654 8.95382 9.37654C7.77578 9.37654 6.81975 8.40597 6.81975 7.21003C6.81975 6.01409 7.77578 5.04352 8.95382 5.04352ZM8.95382 3.63311C10.9005 3.63311 12.4784 5.23497 12.4784 7.21124C12.4784 9.1863 10.9005 10.7894 8.95382 10.7894C7.00833 10.7894 5.42926 9.1863 5.42926 7.21124C5.43046 5.23497 7.00833 3.63311 8.95382 3.63311Z" fill="black"/>
</g>
<defs>
<clipPath id="clip0_237_12">
<rect width="16" height="12" fill="white"/>
</clipPath>
</defs>
</svg>
