<svg width="21" height="16" viewBox="0 0 21 16" fill="none" xmlns="http://www.w3.org/2000/svg">
<path d="M11.9333 9.43335C11.7045 9.67898 11.4285 9.87598 11.1218 10.0126C10.8151 10.1493 10.4841 10.2227 10.1484 10.2287C9.81273 10.2346 9.4793 10.1728 9.16801 10.0471C8.85671 9.92136 8.57393 9.73421 8.33654 9.49682C8.09914 9.25942 7.91199 8.97664 7.78626 8.66535C7.66052 8.35405 7.59877 8.02062 7.60469 7.68495C7.61062 7.34927 7.68409 7.01823 7.82073 6.71156C7.95737 6.4049 8.15438 6.12889 8.4 5.90002M15.1167 12.6167C13.6922 13.7025 11.9576 14.3041 10.1667 14.3334C4.33333 14.3334 1 7.66669 1 7.66669C2.03657 5.73493 3.47428 4.04719 5.21667 2.71669L15.1167 12.6167ZM8.41667 1.20002C8.99028 1.06575 9.57755 0.998637 10.1667 1.00002C16 1.00002 19.3333 7.66669 19.3333 7.66669C18.8275 8.61303 18.2242 9.50397 17.5333 10.325L8.41667 1.20002Z" stroke="#A0A0A0" stroke-width="1.4" stroke-linecap="round" stroke-linejoin="round"/>
</svg>
