<svg width="22" height="22" viewBox="0 0 22 22" fill="none" xmlns="http://www.w3.org/2000/svg">
<path d="M11.0013 3.66699C11.9738 3.66699 12.9064 4.0533 13.594 4.74093C14.2817 5.42857 14.668 6.3612 14.668 7.33366C14.668 8.30612 14.2817 9.23875 13.594 9.92638C12.9064 10.614 11.9738 11.0003 11.0013 11.0003C10.0288 11.0003 9.09621 10.614 8.40858 9.92638C7.72094 9.23875 7.33464 8.30612 7.33464 7.33366C7.33464 6.3612 7.72094 5.42857 8.40858 4.74093C9.09621 4.0533 10.0288 3.66699 11.0013 3.66699ZM11.0013 12.8337C15.053 12.8337 18.3346 14.4745 18.3346 16.5003V18.3337H3.66797V16.5003C3.66797 14.4745 6.94964 12.8337 11.0013 12.8337Z" fill="#121212" fill-opacity="0.45"/>
</svg>
