<svg width="24" height="24" viewBox="0 0 24 24" fill="none" xmlns="http://www.w3.org/2000/svg">
<path d="M11.9997 23.6666C10.3663 23.6666 8.83995 23.3603 7.42051 22.7478C6.00106 22.1353 4.76634 21.3041 3.71634 20.2541C2.66634 19.2041 1.83995 17.9645 1.23717 16.5353C0.634397 15.1062 0.333008 13.5749 0.333008 11.9416C0.333008 10.3083 0.634397 8.78672 1.23717 7.377C1.83995 5.96728 2.66634 4.73742 3.71634 3.68742C4.76634 2.63742 6.00106 1.81589 7.42051 1.22284C8.83995 0.62978 10.3663 0.333252 11.9997 0.333252C13.633 0.333252 15.1594 0.62978 16.5788 1.22284C17.9983 1.81589 19.233 2.63742 20.283 3.68742C21.333 4.73742 22.1594 5.96728 22.7622 7.377C23.365 8.78672 23.6663 10.3083 23.6663 11.9416C23.6663 13.5749 23.365 15.1062 22.7622 16.5353C22.1594 17.9645 21.333 19.2041 20.283 20.2541C19.233 21.3041 17.9983 22.1353 16.5788 22.7478C15.1594 23.3603 13.633 23.6666 11.9997 23.6666ZM11.9997 21.9749C12.6802 21.2749 13.249 20.4728 13.7059 19.5687C14.1629 18.6645 14.5372 17.5902 14.8288 16.3458H9.19967C9.4719 17.5124 9.83648 18.5624 10.2934 19.4958C10.7504 20.4291 11.3191 21.2555 11.9997 21.9749ZM9.52051 21.6249C9.0344 20.886 8.61634 20.0888 8.26634 19.2333C7.91634 18.3777 7.62467 17.4152 7.39134 16.3458H3.01634C3.75523 17.7263 4.61079 18.8103 5.58301 19.5978C6.55523 20.3853 7.86773 21.061 9.52051 21.6249ZM14.508 21.5958C15.908 21.1485 17.167 20.4777 18.2851 19.5833C19.4031 18.6888 20.3025 17.6096 20.983 16.3458H16.6372C16.3844 17.3958 16.0879 18.3485 15.7476 19.2041C15.4073 20.0596 14.9941 20.8569 14.508 21.5958ZM2.43301 14.5958H7.07051C7.01217 14.0708 6.97815 13.5992 6.96842 13.1812C6.9587 12.7631 6.95384 12.3499 6.95384 11.9416C6.95384 11.4555 6.96356 11.0228 6.98301 10.6437C7.00245 10.2645 7.04134 9.84159 7.09967 9.37492H2.43301C2.2969 9.84159 2.20454 10.2596 2.15592 10.6291C2.10731 10.9985 2.08301 11.436 2.08301 11.9416C2.08301 12.4471 2.10731 12.8992 2.15592 13.2978C2.20454 13.6964 2.2969 14.1291 2.43301 14.5958ZM8.87884 14.5958H15.1497C15.2275 13.993 15.2761 13.502 15.2955 13.1228C15.315 12.7437 15.3247 12.3499 15.3247 11.9416C15.3247 11.5527 15.315 11.1784 15.2955 10.8187C15.2761 10.4589 15.2275 9.9777 15.1497 9.37492H8.87884C8.80106 9.9777 8.75245 10.4589 8.73301 10.8187C8.71356 11.1784 8.70384 11.5527 8.70384 11.9416C8.70384 12.3499 8.71356 12.7437 8.73301 13.1228C8.75245 13.502 8.80106 13.993 8.87884 14.5958ZM16.8997 14.5958H21.5663C21.7025 14.1291 21.7948 13.6964 21.8434 13.2978C21.892 12.8992 21.9163 12.4471 21.9163 11.9416C21.9163 11.436 21.892 10.9985 21.8434 10.6291C21.7948 10.2596 21.7025 9.84159 21.5663 9.37492H16.9288C16.9872 10.0555 17.0261 10.5756 17.0455 10.9353C17.065 11.2951 17.0747 11.6305 17.0747 11.9416C17.0747 12.3694 17.0601 12.7728 17.0309 13.152C17.0018 13.5312 16.958 14.0124 16.8997 14.5958ZM16.608 7.62492H20.983C20.3413 6.28325 19.4615 5.1652 18.3434 4.27075C17.2254 3.37631 15.9372 2.74436 14.4788 2.37492C14.965 3.09436 15.3781 3.87214 15.7184 4.70825C16.0587 5.54436 16.3552 6.51659 16.608 7.62492ZM9.19967 7.62492H14.858C14.6441 6.59436 14.2844 5.59784 13.7788 4.63534C13.2733 3.67284 12.6802 2.82214 11.9997 2.08325C11.3775 2.60825 10.8525 3.29853 10.4247 4.15409C9.9969 5.00964 9.58856 6.16659 9.19967 7.62492ZM3.01634 7.62492H7.42051C7.6344 6.57492 7.90662 5.63672 8.23717 4.81034C8.56773 3.98395 8.98579 3.18186 9.49134 2.40409C8.03301 2.77353 6.7594 3.39575 5.67051 4.27075C4.58162 5.14575 3.6969 6.26381 3.01634 7.62492Z" fill="white"/>
</svg>
