<svg width="25" height="23" viewBox="0 0 25 23" fill="none" xmlns="http://www.w3.org/2000/svg">
<g clip-path="url(#clip0_173_138)">
<path d="M22.5382 16.4229C22.6217 16.4501 22.6807 16.4983 22.7173 16.5736C22.7783 16.7012 22.7539 16.8917 22.6359 17.1658C22.6339 17.17 22.6318 17.1742 22.6298 17.1784L22.1985 17.9087C22.0317 18.1891 21.8628 18.4716 21.639 18.6892C21.405 18.9131 21.1182 19.0638 20.7255 19.0617C20.3593 19.0617 20.0826 18.9173 19.8547 18.7039C19.635 18.4988 19.4682 18.233 19.3095 17.9715L18.9311 17.3541C18.7927 17.1407 18.7215 16.9482 18.7154 16.7891C18.7134 16.7138 18.7256 16.6468 18.752 16.5861C18.7805 16.5234 18.8232 16.4711 18.8822 16.4313C18.9107 16.4125 18.9412 16.3957 18.9738 16.3832C18.9494 16.0483 18.9412 15.6256 18.9555 15.272C18.9636 15.1883 18.9799 15.1046 19.0023 15.0209C19.0979 14.6651 19.342 14.3805 19.6411 14.1838C19.7469 14.1148 19.8629 14.0562 19.9849 14.0122C20.7113 13.7423 21.6736 13.8888 22.1883 14.4621C22.3979 14.6965 22.5301 15.0062 22.5586 15.4143L22.5382 16.4229ZM3.04565 19.4928L3.72111 21.5394L4.06087 20.3257L3.89404 20.1373C3.81877 20.0243 3.80249 19.926 3.84318 19.8402C3.9327 19.656 4.11987 19.6916 4.29484 19.6916C4.47795 19.6916 4.70378 19.656 4.76074 19.8925C4.77905 19.972 4.75667 20.0536 4.70174 20.1394L4.53491 20.3278L4.87467 21.5415L5.48706 19.4949C5.82682 19.8088 6.67521 19.9302 7.27132 20.0955C7.32015 19.9929 7.37915 19.8988 7.44222 19.813C7.59277 19.61 7.77791 19.4572 7.98543 19.34C8.63851 18.9655 10.3943 18.8546 10.9884 18.3063L11.8958 21.0539L12.3515 19.4237L12.1277 19.1726C12.026 19.022 12.0056 18.888 12.0605 18.775C12.1826 18.5281 12.4329 18.5741 12.6668 18.5741C12.913 18.5741 13.2161 18.526 13.2935 18.842C13.3199 18.9487 13.2874 19.0575 13.2141 19.1726L12.9903 19.4237L13.446 21.0539L14.268 18.3063C14.8621 18.8546 16.6178 18.9655 17.2709 19.34C17.4784 19.4593 17.6636 19.61 17.8141 19.813C17.865 19.882 17.9118 19.9574 17.9545 20.0369C18.5221 19.8988 19.2078 19.7711 19.5048 19.497L20.1823 21.5436L20.5221 20.3298L20.3552 20.1415C20.2799 20.0285 20.2637 19.9302 20.3044 19.8444C20.3939 19.6602 20.5811 19.6958 20.756 19.6958C20.9391 19.6958 21.165 19.6602 21.2219 19.8967C21.2402 19.9762 21.2179 20.0578 21.1629 20.1436L20.9961 20.3319L21.3359 21.5457L21.9482 19.4991C22.3897 19.9071 23.6979 19.9908 24.1842 20.2692C24.3388 20.3571 24.4771 20.4701 24.589 20.6207C24.7579 20.8509 24.8637 21.1522 24.8922 21.5352L24.9939 22.5501C24.9695 22.8201 24.821 22.977 24.526 23H17.806C17.7816 23.0042 17.7572 23.0063 17.7327 23.0084H7.5297C7.50529 23.0063 7.48088 23.0042 7.45646 23H0.467936C0.174967 22.977 0.0244141 22.8222 0 22.5501L0.101725 21.5352C0.130208 21.1522 0.233968 20.853 0.404867 20.6207C0.516764 20.468 0.655111 20.3571 0.809733 20.2692C1.29598 19.9825 2.60417 19.9009 3.04565 19.4928ZM6.073 16.4229C6.15641 16.4501 6.21541 16.4983 6.25203 16.5736C6.31307 16.7012 6.28866 16.8917 6.17065 17.1658C6.16862 17.17 6.16659 17.1742 6.16455 17.1784L5.73324 17.9087C5.56641 18.1891 5.39754 18.4716 5.17375 18.6892C4.93978 18.9131 4.65291 19.0638 4.26025 19.0617C3.89404 19.0617 3.61735 18.9173 3.38949 18.7039C3.16976 18.4988 3.00293 18.233 2.84424 17.9715L2.46582 17.3541C2.32747 17.1407 2.25627 16.9482 2.25016 16.7891C2.24813 16.7138 2.26034 16.6468 2.28678 16.5861C2.31527 16.5234 2.35799 16.4711 2.41699 16.4313C2.44548 16.4125 2.47599 16.3957 2.50855 16.3832C2.48413 16.0483 2.47599 15.6256 2.49023 15.272C2.49837 15.1883 2.51465 15.1046 2.53703 15.0209C2.63468 14.6651 2.87679 14.3805 3.17586 14.1838C3.28166 14.1148 3.39762 14.0562 3.51969 14.0122C4.24601 13.7423 5.20833 13.8888 5.72306 14.4621C5.93262 14.6965 6.06486 15.0062 6.09334 15.4143L6.073 16.4229ZM2.75879 16.5903C2.68758 16.5945 2.63265 16.6113 2.59399 16.6385C2.56958 16.6552 2.5533 16.6761 2.5411 16.7012C2.52889 16.7284 2.52279 16.7619 2.52482 16.8017C2.52889 16.9168 2.58586 17.0654 2.69979 17.237L2.70182 17.239L3.06803 17.8375C3.21452 18.0782 3.36914 18.323 3.56038 18.5009C3.74349 18.6725 3.96729 18.7897 4.26229 18.7918C4.58171 18.7918 4.81567 18.6704 5.00488 18.4883C5.20223 18.2979 5.35685 18.0384 5.51147 17.7789L5.92448 17.08C6.00993 16.8791 6.03638 16.7536 6.00586 16.6929C5.98348 16.6468 5.90413 16.6343 5.77189 16.6468C5.74951 16.6489 5.72713 16.6426 5.70882 16.6322C5.68848 16.6322 5.66813 16.6322 5.64575 16.6301L5.65999 16.5589C5.65999 16.5548 5.65796 16.5527 5.65796 16.5485C5.65592 16.5234 5.66203 16.5004 5.67424 16.4794L5.76782 15.9939C5.01506 15.9835 4.49829 15.8495 3.88794 15.4478C3.68856 15.3159 3.62752 15.1653 3.42611 15.1799C3.27555 15.2092 3.14738 15.2804 3.04565 15.3913C2.948 15.498 2.87476 15.6445 2.82796 15.8328L2.92155 16.5924C2.86255 16.6071 2.80965 16.6071 2.75879 16.5903ZM3.04565 11.5492L3.67025 13.4388C3.56242 13.464 3.45662 13.4953 3.3549 13.533C3.27148 13.5644 3.19417 13.5979 3.12703 13.6314C3.06193 13.6648 2.99072 13.7046 2.91545 13.7548C2.712 13.8888 2.52889 14.052 2.38444 14.2424C2.24202 14.4287 2.13216 14.6442 2.06706 14.8828C2.05282 14.9372 2.03857 14.9937 2.0284 15.0523C2.01823 15.1046 2.01213 15.159 2.00602 15.2155C2.00399 15.2259 2.00399 15.2385 2.00399 15.249C1.99788 15.3808 1.99585 15.5273 1.99585 15.6759H0.467936C0.172933 15.6528 0.0244141 15.498 0 15.228L0.101725 13.5853C0.130208 13.2024 0.233968 12.9031 0.404867 12.6709C0.516764 12.5181 0.655111 12.4072 0.809733 12.3193C1.29598 12.041 2.60417 11.9573 3.04565 11.5492ZM3.77197 13.4179L4.06291 12.3821L3.89608 12.1937C3.8208 12.0807 3.80452 11.9824 3.84521 11.8966C3.93473 11.7124 4.12191 11.748 4.29688 11.748C4.47998 11.748 4.70581 11.7124 4.76278 11.9489C4.78109 12.0284 4.75871 12.11 4.70378 12.1958L4.53695 12.3842L4.82992 13.4284C4.48405 13.3551 4.11784 13.353 3.77197 13.4179ZM4.9235 13.4451L5.49113 11.5492C5.93262 11.9573 7.2408 12.041 7.72705 12.3193C7.88167 12.4072 8.02002 12.5202 8.13192 12.6709C8.30078 12.901 8.40658 13.2024 8.43506 13.5853L8.53678 15.228C8.51237 15.498 8.36385 15.6549 8.06885 15.678H6.58569L6.58976 15.4624C6.5918 15.4352 6.5918 15.408 6.58976 15.3808C6.57145 15.1234 6.51855 14.8932 6.43514 14.6819C6.34969 14.4663 6.23169 14.278 6.08724 14.1169C5.7841 13.7758 5.36906 13.5539 4.9235 13.4451ZM6.073 8.48142C6.15641 8.50863 6.21541 8.55676 6.25203 8.63209C6.31307 8.75974 6.28866 8.95017 6.17065 9.22431C6.16862 9.22849 6.16659 9.23268 6.16455 9.23686L5.73324 9.96719C5.56641 10.2476 5.39754 10.5301 5.17375 10.7477C4.93978 10.9716 4.65291 11.1223 4.26025 11.1202C3.89404 11.1202 3.61735 10.9758 3.38949 10.7624C3.16976 10.5573 3.00293 10.2915 2.84424 10.03L2.46582 9.41264C2.32747 9.19919 2.25627 9.00667 2.25016 8.84763C2.24813 8.7723 2.26034 8.70534 2.28678 8.64465C2.31527 8.58187 2.35799 8.52956 2.41699 8.4898C2.44548 8.47096 2.47599 8.45422 2.50855 8.44167C2.48413 8.10685 2.47599 7.68414 2.49023 7.33048C2.49837 7.24678 2.51465 7.16307 2.53703 7.07937C2.63468 6.72362 2.87679 6.43903 3.17586 6.24232C3.28166 6.17326 3.39762 6.11467 3.51969 6.07073C4.24601 5.80078 5.20833 5.94726 5.72306 6.52064C5.93262 6.75501 6.06486 7.06472 6.09334 7.47278L6.073 8.48142ZM2.75879 8.62582C2.68758 8.63 2.63265 8.64674 2.59399 8.67395C2.56958 8.69069 2.5533 8.71161 2.5411 8.73672C2.52889 8.76393 2.52279 8.79741 2.52482 8.83717C2.52889 8.95226 2.58586 9.10084 2.69979 9.27244L2.70182 9.27453L3.06803 9.87302C3.21452 10.1137 3.36914 10.3585 3.56038 10.5364C3.74349 10.708 3.96729 10.8252 4.26229 10.8273C4.58171 10.8273 4.81567 10.7059 5.00488 10.5238C5.20223 10.3334 5.35685 10.0739 5.51147 9.81442L5.92448 9.11549C6.00993 8.9146 6.03638 8.78904 6.00586 8.72835C5.98348 8.68232 5.90413 8.66976 5.77189 8.68232C5.74951 8.68441 5.72713 8.67813 5.70882 8.66767C5.68848 8.66767 5.66813 8.66767 5.64575 8.66558L5.65999 8.59443C5.65999 8.59024 5.65796 8.58815 5.65796 8.58396C5.65592 8.55885 5.66203 8.53583 5.67424 8.51491L5.76782 8.02942C5.01506 8.01896 4.49829 7.88503 3.88794 7.48324C3.68856 7.35141 3.62752 7.20074 3.42611 7.21539C3.27555 7.24469 3.14738 7.31584 3.04565 7.42674C2.948 7.53347 2.87476 7.67995 2.82796 7.86829L2.92155 8.62791C2.86255 8.64256 2.80965 8.64046 2.75879 8.62582ZM15.0675 14.1817C15.1774 14.2173 15.2588 14.2843 15.3076 14.3847C15.389 14.5542 15.3564 14.8116 15.1978 15.1799C15.1957 15.1862 15.1917 15.1925 15.1896 15.1966L14.6118 16.176C14.388 16.5527 14.1622 16.9314 13.8611 17.2244C13.5478 17.5257 13.1612 17.7266 12.6343 17.7245C12.1419 17.7224 11.7716 17.5299 11.4665 17.2432C11.1735 16.967 10.9477 16.6113 10.734 16.2618L10.2275 15.431C10.0423 15.1464 9.94466 14.8848 9.93856 14.6714C9.93652 14.571 9.9528 14.4789 9.98942 14.3994C10.0281 14.3157 10.085 14.2445 10.1644 14.1901C10.201 14.165 10.2417 14.142 10.2885 14.1252C10.2559 13.6753 10.2437 13.1082 10.2641 12.6353C10.2743 12.5223 10.2966 12.4093 10.3271 12.2963C10.4574 11.8192 10.7829 11.4362 11.1837 11.1725C11.3261 11.0805 11.4807 11.003 11.6455 10.9423C12.62 10.5803 13.9119 10.777 14.6037 11.5471C14.8865 11.861 15.0614 12.2774 15.1001 12.8257L15.0675 14.1817ZM10.553 14.3742C10.4533 14.3805 10.378 14.4035 10.3251 14.4412C10.2926 14.4642 10.2681 14.4935 10.2519 14.527C10.2336 14.5647 10.2275 14.6128 10.2275 14.6651C10.2315 14.8242 10.3129 15.0313 10.4696 15.2699L10.4716 15.2741L10.9782 16.1048C11.1816 16.4376 11.3953 16.7766 11.6598 17.0256C11.9141 17.2642 12.2233 17.4274 12.6322 17.4274C13.0737 17.4295 13.3972 17.26 13.6617 17.0068C13.9343 16.7431 14.15 16.3832 14.3636 16.0232L14.9353 15.0543C15.0533 14.776 15.0899 14.6023 15.0492 14.5165C15.0187 14.4538 14.9089 14.4349 14.7257 14.4538C14.6932 14.4559 14.6627 14.4496 14.6383 14.4328C14.6098 14.4349 14.5813 14.4328 14.5508 14.4307L14.5691 14.3324C14.5691 14.3282 14.5671 14.3219 14.5671 14.3177C14.563 14.2822 14.5732 14.2508 14.5894 14.2236L14.7196 13.5498C13.6739 13.5372 12.9598 13.3489 12.1134 12.7922C11.8368 12.6102 11.7513 12.4009 11.4726 12.4218C11.263 12.4637 11.086 12.5599 10.9456 12.7148C10.8114 12.8634 10.7096 13.0664 10.6445 13.3279L10.7727 14.3805C10.6974 14.3973 10.6222 14.3952 10.553 14.3742ZM11.4095 5.61244L12.085 7.65902L12.4247 6.4453L12.2579 6.25697C12.1826 6.14397 12.1663 6.04561 12.207 5.95982C12.2966 5.77567 12.4837 5.81124 12.6587 5.81124C12.8418 5.81124 13.0676 5.77567 13.1246 6.01213C13.1429 6.09165 13.1205 6.17326 13.0656 6.25906L12.8988 6.4474L13.2385 7.66112L13.8509 5.61453C14.2924 6.0226 15.6006 6.1063 16.0868 6.38462C16.2415 6.47251 16.3798 6.58551 16.4917 6.73618C16.6606 6.96637 16.7664 7.2677 16.7948 7.65065L16.8966 8.89995C16.8722 9.1699 16.7236 9.32684 16.4286 9.34986H8.83179C8.53882 9.32684 8.38827 9.17199 8.36385 8.89995L8.46558 7.65065C8.49406 7.2677 8.59782 6.96846 8.76872 6.73618C8.88062 6.58342 9.01896 6.47251 9.17358 6.38462C9.65983 6.10211 10.968 6.0205 11.4095 5.61244ZM14.4368 2.54257C14.5203 2.56977 14.5793 2.6179 14.6159 2.69323C14.6769 2.82088 14.6525 3.01131 14.5345 3.28545C14.5325 3.28963 14.5304 3.29382 14.5284 3.298L14.0971 4.02833C13.9303 4.30874 13.7614 4.59124 13.5376 4.80887C13.3036 5.03279 13.0168 5.18345 12.6241 5.18136C12.2579 5.18136 11.9812 5.03697 11.7533 4.82352C11.5336 4.61845 11.3668 4.35268 11.2081 4.09111L10.8297 3.47378C10.6913 3.26034 10.6201 3.06781 10.614 2.90877C10.612 2.83344 10.6242 2.76648 10.6506 2.70579C10.6791 2.64301 10.7218 2.5907 10.7808 2.55094C10.8093 2.5321 10.8398 2.51536 10.8724 2.50281C10.848 2.16799 10.8398 1.74528 10.8541 1.39162C10.8622 1.30792 10.8785 1.22421 10.9009 1.14051C10.9965 0.784764 11.2406 0.500167 11.5397 0.303461C11.6455 0.234405 11.7615 0.175811 11.8835 0.131866C12.6099 -0.138082 13.5722 0.00840144 14.0869 0.58178C14.2965 0.816153 14.4287 1.12586 14.4572 1.53392L14.4368 2.54257ZM11.1226 2.6744C11.0514 2.67859 10.9965 2.69533 10.9578 2.72253C10.9334 2.73927 10.9172 2.7602 10.9049 2.78531C10.8927 2.81251 10.8866 2.846 10.8887 2.88576C10.8927 3.00085 10.9497 3.14943 11.0636 3.32102L11.0657 3.32311L11.4319 3.9216C11.5784 4.16225 11.733 4.40709 11.9242 4.58496C12.1073 4.75656 12.3311 4.87375 12.6261 4.87584C12.9456 4.87584 13.1795 4.75447 13.3687 4.57241C13.5661 4.38198 13.7207 4.12249 13.8753 3.86301L14.2883 3.16407C14.3738 2.96318 14.4002 2.83763 14.3697 2.77694C14.3473 2.7309 14.268 2.71835 14.1357 2.7309C14.1134 2.73299 14.091 2.72672 14.0727 2.71625C14.0523 2.71625 14.032 2.71625 14.0096 2.71416L14.0238 2.64301C14.0238 2.63883 14.0218 2.63673 14.0218 2.63255C14.0198 2.60744 14.0259 2.58442 14.0381 2.56349L14.1317 2.078C13.3789 2.06754 12.8621 1.93361 12.2518 1.53183C12.0524 1.39999 11.9914 1.24933 11.79 1.26397C11.6394 1.29327 11.5112 1.36442 11.4095 1.47533C11.3118 1.58205 11.2386 1.72854 11.1918 1.91687L11.2854 2.67649C11.2264 2.69114 11.1735 2.69114 11.1226 2.6744ZM22.5382 8.48142C22.6217 8.50863 22.6807 8.55676 22.7173 8.63209C22.7783 8.75974 22.7539 8.95017 22.6359 9.22431C22.6339 9.22849 22.6318 9.23268 22.6298 9.23686L22.1985 9.96719C22.0317 10.2476 21.8628 10.5301 21.639 10.7477C21.405 10.9716 21.1182 11.1223 20.7255 11.1202C20.3593 11.1202 20.0826 10.9758 19.8547 10.7624C19.635 10.5573 19.4682 10.2915 19.3095 10.03L18.9311 9.41264C18.7927 9.19919 18.7215 9.00667 18.7154 8.84763C18.7134 8.7723 18.7256 8.70534 18.752 8.64465C18.7805 8.58187 18.8232 8.52956 18.8822 8.4898C18.9107 8.47096 18.9412 8.45422 18.9738 8.44167C18.9494 8.10685 18.9412 7.68414 18.9555 7.33048C18.9636 7.24678 18.9799 7.16307 19.0023 7.07937C19.0979 6.72362 19.342 6.43903 19.6411 6.24232C19.7469 6.17326 19.8629 6.11467 19.9849 6.07073C20.7113 5.80078 21.6736 5.94726 22.1883 6.52064C22.3979 6.75501 22.5301 7.06472 22.5586 7.47278L22.5382 8.48142ZM19.5089 11.5492L20.1335 13.4388C20.0256 13.464 19.9198 13.4953 19.8181 13.533C19.7347 13.5644 19.6574 13.5979 19.5903 13.6314C19.5251 13.6648 19.4539 13.7046 19.3787 13.7548C19.1752 13.8888 18.9921 14.052 18.8477 14.2424C18.7052 14.4287 18.5954 14.6442 18.5303 14.8828V14.8848C18.514 14.9413 18.5018 14.9978 18.4916 15.0523C18.4814 15.1046 18.4733 15.159 18.4692 15.2155C18.4672 15.2259 18.4672 15.2385 18.4672 15.249C18.4611 15.3808 18.4591 15.5273 18.4591 15.6759H16.9352C16.6423 15.6528 16.4917 15.498 16.4673 15.2259L16.569 13.5832C16.5975 13.2003 16.7013 12.901 16.8722 12.6688C16.9841 12.516 17.1224 12.4051 17.277 12.3172C17.7592 12.041 19.0674 11.9573 19.5089 11.5492ZM20.2352 13.4179L20.5261 12.3821L20.3593 12.1937C20.284 12.0807 20.2677 11.9824 20.3084 11.8966C20.398 11.7124 20.5851 11.748 20.7601 11.748C20.9432 11.748 21.169 11.7124 21.226 11.9489C21.2443 12.0284 21.2219 12.11 21.167 12.1958L21.0002 12.3842L21.2931 13.4284C20.9493 13.3551 20.5831 13.353 20.2352 13.4179ZM21.3867 13.4451L21.9543 11.5492C22.3958 11.9573 23.704 12.041 24.1903 12.3193C24.3449 12.4072 24.4832 12.5202 24.5951 12.6709C24.764 12.901 24.8698 13.2024 24.8983 13.5853L25 15.228C24.9756 15.498 24.8271 15.6549 24.5321 15.678H23.0489L23.053 15.4624C23.055 15.4352 23.055 15.408 23.053 15.3808C23.0347 15.1234 22.9818 14.8932 22.8984 14.6819C22.8129 14.4663 22.6949 14.278 22.5505 14.1169C22.2473 13.7758 21.8323 13.5539 21.3867 13.4451ZM19.222 8.62582C19.1508 8.63 19.0959 8.64674 19.0572 8.67395C19.0328 8.69069 19.0165 8.71161 19.0043 8.73672C18.9921 8.76393 18.986 8.79741 18.988 8.83717C18.9921 8.95226 19.0491 9.10084 19.163 9.27244L19.165 9.27453L19.5313 9.87302C19.6777 10.1137 19.8324 10.3585 20.0236 10.5364C20.2067 10.708 20.4305 10.8252 20.7255 10.8273C21.0449 10.8273 21.2789 10.7059 21.4681 10.5238C21.6654 10.3334 21.8201 10.0739 21.9747 9.81442L22.3877 9.11549C22.4731 8.9146 22.4996 8.78904 22.4691 8.72835C22.4467 8.68232 22.3674 8.66976 22.2351 8.68232C22.2127 8.68441 22.1904 8.67813 22.172 8.66767C22.1517 8.66767 22.1313 8.66767 22.109 8.66558L22.1232 8.59443C22.1232 8.59024 22.1212 8.58815 22.1212 8.58396C22.1191 8.55885 22.1252 8.53583 22.1375 8.51491L22.231 8.02942C21.4783 8.01896 20.9615 7.88503 20.3512 7.48324C20.1518 7.35141 20.0907 7.20074 19.8893 7.21539C19.7388 7.24469 19.6106 7.31584 19.5089 7.42674C19.4112 7.53347 19.338 7.67995 19.2912 7.86829L19.3848 8.62791C19.3258 8.64256 19.2729 8.64046 19.222 8.62582ZM19.222 16.5903C19.1508 16.5945 19.0959 16.6113 19.0572 16.6385C19.0328 16.6552 19.0165 16.6761 19.0043 16.7012C18.9921 16.7284 18.986 16.7619 18.988 16.8017C18.9921 16.9168 19.0491 17.0654 19.163 17.237L19.165 17.239L19.5313 17.8375C19.6777 18.0782 19.8324 18.323 20.0236 18.5009C20.2067 18.6725 20.4305 18.7897 20.7255 18.7918C21.0449 18.7918 21.2789 18.6704 21.4681 18.4883C21.6654 18.2979 21.8201 18.0384 21.9747 17.7789L22.3877 17.08C22.4731 16.8791 22.4996 16.7536 22.4691 16.6929C22.4467 16.6468 22.3674 16.6343 22.2351 16.6468C22.2127 16.6489 22.1904 16.6426 22.172 16.6322C22.1517 16.6322 22.1313 16.6322 22.109 16.6301L22.1232 16.5589C22.1232 16.5548 22.1212 16.5527 22.1212 16.5485C22.1191 16.5234 22.1252 16.5004 22.1375 16.4794L22.231 15.9939C21.4783 15.9835 20.9615 15.8495 20.3512 15.4478C20.1518 15.3159 20.0907 15.1653 19.8893 15.1799C19.7388 15.2092 19.6106 15.2804 19.5089 15.3913C19.4112 15.498 19.338 15.6445 19.2912 15.8328L19.3848 16.5924C19.3258 16.6071 19.2729 16.6071 19.222 16.5903Z" fill="black"/>
</g>
<defs>
<clipPath id="clip0_173_138">
<rect width="25" height="23" fill="white"/>
</clipPath>
</defs>
</svg>
