<svg width="665" height="665" viewBox="0 0 665 665" fill="none" xmlns="http://www.w3.org/2000/svg">
<path d="M400.426 135.711H378.202L332.691 234.034L287.18 135.711H265.501C232.934 135.711 206.307 162.204 206.143 194.771L205.217 379.047C205.148 392.9 216.321 404.184 230.174 404.256C230.217 404.256 230.261 404.256 230.303 404.256C244.096 404.256 255.313 393.108 255.383 379.299L256.309 195.022C256.309 195 256.309 194.978 256.309 194.956C256.343 192.219 258.58 190.024 261.316 190.041C264.053 190.058 266.261 192.282 266.261 195.018L266.273 616.676C266.273 633.298 279.748 646.775 296.372 646.775C312.995 646.775 326.472 633.298 326.472 616.676V376.087H339.468V616.676C339.468 633.298 352.945 646.775 369.567 646.775C386.19 646.775 399.666 633.299 399.666 616.676C399.666 218.597 399.133 446.56 399.121 195.001C399.121 192.128 401.431 189.788 404.306 189.751C407.179 189.716 409.55 192 409.618 194.874L409.448 379.149C409.435 393.003 420.654 404.243 434.507 404.256C434.517 404.256 434.522 404.256 434.531 404.256C448.371 404.256 459.6 393.04 459.613 379.196L459.783 194.773C459.62 162.204 432.992 135.711 400.426 135.711Z" fill="#737373"/>
<path d="M332.965 15.168C304.254 15.168 280.98 38.443 280.98 67.1524C280.98 95.95 304.385 119.137 332.965 119.137C361.531 119.137 384.949 95.9617 384.949 67.1524C384.949 38.4417 361.674 15.168 332.965 15.168Z" fill="#737373"/>
<path d="M354.119 123.123C334.888 134.11 339.1 131.758 332.989 135.001C326.88 131.76 331.092 134.112 311.858 123.123C308.853 121.406 305.109 123.583 305.109 127.04C305.109 138.537 305.109 136.455 305.109 153.2C305.109 156.66 308.857 158.833 311.858 157.117L332.989 145.045L354.119 157.117C357.125 158.834 360.868 156.657 360.868 153.2C360.868 136.863 360.868 137.757 360.868 127.04C360.868 123.578 357.12 121.409 354.119 123.123Z" fill="#737373"/>
</svg>
