<svg width="28" height="18" viewBox="0 0 28 18" fill="none" xmlns="http://www.w3.org/2000/svg">
<path d="M20.2688 9.61818L20.2688 9.61813L20.2648 9.61602C20.0666 9.51169 19.8955 9.37425 19.7158 9.20598C19.5809 9.07087 19.4633 8.93858 19.3549 8.78487C20.1781 7.66321 20.6167 6.31187 20.6167 4.91634V4.91573V4.91511V4.91449V4.91388V4.91326V4.91265V4.91203V4.91141V4.91079V4.91018V4.90956V4.90894V4.90832V4.9077V4.90708V4.90646V4.90584V4.90522V4.9046V4.90398V4.90336V4.90274V4.90212V4.9015V4.90088V4.90026V4.89964V4.89901V4.89839V4.89777V4.89715V4.89652V4.8959V4.89528V4.89465V4.89403V4.8934V4.89278V4.89215V4.89153V4.8909V4.89028V4.88965V4.88903V4.8884V4.88777V4.88715V4.88652V4.88589V4.88527V4.88464V4.88401V4.88338V4.88276V4.88213V4.8815V4.88087V4.88024V4.87961V4.87898V4.87835V4.87773V4.8771V4.87646V4.87583V4.8752V4.87457V4.87394V4.87331V4.87268V4.87205V4.87142V4.87079V4.87015V4.86952V4.86889V4.86826V4.86762V4.86699V4.86636V4.86572V4.86509V4.86446V4.86382V4.86319V4.86255V4.86192V4.86129V4.86065V4.86002V4.85938V4.85875V4.85811V4.85747V4.85684V4.8562V4.85557V4.85493V4.85429V4.85366V4.85302V4.85238V4.85175V4.85111V4.85047V4.84983V4.8492V4.84856V4.84792V4.84728V4.84664V4.846V4.84537V4.84473V4.84409V4.84345V4.84281V4.84217V4.84153V4.84089V4.84025V4.83961V4.83897V4.83833V4.83769V4.83705V4.83641V4.83577V4.83513V4.83449V4.83385V4.8332V4.83256V4.83192V4.83128V4.83064V4.83V4.82935V4.82871V4.82807V4.82743V4.82678V4.82614V4.8255V4.82486V4.82421V4.82357V4.82293V4.82228V4.82164V4.821V4.82035V4.81971V4.81906V4.81842V4.81778V4.81713V4.81649V4.81584V4.8152V4.81455V4.81391V4.81326V4.81262V4.81197V4.81133V4.81068V4.81004V4.80939V4.80875V4.8081V4.80746V4.80681V4.80616V4.80552V4.80487V4.80423V4.80358V4.80293V4.80229V4.80164V4.80099V4.80035V4.7997V4.79905V4.79841V4.79776V4.79711V4.79647V4.79582V4.79517V4.79453V4.79388V4.79323V4.79258V4.79194V4.79129V4.79064V4.78999V4.78934V4.7887V4.78805V4.7874V4.78675V4.78611V4.78546V4.78481V4.78416V4.78351V4.78286V4.78222V4.78157V4.78092V4.78027V4.77962V4.77897V4.77833V4.77768V4.77703V4.77638V4.77573V4.77508V4.77443V4.77378V4.77313V4.77249V4.77184V4.77119V4.77054V4.76989V4.76924V4.76859V4.76794V4.76729V4.76664V4.766V4.76535V4.7647V4.76405V4.7634V4.76275V4.7621V4.76145V4.7608V4.76015V4.7595V4.75885V4.7582V4.75755V4.7569V4.75626V4.75561V4.75496V4.75431V4.75366V4.75301V4.75236V4.75171V4.75106V4.75041V4.74976V4.74911V4.74846V4.74781V4.74716V4.74651V4.74586V4.74522V4.74457V4.74392V4.74327V4.74262V4.74197V4.74132V4.74067V4.74002V4.73937V4.73872V4.73807V4.73742V4.73678V4.73613V4.73548V4.73483V4.73418V4.73353V4.73288V4.73223V4.73158V4.73094V4.73029V4.72964V4.72899V4.72834V4.72769V4.72704V4.72639V4.72575V4.7251V4.72445V4.7238V4.72315V4.7225V4.72186V4.72121V4.72056C20.9116 4.60063 21.2387 4.53301 21.5833 4.53301C22.3038 4.53301 22.9948 4.81923 23.5043 5.3287C24.0138 5.83818 24.3 6.52917 24.3 7.24967C24.3 8.26829 23.7259 9.14941 22.8971 9.61858C22.5042 9.83676 22.0592 9.96634 21.5833 9.96634C21.1071 9.96634 20.662 9.8366 20.2688 9.61818ZM18.935 15.033L19.0252 14.6545C17.8456 14.0587 15.8199 13.4663 14 13.4663C12.1801 13.4663 10.1544 14.0587 8.97484 14.6545L9.065 15.033H18.935ZM11.2541 2.17041C11.9823 1.44214 12.9701 1.03301 14 1.03301C15.0299 1.03301 16.0177 1.44214 16.7459 2.17041C17.4742 2.89868 17.8833 3.88642 17.8833 4.91634C17.8833 5.94627 17.4742 6.93401 16.7459 7.66227C16.0177 8.39054 15.0299 8.79967 14 8.79967C12.9701 8.79967 11.9823 8.39054 11.2541 7.66227C10.5258 6.93401 10.1167 5.94627 10.1167 4.91634C10.1167 3.88642 10.5258 2.89868 11.2541 2.17041ZM15.3789 3.53748C15.0132 3.17179 14.5172 2.96634 14 2.96634C13.4828 2.96634 12.9868 3.17179 12.6211 3.53748C12.2554 3.90318 12.05 4.39917 12.05 4.91634C12.05 5.43351 12.2554 5.9295 12.6211 6.2952C12.9868 6.6609 13.4828 6.86634 14 6.86634C14.5172 6.86634 15.0132 6.6609 15.3789 6.2952C15.7446 5.9295 15.95 5.43351 15.95 4.91634C15.95 4.39917 15.7446 3.90318 15.3789 3.53748ZM4.49569 5.3287C5.00517 4.81923 5.69616 4.53301 6.41667 4.53301C6.76128 4.53301 7.08843 4.60062 7.38333 4.72055V4.72056V4.72121V4.72186V4.7225V4.72315V4.7238V4.72445V4.7251V4.72575V4.72639V4.72704V4.72769V4.72834V4.72899V4.72964V4.73029V4.73094V4.73158V4.73223V4.73288V4.73353V4.73418V4.73483V4.73548V4.73613V4.73678V4.73742V4.73807V4.73872V4.73937V4.74002V4.74067V4.74132V4.74197V4.74262V4.74327V4.74392V4.74457V4.74522V4.74586V4.74651V4.74716V4.74781V4.74846V4.74911V4.74976V4.75041V4.75106V4.75171V4.75236V4.75301V4.75366V4.75431V4.75496V4.75561V4.75626V4.7569V4.75755V4.7582V4.75885V4.7595V4.76015V4.7608V4.76145V4.7621V4.76275V4.7634V4.76405V4.7647V4.76535V4.766V4.76664V4.76729V4.76794V4.76859V4.76924V4.76989V4.77054V4.77119V4.77184V4.77249V4.77313V4.77378V4.77443V4.77508V4.77573V4.77638V4.77703V4.77768V4.77833V4.77897V4.77962V4.78027V4.78092V4.78157V4.78222V4.78286V4.78351V4.78416V4.78481V4.78546V4.78611V4.78675V4.7874V4.78805V4.7887V4.78934V4.78999V4.79064V4.79129V4.79194V4.79258V4.79323V4.79388V4.79453V4.79517V4.79582V4.79647V4.79711V4.79776V4.79841V4.79905V4.7997V4.80035V4.80099V4.80164V4.80229V4.80293V4.80358V4.80423V4.80487V4.80552V4.80616V4.80681V4.80746V4.8081V4.80875V4.80939V4.81004V4.81068V4.81133V4.81197V4.81262V4.81326V4.81391V4.81455V4.8152V4.81584V4.81649V4.81713V4.81778V4.81842V4.81906V4.81971V4.82035V4.821V4.82164V4.82228V4.82293V4.82357V4.82421V4.82486V4.8255V4.82614V4.82678V4.82743V4.82807V4.82871V4.82935V4.83V4.83064V4.83128V4.83192V4.83256V4.8332V4.83385V4.83449V4.83513V4.83577V4.83641V4.83705V4.83769V4.83833V4.83897V4.83961V4.84025V4.84089V4.84153V4.84217V4.84281V4.84345V4.84409V4.84473V4.84537V4.846V4.84664V4.84728V4.84792V4.84856V4.8492V4.84983V4.85047V4.85111V4.85175V4.85238V4.85302V4.85366V4.85429V4.85493V4.85557V4.8562V4.85684V4.85747V4.85811V4.85875V4.85938V4.86002V4.86065V4.86129V4.86192V4.86255V4.86319V4.86382V4.86446V4.86509V4.86572V4.86636V4.86699V4.86762V4.86826V4.86889V4.86952V4.87015V4.87079V4.87142V4.87205V4.87268V4.87331V4.87394V4.87457V4.8752V4.87583V4.87646V4.8771V4.87773V4.87835V4.87898V4.87961V4.88024V4.88087V4.8815V4.88213V4.88276V4.88338V4.88401V4.88464V4.88527V4.88589V4.88652V4.88715V4.88777V4.8884V4.88903V4.88965V4.89028V4.8909V4.89153V4.89215V4.89278V4.8934V4.89403V4.89465V4.89528V4.8959V4.89652V4.89715V4.89777V4.89839V4.89901V4.89964V4.90026V4.90088V4.9015V4.90212V4.90274V4.90336V4.90398V4.9046V4.90522V4.90584V4.90646V4.90708V4.9077V4.90832V4.90894V4.90956V4.91018V4.91079V4.91141V4.91203V4.91265V4.91326V4.91388V4.91449V4.91511V4.91573V4.91634C7.38333 6.31171 7.82178 7.66291 8.64477 8.7845C8.40295 9.12714 8.09266 9.41285 7.73044 9.6186C7.33747 9.83677 6.89256 9.96634 6.41667 9.96634C5.94071 9.96634 5.49576 9.83674 5.10276 9.61853C4.27407 9.14934 3.7 8.26825 3.7 7.24967C3.7 6.52917 3.98622 5.83818 4.49569 5.3287ZM6.03333 15.4163C6.03333 14.8101 6.33486 14.2646 6.86118 13.7784C7.38889 13.291 8.1293 12.8766 8.96728 12.541C10.6435 11.8696 12.6599 11.533 14 11.533C15.3401 11.533 17.3565 11.8696 19.0327 12.541C19.8707 12.8766 20.6111 13.291 21.1388 13.7784C21.6651 14.2646 21.9667 14.8101 21.9667 15.4163V16.9663H6.03333V15.4163ZM0.2 15.4163C0.2 14.5195 0.918588 13.7773 1.99605 13.212C2.81592 12.7818 3.80365 12.4768 4.72048 12.2989C3.86713 13.0141 3.3 13.8844 3.3 14.9147V16.9663H0.2V15.4163ZM24.7 14.9147C24.7 13.8844 24.1329 13.0141 23.2795 12.2989C24.1964 12.4768 25.1841 12.7818 26.004 13.212C27.0814 13.7773 27.8 14.5195 27.8 15.4163V16.9663H24.7V14.9147Z" fill="black" stroke="#D5D8E6" stroke-width="0.4"/>
</svg>
