<svg width="17" height="21" viewBox="0 0 17 21" fill="none" xmlns="http://www.w3.org/2000/svg">
<g clip-path="url(#clip0_205_46)">
<path d="M7.45203 9.74121C7.40953 9.74443 7.36684 9.73853 7.32664 9.72389C7.28643 9.70924 7.24957 9.68616 7.21836 9.6561C7.18715 9.62603 7.16225 9.58961 7.14523 9.54912C7.1282 9.50863 7.11942 9.46494 7.11942 9.42078C7.11942 9.37661 7.1282 9.33292 7.14523 9.29243C7.16225 9.25194 7.18715 9.21553 7.21836 9.18546C7.24957 9.15539 7.28643 9.13231 7.32664 9.11766C7.36684 9.10302 7.40953 9.09712 7.45203 9.10034H8.64099C8.6835 9.09712 8.72618 9.10302 8.76639 9.11766C8.80659 9.13231 8.84345 9.15539 8.87467 9.18546C8.90588 9.21553 8.93078 9.25194 8.9478 9.29243C8.96482 9.33292 8.97361 9.37661 8.97361 9.42078C8.97361 9.46494 8.96482 9.50863 8.9478 9.54912C8.93078 9.58961 8.90588 9.62603 8.87467 9.6561C8.84345 9.68616 8.80659 9.70924 8.76639 9.72389C8.72618 9.73853 8.6835 9.74443 8.64099 9.74121H7.45203ZM8.15123 4.23145C8.15123 3.63672 8.17102 3.13428 8.89165 2.95142C8.87519 2.91438 8.86621 2.87426 8.86526 2.8335V2.73438H8.85372L8.9741 2.05078C9.04383 1.91083 9.14576 1.79085 9.27087 1.70142C9.39599 1.612 9.54043 1.5559 9.69144 1.53809C9.6896 1.52391 9.6896 1.50954 9.69144 1.49536V1.11768C9.68989 1.09606 9.68989 1.07435 9.69144 1.05273C9.85634 0.00170898 10.8557 0.0153809 11.6703 0.0273438H11.883L12.8197 0H12.8477C13.6458 0.0393066 14.1669 0.364014 14.7606 0.73999C15.1795 1.01172 16.4261 1.19629 16.7296 1.64233C16.9036 1.89863 16.998 2.20392 17 2.51733V5.79346C17.0054 5.9483 16.9705 6.1018 16.8992 6.23796C16.8278 6.37412 16.7226 6.48796 16.5943 6.56763C16.3767 6.72144 15.2091 6.82056 14.8249 6.87183C13.8875 7.5116 12.9145 8.09366 11.9111 8.61499C11.7031 8.725 11.481 8.80328 11.2514 8.84741V9.34131H14.1702C14.2308 9.34114 14.29 9.35955 14.3405 9.39422C14.391 9.42889 14.4304 9.47827 14.4539 9.53613L16.1029 12.843C16.129 12.8958 16.141 12.9548 16.1376 13.0139L16.1606 20.6787C16.1602 20.7632 16.1275 20.844 16.0697 20.9036C16.012 20.9631 15.9338 20.9966 15.8523 20.9966H0.308371C0.226871 20.9966 0.148685 20.9631 0.0909008 20.9036C0.0331172 20.844 0.00043583 20.7632 0 20.6787L0 12.9883V12.978L1.72655 9.51221C1.75249 9.46066 1.79157 9.41747 1.83954 9.38734C1.88752 9.35721 1.94255 9.34128 1.99864 9.34131H4.85314V6.30957C4.8527 6.25738 4.86229 6.20561 4.88136 6.1573C4.90043 6.10899 4.9286 6.06511 4.96421 6.0282C4.99983 5.99129 5.04218 5.9621 5.08879 5.94234C5.13541 5.92257 5.18535 5.91263 5.23572 5.91309H6.22514C6.17736 5.7204 6.1763 5.51846 6.22204 5.32525C6.26779 5.13204 6.35893 4.95354 6.48734 4.80566C7.22446 3.92554 8.13639 4.49121 8.14793 4.23657L8.15123 4.23145ZM10.6248 8.8457C9.69473 8.656 9.28412 7.61523 10.0674 6.84277H7.68125C7.32302 6.85756 6.96921 6.75664 6.66874 6.55396H5.46988V10.9836H10.6281V8.84399L10.6248 8.8457ZM14.4951 6.38818C14.5316 6.36142 14.5743 6.34494 14.6188 6.34033C14.9486 6.29761 16.065 6.22412 16.2217 6.11646C16.2737 6.08536 16.3166 6.04011 16.3457 5.98559C16.3747 5.93108 16.3889 5.86937 16.3866 5.80713V2.53784C16.3842 2.33514 16.3227 2.13792 16.2101 1.97217C15.9957 1.64575 14.7375 1.43555 14.411 1.23047C13.1149 0.411865 13.1363 0.618652 11.7593 0.591309C11.1558 0.591309 10.4104 0.574219 10.3181 1.14673V1.51587C10.483 1.51587 10.6611 1.52954 10.8276 1.53809C10.9942 1.54663 11.1195 1.55859 11.258 1.55859C11.3284 1.55859 11.396 1.58758 11.4458 1.63918C11.4956 1.69078 11.5235 1.76077 11.5235 1.83374C11.5235 1.90671 11.4956 1.9767 11.4458 2.0283C11.396 2.0799 11.3284 2.10889 11.258 2.10889C11.1179 2.10889 10.9595 2.09863 10.793 2.08838C10.2241 2.05078 9.57435 2.00806 9.4919 2.47632V2.84375C9.49359 2.86365 9.49359 2.88366 9.4919 2.90356C9.69803 2.90356 9.90911 2.91382 10.1152 2.92749C10.267 2.93774 10.4071 2.948 10.5456 2.94629C10.6127 2.95176 10.6752 2.98321 10.7208 3.03437C10.7665 3.08552 10.7918 3.15263 10.7918 3.22229C10.7918 3.29195 10.7665 3.35906 10.7208 3.41021C10.6752 3.46137 10.6127 3.49282 10.5456 3.49829C10.4071 3.49829 10.2488 3.48804 10.0806 3.47778C9.51169 3.44019 8.86197 3.39746 8.78116 3.86743V4.23657C8.78099 4.2613 8.77822 4.28594 8.77292 4.31006H9.80852C9.84525 4.30706 9.88219 4.31197 9.91701 4.32448C9.95182 4.33699 9.98376 4.35683 10.0108 4.38275C10.0379 4.40868 10.0595 4.44012 10.0742 4.47511C10.089 4.5101 10.0966 4.54787 10.0966 4.58606C10.0966 4.62425 10.089 4.66202 10.0742 4.69701C10.0595 4.732 10.0379 4.76344 10.0108 4.78937C9.98376 4.81529 9.95182 4.83513 9.91701 4.84764C9.88219 4.86015 9.84525 4.86506 9.80852 4.86206H7.71258C7.1552 4.86206 6.53022 5.2312 6.82869 5.84302L6.86662 5.91138V5.91992V5.92847V5.93701H6.87487V5.94556L6.88311 5.9541H6.89136H6.90125L6.9128 5.96265H6.92434H6.93423H6.94248L6.96721 5.97803H6.97546H6.987H7.00019H7.01339H7.02658H7.03812H7.04802H7.05791H7.06781H7.07935H7.09254H7.10738H7.12222H7.13706H7.15026H7.1651H7.4207H7.43059H7.44214H7.45698H11.9045C12.2508 5.97803 12.259 6.41553 11.9045 6.41895C11.6824 6.42686 11.4615 6.45661 11.2448 6.50781H11.2333H11.225H11.2135H11.2036H11.1921H11.1805H11.169H11.1574H11.1475H11.136H11.1245H11.1129H11.0931H11.0832H11.0733H11.0618H11.0519H11.042H11.0305H11.0206H11.0107H11.0008H10.9909H10.981H10.9711H10.9612H10.9513H10.9414H10.9315H10.9216H10.9117H10.9018H10.8919L10.8771 6.51636H10.8672H10.859H10.8507L10.8359 6.52661C10.7741 6.57601 10.7186 6.63345 10.671 6.69751C10.2241 7.57764 10.2241 8.0459 10.6281 8.20312H10.6495H10.671H10.6924H10.7188H10.7336H10.7501H10.7666H10.7782H10.8012H10.8111H10.8375H11.0255H11.103H11.1492H11.1838H11.197H11.2333H11.2448L11.3124 8.18945C12.0529 8.03052 12.973 7.47339 14.4951 6.35059V6.38818ZM4.85314 9.97705H2.18498L0.824522 12.6738H15.3361L13.9773 9.98047H11.2448V10.9836H11.9259C12.0077 10.9836 12.0861 11.0173 12.1439 11.0772C12.2018 11.1372 12.2343 11.2185 12.2343 11.3032C12.2343 11.388 12.2018 11.4693 12.1439 11.5292C12.0861 11.5891 12.0077 11.6228 11.9259 11.6228H4.34029C4.2585 11.6228 4.18007 11.5891 4.12223 11.5292C4.0644 11.4693 4.03191 11.388 4.03191 11.3032C4.03191 11.2185 4.0644 11.1372 4.12223 11.0772C4.18007 11.0173 4.2585 10.9836 4.34029 10.9836H4.86138V9.98047L4.85314 9.97705ZM6.301 8.24414C6.2585 8.24736 6.21581 8.24146 6.1756 8.22682C6.1354 8.21217 6.09854 8.1891 6.06733 8.15903C6.03611 8.12896 6.01122 8.09254 5.99419 8.05205C5.97717 8.01156 5.96838 7.96787 5.96838 7.92371C5.96838 7.87954 5.97717 7.83585 5.99419 7.79536C6.01122 7.75487 6.03611 7.71846 6.06733 7.68839C6.09854 7.65832 6.1354 7.63524 6.1756 7.62059C6.21581 7.60595 6.2585 7.60005 6.301 7.60327H8.63934C8.68185 7.60005 8.72453 7.60595 8.76474 7.62059C8.80494 7.63524 8.8418 7.65832 8.87302 7.68839C8.90423 7.71846 8.92913 7.75487 8.94615 7.79536C8.96317 7.83585 8.97196 7.87954 8.97196 7.92371C8.97196 7.96787 8.96317 8.01156 8.94615 8.05205C8.92913 8.09254 8.90423 8.12896 8.87302 8.15903C8.8418 8.1891 8.80494 8.21217 8.76474 8.22682C8.72453 8.24146 8.68185 8.24736 8.63934 8.24414H6.301Z" fill="#737373"/>
</g>
<defs>
<clipPath id="clip0_205_46">
<rect width="17" height="21" fill="white"/>
</clipPath>
</defs>
</svg>
