<svg width="575" height="417" viewBox="0 0 575 417" fill="none" xmlns="http://www.w3.org/2000/svg">
<g clip-path="url(#clip0_510_2)">
<path d="M541.412 100.143C540.33 98.4084 538.914 96.9063 537.247 95.7238C535.579 94.5414 533.694 93.7022 531.699 93.255C529.704 92.8079 527.641 92.7617 525.628 93.1191C523.615 93.4765 521.694 94.2304 519.975 95.337C518.256 96.4436 516.775 97.8808 515.616 99.5651C514.458 101.249 513.646 103.147 513.228 105.148C512.809 107.149 512.793 109.213 513.179 111.22C513.565 113.227 514.347 115.138 515.478 116.841C520.631 124.768 525.091 133.125 528.809 141.819C530.413 145.296 533.249 148.054 536.768 149.561C540.288 151.068 544.242 151.215 547.864 149.976C551.487 148.736 554.521 146.197 556.38 142.85C558.239 139.503 558.79 135.585 557.928 131.855C557.655 131.081 557.473 130.353 557.109 129.535C552.738 119.301 547.486 109.466 541.412 100.143ZM338.036 127.715C338.036 123.491 339.714 119.441 342.7 116.454C345.686 113.468 349.737 111.79 353.96 111.79C358.184 111.79 362.234 113.468 365.22 116.454C368.207 119.441 369.884 123.491 369.884 127.715V224.307L436.039 253.38C439.882 255.075 442.894 258.228 444.413 262.145C445.932 266.061 445.833 270.42 444.137 274.264C442.442 278.107 439.289 281.119 435.373 282.638C431.456 284.157 427.097 284.058 423.254 282.362L348.045 249.467C345.069 248.29 342.518 246.238 340.732 243.582C338.945 240.926 338.005 237.79 338.036 234.589V127.715ZM514.568 53.8714C515.239 55.5529 515.609 57.3394 515.66 59.1491C516.325 63.2436 515.484 67.4403 513.292 70.9621C511.1 74.4839 507.707 77.0921 503.74 78.3038L457.878 92.3172C455.692 93.087 453.372 93.406 451.06 93.2547C448.747 93.1034 446.489 92.4851 444.422 91.437C442.355 90.3889 440.522 88.9329 439.034 87.1567C437.545 85.3806 436.432 83.3212 435.761 81.1028C435.09 78.8845 434.876 76.5533 435.131 74.2498C435.386 71.9464 436.106 69.7186 437.246 67.7009C438.386 65.6832 439.923 63.9174 441.764 62.5101C443.605 61.1029 445.713 60.0834 447.959 59.5131L452.509 58.1482C413.47 36.9645 367.816 31.4872 324.875 42.8357C281.933 54.1842 244.946 81.5017 221.47 119.206C219.683 118.52 217.86 117.927 216.01 117.432C214.645 116.113 213.235 114.839 211.46 113.61L209.686 112.063C205.156 108.472 200.224 105.418 194.99 102.964C203.329 89.6501 213.159 77.3315 224.291 66.2468C255.896 34.6157 296.987 14.2008 341.287 8.12112C385.586 2.04145 430.658 10.6313 469.616 32.5783L465.43 21.3403C464.436 17.2762 464.958 12.9892 466.898 9.28209C468.837 5.57497 472.062 2.702 475.967 1.20121C479.872 -0.299589 484.191 -0.325277 488.114 1.12895C492.037 2.58318 495.295 5.41759 497.279 9.10138L514.386 53.8714H514.568ZM369.247 385.279C370.019 385.208 370.796 385.208 371.568 385.279C372.476 385.207 373.389 385.207 374.298 385.279C383.725 385.139 393.121 384.149 402.37 382.321C403.391 382.138 404.426 382.047 405.464 382.048C409.257 382.159 412.877 383.66 415.636 386.267C418.394 388.873 420.098 392.402 420.424 396.183C420.75 399.964 419.675 403.732 417.403 406.772C415.131 409.812 411.821 411.91 408.103 412.668C397.137 414.776 386.009 415.933 374.844 416.126C373.921 416.226 372.991 416.226 372.068 416.126C371.139 416.309 370.194 416.401 369.247 416.399C359.675 416.394 350.114 415.741 340.629 414.443C343.706 411.096 345.935 407.061 347.13 402.676C348.326 398.29 348.452 393.682 347.499 389.237L346.407 384.05C353.949 385.053 361.549 385.555 369.156 385.552L369.247 385.279ZM455.33 362.985C451.655 364.795 448.851 367.99 447.532 371.868C446.214 375.746 446.49 379.989 448.3 383.663C450.11 387.338 453.306 390.143 457.184 391.461C461.062 392.779 465.305 392.503 468.979 390.693C479.404 385.191 489.237 378.636 498.325 371.129C501.324 368.755 503.333 365.351 503.964 361.579C504.594 357.807 503.8 353.935 501.737 350.715C499.673 347.494 496.487 345.156 492.796 344.153C489.105 343.15 485.174 343.553 481.764 345.286C480.78 345.78 479.85 346.375 478.989 347.06C471.619 353.012 463.766 358.338 455.512 362.985H455.33ZM516.206 304.975C514.028 308.438 513.315 312.624 514.224 316.613C515.132 320.602 517.588 324.067 521.051 326.245C524.515 328.423 528.701 329.136 532.69 328.227C536.679 327.319 540.144 324.863 542.322 321.4C548.234 311.955 553.377 302.05 557.7 291.78C559.478 288.116 559.735 283.897 558.414 280.044C557.093 276.191 554.301 273.017 550.649 271.215C546.996 269.413 542.779 269.129 538.917 270.424C535.056 271.72 531.864 274.49 530.037 278.131C526.013 287.307 521.455 296.24 516.388 304.884L516.206 304.975ZM542.595 224.898C542.371 226.912 542.545 228.95 543.109 230.896C543.673 232.842 544.614 234.658 545.879 236.24C547.145 237.822 548.709 239.14 550.484 240.117C552.258 241.095 554.208 241.713 556.221 241.937C558.235 242.161 560.273 241.987 562.219 241.423C564.165 240.86 565.981 239.918 567.563 238.653C570.759 236.097 572.808 232.377 573.26 228.311C574.307 216.899 574.307 205.416 573.26 194.005C572.923 189.927 570.978 186.149 567.855 183.504C564.733 180.859 560.687 179.563 556.608 179.901C552.53 180.239 548.752 182.183 546.107 185.306C543.462 188.429 542.166 192.474 542.504 196.553C543.277 205.986 543.277 215.466 542.504 224.898H542.595Z" fill="#737373"/>
<path fill-rule="evenodd" clip-rule="evenodd" d="M92.8061 190.47L93.3016 172.124L145.777 187.282C155.236 189.335 164.748 189.335 174.214 187.282L224.336 171.961V193.051C224.336 203.157 224.955 219.018 220.118 226.913C220.561 227.122 220.985 227.383 221.383 227.683C222.758 228.726 223.834 230.284 224.603 232.227C226.148 236.119 226.233 240.989 225.77 245.109L225.764 245.161C225.255 249.771 223.854 254.497 221.52 258.063C219.512 261.134 216.8 263.377 213.357 264.074C212.54 267.325 211.521 270.521 210.306 273.645C206.792 282.674 201.648 291.208 195.168 298.412C197.365 301.633 199.764 305.16 202.15 308.381C210.326 315.428 225.953 319.737 241.86 323.467C241.189 324.145 240.452 324.927 239.637 325.814L238.79 326.681C229.506 336.968 219.655 351.142 214.505 366.404C210.156 379.299 209.107 392.951 214.127 406.003H16.6589C2.91587 404.953 -1.91504 396.68 0.66666 384.189C3.50262 370.53 5.26287 360.223 14.3184 348.267C18.4452 342.823 23.563 338.8 29.2349 335.632C46.1268 326.211 89.8723 323.056 108.505 310.473C111.413 306.718 114.425 302.291 117.117 298.341C117.639 297.578 114.007 294.181 113.368 293.392C109.737 288.907 101.757 277.772 99.7428 272.302C98.6019 269.192 98.0934 266.134 97.7935 264.302L97.7674 263.931C94.612 263.109 92.102 260.951 90.2179 258.063C86.7039 252.704 85.2761 244.581 85.8433 238.081C86.0193 236.047 86.417 234.026 87.1342 232.227C87.9752 230.101 89.1813 228.439 90.7524 227.402C92.3171 226.379 94.1752 225.981 96.3266 226.379L96.5548 226.424C95.6551 224.834 94.9184 222.845 94.3251 220.655C91.1436 208.913 92.4931 201.95 92.8061 190.47ZM205.958 219.149C190.259 224.501 168.855 226.581 159.846 227.011C150.888 227.435 122.013 224.025 105.721 218.171V238.212C105.721 246.98 104.522 264.739 107.833 272.158C110.422 277.961 116.309 285.986 120.592 290.785C125.638 296.45 130.873 300.727 136.154 303.758C151.123 312.344 167.239 311.203 181.106 301.059C191.009 293.823 201.981 278.547 204.81 266.441C205.827 262.092 205.958 257.49 205.958 250.52V219.149ZM188.218 305.153C186.28 306.787 184.242 308.298 182.116 309.678C167.239 319.32 150.555 320.546 134.83 312.025C131.134 310.023 127.444 307.455 123.773 304.273C120.318 308.583 116.622 313.648 113.525 317.521C129.387 354.636 191.328 355.392 200.234 319.561C196.452 315.135 191.98 310.082 188.218 305.153ZM213.84 238.081V255.918C216.408 253.871 217.94 249.04 218.455 244.32C218.755 241.569 218.808 237.534 217.771 234.932C217.086 233.198 216.33 233.244 215.248 234.73C214.687 235.493 214.205 236.601 213.84 238.081ZM97.8912 255.918V238.081C97.5327 236.614 97.0437 235.5 96.4831 234.73C95.4073 233.244 94.6446 233.198 93.96 234.932C93.5558 235.956 93.282 237.351 93.1646 238.942C93.0343 240.611 93.0734 242.462 93.2755 244.32C93.7905 249.034 95.3291 253.871 97.8912 255.918ZM71.168 149.13V188.149H69.9358C69.5318 188.15 69.1447 188.312 68.859 188.598C68.5733 188.883 68.412 189.27 68.4103 189.674V200.164C68.4103 200.999 69.1014 201.69 69.9358 201.69H71.168V205.367C69.6034 205.66 68.4103 207.049 68.4103 208.692C68.4103 210.55 69.9424 212.075 71.7939 212.075H77.8505C79.7085 212.075 81.2406 210.556 81.2406 208.692C81.2406 207.042 80.041 205.66 78.4763 205.367V201.69H79.7085C80.5495 201.69 81.2406 201.005 81.2406 200.164V189.674C81.2406 188.833 80.5495 188.149 79.7085 188.149H78.4763V151.399L142.334 171.263C153.906 174.015 165.472 174.197 177.037 171.263L247.526 150.225L253.895 148.321C261.829 145.081 259.847 137.454 252.461 135.7L172.735 111.897C164.514 109.557 156.292 109.185 148.071 111.897L69.7794 135.413C61.278 137.486 59.5895 145.368 69.4925 148.608L71.168 149.13Z" fill="#737373"/>
<path fill-rule="evenodd" clip-rule="evenodd" d="M269.944 300.408C267.795 294.068 265.86 287.657 264.226 281.145C270.317 274.46 293.858 275.348 300.628 281.04L294.36 295.943C297.731 291.515 298.864 289.697 300.875 287.23C301.718 287.784 302.517 288.404 303.265 289.083C305.048 290.697 306.64 292.48 306.962 294.967C307.171 296.579 306.71 298.217 305.275 299.892L290.894 316.642C289.043 316.339 287.234 315.895 285.479 315.27C286.294 313.351 287.278 311.239 288.093 309.32L282.858 314.975C277.403 313.824 273.017 314.511 268.929 316.673L254.344 299.169C253.478 298.125 253.084 297.081 253.087 296.037C253.101 291.806 259.401 288.154 262.713 286.772L269.944 300.408ZM268.717 365.934L270.559 361.785H277.506C277.068 360.312 275.346 359.484 273.904 359.484H268.717L270.559 355.334H290.446L288.604 359.484H283.8C284.438 359.973 285.12 360.98 285.24 361.785H290.446L288.604 365.934H284.837C283.622 369.029 279.914 371.132 276.752 371.587L287.202 382.345H278.94L269.622 372.121V368.311H273.747C275.15 368.311 276.898 367.325 277.343 365.934H268.717ZM288.634 332.033L285.787 319.015C297.979 321.283 317.52 346.083 323.835 357.359C327.058 363.114 329.88 369.454 332.192 376.542C336.796 393.697 332.361 409.744 313.752 413.482C302.092 415.825 280.348 415.99 268.085 415.356C254.903 414.674 234.502 414.695 229.173 401.16C220.573 379.313 236.331 353.286 250.699 337.356C252.589 335.26 254.544 333.307 256.567 331.504C261.793 326.905 267.429 321.449 274.157 319.18L267.659 331.28L277.096 318.768H282.07L288.634 332.033ZM256.013 356.026C262.942 343.009 279.109 338.074 292.126 345.003C305.143 351.932 310.078 368.099 303.149 381.117C296.22 394.134 280.053 399.068 267.036 392.14C254.018 385.211 249.084 369.043 256.013 356.026Z" fill="#737373"/>
</g>
<defs>
<clipPath id="clip0_510_2">
<rect width="575" height="417" fill="white"/>
</clipPath>
</defs>
</svg>
