<svg width="17" height="18" viewBox="0 0 17 18" fill="none" xmlns="http://www.w3.org/2000/svg">
<path d="M16.584 13.167L12.4173 17.3337L9.50065 14.417L10.7507 13.167L12.4173 14.8337L15.334 11.917L16.584 13.167ZM2.00065 0.666992C1.07565 0.666992 0.333984 1.40866 0.333984 2.33366V15.667C0.333984 16.592 1.07565 17.3337 2.00065 17.3337H8.50898C8.06732 16.5753 7.83398 15.7087 7.83398 14.8337C7.83398 14.5587 7.85898 14.2753 7.90065 14.0003H2.00065V12.3337H8.50898C8.89232 11.667 9.42565 11.0837 10.0673 10.667H2.00065V9.00033H12.0007V9.90032C12.2757 9.85866 12.559 9.83366 12.834 9.83366C13.1173 9.83366 13.3923 9.85866 13.6673 9.90032V5.66699L8.66732 0.666992H2.00065ZM7.83398 1.91699L12.4173 6.50033H7.83398V1.91699Z" fill="#20B038"/>
</svg>
