<svg width="496" height="454" viewBox="0 0 496 454" fill="none" xmlns="http://www.w3.org/2000/svg">
<path fill-rule="evenodd" clip-rule="evenodd" d="M137.837 119.515L138.573 92.2674L216.51 114.78C230.559 117.83 244.686 117.83 258.746 114.78L333.187 92.0253V123.349C333.187 138.357 334.107 161.916 326.922 173.642C327.581 173.951 328.21 174.339 328.801 174.784C330.844 176.333 332.442 178.648 333.584 181.533C335.879 187.314 336.005 194.547 335.317 200.666L335.308 200.744C334.552 207.589 332.471 214.609 329.004 219.906C326.022 224.466 321.994 227.797 316.881 228.833C315.667 233.661 314.154 238.408 312.35 243.048C307.131 256.458 299.491 269.133 289.866 279.833C293.129 284.616 296.693 289.854 300.237 294.638C312.379 305.105 335.588 311.505 359.214 317.044C358.217 318.051 357.123 319.213 355.913 320.529L354.654 321.817C340.866 337.097 326.235 358.147 318.585 380.814C312.127 399.967 310.568 420.243 318.024 439.628H24.742C4.33069 438.069 -2.84425 425.781 0.990133 407.229C5.20214 386.944 7.8165 371.635 21.2659 353.877C27.3951 345.792 34.9961 339.818 43.4201 335.112C68.5082 321.12 133.48 316.434 161.153 297.746C165.472 292.169 169.945 285.594 173.944 279.726C174.719 278.593 169.325 273.549 168.376 272.377C162.983 265.715 151.131 249.177 148.139 241.053C146.445 236.434 145.69 231.893 145.244 229.172L145.206 228.62C140.519 227.4 136.791 224.195 133.993 219.906C128.774 211.947 126.653 199.882 127.496 190.228C127.757 187.207 128.348 184.205 129.413 181.533C130.662 178.376 132.453 175.907 134.787 174.368C137.111 172.848 139.87 172.257 143.066 172.848L143.405 172.915C142.068 170.553 140.974 167.599 140.093 164.346C135.368 146.907 137.372 136.566 137.837 119.515ZM305.891 162.109C282.575 170.059 250.787 173.148 237.405 173.787C224.101 174.416 181.216 169.352 157.019 160.657V190.422C157.019 203.445 155.237 229.821 160.156 240.84C164 249.458 172.743 261.377 179.105 268.504C186.599 276.918 194.375 283.27 202.218 287.773C224.449 300.525 248.385 298.83 268.981 283.764C283.689 273.016 299.985 250.329 304.187 232.348C305.698 225.89 305.891 219.054 305.891 208.703V162.109ZM279.544 289.845C276.666 292.271 273.639 294.515 270.481 296.565C248.385 310.885 223.607 312.706 200.252 300.05C194.762 297.078 189.282 293.263 183.83 288.537C178.698 294.938 173.208 302.461 168.609 308.213C192.167 363.337 284.163 364.46 297.39 311.244C291.774 304.669 285.131 297.165 279.544 289.845ZM317.598 190.228V216.72C321.413 213.68 323.688 206.505 324.453 199.495C324.899 195.408 324.976 189.415 323.437 185.551C322.42 182.976 321.297 183.044 319.689 185.251C318.857 186.384 318.14 188.03 317.598 190.228ZM145.389 216.72V190.228C144.857 188.05 144.131 186.394 143.298 185.251C141.7 183.044 140.567 182.976 139.551 185.551C138.95 187.072 138.544 189.144 138.369 191.506C138.176 193.985 138.234 196.735 138.534 199.495C139.299 206.495 141.584 213.68 145.389 216.72ZM105.7 58.1162V116.068H103.87C103.27 116.07 102.695 116.31 102.27 116.734C101.846 117.159 101.607 117.733 101.604 118.333V133.913C101.604 135.152 102.63 136.179 103.87 136.179H105.7V141.64C103.376 142.076 101.604 144.138 101.604 146.578C101.604 149.338 103.879 151.604 106.629 151.604H115.625C118.384 151.604 120.66 149.347 120.66 146.578C120.66 144.128 118.878 142.076 116.554 141.64V136.179H118.384C119.633 136.179 120.66 135.162 120.66 133.913V118.333C120.66 117.084 119.633 116.068 118.384 116.068H116.554V61.4858L211.397 90.9893C228.584 95.0754 245.761 95.3465 262.939 90.9893L367.629 59.7429L377.089 56.9156C388.873 52.1032 385.929 40.7744 374.959 38.1697L256.548 2.81785C244.338 -0.658265 232.128 -1.21018 219.918 2.81785L103.637 37.7437C91.011 40.8228 88.5031 52.5293 103.211 57.3416L105.7 58.1162Z" fill="#737373"/>
<path fill-rule="evenodd" clip-rule="evenodd" d="M400.924 282.797C397.732 273.381 394.858 263.858 392.432 254.186C401.478 244.257 436.441 245.577 446.497 254.031L437.187 276.165C442.193 269.588 443.876 266.888 446.863 263.224C448.116 264.047 449.303 264.967 450.412 265.976C453.061 268.373 455.426 271.022 455.904 274.715C456.214 277.11 455.53 279.543 453.399 282.03L432.039 306.907C429.29 306.457 426.603 305.797 423.996 304.87C425.208 302.019 426.668 298.883 427.88 296.032L420.104 304.431C412.002 302.722 405.488 303.742 399.417 306.953L377.755 280.955C376.469 279.405 375.883 277.854 375.888 276.304C375.908 270.02 385.265 264.596 390.184 262.543L400.924 282.797ZM399.101 380.117L401.837 373.954H412.156C411.504 371.767 408.947 370.536 406.805 370.536H399.101L401.837 364.373H431.374L428.638 370.536H421.503C422.45 371.263 423.464 372.759 423.642 373.954H431.374L428.638 380.117H423.044C421.238 384.714 415.731 387.837 411.035 388.512L426.555 404.49H414.285L400.445 389.306V383.647H406.572C408.656 383.647 411.252 382.183 411.913 380.117H399.101ZM428.682 329.767L424.455 310.432C442.562 313.8 471.585 350.633 480.963 367.38C485.75 375.928 489.942 385.345 493.375 395.872C500.213 421.35 493.626 445.184 465.988 450.736C448.671 454.215 416.376 454.461 398.164 453.519C378.585 452.505 348.286 452.537 340.371 432.434C327.597 399.986 351.001 361.331 372.341 337.672C375.149 334.559 378.052 331.658 381.056 328.98C388.819 322.15 397.189 314.046 407.181 310.676L397.53 328.647L411.547 310.064H418.933L428.682 329.767ZM380.233 365.401C390.524 346.068 414.536 338.739 433.869 349.03C453.202 359.32 460.531 383.332 450.241 402.666C439.949 421.999 415.937 429.328 396.604 419.038C377.271 408.746 369.942 384.734 380.233 365.401Z" fill="#737373"/>
</svg>
