<svg class="svg-icon" style="width: 1.0302734375em;height: 1em;vertical-align: middle;fill: currentColor;overflow: hidden;" viewBox="0 0 1055 1024" version="1.1" xmlns="http://www.w3.org/2000/svg"><path d="M1055.207828 628.463519v131.845494a87.896996 87.896996 0 0 1-76.030901 87.896996 188.539056 188.539056 0 0 1-187.660086 175.793991h-219.742489a57.133047 57.133047 0 0 1-57.133047-57.133047v-74.712447a57.133047 57.133047 0 0 1 114.266094 0v17.5794h162.609442a74.712446 74.712446 0 0 0 73.393992-62.846352 87.896996 87.896996 0 0 1-73.393992-87.896996v-131.845494a131.845494 131.845494 0 0 1 131.845494-131.845493 131.845494 131.845494 0 0 1 131.845493 133.163948zM539.691948 114.266094a351.587983 351.587983 0 0 1 329.613734 243.035194 57.176996 57.176996 0 0 0 108.55279-36.037769 463.656652 463.656652 0 0 0-439.484978-321.263519A468.930472 468.930472 0 0 0 75.595811 472.446352v25.490129a87.896996 87.896996 0 0 0-75.591416 87.896995v131.845494a131.845494 131.845494 0 0 0 131.845493 131.845494 131.845494 131.845494 0 0 0 131.845494-131.845494v-131.845494a87.896996 87.896996 0 0 0-73.833476-87.896995v-23.292704a355.103863 355.103863 0 0 1 349.830042-360.377683z"  /></svg>