<svg width="15" height="14" viewBox="0 0 15 14" fill="none" xmlns="http://www.w3.org/2000/svg">
<g clip-path="url(#clip0_234_2)">
<path d="M4.39453 8.33769C4.39453 8.43467 4.31519 8.51225 4.21875 8.51225C4.12109 8.51225 4.04297 8.43346 4.04297 8.33769V4.06217H0.351562V12.6787H0.960693C1.05835 12.6787 1.13647 12.7575 1.13647 12.8532C1.13647 12.9502 1.05713 13.0278 0.960693 13.0278H0.175781C0.078125 13.0278 0 12.949 0 12.8532V3.96883C0 3.89852 0.0292969 3.83427 0.0756836 3.78699C0.12207 3.74093 0.186768 3.71184 0.258789 3.71184H4.04297V0.306693C4.04297 0.22305 4.07715 0.145467 4.1333 0.090917V0.0897047C4.18945 0.0339423 4.26636 0 4.35181 0H10.6201C10.7056 0 10.7825 0.0339423 10.8386 0.0897047L10.8521 0.104251C10.8997 0.158802 10.9302 0.229111 10.9302 0.306693V3.71184H14.7412C14.812 3.71184 14.8767 3.74093 14.9231 3.78699L14.9243 3.78821C14.9707 3.83427 15 3.89852 15 3.96883V12.8532C15 12.9502 14.9207 13.0278 14.8242 13.0278H13.7085C13.6108 13.0278 13.5327 12.949 13.5327 12.8532C13.5327 12.7563 13.6121 12.6787 13.7085 12.6787H14.6484V4.06217H10.929V8.28678C10.929 8.38376 10.8496 8.46134 10.7532 8.46134C10.6555 8.46134 10.5774 8.38254 10.5774 8.28678V0.349121H4.39453V8.33769ZM11.8591 8.3086H13.8C13.8159 8.3086 13.8293 8.3183 13.8293 8.32921V8.89895C13.8293 8.91107 13.8159 8.92077 13.8 8.92077H11.8591C11.8433 8.92077 11.8298 8.91107 11.8298 8.89895V8.32921C11.8298 8.3183 11.8433 8.3086 11.8591 8.3086ZM1.1853 8.3086H3.12622C3.14209 8.3086 3.15552 8.3183 3.15552 8.32921V8.89895C3.15552 8.91107 3.14209 8.92077 3.12622 8.92077H1.1853C1.16943 8.92077 1.15601 8.91107 1.15601 8.89895V8.32921C1.15601 8.3183 1.16943 8.3086 1.1853 8.3086ZM5.18311 1.02676H9.79004C9.86694 1.02676 9.93042 1.08979 9.93042 1.16616V2.65841C9.93042 2.73478 9.86694 2.79782 9.79004 2.79782H5.18311C5.1062 2.79782 5.04272 2.73478 5.04272 2.65841V1.16616C5.0415 1.08979 5.10498 1.02676 5.18311 1.02676ZM11.8896 12.7308C11.7615 12.475 11.5991 12.258 11.4087 12.0544C11.7651 12.1914 12.1301 12.3271 12.3999 12.4956C12.8906 12.8011 12.9272 13.1708 12.9675 13.7018H10.5347C10.5347 13.6982 10.5347 13.6933 10.5347 13.6897L10.4895 13.3102L10.6641 13.4606L11.5186 12.7223L11.8896 12.7308ZM3.18359 12.132L3.49243 13.0339L3.64746 12.4981L3.57178 12.4156C3.5376 12.3659 3.53027 12.3223 3.54858 12.2847C3.59009 12.2035 3.67554 12.2192 3.75488 12.2192C3.83789 12.2192 3.94165 12.2035 3.96729 12.3077C3.97583 12.3429 3.96484 12.3793 3.94043 12.4168L3.86475 12.4993L4.01978 13.0351L4.29932 12.1332C4.3396 12.1695 4.39697 12.1998 4.46289 12.2265C4.4397 12.275 4.41895 12.3247 4.40063 12.378C4.35303 12.515 4.32251 12.6665 4.30908 12.835H4.3103C4.3103 12.8387 4.3103 12.8435 4.30908 12.8472L4.24194 13.703H2.00684C1.87256 13.6933 1.8042 13.6242 1.79321 13.5054L1.8396 13.0326C1.85303 12.8641 1.90063 12.732 1.97754 12.6302C2.02881 12.5635 2.09229 12.5138 2.16187 12.475C2.38403 12.3477 2.98218 12.3126 3.18359 12.132ZM3.03223 10.8531C3.00171 10.8555 2.97974 10.8628 2.96265 10.8725C2.95288 10.8785 2.94678 10.887 2.94189 10.8967C2.93701 10.9076 2.93457 10.9222 2.93457 10.9379C2.93579 10.9876 2.96265 11.0543 3.01514 11.1307L3.01636 11.1319L3.18848 11.4046C3.25684 11.5137 3.33008 11.624 3.41797 11.7053C3.5022 11.7816 3.60596 11.8338 3.74146 11.835C3.88916 11.835 3.99658 11.7816 4.08447 11.7004C4.17603 11.6156 4.24927 11.4968 4.32129 11.3792L4.51538 11.0616C4.55444 10.9731 4.56665 10.9197 4.55444 10.8943C4.54712 10.8785 4.51416 10.8749 4.46167 10.8785C4.42749 10.8858 4.39331 10.8797 4.35547 10.8603L4.4519 10.5718C4.09668 10.567 3.85254 10.5064 3.56567 10.3233C3.47168 10.2639 3.44238 10.1948 3.34839 10.2009C3.27637 10.2142 3.21655 10.2469 3.16895 10.2979C3.12256 10.3463 3.08838 10.413 3.06641 10.4991L3.12378 10.8458C3.09326 10.864 3.06274 10.8652 3.03223 10.8531ZM4.57153 10.767C4.61304 10.7791 4.64355 10.8034 4.66309 10.8397C4.69238 10.8991 4.6814 10.9864 4.62646 11.1101C4.62524 11.1125 4.62402 11.1149 4.6228 11.1173L4.42627 11.4386C4.35059 11.5634 4.27246 11.6883 4.1687 11.7853C4.06006 11.8859 3.927 11.9525 3.7439 11.9525C3.573 11.9525 3.44482 11.8871 3.33984 11.7913C3.23853 11.6992 3.16162 11.5816 3.0896 11.4664L2.91748 11.1937C2.85278 11.0979 2.81982 11.0106 2.81738 10.9391C2.81616 10.904 2.82227 10.8725 2.83569 10.8446C2.84912 10.8155 2.87109 10.79 2.89917 10.7718C2.9126 10.7621 2.92847 10.7549 2.94678 10.7488C2.93579 10.6033 2.93213 10.4227 2.93945 10.27C2.94312 10.2324 2.95044 10.196 2.96021 10.1585C3.00415 10.0021 3.11523 9.87601 3.25195 9.78994C3.30078 9.75963 3.35327 9.73417 3.40942 9.71357C3.74146 9.59477 4.18091 9.65902 4.4165 9.91237C4.51294 10.0154 4.57275 10.1524 4.58496 10.333L4.57153 10.767ZM6.30859 9.55962C6.26953 9.56446 6.24023 9.57416 6.21826 9.5875C6.20361 9.59719 6.19385 9.60932 6.18774 9.62265C6.18042 9.63962 6.17676 9.66023 6.17676 9.68326C6.1792 9.75721 6.21948 9.85661 6.29639 9.97056L6.29761 9.97298L6.55518 10.3803C6.65771 10.5427 6.76514 10.7076 6.89819 10.8288C7.02515 10.944 7.17773 11.0216 7.38037 11.0216C7.6001 11.0216 7.76123 10.9416 7.89062 10.8203C8.02734 10.693 8.13721 10.5173 8.24341 10.3415L8.53271 9.86873C8.59131 9.7366 8.6084 9.65659 8.59009 9.62023C8.57788 9.59598 8.52783 9.58992 8.44238 9.59841C8.43628 9.59841 8.42896 9.59841 8.42285 9.59841C8.38745 9.59841 8.34961 9.58992 8.30688 9.57052L8.4375 9.13897C7.90649 9.13291 7.54395 9.04078 7.11426 8.76803C6.97266 8.67833 6.93115 8.5765 6.78955 8.5862C6.68335 8.60681 6.59302 8.65408 6.52222 8.73045C6.45386 8.80319 6.40259 8.90259 6.36841 9.03108L6.45996 9.55355C6.40747 9.5778 6.3562 9.58022 6.30859 9.55962ZM6.54785 11.4664L7.00928 12.8132L7.24121 12.0144L7.12769 11.8907C7.07642 11.8168 7.06543 11.7513 7.09351 11.6956C7.15454 11.5743 7.28271 11.5974 7.40112 11.5974C7.52563 11.5974 7.67944 11.5743 7.71851 11.7283C7.73193 11.7804 7.71484 11.8338 7.67822 11.8907L7.5647 12.0144L7.79663 12.8132L8.21411 11.4664C8.51562 11.7356 9.29077 11.7901 9.6228 11.9732C9.71313 12.0229 9.79492 12.0847 9.8645 12.1635C9.86572 12.155 9.86816 12.1453 9.87305 12.138C9.90967 12.0665 9.98535 12.0798 10.0562 12.0798C10.1306 12.0798 10.2222 12.0665 10.2454 12.1586C10.2527 12.1889 10.2429 12.2217 10.2222 12.2556L10.155 12.3296L10.293 12.8047L10.116 12.9441L10.1746 13.7066C10.1575 13.8848 10.0562 13.9867 9.85596 14.0024H4.90723C4.70703 13.9867 4.60571 13.8848 4.58862 13.7066L4.6582 12.8084C4.67773 12.5575 4.74854 12.3586 4.8645 12.2071C4.94019 12.1077 5.0354 12.0338 5.14038 11.9756C5.47119 11.7901 6.24634 11.7356 6.54785 11.4664ZM8.61816 9.42991C8.68042 9.44809 8.72681 9.48324 8.75488 9.53901C8.79883 9.6275 8.78174 9.75721 8.69995 9.94268C8.69873 9.94631 8.69629 9.94995 8.69507 9.95359L8.40088 10.4336C8.28735 10.6203 8.17139 10.8058 8.01636 10.95C7.854 11.1004 7.65503 11.201 7.38281 11.1998C7.12769 11.1998 6.93604 11.1028 6.77856 10.9597C6.6272 10.8228 6.51367 10.647 6.40381 10.4748L6.14624 10.0675C6.0498 9.92571 6.00098 9.79479 5.99731 9.6869C5.99609 9.63477 6.00464 9.5875 6.02417 9.54628C6.04492 9.50264 6.07666 9.46506 6.11938 9.43718C6.14014 9.42263 6.16455 9.41172 6.19019 9.40203C6.17432 9.18382 6.16943 8.91471 6.1792 8.68802C6.1853 8.63226 6.19507 8.57771 6.21094 8.52195C6.27686 8.28799 6.44165 8.10009 6.64673 7.9716C6.71875 7.92553 6.7981 7.88796 6.8811 7.85886C7.37549 7.68066 8.03223 7.77764 8.38379 8.15586C8.52661 8.30981 8.61694 8.51346 8.63647 8.78258L8.61816 9.42991ZM9.51294 11.6531L9.73999 11.6471L9.9292 11.6422C9.70947 10.9694 9.78271 10.3512 10.3125 9.82509C10.4028 10.1136 10.6042 10.3524 10.9473 10.5282C11.1108 10.6494 11.2695 10.7949 11.4233 10.9634C11.4502 10.8518 11.3464 10.7173 11.2207 10.5779C11.3367 10.6349 11.4441 10.7149 11.5198 10.8688C11.6077 11.047 11.6064 11.1973 11.5771 11.3913C11.5637 11.481 11.5417 11.5658 11.51 11.6422H11.8237C12.1545 10.9391 11.9446 9.8954 11.2683 9.45294C11.0608 9.31717 10.9119 9.32202 10.6677 9.32202C10.3894 9.32202 10.2466 9.3305 10.0073 9.48809C9.65576 9.71963 9.43848 10.1197 9.34814 10.6749C9.32983 10.9525 9.31763 11.4313 9.51294 11.6531ZM11.8591 7.06364H13.8C13.8159 7.06364 13.8293 7.07334 13.8293 7.08546V7.65521C13.8293 7.66733 13.8159 7.67703 13.8 7.67703H11.8591C11.8433 7.67703 11.8298 7.66733 11.8298 7.65521V7.08546C11.8298 7.07334 11.8433 7.06364 11.8591 7.06364ZM11.8591 5.81747H13.8C13.8159 5.81747 13.8293 5.82717 13.8293 5.83929V6.40904C13.8293 6.42116 13.8159 6.43086 13.8 6.43086H11.8591C11.8433 6.43086 11.8298 6.42116 11.8298 6.40904V5.83929C11.8298 5.82717 11.8433 5.81747 11.8591 5.81747ZM1.1853 7.06364H3.12622C3.14209 7.06364 3.15552 7.07334 3.15552 7.08546V7.65521C3.15552 7.66733 3.14209 7.67703 3.12622 7.67703H1.1853C1.16943 7.67703 1.15601 7.66733 1.15601 7.65521V7.08546C1.15601 7.07334 1.16943 7.06364 1.1853 7.06364ZM1.1853 5.81747H3.12622C3.14209 5.81747 3.15552 5.82717 3.15552 5.83929V6.40904C3.15552 6.42116 3.14209 6.43086 3.12622 6.43086H1.1853C1.16943 6.43086 1.15601 6.42116 1.15601 6.40904V5.83929C1.15601 5.82717 1.16943 5.81747 1.1853 5.81747ZM8.74878 5.94961H9.78516C9.80103 5.94961 9.81445 5.96294 9.81445 5.9787V7.00788C9.81445 7.02364 9.80103 7.03697 9.78516 7.03697H8.74878C8.73291 7.03697 8.71948 7.02364 8.71948 7.00788V5.9787C8.71948 5.96294 8.73291 5.94961 8.74878 5.94961ZM6.96777 5.94961H8.00415C8.02002 5.94961 8.03345 5.96294 8.03345 5.9787V7.00788C8.03345 7.02364 8.02002 7.03697 8.00415 7.03697H6.96777C6.9519 7.03697 6.93848 7.02364 6.93848 7.00788V5.9787C6.93848 5.96294 6.9519 5.94961 6.96777 5.94961ZM5.18677 5.94961H6.22314C6.23901 5.94961 6.25244 5.96294 6.25244 5.9787V7.00788C6.25244 7.02364 6.23901 7.03697 6.22314 7.03697H5.18677C5.1709 7.03697 5.15747 7.02364 5.15747 7.00788V5.9787C5.15747 5.96294 5.1709 5.94961 5.18677 5.94961ZM8.74878 3.95307H9.78516C9.80103 3.95307 9.81445 3.9664 9.81445 3.98216V5.01134C9.81445 5.0271 9.80103 5.04044 9.78516 5.04044H8.74878C8.73291 5.04044 8.71948 5.0271 8.71948 5.01134V3.98216C8.71948 3.96519 8.73291 3.95307 8.74878 3.95307ZM6.96777 3.95307H8.00415C8.02002 3.95307 8.03345 3.9664 8.03345 3.98216V5.01134C8.03345 5.0271 8.02002 5.04044 8.00415 5.04044H6.96777C6.9519 5.04044 6.93848 5.0271 6.93848 5.01134V3.98216C6.93848 3.96519 6.9519 3.95307 6.96777 3.95307ZM5.18677 3.95307H6.22314C6.23901 3.95307 6.25244 3.9664 6.25244 3.98216V5.01134C6.25244 5.0271 6.23901 5.04044 6.22314 5.04044H5.18677C5.1709 5.04044 5.15747 5.0271 5.15747 5.01134V3.98216C5.15747 3.96519 5.1709 3.95307 5.18677 3.95307Z" fill="#737373"/>
</g>
<defs>
<clipPath id="clip0_234_2">
<rect width="15" height="14" fill="white"/>
</clipPath>
</defs>
</svg>
