<svg width="404" height="304" viewBox="0 0 404 304" fill="none" xmlns="http://www.w3.org/2000/svg">
<g clip-path="url(#clip0_506_28)">
<path fill-rule="evenodd" clip-rule="evenodd" d="M268.17 0C308.2 0 340.716 32.4507 340.716 72.5466C340.716 112.577 308.265 145.093 268.17 145.093C228.139 145.093 195.623 112.642 195.623 72.5466C195.656 32.5164 228.107 0 268.17 0ZM0 129.179H81.4713V274.141H0V129.179ZM97.8772 261.968V140.795H152.377C175.477 144.929 198.576 157.463 221.676 171.999H264.003C283.165 173.147 293.205 192.572 274.568 205.335C259.737 216.229 240.148 215.605 220.068 213.801C206.221 213.112 205.631 231.716 220.068 231.782C225.088 232.175 230.535 230.994 235.292 230.994C260.36 230.961 280.966 226.171 293.599 206.385L299.931 191.587L362.897 160.383C394.396 150.015 416.774 182.958 393.576 205.893C347.968 239.066 301.211 266.365 253.372 288.414C218.624 309.545 183.876 308.823 149.162 288.414L97.8772 261.968ZM244.381 35.1741H292.024C292.417 35.1741 292.778 35.5022 292.778 35.9288V43.1801C292.778 43.6067 292.45 43.9348 292.024 43.9348H277.16C279.49 46.6582 281.196 49.9393 281.951 53.5486H292.024C292.417 53.5486 292.778 53.8767 292.778 54.3033V61.5547C292.778 61.9812 292.45 62.3093 292.024 62.3093H281.918C280.999 66.6405 278.768 70.5122 275.651 73.4981C271.371 77.5769 265.682 79.8455 259.77 79.8308V79.8636H259.081L285.789 110.313C286.511 111.133 285.232 112.971 284.674 112.971L272.337 113.036L243.823 80.5198C243.713 80.3908 243.637 80.2359 243.602 80.0694C243.568 79.903 243.576 79.7306 243.627 79.5683V67.6576H259.77V67.6904C262.657 67.6904 265.315 66.542 267.218 64.7374C267.973 64.0155 268.596 63.2281 269.056 62.3421H244.348C243.955 62.3421 243.594 62.014 243.594 61.5875V54.3361C243.594 53.9095 243.922 53.5814 244.348 53.5814H269.056C268.563 52.6955 267.94 51.8752 267.218 51.1862C265.315 49.3487 262.69 48.2331 259.77 48.2331V48.2659H243.627V35.9616C243.627 35.5022 243.987 35.1741 244.381 35.1741Z" fill="#737373"/>
</g>
<defs>
<clipPath id="clip0_506_28">
<rect width="403.19" height="304" fill="white"/>
</clipPath>
</defs>
</svg>
