<svg width="521" height="521" viewBox="0 0 521 521" fill="none" xmlns="http://www.w3.org/2000/svg">
<path d="M19.1104 19.8428V100.899C64.5798 106.579 102.06 126.304 137.818 148.884L112.633 169.3L216.205 222.117L187.774 108.372L161.414 129.741C140.833 89.0279 117.884 50.6449 87.3848 19.8428H19.1104ZM301.362 19.8428C285.463 49.1134 271.642 78.9905 258.848 109.548L228.127 103.03L254.523 217.253L322.762 123.127L292.65 116.737C326.525 81.3788 361.435 47.7519 402.611 19.8428H301.362ZM502.334 115.336C463.678 117.862 429.028 135.359 395.458 156.961L382.768 123.86L301.299 208.159L417.399 214.2L403.916 179.03C436.722 178.079 469.527 180.889 502.334 200.78V115.336ZM304.893 245.617C299.52 245.739 294.504 248.075 287.657 255.381L280.979 262.471L274.046 255.633C266.529 248.225 260.598 246.18 254.585 246.444C248.573 246.709 241.504 249.87 233.598 256.27L227.27 261.388L221.26 255.92C212.204 247.726 204.486 245.298 197.093 245.68C191.712 245.959 186.129 247.986 180.557 251.531L222.245 326.514C237.971 336.133 270.105 339.75 292.204 328.614L332.494 253.98C324.852 250.865 317.983 247.669 312.047 246.444C309.898 246 307.903 245.675 305.972 245.617C305.612 245.607 305.249 245.609 304.893 245.617ZM213.342 343.498C194.99 356.464 180.254 378.826 174.546 411.579C169.016 443.323 177.729 464.763 193.15 479.374C208.571 493.986 231.718 501.493 255.222 501.188C278.728 500.882 302.169 492.732 317.93 477.849C333.693 462.964 342.607 441.8 337.551 411.515C332.324 380.217 318.828 358.45 301.743 345.276C272.76 360.597 236.522 357.341 213.342 343.496V343.498Z" fill="#737373"/>
</svg>
