<svg width="463" height="416" viewBox="0 0 463 416" fill="none" xmlns="http://www.w3.org/2000/svg">
<g clip-path="url(#clip0_525_6)">
<path fill-rule="evenodd" clip-rule="evenodd" d="M103.417 378.003V268.454H152.699C173.578 272.178 194.457 283.539 215.336 296.669H253.595C270.938 297.722 280.004 315.253 263.151 326.802C249.758 336.659 232.039 336.094 213.869 334.477C201.341 333.837 200.815 350.653 213.869 350.728C218.421 351.067 223.349 350.014 227.638 350.014C250.285 349.976 268.944 345.65 280.343 327.78L286.061 314.388L342.98 286.173C371.458 276.805 391.735 306.563 370.706 327.329C329.474 357.312 287.19 381.99 243.965 401.929C212.552 421.04 181.139 420.363 149.765 401.929L103.417 378.003ZM143.219 131.706L326.615 178.731L299.792 278.799L116.396 231.775L143.219 131.706ZM229.443 175.834C245.733 180.198 255.363 196.863 250.999 213.153C246.636 229.442 229.932 239.073 213.681 234.709C197.391 230.345 187.761 213.679 192.124 197.39C196.451 181.176 213.229 171.508 229.443 175.834ZM171.321 155.557L290.199 185.314C288.017 193.44 292.87 201.867 301.034 204.049L290.463 243.625C282.337 241.443 273.91 246.296 271.728 254.459L152.812 224.702C154.994 216.576 150.141 208.149 141.977 205.967L152.548 166.391C160.712 168.573 169.139 163.72 171.321 155.557ZM462.272 158.077H371.195V27.0099H462.272V158.077ZM356.335 38.0325V147.544H307.053C286.174 143.819 265.295 132.458 244.416 119.329H206.157C188.852 118.276 179.748 100.745 196.601 89.1954C209.994 79.339 227.713 79.9033 245.883 81.5586C258.411 82.1981 258.937 65.3445 245.883 65.3068C241.331 64.9683 236.403 66.0216 232.114 66.0216C209.467 66.0592 190.808 70.3855 179.409 88.2549L173.691 101.648L116.772 129.862C88.2937 139.23 68.0166 109.473 89.0461 88.7064C130.277 58.6857 172.525 34.0071 215.787 14.0686C247.2 -5.04222 278.612 -4.36507 309.987 14.0686L356.335 38.0325ZM0 257.958H88.5947V389.025H0V257.958Z" fill="#737373"/>
</g>
<defs>
<clipPath id="clip0_525_6">
<rect width="462.272" height="416" fill="white"/>
</clipPath>
</defs>
</svg>
