<svg width="481" height="489" viewBox="0 0 481 489" fill="none" xmlns="http://www.w3.org/2000/svg">
<path d="M254.674 0.529297L196.751 88.0402L227.534 91.907C217.983 123.117 216.041 144.609 218.33 187.33C232.975 185.02 244.806 184.196 260.371 188.77C250.14 150.609 251.21 137.57 255.316 95.7832L289.108 98.1418L254.674 0.529297ZM480.989 2.81853L368.744 33.9252L390.409 60.8314C339.122 92.9625 307.198 118.371 281.914 188.411C295.588 188.254 311.019 191.437 327.672 197.738C333.605 151.471 362.621 118.868 409.817 84.915L430.516 110.621L480.989 2.81853ZM0.794922 5.21135L69.0358 111.371L88.804 81.6303C125.633 115.233 149.034 160.697 148.167 192.912C167.4 183.904 179.167 183.043 199.685 188.998C191.289 156.677 154.545 76.3785 104.76 55.2668L121.924 28.2964L0.795957 5.21031L0.794922 5.21135ZM286.811 227.575C281.342 227.699 276.235 230.076 269.267 237.513L262.467 244.731L255.41 237.771C247.759 230.23 241.721 228.147 235.6 228.417C229.48 228.686 222.284 231.904 214.235 238.419L207.795 243.629L201.678 238.063C192.459 229.722 184.602 227.249 177.076 227.638C171.599 227.922 165.915 229.985 160.244 233.594L202.678 309.926C218.686 319.716 251.399 323.398 273.893 312.062L314.907 236.088C307.127 232.917 300.135 229.664 294.092 228.417C291.905 227.964 289.876 227.634 287.91 227.575C287.544 227.564 287.174 227.566 286.811 227.575ZM193.616 327.211V327.213C174.934 340.412 159.934 363.175 154.124 396.516C148.494 428.83 157.365 450.656 173.062 465.53C188.761 480.404 212.323 488.045 236.249 487.734C260.177 487.423 284.039 479.126 300.084 463.976C316.129 448.824 325.202 427.281 320.056 396.452C314.735 364.592 300.996 342.434 283.604 329.024C254.101 344.62 217.211 341.305 193.615 327.211H193.616Z" fill="#737373"/>
</svg>
