<svg width="28" height="28" viewBox="0 0 28 28" fill="none" xmlns="http://www.w3.org/2000/svg">
<path d="M24 9.56667L24.8333 8.73333L22.3 6.2V2.13333H21.1333V6.5L24 9.56667ZM5.53333 21.6C6.04444 21.6 6.47778 21.4222 6.83333 21.0667C7.18889 20.7111 7.36667 20.2778 7.36667 19.7667C7.36667 19.2556 7.18889 18.8222 6.83333 18.4667C6.47778 18.1111 6.04444 17.9333 5.53333 17.9333C5.02222 17.9333 4.58889 18.1111 4.23333 18.4667C3.87778 18.8222 3.7 19.2556 3.7 19.7667C3.7 20.2778 3.87778 20.7111 4.23333 21.0667C4.58889 21.4222 5.02222 21.6 5.53333 21.6ZM15.8 21.6C16.3111 21.6 16.7444 21.4222 17.1 21.0667C17.4556 20.7111 17.6333 20.2778 17.6333 19.7667C17.6333 19.2556 17.4556 18.8222 17.1 18.4667C16.7444 18.1111 16.3111 17.9333 15.8 17.9333C15.2889 17.9333 14.8556 18.1111 14.5 18.4667C14.1444 18.8222 13.9667 19.2556 13.9667 19.7667C13.9667 20.2778 14.1444 20.7111 14.5 21.0667C14.8556 21.4222 15.2889 21.6 15.8 21.6ZM2.96667 28C2.67778 28 2.42222 27.9167 2.2 27.75C1.97778 27.5833 1.86667 27.3667 1.86667 27.1V24.3C1.22222 23.9222 0.75 23.4 0.45 22.7333C0.15 22.0667 0 21.3667 0 20.6333V7.4C0 6.46667 0.272222 5.67222 0.816667 5.01667C1.36111 4.36111 2.20556 3.84444 3.35 3.46667C4.49444 3.08889 5.96111 2.85 7.75 2.75C9.53889 2.65 11.6667 2.66667 14.1333 2.8C14 3.13333 13.8778 3.46111 13.7667 3.78333C13.6556 4.10556 13.5667 4.44444 13.5 4.8C10.1444 4.57778 7.48889 4.62778 5.53333 4.95C3.57778 5.27222 2.4 5.8 2 6.53333H13.3667C13.3667 6.86667 13.3944 7.2 13.45 7.53333C13.5056 7.86667 13.5778 8.2 13.6667 8.53333H2V14.3H19.3667C19.5889 14.3889 19.8944 14.4667 20.2833 14.5333C20.6722 14.6 21.0222 14.6333 21.3333 14.6333V20.6333C21.3333 21.3667 21.1833 22.0667 20.8833 22.7333C20.5833 23.4 20.1111 23.9222 19.4667 24.3V27.1C19.4667 27.3667 19.3556 27.5833 19.1333 27.75C18.9111 27.9167 18.6556 28 18.3667 28H17.7333C17.4222 28 17.1556 27.9167 16.9333 27.75C16.7111 27.5833 16.6 27.3667 16.6 27.1V25.2667H4.73333V27.1C4.73333 27.3667 4.62222 27.5833 4.4 27.75C4.17778 27.9167 3.91111 28 3.6 28H2.96667ZM16.6 16.3H2H19.3333H16.6ZM21.6667 12.6667C19.9111 12.6667 18.4167 12.05 17.1833 10.8167C15.95 9.58333 15.3333 8.08889 15.3333 6.33333C15.3333 4.57778 15.95 3.08333 17.1833 1.85C18.4167 0.616667 19.9111 0 21.6667 0C23.4222 0 24.9167 0.616667 26.15 1.85C27.3833 3.08333 28 4.57778 28 6.33333C28 8.08889 27.3833 9.58333 26.15 10.8167C24.9167 12.05 23.4222 12.6667 21.6667 12.6667ZM4.73333 23.2667H16.6C17.3778 23.2667 18.0278 22.9667 18.55 22.3667C19.0722 21.7667 19.3333 21.0778 19.3333 20.3V16.3H2V20.3C2 21.0778 2.26111 21.7667 2.78333 22.3667C3.30556 22.9667 3.95556 23.2667 4.73333 23.2667Z" fill="black"/>
</svg>
