<svg width="489" height="475" viewBox="0 0 489 475" fill="none" xmlns="http://www.w3.org/2000/svg">
<g clip-path="url(#clip0_510_15)">
<path fill-rule="evenodd" clip-rule="evenodd" d="M246.271 166.958C252.541 166.398 258.836 167.712 264.359 170.733C269.881 173.754 274.383 178.346 277.294 183.927C280.205 189.508 281.394 195.828 280.711 202.085C280.028 208.343 277.503 214.257 273.456 219.079C269.41 223.9 264.023 227.412 257.979 229.17C251.934 230.928 245.504 230.853 239.503 228.954C233.501 227.055 228.198 223.417 224.266 218.502C220.333 213.587 217.947 207.615 217.411 201.344C216.694 192.96 219.329 184.634 224.738 178.189C230.147 171.744 237.89 167.706 246.271 166.958ZM4.25941 21.6235H46.0391C47.0934 21.6235 48.1045 22.0423 48.85 22.7878C49.5955 23.5333 50.0143 24.5445 50.0143 25.5988V126.808C50.0143 127.862 49.5955 128.873 48.85 129.619C48.1045 130.364 47.0934 130.783 46.0391 130.783H4.25941C3.20511 130.783 2.194 130.364 1.4485 129.619C0.702997 128.873 0.28418 127.862 0.28418 126.808V25.718C0.28418 24.6637 0.702997 23.6526 1.4485 22.9071C2.194 22.1616 3.20511 21.7428 4.25941 21.7428V21.6235ZM60.5884 39.7506C60.4724 38.008 60.9334 36.2757 61.9002 34.8213C64.5636 31.2038 71.083 32.2771 75.2172 32.2771C79.5072 32.4029 83.7983 32.0697 88.0175 31.2833C94.2374 29.6517 100.345 27.6201 106.304 25.2012C128.923 17.2508 148.202 12.083 171.776 1.74739C174.172 0.615456 176.788 0.0217909 179.439 0.00805638C182.09 -0.00567815 184.711 0.560851 187.12 1.66789C209.238 9.73545 230.602 19.7388 250.962 31.5616C255.007 33.6721 258.318 36.9562 260.463 40.9829C273.541 59.9845 284.712 79.2246 295.485 98.5044C299.102 105.262 300.573 111.702 298.108 115.717C288.011 132.294 269.844 108.721 250.406 93.0186C242.177 86.4197 230.967 80.5364 221.347 73.858C209.023 68.6902 203.18 63.7609 189.942 60.9783C169.589 59.2292 167.92 88.4471 194.673 89.5204C212.84 90.236 250.326 106.693 260.741 121.839C270.56 135.991 265.154 149.904 245.198 149.387L228.502 146.287C201.948 141.278 202.663 140.284 174.995 145.412C160.168 148.195 144.585 151.057 129.241 148.195C119.939 146.446 115.049 142.749 106.701 136.269C102.573 132.777 98.0816 129.739 93.3045 127.206C89.5012 124.943 85.4094 123.204 81.1403 122.038C74.78 120.527 65.8357 122.674 62.099 117.188C61.0973 115.549 60.5741 113.663 60.5884 111.742V39.7506ZM488.76 330.499H426.826V450.312H488.76V330.499ZM413.231 440.255V340.119H368.231C349.15 343.537 330.069 353.873 310.948 365.918H275.966C260.065 366.872 251.837 382.892 267.261 393.466C279.504 402.45 295.683 401.934 312.3 400.463C323.748 399.866 324.226 415.251 312.3 415.33C308.325 415.648 303.634 414.654 299.698 414.654C278.987 414.654 261.973 410.679 251.519 394.341L246.271 382.097L194.236 356.298C168.198 347.751 149.713 374.982 168.874 393.904C205.158 420.403 243.973 443.252 284.752 462.119C313.492 479.57 342.194 478.973 370.895 462.119L413.271 440.255H413.231ZM314.844 107.329L417.683 265.544L299.698 340.198L289.601 324.655L373.956 271.347L375.069 270.672C376.993 269.416 378.65 267.794 379.947 265.898C381.244 264.002 382.155 261.869 382.627 259.621C383.1 257.373 383.125 255.054 382.701 252.796C382.277 250.538 381.413 248.386 380.157 246.462L375.307 238.989H375.546L352.132 203.45L305.582 131.896C307.882 129.583 309.885 126.993 311.545 124.184C314.571 119.121 315.738 113.161 314.844 107.329ZM293.338 137.939L370.895 257.196L252.95 331.93L144.585 164.97C147.606 164.97 150.588 164.732 153.569 164.453C158.697 163.976 163.666 163.261 168.476 162.426L247.345 282.239C251.971 279.325 257.563 278.362 262.898 279.562C268.232 280.761 272.874 284.025 275.807 288.64L322.278 258.984C320.836 256.691 319.86 254.136 319.408 251.465C318.955 248.794 319.034 246.06 319.639 243.42C320.245 240.78 321.366 238.285 322.937 236.078C324.508 233.872 326.5 231.997 328.797 230.562L276.364 151.057C276.602 150.739 276.801 150.381 277 150.063C277.288 149.64 277.553 149.202 277.795 148.751C279.839 144.844 280.955 140.518 281.055 136.11C284.943 137.695 289.156 138.323 293.338 137.939Z" fill="#737373"/>
</g>
<defs>
<clipPath id="clip0_510_15">
<rect width="488.476" height="475" fill="white" transform="translate(0.28418)"/>
</clipPath>
</defs>
</svg>
