<svg width="36" height="36" viewBox="0 0 36 36" fill="none" xmlns="http://www.w3.org/2000/svg">
<path d="M11.25 9C10.625 9 10.0938 9.21875 9.65625 9.65625C9.21875 10.0938 9 10.625 9 11.25C9 11.875 9.21875 12.4063 9.65625 12.8438C10.0938 13.2812 10.625 13.5 11.25 13.5C11.875 13.5 12.4063 13.2812 12.8438 12.8438C13.2812 12.4063 13.5 11.875 13.5 11.25C13.5 10.625 13.2812 10.0938 12.8438 9.65625C12.4063 9.21875 11.875 9 11.25 9ZM11.25 24C10.625 24 10.0938 24.2188 9.65625 24.6562C9.21875 25.0938 9 25.625 9 26.25C9 26.875 9.21875 27.4062 9.65625 27.8438C10.0938 28.2813 10.625 28.5 11.25 28.5C11.875 28.5 12.4063 28.2813 12.8438 27.8438C13.2812 27.4062 13.5 26.875 13.5 26.25C13.5 25.625 13.2812 25.0938 12.8438 24.6562C12.4063 24.2188 11.875 24 11.25 24ZM6 4.5H30C30.425 4.5 30.7813 4.64375 31.0688 4.93125C31.3563 5.21875 31.5 5.575 31.5 6V16.5C31.5 16.925 31.3563 17.2813 31.0688 17.5688C30.7813 17.8563 30.425 18 30 18H6C5.575 18 5.21875 17.8563 4.93125 17.5688C4.64375 17.2813 4.5 16.925 4.5 16.5V6C4.5 5.575 4.64375 5.21875 4.93125 4.93125C5.21875 4.64375 5.575 4.5 6 4.5ZM7.5 7.5V15H28.5V7.5H7.5ZM6 19.5H30C30.425 19.5 30.7813 19.6438 31.0688 19.9313C31.3563 20.2188 31.5 20.575 31.5 21V31.5C31.5 31.925 31.3563 32.2813 31.0688 32.5688C30.7813 32.8563 30.425 33 30 33H6C5.575 33 5.21875 32.8563 4.93125 32.5688C4.64375 32.2813 4.5 31.925 4.5 31.5V21C4.5 20.575 4.64375 20.2188 4.93125 19.9313C5.21875 19.6438 5.575 19.5 6 19.5ZM7.5 22.5V30H28.5V22.5H7.5Z" fill="#121212"/>
</svg>
