<svg width="24" height="24" viewBox="0 0 24 24" fill="none" xmlns="http://www.w3.org/2000/svg">
<path d="M11.625 0C5.20312 0 0 5.20312 0 11.625C0 18.0469 5.20312 23.25 11.625 23.25C18.0469 23.25 23.25 18.0469 23.25 11.625C23.25 5.20312 18.0469 0 11.625 0ZM11.625 4.5C13.9031 4.5 15.75 6.34688 15.75 8.625C15.75 10.9031 13.9031 12.75 11.625 12.75C9.34688 12.75 7.5 10.9031 7.5 8.625C7.5 6.34688 9.34688 4.5 11.625 4.5ZM11.625 20.625C8.87344 20.625 6.40781 19.3781 4.75781 17.4281C5.63906 15.7687 7.36406 14.625 9.375 14.625C9.4875 14.625 9.6 14.6438 9.70781 14.6766C10.3172 14.8734 10.9547 15 11.625 15C12.2953 15 12.9375 14.8734 13.5422 14.6766C13.65 14.6438 13.7625 14.625 13.875 14.625C15.8859 14.625 17.6109 15.7687 18.4922 17.4281C16.8422 19.3781 14.3766 20.625 11.625 20.625Z" fill="#001A72"/>
</svg>
