<svg width="438" height="412" viewBox="0 0 438 412" fill="none" xmlns="http://www.w3.org/2000/svg">
<g clip-path="url(#clip0_433_50)">
<path fill-rule="evenodd" clip-rule="evenodd" d="M410.438 177.031H24.5625V108.125C24.5625 92.9105 36.9105 80.5625 52.125 80.5625H382.875C398.089 80.5625 410.438 92.9105 410.438 108.125V177.031ZM189.938 218.375C189.938 213.331 191.384 208.673 193.755 204.594H241.245C243.616 208.673 245.062 213.331 245.062 218.375C245.062 233.589 232.714 245.938 217.5 245.938C202.286 245.938 189.938 233.589 189.938 218.375ZM410.438 356.188C410.438 371.402 398.089 383.75 382.875 383.75H52.125C36.9105 383.75 24.5625 371.402 24.5625 356.188V204.594H164.332C163.174 209.018 162.375 213.579 162.375 218.375C162.375 248.818 187.057 273.5 217.5 273.5C247.943 273.5 272.625 248.818 272.625 218.375C272.625 213.579 271.826 209.018 270.668 204.594H410.438V356.188ZM162.375 39.2188C162.375 31.6115 168.549 25.4375 176.156 25.4375H258.844C266.451 25.4375 272.625 31.6115 272.625 39.2188V53H162.375V39.2188ZM382.875 53H300.188V25.4375C300.188 10.223 287.839 -2.125 272.625 -2.125H162.375C147.161 -2.125 134.812 10.223 134.812 25.4375V53H52.125C21.6822 53 -3 77.6822 -3 108.125V356.188C-3 386.63 21.6822 411.312 52.125 411.312H382.875C413.318 411.312 438 386.63 438 356.188V108.125C438 77.6822 413.318 53 382.875 53Z" fill="black"/>
</g>
<defs>
<clipPath id="clip0_433_50">
<rect width="438" height="412" fill="white"/>
</clipPath>
</defs>
</svg>
