<svg width="17" height="17" viewBox="0 0 17 17" fill="none" xmlns="http://www.w3.org/2000/svg">
<path d="M13.5 1H2.5C2.10218 1 1.72064 1.15804 1.43934 1.43934C1.15804 1.72064 1 2.10218 1 2.5V8.5C1 8.89782 1.15804 9.27936 1.43934 9.56066C1.72064 9.84196 2.10218 10 2.5 10H13.5C13.8978 10 14.2794 9.84196 14.5607 9.56066C14.842 9.27936 15 8.89782 15 8.5V2.5C15 2.10218 14.842 1.72064 14.5607 1.43934C14.2794 1.15804 13.8978 1 13.5 1ZM9.879 6.366L7.621 7.6695C7.46895 7.75729 7.29646 7.8035 7.12088 7.80347C6.9453 7.80345 6.77283 7.75721 6.62079 7.66938C6.46876 7.58156 6.34253 7.45525 6.2548 7.30317C6.16706 7.15108 6.12092 6.97858 6.121 6.803V4.197C6.12092 4.02142 6.16706 3.84892 6.2548 3.69683C6.34253 3.54475 6.46876 3.41844 6.62079 3.33062C6.77283 3.24279 6.9453 3.19655 7.12088 3.19653C7.29646 3.1965 7.46895 3.24271 7.621 3.3305L9.879 4.634C10.031 4.72177 10.1572 4.84801 10.245 5.00002C10.3328 5.15204 10.379 5.32447 10.379 5.5C10.379 5.67553 10.3328 5.84796 10.245 5.99998C10.1572 6.15199 10.031 6.27823 9.879 6.366Z" fill="black"/>
<path d="M15.4062 12.75H6.8085C6.70031 12.4395 6.49817 12.1703 6.2301 11.9798C5.96204 11.7893 5.64135 11.687 5.3125 11.687C4.98365 11.687 4.66296 11.7893 4.3949 11.9798C4.12683 12.1703 3.92469 12.4395 3.8165 12.75H1.59375C1.45285 12.75 1.31773 12.806 1.2181 12.9056C1.11847 13.0052 1.0625 13.1404 1.0625 13.2813C1.0625 13.4222 1.11847 13.5573 1.2181 13.6569C1.31773 13.7565 1.45285 13.8125 1.59375 13.8125H3.8165C3.92469 14.1231 4.12683 14.3922 4.3949 14.5827C4.66296 14.7732 4.98365 14.8755 5.3125 14.8755C5.64135 14.8755 5.96204 14.7732 6.2301 14.5827C6.49817 14.3922 6.70031 14.1231 6.8085 13.8125H15.4062C15.5471 13.8125 15.6823 13.7565 15.7819 13.6569C15.8815 13.5573 15.9375 13.4222 15.9375 13.2813C15.9375 13.1404 15.8815 13.0052 15.7819 12.9056C15.6823 12.806 15.5471 12.75 15.4062 12.75ZM5.3125 13.8125C5.20743 13.8125 5.10472 13.7814 5.01735 13.723C4.92999 13.6646 4.8619 13.5816 4.82169 13.4846C4.78148 13.3875 4.77096 13.2807 4.79146 13.1776C4.81196 13.0746 4.86255 12.9799 4.93685 12.9056C5.01115 12.8313 5.10581 12.7807 5.20886 12.7602C5.31191 12.7397 5.41873 12.7502 5.5158 12.7905C5.61287 12.8307 5.69584 12.8988 5.75422 12.9861C5.81259 13.0735 5.84375 13.1762 5.84375 13.2813C5.84375 13.4222 5.78778 13.5573 5.68815 13.6569C5.58852 13.7565 5.4534 13.8125 5.3125 13.8125Z" fill="black"/>
</svg>
