<svg width="20" height="22" viewBox="0 0 20 22" fill="none" xmlns="http://www.w3.org/2000/svg">
<path d="M9.81047 14.4852H10.1893C12.2735 14.4852 14.0418 13.1504 14.6641 11.2994C14.7544 11.03 14.5477 10.7522 14.2612 10.7522H13.0942C12.7227 10.7522 12.4225 10.4558 12.4225 10.09C12.4225 9.7231 12.7227 9.42566 13.0942 9.42566H14.2255C14.6001 9.42566 14.9034 9.12615 14.9034 8.75616C14.9034 8.38618 14.6001 8.08667 14.2255 8.08667H13.0942C12.7227 8.08667 12.4225 7.78923 12.4225 7.42339C12.4225 7.05651 12.7227 6.75907 13.0942 6.75907H14.2255C14.6001 6.75907 14.9034 6.45956 14.9034 6.08957C14.9034 5.71959 14.6001 5.42007 14.2255 5.42007H13.0942C12.7227 5.42007 12.4225 5.12263 12.4225 4.75576C12.4225 4.38992 12.7227 4.09248 13.0942 4.09248H14.321C14.6022 4.09248 14.8037 3.82716 14.7282 3.55874C14.1709 1.60103 12.3501 0.166687 10.1893 0.166687H9.81047C7.2068 0.166687 5.09637 2.2498 5.09637 4.82208V9.82985C5.09637 12.4011 7.2068 14.4852 9.81047 14.4852Z" fill="#047ED6"/>
<path opacity="0.4" d="M18.1589 8.64447C17.5796 8.64447 17.1094 9.10773 17.1094 9.68085C17.1094 13.5517 13.9202 16.7013 10.0005 16.7013C6.0798 16.7013 2.89055 13.5517 2.89055 9.68085C2.89055 9.10773 2.4204 8.64447 1.84111 8.64447C1.26181 8.64447 0.791664 9.10773 0.791664 9.68085C0.791664 14.3445 4.36607 18.1947 8.95108 18.7118V20.797C8.95108 21.3691 9.42018 21.8334 10.0005 21.8334C10.5798 21.8334 11.05 21.3691 11.05 20.797V18.7118C15.6339 18.1947 19.2083 14.3445 19.2083 9.68085C19.2083 9.10773 18.7382 8.64447 18.1589 8.64447Z" fill="#047ED6"/>
</svg>
