<svg width="36" height="32" viewBox="0 0 36 32" fill="none" xmlns="http://www.w3.org/2000/svg">
<path d="M7.05 32C6.18333 32 5.46667 31.7167 4.9 31.15C4.33333 30.5833 4.05 29.8667 4.05 29C4.05 28.4 4.2 27.825 4.5 27.275C4.8 26.725 5.23333 26.3333 5.8 26.1L14.4 22.7V15.8C12.2 18.5 9.96667 20.5333 7.7 21.9C5.43333 23.2667 2.86667 23.95 0 23.95V20.95C2.26667 20.95 4.33333 20.425 6.2 19.375C8.06667 18.325 9.75 16.85 11.25 14.95L14.15 11.7C14.4833 11.3 14.875 10.9667 15.325 10.7C15.775 10.4333 16.2667 10.3 16.8 10.3H19.2C19.7333 10.3 20.2333 10.4333 20.7 10.7C21.1667 10.9667 21.5667 11.3 21.9 11.7L24.8 14.95C26.4 16.7833 28.1 18.2417 29.9 19.325C31.7 20.4083 33.7333 20.95 36 20.95V23.95C33.1667 23.95 30.6083 23.2667 28.325 21.9C26.0417 20.5333 23.8 18.5 21.6 15.8V22.7L30.2 26.1C30.7667 26.3333 31.2 26.725 31.5 27.275C31.8 27.825 31.95 28.4 31.95 29C31.95 29.8667 31.6667 30.5833 31.1 31.15C30.5333 31.7167 29.8167 32 28.95 32H13.8V31.45C13.8 30.5833 14.0667 29.8833 14.6 29.35C15.1333 28.8167 15.8333 28.55 16.7 28.55H23.35C23.6167 28.55 23.85 28.45 24.05 28.25C24.25 28.05 24.35 27.8167 24.35 27.55C24.35 27.2833 24.25 27.05 24.05 26.85C23.85 26.65 23.6167 26.55 23.35 26.55H16.7C15.2333 26.55 14.0667 27 13.2 27.9C12.3333 28.8 11.9 29.9833 11.9 31.45V32H7.05ZM18 7.3C17 7.3 16.1417 6.94167 15.425 6.225C14.7083 5.50833 14.35 4.65 14.35 3.65C14.35 2.65 14.7083 1.79167 15.425 1.075C16.1417 0.358333 17 0 18 0C19 0 19.8583 0.358333 20.575 1.075C21.2917 1.79167 21.65 2.65 21.65 3.65C21.65 4.65 21.2917 5.50833 20.575 6.225C19.8583 6.94167 19 7.3 18 7.3Z" fill="black" fill-opacity="0.6"/>
</svg>
